<svg width="60" height="60" viewBox="0 0 60 60" fill="none" xmlns="http://www.w3.org/2000/svg">
<path fill-rule="evenodd" clip-rule="evenodd" d="M45.7031 0C54.375 0 60 5.625 60 14.2969V45.7031C60 54.375 54.375 60 45.7031 60H14.2969C5.625 60 0 54.375 0 45.7031V14.2969C0 5.625 5.625 0 14.2969 0H45.7031Z" fill="url(#paint0_linear_176_3887)"/>
<path d="M54.875 30C54.875 43.7381 43.7381 54.875 30 54.875C16.2619 54.875 5.125 43.7381 5.125 30C5.125 16.2619 16.2619 5.125 30 5.125C43.7381 5.125 54.875 16.2619 54.875 30Z" stroke="white" stroke-width="4.5"/>
<path fill-rule="evenodd" clip-rule="evenodd" d="M36.6362 31.8955L39.7413 30.1383L31.3785 15.3453C31.3785 15.3453 30.69 13.9825 29.4552 14.7177L28.5203 15.2736C28.5203 15.2736 27.3735 15.7757 28.1145 17.0667L36.6362 31.8955ZM28.1145 23.8804L25.0799 21.9438L26.359 19.828C27.0647 18.8239 28.6094 20.1131 28.6094 20.1131C29.9944 21.0903 29.2613 21.9438 29.2613 21.9438L28.1145 23.8804ZM17.1229 35.4637L20.3692 37.6692L27.9028 24.3824L24.8153 22.4279L17.1229 35.4637ZM16.8053 36.1675L19.9281 38.3058L15.4291 42.394C15.4291 42.394 15.0763 42.6809 15.1821 42.1788L16.8053 36.1675ZM39.8648 35.8044L41.5586 34.7644C41.5586 34.7644 42.1584 34.37 43.0229 35.2844C43.8874 36.1989 45.3166 39.5341 43.6758 42.2595C43.6758 42.2595 43.2875 42.9588 43.0935 41.9726C43.0935 41.9726 43.3581 40.8609 40.9586 39.5879C40.9586 39.5879 38.718 37.9381 39.4414 36.1092L39.8648 35.8044ZM40.0236 30.6941L36.9537 32.4872L38.7356 35.7327L41.8627 33.85L40.0236 30.6941ZM20.775 28.3676H14V31.9851H18.6975L20.775 28.3676ZM26.1208 28.3541H33.8882L35.9657 32.012H24.139L26.1208 28.3541ZM46.0752 28.3541H39.4987L41.4836 32.012H46.0752V28.3541Z" fill="white"/>
<defs>
<linearGradient id="paint0_linear_176_3887" x1="0" y1="0" x2="0" y2="60" gradientUnits="userSpaceOnUse">
<stop stop-color="#19D6FD"/>
<stop offset="1" stop-color="#1D64F0"/>
</linearGradient>
</defs>
</svg>
