<svg width="444" height="352" viewBox="0 0 444 352" fill="none" xmlns="http://www.w3.org/2000/svg">
<path d="M272.083 312.39L260.258 323.276L269.655 307.508C262.252 294.082 250.143 282.479 250.143 282.479C250.143 282.479 225.022 306.547 225.022 325.465C225.022 344.384 236.269 350.99 250.143 350.99C264.017 350.99 275.264 344.384 275.264 325.465C275.264 321.255 274.017 316.789 272.083 312.39Z" fill="#F2F2F2"/>
<path d="M257.217 323.865V324.797C257.162 335.637 255.334 344.094 251.747 350.05C251.696 350.137 251.64 350.22 251.59 350.308L251.188 350.063L250.805 349.823C254.784 343.393 256.192 334.303 256.243 324.848C256.248 324.543 256.252 324.234 256.248 323.925C256.234 319.922 255.989 315.873 255.597 311.94C255.569 311.636 255.537 311.326 255.504 311.017C254.96 305.828 254.175 300.87 253.372 296.563C253.316 296.258 253.256 295.953 253.196 295.653C251.807 288.368 250.389 283.092 250.066 281.924C250.029 281.781 250.006 281.702 250.001 281.684L250.44 281.559L250.445 281.554L250.888 281.43C250.892 281.448 250.971 281.711 251.1 282.201C251.594 284.029 252.878 288.992 254.138 295.538C254.193 295.833 254.253 296.138 254.309 296.443C254.964 299.937 255.606 303.843 256.114 307.942C256.243 308.972 256.358 309.987 256.46 310.989C256.497 311.299 256.529 311.608 256.557 311.913C256.982 316.164 257.202 320.148 257.217 323.865Z" fill="white"/>
<path d="M254.138 295.538C253.829 295.579 253.515 295.621 253.196 295.653C252.331 295.742 251.462 295.787 250.593 295.787C246.886 295.792 243.226 294.965 239.882 293.368C239.688 293.613 239.494 293.857 239.296 294.107C242.814 295.824 246.678 296.715 250.593 296.711C251.521 296.71 252.449 296.661 253.372 296.563C253.686 296.53 253.999 296.489 254.309 296.443C256.862 296.077 259.345 295.325 261.672 294.213C261.474 293.959 261.28 293.71 261.09 293.465C258.888 294.495 256.545 295.193 254.138 295.538Z" fill="white"/>
<path d="M256.46 310.989C256.142 311.008 255.823 311.017 255.505 311.017C255.408 311.022 255.306 311.022 255.209 311.022C251.193 311.022 247.237 310.051 243.678 308.191C240.118 306.332 237.061 303.64 234.767 300.344C234.582 300.616 234.398 300.888 234.218 301.165C236.609 304.5 239.76 307.218 243.411 309.092C247.061 310.967 251.105 311.945 255.209 311.945C255.338 311.945 255.468 311.945 255.597 311.94C255.92 311.936 256.239 311.927 256.557 311.913C261.486 311.66 266.238 309.993 270.245 307.112C270.097 306.839 269.95 306.567 269.797 306.294C265.903 309.124 261.268 310.756 256.46 310.989Z" fill="white"/>
<path d="M257.217 323.865C256.894 323.893 256.571 323.911 256.248 323.925C255.902 323.939 255.555 323.948 255.209 323.948C249.813 323.942 244.564 322.188 240.248 318.949C235.932 315.71 232.782 311.16 231.268 305.98C231.06 306.354 230.852 306.724 230.654 307.098C232.359 312.265 235.65 316.764 240.058 319.954C244.466 323.145 249.767 324.865 255.209 324.871C255.555 324.871 255.902 324.867 256.243 324.848C256.571 324.839 256.894 324.82 257.217 324.797C263.745 324.287 269.834 321.315 274.252 316.483C274.155 316.141 274.044 315.804 273.934 315.463C269.666 320.331 263.67 323.344 257.217 323.865Z" fill="white"/>
<path d="M60.6006 125.715C94.0694 125.715 121.201 98.5835 121.201 65.1147C121.201 31.646 94.0694 4.51416 60.6006 4.51416C27.1318 4.51416 0 31.646 0 65.1147C0 98.5835 27.1318 125.715 60.6006 125.715Z" fill="#E4E4E4"/>
<path d="M60.6006 115.615C88.4912 115.615 111.101 93.0054 111.101 65.1147C111.101 37.2241 88.4912 14.6143 60.6006 14.6143C32.7099 14.6143 10.1001 37.2241 10.1001 65.1147C10.1001 93.0054 32.7099 115.615 60.6006 115.615Z" fill="#007BFF"/>
<path d="M221.529 125.715C254.998 125.715 282.129 98.5835 282.129 65.1147C282.129 31.646 254.998 4.51416 221.529 4.51416C188.06 4.51416 160.928 31.646 160.928 65.1147C160.928 98.5835 188.06 125.715 221.529 125.715Z" fill="#E4E4E4"/>
<path d="M221.529 115.615C249.419 115.615 272.029 93.0054 272.029 65.1147C272.029 37.2241 249.419 14.6143 221.529 14.6143C193.638 14.6143 171.028 37.2241 171.028 65.1147C171.028 93.0054 193.638 115.615 221.529 115.615Z" fill="white"/>
<path d="M382.457 125.715C415.926 125.715 443.058 98.5835 443.058 65.1147C443.058 31.646 415.926 4.51416 382.457 4.51416C348.988 4.51416 321.856 31.646 321.856 65.1147C321.856 98.5835 348.988 125.715 382.457 125.715Z" fill="#E4E4E4"/>
<path d="M382.457 115.615C410.348 115.615 432.957 93.0054 432.957 65.1147C432.957 37.2241 410.348 14.6143 382.457 14.6143C354.566 14.6143 331.957 37.2241 331.957 65.1147C331.957 93.0054 354.566 115.615 382.457 115.615Z" fill="white"/>
<path d="M56.3094 83.3767C56.2192 83.3767 56.1288 83.3745 56.0383 83.3701C55.2396 83.3316 54.4587 83.1208 53.7491 82.7521C53.0396 82.3834 52.4182 81.8657 51.9275 81.2343L44.181 71.2744C43.279 70.112 42.8749 68.6392 43.0573 67.1793C43.2398 65.7193 43.9938 64.3913 45.1542 63.4866L45.4328 63.2696C46.5954 62.3677 48.0682 61.9636 49.5282 62.1461C50.9883 62.3285 52.3163 63.0826 53.2212 64.2429C53.6578 64.8042 54.2105 65.2647 54.8416 65.5926C55.4726 65.9205 56.1671 66.1082 56.8774 66.1429C57.5877 66.1775 58.2971 66.0582 58.9571 65.7932C59.617 65.5282 60.2119 65.1238 60.7011 64.6075L76.4305 48.0035C76.9317 47.4744 77.5323 47.0492 78.1979 46.7522C78.8634 46.4552 79.581 46.2922 80.3096 46.2725C81.0382 46.2529 81.7635 46.3769 82.4441 46.6375C83.1247 46.8982 83.7474 47.2904 84.2764 47.7917L84.5332 48.035C85.6017 49.0473 86.2242 50.4425 86.2639 51.9138C86.3036 53.3851 85.7573 54.8119 84.745 55.8803L60.3371 81.6436C59.8189 82.1912 59.1944 82.6273 58.5019 82.9253C57.8094 83.2233 57.0634 83.3769 56.3094 83.3767Z" fill="white"/>
<path d="M194.931 52.8438H155.044V18.1543C155.085 16.0064 155.976 13.9624 157.522 12.4703C159.067 10.9783 161.142 10.1601 163.29 10.1949H176.548C186.685 10.1949 194.931 18.1551 194.931 27.9395V52.8438Z" fill="#2F2E41"/>
<path d="M209.699 343.124L202.127 343.124L198.524 313.917L209.7 313.918L209.699 343.124Z" fill="#FFB6B6"/>
<path d="M211.63 350.464L187.214 350.463V350.155C187.214 347.634 188.215 345.217 189.998 343.435C191.78 341.653 194.197 340.652 196.717 340.651H196.718L211.63 340.652L211.63 350.464Z" fill="#2F2E41"/>
<path d="M139.905 343.124L132.333 343.124L128.73 313.917L139.906 313.918L139.905 343.124Z" fill="#FFB6B6"/>
<path d="M141.836 350.464L117.42 350.463V350.155C117.42 347.634 118.421 345.217 120.204 343.435C121.986 341.653 124.403 340.652 126.923 340.651H126.924L141.836 340.652L141.836 350.464Z" fill="#2F2E41"/>
<path d="M149.048 108.481L144.106 139.981L191.047 140.599L184.871 110.335L149.048 108.481Z" fill="#FFB6B6"/>
<path d="M145.469 132.29L130.518 172.099L128.666 337.074H141.327L171.592 204.525L199.386 333.613H211.739L203.092 188.467C203.092 188.467 205.642 159.334 192.592 142.143L189.415 132.966L145.469 132.29Z" fill="#2F2E41"/>
<path d="M209.598 163.323C208.291 162.967 207.078 162.329 206.045 161.453C205.011 160.577 204.182 159.485 203.616 158.255C203.05 157.024 202.761 155.684 202.769 154.33C202.776 152.975 203.081 151.638 203.661 150.414L183.692 85.3091L198.38 82.3975L216.644 146.214C218.636 147.325 220.151 149.128 220.902 151.282C221.654 153.435 221.589 155.789 220.72 157.898C219.852 160.007 218.24 161.724 216.19 162.724C214.14 163.724 211.795 163.937 209.598 163.323H209.598Z" fill="#FFB6B6"/>
<path d="M183.171 125.878L150.813 125.253C149.888 125.233 148.996 124.911 148.271 124.336C147.547 123.76 147.032 122.963 146.804 122.066C145.069 115.198 141.252 97.2997 143.277 79.4725C143.676 76.019 144.764 72.6807 146.477 69.6551C148.189 66.6295 150.491 63.9781 153.246 61.8577C156.001 59.7373 159.153 58.1911 162.516 57.3104C165.88 56.4297 169.385 56.2325 172.826 56.7305C176.455 57.2501 179.934 58.5312 183.034 60.4899C186.133 62.4485 188.784 65.0404 190.811 68.0954C192.839 71.1504 194.197 74.5996 194.798 78.2166C195.398 81.8337 195.228 85.5368 194.296 89.0832C190.223 104.551 187.923 115.617 187.458 121.974C187.389 122.893 187.022 123.764 186.411 124.455C185.801 125.146 184.981 125.617 184.077 125.798C183.808 125.851 183.535 125.878 183.261 125.879C183.231 125.879 183.201 125.878 183.171 125.878Z" fill="#E4E4E4"/>
<path d="M84.8818 68.6901C85.0761 69.1261 85.2358 69.5767 85.3593 70.0377L125.862 83.8008L133.688 76.9638L145.55 87.4264L132.872 100.877C131.847 101.963 130.498 102.688 129.027 102.943C127.556 103.197 126.041 102.968 124.711 102.289L81.3712 80.1504C79.8039 81.1118 77.981 81.5732 76.145 81.4733C74.3091 81.3734 72.547 80.717 71.0933 79.5912C69.6395 78.4655 68.5629 76.9238 68.0067 75.1713C67.4505 73.4187 67.4411 71.5384 67.9796 69.7803C68.5181 68.0223 69.5791 66.4699 71.0215 65.3296C72.4639 64.1892 74.2192 63.5151 76.0541 63.3967C77.889 63.2784 79.7164 63.7214 81.2933 64.667C82.8702 65.6126 84.1218 67.0158 84.8818 68.6901V68.6901Z" fill="#FFB6B6"/>
<path d="M125.946 81.6058C125.949 81.048 126.072 80.4975 126.308 79.9918C126.543 79.4861 126.885 79.0371 127.309 78.6754L142.14 66.0428C144.016 63.8922 146.67 62.5736 149.517 62.3764C152.365 62.1791 155.174 63.1193 157.329 64.9907C159.485 66.8621 160.81 69.5119 161.014 72.3589C161.218 75.206 160.285 78.0178 158.419 80.1777L147.858 96.6232C147.557 97.0925 147.158 97.4913 146.688 97.7925C146.219 98.0937 145.69 98.2902 145.138 98.3685C144.585 98.4469 144.023 98.4054 143.488 98.2467C142.953 98.088 142.459 97.8159 142.039 97.449L127.274 84.553C126.854 84.1862 126.517 83.733 126.288 83.2244C126.059 82.7158 125.942 82.1637 125.946 81.6058Z" fill="#E4E4E4"/>
<path d="M182.797 101.801C182.303 101.541 181.872 101.178 181.531 100.736C181.19 100.294 180.949 99.7844 180.824 99.241L176.439 80.2595C175.395 77.6034 175.446 74.6415 176.582 72.0234C177.719 69.4053 179.847 67.3446 182.5 66.2932C185.153 65.2419 188.115 65.2856 190.737 66.4149C193.358 67.5442 195.424 69.6669 196.482 72.3174L206.218 89.2648C206.495 89.7485 206.666 90.2864 206.717 90.8418C206.768 91.3972 206.699 91.9572 206.514 92.4835C206.329 93.0098 206.033 93.4901 205.646 93.8917C205.259 94.2933 204.79 94.6067 204.271 94.8107L186.025 101.979C185.505 102.183 184.948 102.273 184.391 102.242C183.834 102.211 183.291 102.061 182.797 101.801Z" fill="#E4E4E4"/>
<path d="M198.494 13.5846C199.992 10.0772 197.416 5.61457 192.739 3.61695C188.063 1.61933 183.057 2.84318 181.559 6.35054C180.061 9.85789 182.637 14.3206 187.314 16.3182C191.99 18.3158 196.996 17.0919 198.494 13.5846Z" fill="#2F2E41"/>
<path d="M183.987 39.6554C188.99 30.5037 185.626 19.0291 176.474 14.0264C167.323 9.02357 155.848 12.387 150.845 21.5387C145.843 30.6904 149.206 42.1649 158.358 47.1677C167.51 52.1705 178.984 48.8071 183.987 39.6554Z" fill="#FFB6B6"/>
<path d="M177.776 8.96781H156.175C154.591 8.94732 153.058 9.5263 151.884 10.5886C150.709 11.651 149.979 13.1181 149.841 14.6958C149.785 15.5343 149.902 16.3752 150.185 17.1666C150.467 17.958 150.909 18.683 151.483 19.2966C152.057 19.9102 152.751 20.3994 153.522 20.7338C154.293 21.0683 155.124 21.2408 155.964 21.2409C157.592 21.2409 159.153 21.8874 160.304 23.0382C161.454 24.189 162.101 25.7499 162.101 27.3774V52.5372H195.852V27.044C195.852 24.6702 195.384 22.3196 194.476 20.1265C193.568 17.9334 192.236 15.9407 190.558 14.2622C188.879 12.5837 186.886 11.2522 184.693 10.3438C182.5 9.43536 180.15 8.96781 177.776 8.96781Z" fill="#2F2E41"/>
<path d="M284.259 351.386H50.4572C50.2944 351.386 50.1383 351.322 50.0232 351.207C49.9082 351.092 49.8435 350.936 49.8435 350.773C49.8435 350.61 49.9082 350.454 50.0232 350.339C50.1383 350.224 50.2944 350.159 50.4572 350.159H284.259C284.422 350.159 284.578 350.224 284.693 350.339C284.808 350.454 284.873 350.61 284.873 350.773C284.873 350.936 284.808 351.092 284.693 351.207C284.578 351.322 284.422 351.386 284.259 351.386Z" fill="#CACACA"/>
</svg>
