<svg width="444" height="352" viewBox="0 0 444 352" fill="none" xmlns="http://www.w3.org/2000/svg">
<path d="M272.083 312.39L260.258 323.275L269.655 307.508C262.252 294.082 250.143 282.479 250.143 282.479C250.143 282.479 225.022 306.546 225.022 325.465C225.022 344.384 236.269 350.99 250.143 350.99C264.017 350.99 275.264 344.384 275.264 325.465C275.264 321.254 274.017 316.789 272.083 312.39Z" fill="#F2F2F2"/>
<path d="M257.217 323.865V324.797C257.162 335.637 255.334 344.094 251.747 350.05C251.696 350.137 251.64 350.22 251.59 350.308L251.188 350.063L250.805 349.823C254.784 343.393 256.192 334.303 256.243 324.848C256.248 324.543 256.252 324.234 256.248 323.925C256.234 319.922 255.989 315.873 255.597 311.94C255.569 311.636 255.537 311.326 255.504 311.017C254.96 305.828 254.175 300.87 253.372 296.563C253.316 296.258 253.256 295.953 253.196 295.653C251.807 288.368 250.389 283.092 250.066 281.924C250.029 281.781 250.006 281.702 250.001 281.684L250.44 281.559L250.445 281.554L250.888 281.43C250.892 281.448 250.971 281.711 251.1 282.201C251.594 284.029 252.878 288.992 254.138 295.538C254.193 295.833 254.253 296.138 254.309 296.443C254.964 299.937 255.606 303.843 256.114 307.942C256.243 308.972 256.358 309.987 256.46 310.989C256.497 311.299 256.529 311.608 256.557 311.913C256.982 316.164 257.202 320.148 257.217 323.865Z" fill="white"/>
<path d="M254.138 295.538C253.829 295.579 253.515 295.621 253.196 295.653C252.331 295.742 251.462 295.787 250.593 295.787C246.886 295.792 243.226 294.965 239.882 293.368C239.688 293.613 239.494 293.857 239.296 294.107C242.814 295.824 246.678 296.715 250.593 296.711C251.521 296.71 252.449 296.661 253.372 296.563C253.686 296.53 253.999 296.489 254.309 296.443C256.862 296.077 259.345 295.325 261.672 294.213C261.474 293.959 261.28 293.71 261.09 293.465C258.888 294.495 256.545 295.193 254.138 295.538Z" fill="white"/>
<path d="M256.46 310.989C256.142 311.008 255.823 311.017 255.505 311.017C255.408 311.022 255.306 311.022 255.209 311.022C251.193 311.022 247.237 310.051 243.678 308.191C240.118 306.332 237.061 303.64 234.767 300.344C234.582 300.616 234.398 300.888 234.218 301.165C236.609 304.5 239.76 307.218 243.411 309.092C247.061 310.967 251.105 311.945 255.209 311.945C255.338 311.945 255.468 311.945 255.597 311.94C255.92 311.936 256.239 311.927 256.557 311.913C261.486 311.66 266.238 309.993 270.245 307.112C270.097 306.839 269.95 306.567 269.797 306.294C265.903 309.124 261.268 310.756 256.46 310.989Z" fill="white"/>
<path d="M257.217 323.865C256.894 323.893 256.571 323.911 256.248 323.925C255.902 323.939 255.555 323.948 255.209 323.948C249.813 323.942 244.564 322.188 240.248 318.949C235.932 315.71 232.782 311.16 231.268 305.98C231.06 306.354 230.852 306.724 230.654 307.098C232.359 312.265 235.65 316.764 240.058 319.954C244.466 323.145 249.767 324.865 255.209 324.871C255.555 324.871 255.902 324.867 256.243 324.848C256.571 324.839 256.894 324.82 257.217 324.797C263.745 324.287 269.834 321.315 274.252 316.483C274.155 316.141 274.044 315.804 273.934 315.463C269.666 320.331 263.67 323.344 257.217 323.865Z" fill="white"/>
<path d="M60.6006 125.715C94.0694 125.715 121.201 98.5833 121.201 65.1145C121.201 31.6457 94.0694 4.51392 60.6006 4.51392C27.1318 4.51392 0 31.6457 0 65.1145C0 98.5833 27.1318 125.715 60.6006 125.715Z" fill="#E4E4E4"/>
<path d="M60.6006 115.615C88.4912 115.615 111.101 93.0051 111.101 65.1145C111.101 37.2238 88.4912 14.614 60.6006 14.614C32.7099 14.614 10.1001 37.2238 10.1001 65.1145C10.1001 93.0051 32.7099 115.615 60.6006 115.615Z" fill="#007BFF"/>
<path d="M221.529 125.715C254.998 125.715 282.129 98.5833 282.129 65.1145C282.129 31.6457 254.998 4.51392 221.529 4.51392C188.06 4.51392 160.928 31.6457 160.928 65.1145C160.928 98.5833 188.06 125.715 221.529 125.715Z" fill="#E4E4E4"/>
<path d="M221.5 116.001C249.391 116.001 272.001 93.3909 272.001 65.5002C272.001 37.6096 249.391 14.9998 221.5 14.9998C193.61 14.9998 171 37.6096 171 65.5002C171 93.3909 193.61 116.001 221.5 116.001Z" fill="#007BFF"/>
<path d="M382.457 125.715C415.926 125.715 443.058 98.5833 443.058 65.1145C443.058 31.6457 415.926 4.51392 382.457 4.51392C348.988 4.51392 321.856 31.6457 321.856 65.1145C321.856 98.5833 348.988 125.715 382.457 125.715Z" fill="#E4E4E4"/>
<path d="M382.457 115.615C410.348 115.615 432.957 93.0051 432.957 65.1145C432.957 37.2238 410.348 14.614 382.457 14.614C354.566 14.614 331.957 37.2238 331.957 65.1145C331.957 93.0051 354.566 115.615 382.457 115.615Z" fill="white"/>
<path d="M56.3097 83.3767C56.2194 83.3767 56.129 83.3745 56.0385 83.3701C55.2398 83.3316 54.4589 83.1208 53.7494 82.7521C53.0398 82.3834 52.4184 81.8657 51.9277 81.2343L44.1812 71.2744C43.2792 70.112 42.8751 68.6392 43.0576 67.1793C43.24 65.7193 43.9941 64.3913 45.1544 63.4866L45.4331 63.2696C46.5956 62.3677 48.0684 61.9636 49.5285 62.1461C50.9885 62.3285 52.3166 63.0826 53.2214 64.2429C53.658 64.8042 54.2108 65.2647 54.8418 65.5926C55.4728 65.9205 56.1673 66.1082 56.8776 66.1429C57.588 66.1775 58.2974 66.0582 58.9573 65.7932C59.6173 65.5282 60.2122 65.1238 60.7013 64.6075L76.4307 48.0035C76.932 47.4744 77.5325 47.0492 78.1981 46.7522C78.8637 46.4552 79.5812 46.2922 80.3098 46.2725C81.0384 46.2529 81.7637 46.3769 82.4444 46.6375C83.125 46.8982 83.7476 47.2904 84.2767 47.7917L84.5335 48.035C85.6019 49.0473 86.2244 50.4425 86.2642 51.9138C86.3039 53.3851 85.7575 54.8119 84.7452 55.8803L60.3373 81.6436C59.8191 82.1912 59.1947 82.6273 58.5021 82.9253C57.8096 83.2233 57.0636 83.3769 56.3097 83.3767Z" fill="white"/>
<path d="M213.295 84.1062C213.205 84.1062 213.114 84.104 213.024 84.0996C212.225 84.0611 211.444 83.8503 210.735 83.4816C210.025 83.1129 209.404 82.5952 208.913 81.9638L201.167 72.0039C200.265 70.8415 199.86 69.3687 200.043 67.9088C200.225 66.4488 200.979 65.1208 202.14 64.2161L202.418 63.9991C203.581 63.0972 205.054 62.6931 206.514 62.8756C207.974 63.058 209.302 63.8121 210.207 64.9724C210.643 65.5337 211.196 65.9941 211.827 66.3221C212.458 66.65 213.153 66.8377 213.863 66.8724C214.573 66.907 215.283 66.7877 215.943 66.5227C216.603 66.2577 217.198 65.8533 217.687 65.337L233.416 48.733C233.917 48.2039 234.518 47.7787 235.183 47.4817C235.849 47.1847 236.567 47.0217 237.295 47.002C238.024 46.9824 238.749 47.1064 239.43 47.367C240.11 47.6277 240.733 48.0199 241.262 48.5212L241.519 48.7645C242.587 49.7768 243.21 51.172 243.25 52.6433C243.289 54.1146 242.743 55.5414 241.731 56.6098L217.323 82.3731C216.804 82.9207 216.18 83.3568 215.487 83.6548C214.795 83.9528 214.049 84.1063 213.295 84.1062Z" fill="white"/>
<path d="M194.931 52.8438H155.044V18.1543C155.085 16.0064 155.976 13.9624 157.522 12.4703C159.067 10.9783 161.142 10.1601 163.29 10.1949H176.548C186.685 10.1949 194.931 18.1551 194.931 27.9395V52.8438Z" fill="#2F2E41"/>
<path d="M209.699 343.125L202.127 343.124L198.524 313.917L209.7 313.918L209.699 343.125Z" fill="#FFB6B6"/>
<path d="M211.63 350.464L187.214 350.463V350.155C187.214 347.634 188.215 345.217 189.998 343.435C191.78 341.653 194.197 340.652 196.717 340.651H196.718L211.63 340.652L211.63 350.464Z" fill="#2F2E41"/>
<path d="M139.905 343.125L132.333 343.124L128.73 313.917L139.906 313.918L139.905 343.125Z" fill="#FFB6B6"/>
<path d="M141.836 350.464L117.42 350.463V350.155C117.42 347.634 118.421 345.217 120.204 343.435C121.986 341.653 124.403 340.652 126.923 340.651H126.924L141.836 340.652L141.836 350.464Z" fill="#2F2E41"/>
<path d="M149.048 108.481L144.106 139.981L191.047 140.599L184.871 110.335L149.048 108.481Z" fill="#FFB6B6"/>
<path d="M145.469 132.29L130.518 172.099L128.666 337.073H141.327L171.592 204.525L199.386 333.613H211.739L203.092 188.466C203.092 188.466 205.642 159.334 192.592 142.143L189.415 132.966L145.469 132.29Z" fill="#2F2E41"/>
<path d="M209.598 163.323C208.291 162.967 207.078 162.328 206.045 161.453C205.011 160.577 204.182 159.485 203.616 158.255C203.05 157.024 202.761 155.684 202.769 154.329C202.776 152.975 203.081 151.638 203.661 150.414L183.692 85.3088L198.38 82.3972L216.644 146.214C218.636 147.325 220.151 149.128 220.902 151.281C221.654 153.435 221.589 155.789 220.72 157.898C219.852 160.007 218.24 161.724 216.19 162.724C214.14 163.724 211.795 163.937 209.598 163.323H209.598Z" fill="#FFB6B6"/>
<path d="M183.171 125.878L150.813 125.253C149.888 125.233 148.996 124.911 148.271 124.336C147.547 123.76 147.032 122.963 146.804 122.066C145.069 115.198 141.252 97.2997 143.277 79.4725C143.676 76.019 144.764 72.6807 146.477 69.6551C148.189 66.6295 150.491 63.9781 153.246 61.8577C156.001 59.7373 159.153 58.1911 162.516 57.3104C165.88 56.4297 169.385 56.2325 172.826 56.7305C176.455 57.2501 179.934 58.5312 183.034 60.4899C186.133 62.4485 188.784 65.0404 190.811 68.0954C192.839 71.1504 194.197 74.5996 194.798 78.2166C195.398 81.8337 195.228 85.5368 194.296 89.0832C190.223 104.551 187.923 115.617 187.458 121.974C187.389 122.893 187.022 123.764 186.411 124.455C185.801 125.146 184.981 125.617 184.077 125.798C183.808 125.851 183.535 125.878 183.261 125.879C183.231 125.879 183.201 125.878 183.171 125.878Z" fill="#E4E4E4"/>
<path d="M84.8818 68.6901C85.0761 69.1261 85.2358 69.5767 85.3593 70.0377L125.862 83.8008L133.688 76.9638L145.55 87.4264L132.872 100.877C131.847 101.963 130.498 102.688 129.027 102.943C127.556 103.197 126.041 102.968 124.711 102.289L81.3712 80.1504C79.8039 81.1118 77.981 81.5732 76.145 81.4733C74.3091 81.3734 72.547 80.717 71.0933 79.5912C69.6395 78.4655 68.5629 76.9238 68.0067 75.1713C67.4505 73.4187 67.4411 71.5384 67.9796 69.7803C68.5181 68.0223 69.5791 66.4699 71.0215 65.3296C72.4639 64.1892 74.2192 63.5151 76.0541 63.3967C77.889 63.2784 79.7164 63.7214 81.2933 64.667C82.8702 65.6126 84.1218 67.0158 84.8818 68.6901V68.6901Z" fill="#FFB6B6"/>
<path d="M125.946 81.606C125.949 81.0483 126.072 80.4977 126.308 79.992C126.543 79.4863 126.885 79.0373 127.309 78.6757L142.14 66.0431C144.016 63.8924 146.67 62.5739 149.517 62.3766C152.365 62.1794 155.174 63.1196 157.329 64.9909C159.485 66.8623 160.81 69.5121 161.014 72.3592C161.218 75.2062 160.285 78.0181 158.419 80.178L147.858 96.6234C147.557 97.0927 147.158 97.4916 146.688 97.7928C146.219 98.094 145.69 98.2904 145.138 98.3688C144.585 98.4472 144.023 98.4056 143.488 98.2469C142.953 98.0882 142.459 97.8162 142.039 97.4493L127.274 84.5532C126.854 84.1864 126.517 83.7333 126.288 83.2246C126.059 82.716 125.942 82.1639 125.946 81.606Z" fill="#E4E4E4"/>
<path d="M182.797 101.8C182.303 101.541 181.872 101.178 181.531 100.736C181.19 100.294 180.949 99.7842 180.824 99.2407L176.439 80.2592C175.395 77.6031 175.446 74.6413 176.582 72.0232C177.719 69.405 179.847 67.3444 182.5 66.293C185.153 65.2416 188.115 65.2854 190.737 66.4147C193.358 67.544 195.424 69.6667 196.482 72.3172L206.218 89.2646C206.495 89.7482 206.666 90.2861 206.717 90.8415C206.768 91.397 206.699 91.9569 206.514 92.4832C206.329 93.0095 206.033 93.4898 205.646 93.8914C205.259 94.293 204.79 94.6065 204.271 94.8105L186.025 101.979C185.505 102.183 184.948 102.273 184.391 102.242C183.834 102.211 183.291 102.061 182.797 101.8Z" fill="#E4E4E4"/>
<path d="M198.494 13.5846C199.992 10.0772 197.416 5.61457 192.739 3.61695C188.063 1.61933 183.057 2.84318 181.559 6.35054C180.061 9.85789 182.637 14.3206 187.314 16.3182C191.99 18.3158 196.996 17.0919 198.494 13.5846Z" fill="#2F2E41"/>
<path d="M183.987 39.6554C188.99 30.5037 185.626 19.0291 176.474 14.0264C167.323 9.02357 155.848 12.387 150.845 21.5387C145.843 30.6904 149.206 42.1649 158.358 47.1677C167.51 52.1705 178.984 48.8071 183.987 39.6554Z" fill="#FFB6B6"/>
<path d="M177.776 8.96781H156.175C154.591 8.94732 153.058 9.5263 151.884 10.5886C150.709 11.651 149.979 13.1181 149.841 14.6958C149.785 15.5343 149.902 16.3752 150.185 17.1666C150.467 17.958 150.909 18.683 151.483 19.2966C152.057 19.9102 152.751 20.3994 153.522 20.7338C154.293 21.0683 155.124 21.2408 155.964 21.2409C157.592 21.2409 159.153 21.8874 160.304 23.0382C161.454 24.189 162.101 25.7499 162.101 27.3774V52.5372H195.852V27.044C195.852 24.6702 195.384 22.3196 194.476 20.1265C193.568 17.9334 192.236 15.9407 190.558 14.2622C188.879 12.5837 186.886 11.2522 184.693 10.3438C182.5 9.43536 180.15 8.96781 177.776 8.96781Z" fill="#2F2E41"/>
<path d="M284.259 351.386H50.4574C50.2947 351.386 50.1386 351.322 50.0235 351.206C49.9084 351.091 49.8438 350.935 49.8438 350.773C49.8438 350.61 49.9084 350.454 50.0235 350.339C50.1386 350.224 50.2947 350.159 50.4574 350.159H284.259C284.422 350.159 284.578 350.224 284.693 350.339C284.808 350.454 284.873 350.61 284.873 350.773C284.873 350.935 284.808 351.091 284.693 351.206C284.578 351.322 284.422 351.386 284.259 351.386Z" fill="#CACACA"/>
</svg>
