<svg width="443" height="351" viewBox="0 0 443 351" fill="none" xmlns="http://www.w3.org/2000/svg">
<path d="M272.047 312.046L260.224 322.92L269.62 307.17C262.218 293.759 250.111 282.168 250.111 282.168C250.111 282.168 224.993 306.209 224.993 325.107C224.993 344.005 236.239 350.604 250.111 350.604C263.983 350.604 275.228 344.005 275.228 325.107C275.228 320.901 273.982 316.44 272.047 312.046Z" fill="#F2F2F2"/>
<path d="M257.184 323.508V324.44C257.129 335.268 255.301 343.716 251.714 349.664C251.663 349.752 251.608 349.835 251.557 349.923L251.155 349.678L250.772 349.439C254.751 343.015 256.159 333.935 256.21 324.491C256.215 324.186 256.22 323.877 256.215 323.568C256.201 319.57 255.956 315.526 255.564 311.597C255.536 311.293 255.504 310.984 255.472 310.675C254.927 305.492 254.142 300.539 253.339 296.236C253.283 295.932 253.223 295.628 253.163 295.328C251.774 288.051 250.357 282.78 250.033 281.614C249.996 281.471 249.973 281.392 249.969 281.374L250.407 281.249L250.412 281.245L250.855 281.12C250.86 281.139 250.938 281.401 251.067 281.89C251.561 283.716 252.845 288.674 254.105 295.213C254.161 295.508 254.221 295.812 254.276 296.116C254.931 299.607 255.573 303.509 256.081 307.604C256.21 308.632 256.326 309.646 256.427 310.647C256.464 310.956 256.496 311.265 256.524 311.569C256.949 315.817 257.169 319.796 257.184 323.508Z" fill="white"/>
<path d="M254.105 295.213C253.796 295.254 253.482 295.296 253.163 295.328C252.298 295.417 251.429 295.462 250.56 295.462C246.854 295.467 243.195 294.641 239.851 293.045C239.657 293.29 239.463 293.534 239.265 293.783C242.782 295.499 246.646 296.388 250.56 296.384C251.488 296.384 252.416 296.335 253.339 296.236C253.652 296.204 253.966 296.163 254.276 296.117C256.828 295.751 259.311 295 261.638 293.889C261.44 293.636 261.246 293.387 261.056 293.142C258.854 294.171 256.511 294.868 254.105 295.213Z" fill="white"/>
<path d="M256.427 310.647C256.108 310.666 255.79 310.675 255.471 310.675C255.375 310.68 255.273 310.68 255.176 310.68C251.161 310.68 247.205 309.71 243.646 307.853C240.087 305.995 237.031 303.306 234.737 300.013C234.552 300.285 234.368 300.558 234.188 300.834C236.578 304.166 239.729 306.88 243.379 308.752C247.029 310.625 251.073 311.602 255.176 311.602C255.305 311.602 255.435 311.602 255.564 311.597C255.887 311.593 256.205 311.583 256.524 311.57C261.452 311.317 266.204 309.652 270.21 306.774C270.062 306.502 269.915 306.23 269.762 305.958C265.869 308.784 261.234 310.414 256.427 310.647Z" fill="white"/>
<path d="M257.184 323.509C256.861 323.536 256.538 323.555 256.215 323.568C255.868 323.582 255.522 323.592 255.176 323.592C249.781 323.585 244.532 321.833 240.217 318.598C235.902 315.362 232.751 310.818 231.238 305.644C231.03 306.017 230.823 306.386 230.624 306.76C232.329 311.922 235.619 316.415 240.027 319.602C244.434 322.789 249.735 324.508 255.176 324.514C255.522 324.514 255.868 324.509 256.21 324.491C256.538 324.482 256.861 324.463 257.184 324.44C263.71 323.93 269.799 320.961 274.217 316.135C274.12 315.794 274.009 315.457 273.898 315.116C269.631 319.978 263.636 322.989 257.184 323.509Z" fill="white"/>
<path d="M60.5927 125.577C94.0571 125.577 121.185 98.4752 121.185 65.0432C121.185 31.6112 94.0571 4.50928 60.5927 4.50928C27.1283 4.50928 0 31.6112 0 65.0432C0 98.4752 27.1283 125.577 60.5927 125.577Z" fill="#E4E4E4"/>
<path d="M60.5926 115.488C88.4796 115.488 111.086 92.903 111.086 65.0431C111.086 37.1831 88.4796 14.5981 60.5926 14.5981C32.7055 14.5981 10.0986 37.1831 10.0986 65.0431C10.0986 92.903 32.7055 115.488 60.5926 115.488Z" fill="#007BFF"/>
<path d="M221.5 125.577C254.964 125.577 282.093 98.4751 282.093 65.0432C282.093 31.6112 254.964 4.50928 221.5 4.50928C188.035 4.50928 160.907 31.6112 160.907 65.0432C160.907 98.4751 188.035 125.577 221.5 125.577Z" fill="#E4E4E4"/>
<path d="M221.471 115.873C249.358 115.873 271.965 93.2883 271.965 65.4283C271.965 37.5684 249.358 14.9834 221.471 14.9834C193.584 14.9834 170.978 37.5684 170.978 65.4283C170.978 93.2883 193.584 115.873 221.471 115.873Z" fill="#007BFF"/>
<path d="M382.407 125.577C415.872 125.577 443 98.4751 443 65.0432C443 31.6112 415.872 4.50928 382.407 4.50928C348.943 4.50928 321.814 31.6112 321.814 65.0432C321.814 98.4751 348.943 125.577 382.407 125.577Z" fill="#E4E4E4"/>
<path d="M382.451 115.873C410.338 115.873 432.945 93.2883 432.945 65.4283C432.945 37.5684 410.338 14.9834 382.451 14.9834C354.564 14.9834 331.957 37.5684 331.957 65.4283C331.957 93.2883 354.564 115.873 382.451 115.873Z" fill="#007BFF"/>
<path d="M56.3031 83.2851C56.2128 83.2851 56.1225 83.2829 56.0319 83.2785C55.2334 83.24 54.4526 83.0294 53.7431 82.6612C53.0336 82.2929 52.4123 81.7757 51.9217 81.145L44.1762 71.1961C43.2743 70.035 42.8702 68.5639 43.0527 67.1055C43.2351 65.6471 43.9891 64.3206 45.1493 63.4169L45.4279 63.2002C46.5903 62.2992 48.0629 61.8956 49.5227 62.0778C50.9826 62.2601 52.3105 63.0133 53.2152 64.1723C53.6517 64.7331 54.2044 65.193 54.8354 65.5205C55.4663 65.8481 56.1607 66.0356 56.8709 66.0702C57.5812 66.1048 58.2905 65.9857 58.9504 65.721C59.6102 65.4563 60.2051 65.0522 60.6941 64.5366L76.4215 47.9508C76.9227 47.4223 77.5232 46.9976 78.1887 46.7009C78.8541 46.4042 79.5716 46.2414 80.3001 46.2217C81.0286 46.2021 81.7538 46.326 82.4343 46.5864C83.1149 46.8467 83.7374 47.2385 84.2664 47.7392L84.5232 47.9823C85.5915 48.9934 86.2139 50.3871 86.2537 51.8568C86.2934 53.3265 85.7471 54.7517 84.7349 55.819L60.3302 81.5539C59.812 82.1009 59.1877 82.5365 58.4952 82.8342C57.8028 83.1318 57.0569 83.2853 56.3031 83.2851Z" fill="white"/>
<path d="M213.268 84.0136C213.178 84.0136 213.087 84.0114 212.997 84.007C212.198 83.9685 211.417 83.758 210.708 83.3897C209.998 83.0215 209.377 82.5042 208.887 81.8736L201.141 71.9246C200.239 70.7635 199.835 69.2924 200.018 67.834C200.2 66.3756 200.954 65.0491 202.114 64.1454L202.393 63.9287C203.555 63.0277 205.028 62.6241 206.488 62.8063C207.947 62.9886 209.275 63.7418 210.18 64.9008C210.617 65.4616 211.169 65.9215 211.8 66.2491C212.431 66.5766 213.126 66.7641 213.836 66.7987C214.546 66.8333 215.255 66.7142 215.915 66.4495C216.575 66.1848 217.17 65.7808 217.659 65.2651L233.386 48.6794C233.888 48.1508 234.488 47.7261 235.153 47.4294C235.819 47.1327 236.536 46.9699 237.265 46.9503C237.993 46.9306 238.719 47.0545 239.399 47.3149C240.08 47.5752 240.702 47.967 241.231 48.4677L241.488 48.7108C242.556 49.7219 243.179 51.1157 243.218 52.5853C243.258 54.055 242.712 55.4802 241.7 56.5475L217.295 82.2824C216.777 82.8294 216.153 83.265 215.46 83.5627C214.768 83.8603 214.022 84.0138 213.268 84.0136Z" fill="white"/>
<path d="M374.246 84.0136C374.156 84.0136 374.066 84.0114 373.975 84.007C373.177 83.9685 372.396 83.758 371.686 83.3897C370.977 83.0215 370.356 82.5042 369.865 81.8736L362.12 71.9246C361.218 70.7635 360.814 69.2924 360.996 67.834C361.178 66.3756 361.932 65.0491 363.093 64.1454L363.371 63.9287C364.534 63.0277 366.006 62.6241 367.466 62.8063C368.926 62.9886 370.254 63.7418 371.159 64.9008C371.595 65.4616 372.148 65.9215 372.779 66.2491C373.41 66.5766 374.104 66.7641 374.814 66.7987C375.525 66.8333 376.234 66.7142 376.894 66.4495C377.554 66.1848 378.148 65.7808 378.637 65.2651L394.365 48.6794C394.866 48.1508 395.467 47.7261 396.132 47.4294C396.798 47.1327 397.515 46.9699 398.243 46.9503C398.972 46.9306 399.697 47.0545 400.378 47.3149C401.058 47.5752 401.681 47.967 402.21 48.4677L402.467 48.7108C403.535 49.7219 404.157 51.1157 404.197 52.5853C404.237 54.055 403.69 55.4802 402.678 56.5475L378.274 82.2824C377.755 82.8294 377.131 83.265 376.439 83.5627C375.746 83.8603 375 84.0138 374.246 84.0136Z" fill="white"/>
<path d="M194.906 52.7857H155.023V18.1343C155.064 15.9887 155.955 13.947 157.501 12.4566C159.046 10.9662 161.12 10.1489 163.268 10.1837H176.525C186.66 10.1837 194.906 18.1351 194.906 27.9088V52.7857Z" fill="#2F2E41"/>
<path d="M209.671 342.747L202.1 342.746L198.498 313.572L209.672 313.572L209.671 342.747Z" fill="#FFB6B6"/>
<path d="M211.602 350.079L187.189 350.078V349.769C187.19 347.252 188.191 344.837 189.973 343.057C191.755 341.277 194.172 340.277 196.692 340.277H196.692L211.603 340.277L211.602 350.079Z" fill="#2F2E41"/>
<path d="M139.887 342.747L132.316 342.746L128.714 313.572L139.888 313.572L139.887 342.747Z" fill="#FFB6B6"/>
<path d="M141.817 350.079L117.404 350.078V349.769C117.404 347.252 118.406 344.837 120.188 343.057C121.97 341.277 124.386 340.277 126.906 340.277H126.907L141.818 340.277L141.817 350.079Z" fill="#2F2E41"/>
<path d="M149.028 108.362L144.088 139.827L191.023 140.444L184.847 110.213L149.028 108.362Z" fill="#FFB6B6"/>
<path d="M145.45 132.145L130.501 171.91L128.648 336.703H141.309L171.569 204.3L199.36 333.246H211.711L203.065 188.259C203.065 188.259 205.615 159.159 192.566 141.987L189.39 132.82L145.45 132.145Z" fill="#2F2E41"/>
<path d="M209.571 163.144C208.264 162.788 207.051 162.15 206.018 161.275C204.984 160.401 204.156 159.31 203.59 158.081C203.024 156.851 202.734 155.513 202.742 154.16C202.75 152.807 203.055 151.472 203.635 150.249L183.668 85.2153L198.354 82.3069L216.616 146.053C218.608 147.163 220.122 148.964 220.874 151.115C221.625 153.266 221.56 155.618 220.692 157.725C219.823 159.831 218.212 161.546 216.162 162.545C214.112 163.544 211.767 163.757 209.571 163.144H209.571Z" fill="#FFB6B6"/>
<path d="M183.148 125.739L150.794 125.115C149.869 125.096 148.977 124.774 148.253 124.199C147.528 123.624 147.013 122.828 146.785 121.932C145.051 115.072 141.235 97.1927 143.259 79.3852C143.658 75.9355 144.746 72.6009 146.458 69.5786C148.17 66.5563 150.472 63.9078 153.226 61.7898C155.981 59.6717 159.133 58.1272 162.496 57.2474C165.859 56.3677 169.364 56.1707 172.804 56.6682C176.433 57.1872 179.911 58.467 183.01 60.4234C186.11 62.3799 188.76 64.9689 190.787 68.0206C192.814 71.0723 194.172 74.5176 194.773 78.1307C195.374 81.7437 195.203 85.4428 194.272 88.9853C190.199 104.436 187.899 115.49 187.434 121.84C187.366 122.758 186.998 123.628 186.387 124.318C185.777 125.008 184.957 125.479 184.054 125.66C183.785 125.713 183.512 125.74 183.238 125.74C183.207 125.74 183.178 125.74 183.148 125.739Z" fill="#E4E4E4"/>
<path d="M84.8712 68.6145C85.0655 69.0499 85.2252 69.5 85.3487 69.9606L125.846 83.7086L133.671 76.879L145.532 87.3301L132.855 100.765C131.831 101.851 130.482 102.575 129.011 102.829C127.539 103.084 126.025 102.854 124.696 102.176L81.3611 80.0621C79.794 81.0224 77.9714 81.4834 76.1356 81.3836C74.2999 81.2838 72.5381 80.6281 71.0845 79.5036C69.6309 78.379 68.5545 76.8391 67.9984 75.0885C67.4422 73.3379 67.4328 71.4596 67.9712 69.7035C68.5097 67.9474 69.5706 66.3967 71.0128 65.2576C72.4549 64.1185 74.2101 63.4451 76.0447 63.3269C77.8793 63.2086 79.7065 63.6512 81.2832 64.5958C82.8599 65.5403 84.1114 66.942 84.8712 68.6145V68.6145Z" fill="#FFB6B6"/>
<path d="M125.93 81.516C125.933 80.9588 126.056 80.4089 126.292 79.9038C126.527 79.3986 126.869 78.9501 127.293 78.5889L142.122 65.9702C143.998 63.8219 146.651 62.5048 149.498 62.3077C152.345 62.1107 155.154 63.0499 157.309 64.9192C159.464 66.7885 160.789 69.4354 160.993 72.2793C161.198 75.1232 160.265 77.932 158.399 80.0895L147.839 96.5169C147.538 96.9857 147.139 97.3841 146.669 97.6849C146.2 97.9858 145.671 98.182 145.119 98.2603C144.567 98.3386 144.004 98.2971 143.47 98.1386C142.935 97.9801 142.441 97.7083 142.021 97.3418L127.258 84.4599C126.837 84.0936 126.501 83.6409 126.272 83.1328C126.043 82.6248 125.926 82.0733 125.93 81.516Z" fill="#E4E4E4"/>
<path d="M182.773 101.689C182.279 101.429 181.847 101.067 181.507 100.625C181.166 100.184 180.925 99.6747 180.8 99.1318L176.415 80.1713C175.371 77.5181 175.423 74.5595 176.559 71.9442C177.695 69.329 179.823 67.2706 182.476 66.2204C185.129 65.1702 188.09 65.2139 190.711 66.3419C193.332 67.47 195.398 69.5903 196.456 72.238L206.19 89.1667C206.468 89.6498 206.638 90.1871 206.689 90.7419C206.741 91.2967 206.671 91.8561 206.487 92.3818C206.302 92.9075 206.006 93.3873 205.619 93.7885C205.232 94.1896 204.763 94.5027 204.244 94.7065L186 101.867C185.481 102.071 184.924 102.161 184.367 102.13C183.81 102.099 183.266 101.949 182.773 101.689Z" fill="#E4E4E4"/>
<path d="M198.467 13.5697C199.965 10.0662 197.389 5.60845 192.713 3.61302C188.038 1.6176 183.033 2.84011 181.535 6.34361C180.037 9.8471 182.613 14.3049 187.289 16.3003C191.965 18.2957 196.969 17.0732 198.467 13.5697Z" fill="#2F2E41"/>
<path d="M183.963 39.6117C188.965 30.47 185.602 19.0081 176.451 14.0109C167.301 9.01357 155.828 12.3733 150.826 21.5149C145.824 30.6566 149.187 42.1185 158.337 47.1158C167.488 52.1131 178.961 48.7534 183.963 39.6117Z" fill="#FFB6B6"/>
<path d="M177.753 8.95804H156.155C154.571 8.93757 153.039 9.51592 151.864 10.5771C150.69 11.6383 149.96 13.1038 149.822 14.6798C149.766 15.5173 149.883 16.3573 150.166 17.1478C150.448 17.9383 150.89 18.6625 151.464 19.2754C152.038 19.8884 152.732 20.377 153.503 20.7111C154.273 21.0452 155.104 21.2176 155.945 21.2176C157.572 21.2176 159.133 21.8634 160.283 23.013C161.434 24.1625 162.08 25.7217 162.08 27.3474V52.4795H195.827V27.0143C195.827 24.6431 195.359 22.2952 194.451 20.1045C193.543 17.9138 192.212 15.9233 190.533 14.2466C188.855 12.5699 186.862 11.2399 184.67 10.3325C182.477 9.42508 180.127 8.95804 177.753 8.95804Z" fill="#2F2E41"/>
<path d="M284.223 351H50.4515C50.2887 351 50.1327 350.935 50.0176 350.82C49.9025 350.705 49.8379 350.549 49.8379 350.387C49.8379 350.224 49.9025 350.068 50.0176 349.953C50.1327 349.839 50.2887 349.774 50.4515 349.774H284.223C284.386 349.774 284.542 349.839 284.657 349.953C284.772 350.068 284.837 350.224 284.837 350.387C284.837 350.549 284.772 350.705 284.657 350.82C284.542 350.935 284.386 351 284.223 351Z" fill="#CACACA"/>
</svg>
