<svg width="24" height="18" viewBox="0 0 24 18" fill="none" xmlns="http://www.w3.org/2000/svg">
<path d="M2.76923 0C1.24062 0 0 1.344 0 3V15C0 16.656 1.24062 18 2.76923 18H21.2308C22.7594 18 24 16.656 24 15V3C24 1.344 22.7594 0 21.2308 0H2.76923ZM2.76923 2H21.2308C21.7394 2 22.1538 2.449 22.1538 3V3.5L12 9.438L1.84615 3.5V3C1.84615 2.449 2.26062 2 2.76923 2ZM1.84615 3.781L7.87477 8.875L1.96154 15.438L9.17354 9.875L12 11.844L14.8274 9.875L22.0385 15.438L16.1252 8.875L22.1538 3.781V15C22.1487 15.154 22.1091 15.3043 22.0385 15.438C21.8862 15.763 21.5898 16 21.2308 16H2.76923C2.41015 16 2.11385 15.763 1.96154 15.437C1.891 15.3036 1.85141 15.1536 1.84615 15V3.781Z" fill="#646464"/>
</svg>
