<svg width="48" height="46" viewBox="0 0 48 46" fill="none" xmlns="http://www.w3.org/2000/svg">
<rect width="48" height="46" rx="23" fill="#007BFF"/>
<path d="M30.7812 22.75C30.7812 19.0039 27.7461 15.9688 24 15.9688C20.2539 15.9688 17.2188 19.0039 17.2188 22.75C17.2188 26.1406 19.6797 28.957 22.9336 29.4492V24.7188H21.2109V22.75H22.9336V21.2734C22.9336 19.5781 23.9453 18.6211 25.4766 18.6211C26.2422 18.6211 27.0078 18.7578 27.0078 18.7578V20.4258H26.1602C25.3125 20.4258 25.0391 20.9453 25.0391 21.4922V22.75H26.9258L26.625 24.7188H25.0391V29.4492C28.293 28.957 30.7812 26.1406 30.7812 22.75Z" fill="white"/>
</svg>
