<svg width="60" height="60" viewBox="0 0 60 60" fill="none" xmlns="http://www.w3.org/2000/svg">
<path d="M44.2653 39.2415C51.8752 35.3315 57.6441 32.3521 58.1413 32.1204C59.732 31.3289 61.3747 29.2338 58.1413 27.6064C57.0973 27.0946 51.4766 24.208 44.2653 20.4854L34.2683 29.933L44.2653 39.2413V39.2415Z" fill="#FFD900"/>
<path d="M34.2683 29.9331L2.43677 59.9538C3.18393 60.0463 4.02744 59.861 5.02193 59.3494C7.10985 58.2799 29.2438 46.9689 44.2653 39.2438L34.2683 29.9331Z" fill="#F43249"/>
<path d="M34.2682 29.9331L44.2652 20.532C44.2652 20.532 7.26074 1.63435 5.02184 0.518806C4.17833 0.0513063 3.23307 -0.0875615 2.38721 0.0513063L34.2682 29.9331Z" fill="#00EE76"/>
<path d="M34.2683 29.9331L2.3873 0.0512695C1.09343 0.331199 0 1.4009 0 3.58856V56.4164C0 58.4187 0.846093 59.8609 2.43677 60L34.2683 29.9331Z" fill="#00D3FF"/>
</svg>
