<svg width="84" height="84" viewBox="0 0 84 84" fill="none" xmlns="http://www.w3.org/2000/svg">
<path fill-rule="evenodd" clip-rule="evenodd" d="M66.6603 52.7314L63.1626 56.1091C62.7216 56.5349 61.9888 56.498 61.5342 56.0272L57.8839 52.2473C57.4292 51.7764 57.4179 51.0427 57.8588 50.6169L61.3565 47.2392C61.7975 46.8134 62.5303 46.8503 62.985 47.3211L66.6353 51.1011C67.09 51.5719 67.1012 52.3056 66.6603 52.7314Z" fill="#FAAD14"/>
<path fill-rule="evenodd" clip-rule="evenodd" d="M70.9703 30.465L71.0551 35.3266C71.0658 35.9395 70.5391 36.4503 69.8846 36.4617L64.6307 36.5534C63.9762 36.5649 63.4319 36.0728 63.4212 35.4599L63.3364 30.5983C63.3257 29.9854 63.8524 29.4745 64.5069 29.4631L69.7609 29.3714C70.4153 29.36 70.9596 29.8521 70.9703 30.465Z" fill="#FAAD14"/>
<path fill-rule="evenodd" clip-rule="evenodd" d="M58.4141 9.89599L62.6251 12.3272C63.1559 12.6337 63.3224 13.3483 62.9952 13.9151L60.3678 18.4659C60.0405 19.0327 59.3384 19.2458 58.8075 18.9393L54.5966 16.5081C54.0657 16.2017 53.8992 15.487 54.2264 14.9201L56.8538 10.3694C57.1811 9.80255 57.8833 9.5895 58.4141 9.89599Z" fill="#FAAD14"/>
<path fill-rule="evenodd" clip-rule="evenodd" d="M39.1575 5.12461L44.0132 5.37908C44.6253 5.41116 45.0981 5.97228 45.0639 6.62589L44.7889 11.8735C44.7546 12.5271 44.2257 13.0358 43.6136 13.0037L38.7579 12.7492C38.1457 12.7171 37.6729 12.156 37.7072 11.5023L37.9822 6.25476C38.0164 5.60114 38.5453 5.09253 39.1575 5.12461Z" fill="#FAAD14"/>
<path fill-rule="evenodd" clip-rule="evenodd" d="M17.9979 14.789L21.7227 11.6635C22.1922 11.2695 22.9207 11.3574 23.3414 11.8588L26.7191 15.8842C27.1399 16.3856 27.1 17.1183 26.6304 17.5123L22.9056 20.6378C22.436 21.0318 21.7075 20.9439 21.2868 20.4424L17.9091 16.4171C17.4883 15.9157 17.5283 15.183 17.9979 14.789Z" fill="#FAAD14"/>
<path fill-rule="evenodd" clip-rule="evenodd" d="M8.58442 36.2619L9.42876 31.4734C9.5352 30.8697 10.1497 30.4689 10.7943 30.5825L15.9693 31.495C16.6139 31.6087 17.0543 32.1955 16.9478 32.7992L16.1035 37.5877C15.997 38.1914 15.3825 38.5923 14.7379 38.4787L9.56291 37.5662C8.91834 37.4525 8.47797 36.8656 8.58442 36.2619Z" fill="#FAAD14"/>
<path d="M56.6748 39.4726C56.6748 30.0769 49.068 22.3804 39.6843 22.3804C30.3006 22.3804 22.6931 30.0769 22.6931 39.4726C22.6931 43.1912 24.6646 47.9945 27.8303 51.5358C30.9694 55.045 31.8635 60.9526 31.8635 65.6634L31.8635 67.5104L47.5051 67.5104L47.5051 65.6788C47.5051 60.968 48.3992 55.0716 51.5222 51.5513C54.6984 47.9735 56.6748 42.7434 56.6748 39.4726Z" fill="#FFE58F"/>
<path d="M53.8784 39.4266C53.8784 31.5788 47.5254 25.1484 39.6842 25.1484C31.8431 25.1484 25.4915 31.5781 25.4915 39.4266C25.4915 42.5356 27.1376 46.5464 29.7828 49.5048C32.4049 52.4365 34.3519 57.3716 34.3519 61.3067L34.3519 62.8483L45.0173 62.8483L45.0173 61.32C45.0173 57.3842 46.9643 52.4583 49.5738 49.5174C52.2274 46.5289 53.8784 42.1601 53.8784 39.4273L53.8784 39.4266Z" fill="#FAAD14"/>
<path d="M43.9966 76.1292L35.3719 76.1292C35.0704 76.1292 34.7954 75.933 34.6317 75.6106L33.4585 72.5703L45.9114 72.5703L44.7382 75.6106C44.5737 75.933 44.2995 76.1292 43.998 76.1292L43.9966 76.1292Z" fill="#393D65"/>
<path d="M46.0906 60.4839L33.2778 60.4839C32.3255 60.4839 31.5535 61.2559 31.5535 62.2082L31.5535 72.1549C31.5535 73.1072 32.3255 73.8792 33.2778 73.8792L46.0906 73.8792C47.043 73.8792 47.815 73.1072 47.815 72.1549L47.815 62.2082C47.815 61.2559 47.043 60.4839 46.0906 60.4839Z" fill="#597EF7"/>
<path fill-rule="evenodd" clip-rule="evenodd" d="M31.3691 64.4163C31.3691 64.3029 31.4611 64.2109 31.5745 64.2109L40.7358 64.2109C40.8492 64.2109 40.9412 64.3029 40.9412 64.4163C40.9412 64.5298 40.8492 64.6217 40.7358 64.6217L31.5745 64.6217C31.4611 64.6217 31.3691 64.5298 31.3691 64.4163Z" fill="white"/>
<path fill-rule="evenodd" clip-rule="evenodd" d="M31.3691 70.3719C31.3691 70.2585 31.4611 70.1665 31.5745 70.1665L40.7358 70.1665C40.8492 70.1665 40.9412 70.2585 40.9412 70.3719C40.9412 70.4853 40.8492 70.5773 40.7358 70.5773L31.5745 70.5773C31.4611 70.5773 31.3691 70.4853 31.3691 70.3719Z" fill="white"/>
<path fill-rule="evenodd" clip-rule="evenodd" d="M38.3958 67.3934C38.3958 67.2799 38.4877 67.188 38.6011 67.188L47.7624 67.188C47.8758 67.188 47.9678 67.2799 47.9678 67.3934C47.9678 67.5068 47.8758 67.5988 47.7624 67.5988L38.6011 67.5988C38.4877 67.5988 38.3958 67.5068 38.3958 67.3934Z" fill="white"/>
<path d="M40.8431 32.6032L34.4383 42.3745C34.0937 42.9043 34.4644 43.5557 35.0852 43.5557L37.9543 43.5557L34.4267 50.2294C34.1638 50.7691 34.842 51.2697 35.2578 50.843L44.8514 41.1898C45.3408 40.6874 44.9933 39.8294 44.3006 39.8294L39.9622 39.8294L41.7773 33.0293C41.9192 32.4489 41.1657 32.1084 40.8431 32.6032Z" fill="white"/>
</svg>
