<svg width="47" height="46" viewBox="0 0 47 46" fill="none" xmlns="http://www.w3.org/2000/svg">
<rect width="47" height="46" rx="23" fill="#007BFF"/>
<path d="M23.5 19.6055C21.75 19.6055 20.3555 21.0273 20.3555 22.75C20.3555 24.5 21.75 25.8945 23.5 25.8945C25.2227 25.8945 26.6445 24.5 26.6445 22.75C26.6445 21.0273 25.2227 19.6055 23.5 19.6055ZM23.5 24.8008C22.3789 24.8008 21.4492 23.8984 21.4492 22.75C21.4492 21.6289 22.3516 20.7266 23.5 20.7266C24.6211 20.7266 25.5234 21.6289 25.5234 22.75C25.5234 23.8984 24.6211 24.8008 23.5 24.8008ZM27.4922 19.4961C27.4922 19.0859 27.1641 18.7578 26.7539 18.7578C26.3438 18.7578 26.0156 19.0859 26.0156 19.4961C26.0156 19.9062 26.3438 20.2344 26.7539 20.2344C27.1641 20.2344 27.4922 19.9062 27.4922 19.4961ZM29.5703 20.2344C29.5156 19.25 29.2969 18.375 28.5859 17.6641C27.875 16.9531 27 16.7344 26.0156 16.6797C25.0039 16.625 21.9688 16.625 20.957 16.6797C19.9727 16.7344 19.125 16.9531 18.3867 17.6641C17.6758 18.375 17.457 19.25 17.4023 20.2344C17.3477 21.2461 17.3477 24.2812 17.4023 25.293C17.457 26.2773 17.6758 27.125 18.3867 27.8633C19.125 28.5742 19.9727 28.793 20.957 28.8477C21.9688 28.9023 25.0039 28.9023 26.0156 28.8477C27 28.793 27.875 28.5742 28.5859 27.8633C29.2969 27.125 29.5156 26.2773 29.5703 25.293C29.625 24.2812 29.625 21.2461 29.5703 20.2344ZM28.2578 26.3594C28.0664 26.9062 27.6289 27.3164 27.1094 27.5352C26.2891 27.8633 24.375 27.7812 23.5 27.7812C22.5977 27.7812 20.6836 27.8633 19.8906 27.5352C19.3438 27.3164 18.9336 26.9062 18.7148 26.3594C18.3867 25.5664 18.4688 23.6523 18.4688 22.75C18.4688 21.875 18.3867 19.9609 18.7148 19.1406C18.9336 18.6211 19.3438 18.2109 19.8906 17.9922C20.6836 17.6641 22.5977 17.7461 23.5 17.7461C24.375 17.7461 26.2891 17.6641 27.1094 17.9922C27.6289 18.1836 28.0391 18.6211 28.2578 19.1406C28.5859 19.9609 28.5039 21.875 28.5039 22.75C28.5039 23.6523 28.5859 25.5664 28.2578 26.3594Z" fill="white"/>
</svg>
