<svg width="74" height="38" viewBox="0 0 74 38" fill="none" xmlns="http://www.w3.org/2000/svg">
<path d="M10.0479 3.744V24.8C10.0479 27.8507 8.58654 29.376 5.66388 29.376C3.95721 29.376 2.38921 28.832 0.959878 27.744L2.36788 25.44C3.22121 25.9947 4.04254 26.272 4.83188 26.272C5.55721 26.272 5.91988 25.7067 5.91988 24.576V3.744H10.0479Z" fill="#007BFF"/>
<path d="M17.1536 13.104V24H14.1056V13.104H17.1536ZM13.7456 10.32C13.7456 9.808 13.9216 9.368 14.2736 9C14.6416 8.616 15.0736 8.424 15.5696 8.424C16.0976 8.424 16.5456 8.608 16.9136 8.976C17.2976 9.344 17.4896 9.792 17.4896 10.32C17.4896 10.88 17.3056 11.336 16.9376 11.688C16.5856 12.04 16.1296 12.216 15.5696 12.216C15.0416 12.216 14.6016 12.04 14.2496 11.688C13.9136 11.32 13.7456 10.864 13.7456 10.32ZM24.9765 12.816C26.7685 12.816 28.1605 13.448 29.1525 14.712C29.9845 15.768 30.4005 17.056 30.4005 18.576C30.4005 20.352 29.7845 21.792 28.5525 22.896C27.5285 23.824 26.3365 24.288 24.9765 24.288C23.3925 24.288 22.0645 23.696 20.9925 22.512C20.0325 21.44 19.5525 20.128 19.5525 18.576C19.5525 16.816 20.0885 15.392 21.1605 14.304C22.1365 13.312 23.4085 12.816 24.9765 12.816ZM24.9765 22.032C26.5285 22.032 27.3045 20.88 27.3045 18.576C27.3045 16.176 26.5285 14.976 24.9765 14.976C23.4245 14.976 22.6485 16.176 22.6485 18.576C22.6485 20.88 23.4245 22.032 24.9765 22.032ZM37.9286 24H35.5766L31.3286 13.104H34.3766L36.7046 20.304L39.1766 13.104H42.3446L41.8886 14.232L41.3606 15.528C39.8726 19.208 38.7286 22.032 37.9286 24ZM52.8924 24H50.4684L50.2284 22.968C49.1724 23.848 48.1004 24.288 47.0124 24.288C44.5964 24.288 43.3884 23.112 43.3884 20.76C43.3884 19.592 43.8924 18.68 44.9004 18.024C45.9244 17.352 47.4364 17.016 49.4364 17.016H49.9404V16.968C49.9404 16.28 49.7964 15.808 49.5084 15.552C49.2204 15.296 48.7004 15.168 47.9484 15.168C46.8924 15.168 45.9244 15.504 45.0444 16.176C44.7564 15.648 44.4844 15.128 44.2284 14.616C45.1404 13.912 45.9324 13.44 46.6044 13.2C47.2924 12.944 48.1084 12.816 49.0524 12.816C51.6124 12.816 52.8924 14.416 52.8924 17.616V24ZM49.8444 18.864H49.4844C48.5724 18.864 47.8364 19.024 47.2764 19.344C46.7164 19.664 46.4364 20.088 46.4364 20.616C46.4364 21.608 46.8684 22.104 47.7324 22.104C48.2604 22.104 48.7244 21.952 49.1244 21.648C49.5244 21.344 49.7644 20.96 49.8444 20.496V18.864ZM59.0833 14.16C59.4033 13.792 59.8833 13.48 60.5233 13.224C61.1633 12.952 61.7713 12.816 62.3473 12.816C63.7233 12.816 64.7153 13.192 65.3233 13.944C65.9473 14.696 66.2593 15.912 66.2593 17.592V24H63.2113V17.712C63.2113 16.144 62.5153 15.36 61.1233 15.36C60.7713 15.36 60.3953 15.44 59.9953 15.6C59.5953 15.744 59.3233 15.912 59.1793 16.104V24H56.1553V13.104H58.7233C58.8033 13.52 58.8833 13.872 58.9633 14.16H59.0833ZM72.3255 13.104V24H69.2775V13.104H72.3255ZM68.9175 10.32C68.9175 9.808 69.0935 9.368 69.4455 9C69.8135 8.616 70.2455 8.424 70.7415 8.424C71.2695 8.424 71.7175 8.608 72.0855 8.976C72.4695 9.344 72.6615 9.792 72.6615 10.32C72.6615 10.88 72.4775 11.336 72.1095 11.688C71.7575 12.04 71.3015 12.216 70.7415 12.216C70.2135 12.216 69.7735 12.04 69.4215 11.688C69.0855 11.32 68.9175 10.864 68.9175 10.32Z" fill="black"/>
</svg>
