<svg width="222" height="200" viewBox="0 0 222 200" fill="none" xmlns="http://www.w3.org/2000/svg">
<path d="M11.0958 161.749C9.37235 160.669 7.42456 159.998 5.40176 159.788C4.46957 159.696 3.47972 159.72 2.70609 160.268C2.62088 160.316 2.55029 160.386 2.502 160.47C2.45371 160.555 2.42957 160.651 2.4322 160.749C2.47443 160.889 2.5668 161.009 2.69168 161.085C3.90255 161.945 5.32486 162.458 6.80563 162.57C8.28641 162.682 9.76964 162.388 11.0958 161.72" fill="#E0E0E0"/>
<path d="M10.9513 161.59C9.63143 160.62 8.39973 159.537 7.27062 158.35C6.13931 157.158 5.34358 155.687 4.96417 154.088C4.88824 153.849 4.86524 153.596 4.89677 153.347C4.9283 153.098 5.0136 152.859 5.14676 152.646C8.07788 154.934 10.3843 157.899 10.9513 161.575" fill="#E0E0E0"/>
<path d="M11.0665 161.729C10.793 160.129 10.8158 158.492 11.1338 156.899C11.463 155.296 12.3801 153.873 13.7049 152.911C14.2143 154.098 13.9932 155.463 13.6376 156.698C13.0829 158.615 12.2211 160.429 11.0857 162.07" fill="#E0E0E0"/>
<path d="M13.9401 166.881C12.2149 167.157 10.6191 167.965 9.37521 169.192C8.06333 170.382 7.15049 171.948 6.76123 173.676C8.47185 173.571 9.92299 172.364 10.9753 171.009C12.0276 169.654 12.758 168.169 13.916 166.905" fill="#E0E0E0"/>
<path d="M14.5649 167.702C13.8776 165.959 13.6367 164.072 13.8642 162.212C14.0916 160.352 14.7802 158.579 15.8673 157.053C16.8573 160.585 16.492 164.583 14.5649 167.707" fill="#E0E0E0"/>
<path d="M18.3608 172.225C16.7664 172.129 15.1787 172.502 13.7943 173.299C12.4099 174.096 11.2895 175.281 10.5717 176.709C10.5098 176.797 10.4726 176.9 10.4641 177.007C10.4557 177.115 10.4762 177.222 10.5237 177.319C10.5907 177.384 10.6725 177.432 10.762 177.459C10.8515 177.485 10.9461 177.49 11.0378 177.473C12.5707 177.372 13.9209 176.449 15.0549 175.397C16.1889 174.344 17.1547 173.128 18.4185 172.22" fill="#E0E0E0"/>
<path d="M18.2408 171.98C17.4225 169.348 17.3725 166.537 18.0966 163.877C18.3802 162.834 18.8607 161.734 19.8267 161.244C19.8657 161.219 19.9091 161.203 19.9545 161.195C19.9999 161.188 20.0463 161.19 20.091 161.2C20.1702 161.24 20.2306 161.309 20.2592 161.393C20.583 162.123 20.7216 162.922 20.6629 163.719C20.6078 164.511 20.4872 165.297 20.3025 166.069C19.9949 167.51 19.8219 169.053 19.0482 170.293C18.8694 170.594 18.7089 170.905 18.5676 171.225C18.4186 171.538 18.4186 171.648 18.2792 171.898" fill="#E0E0E0"/>
<path d="M28.2929 173.475C27.9556 171.996 27.9447 170.462 28.261 168.979C28.5772 167.495 29.2129 166.099 30.1239 164.887C30.2537 164.714 30.4315 164.531 30.643 164.55C30.9746 164.584 31.0563 165.031 31.0418 165.348C30.9113 168.262 29.9582 171.08 28.2929 173.475" fill="#E0E0E0"/>
<path d="M29.201 174.094C30.9585 174.51 32.7854 174.539 34.5551 174.179C36.3249 173.819 37.9952 173.078 39.4504 172.008C37.735 171.145 35.773 170.906 33.9005 171.331C32.0457 171.754 30.3543 172.585 29.201 174.094Z" fill="#E0E0E0"/>
<path d="M29.9651 172.21C30.9818 170.643 32.3545 169.339 33.9712 168.403C35.5879 167.468 37.4028 166.928 39.2678 166.828C39.0172 167.566 38.6181 168.246 38.095 168.824C37.5719 169.403 36.9359 169.868 36.2261 170.192C34.8044 170.833 33.3004 171.272 31.7574 171.499C31.1616 171.614 30.3495 171.744 29.9651 172.21" fill="#E0E0E0"/>
<path d="M28.4852 163.056C29.0681 161.285 29.4659 159.459 29.6722 157.606C29.8773 155.74 29.4996 153.856 28.5909 152.214C27.6731 153.902 27.1791 155.788 27.1515 157.709C27.1239 159.63 27.5634 161.529 28.4323 163.243" fill="#E0E0E0"/>
<path d="M34.5443 159.989C36.6538 156.145 40.9495 153.107 45.2933 152.68C43.6164 156.856 39.0467 160.081 34.5443 159.989Z" fill="#E0E0E0"/>
<path d="M33.223 160.739C36.3608 161.22 39.0372 163.224 41.9731 164.439C42.5861 164.739 43.2677 164.87 43.948 164.819C44.2878 164.79 44.6111 164.66 44.8765 164.446C45.1419 164.232 45.3373 163.944 45.4376 163.618C45.483 163.338 45.4595 163.052 45.369 162.784C45.2786 162.516 45.124 162.274 44.9187 162.08C44.5022 161.695 44.0117 161.399 43.4771 161.21C40.2817 159.879 36.8557 159.845 33.4873 160.652" fill="#E0E0E0"/>
<path d="M31.4069 162.945C32.1132 163.147 32.3679 163.517 32.9205 163.997C34.8415 165.628 37.1121 166.794 39.5563 167.405C39.811 167.467 40.1426 167.491 40.2675 167.265C40.3924 167.04 40.2387 166.823 40.0993 166.641C39.03 165.393 37.6463 164.454 36.0918 163.921C34.559 163.353 33.2088 162.666 31.4069 162.81" fill="#E0E0E0"/>
<path d="M29.3549 149.638C30.6403 150.823 32.1591 151.727 33.8139 152.292C35.4688 152.856 37.2233 153.068 38.9651 152.915C39.1269 152.919 39.2843 152.862 39.4072 152.757C39.6474 152.497 39.3591 152.089 39.0756 151.868C36.2454 149.662 32.829 148.744 29.3405 149.638" fill="#E0E0E0"/>
<path d="M31.7861 148.749C33.4908 147.495 35.4676 146.662 37.5552 146.318C39.6428 145.974 41.7822 146.129 43.7989 146.769C42.2269 148.224 40.2114 149.109 38.076 149.282C35.9643 149.475 33.8351 149.295 31.7861 148.749Z" fill="#E0E0E0"/>
<path d="M30.8205 142.636C30.5418 139.81 30.7196 137.58 30.5274 134.74C30.5274 134.514 30.4601 134.259 30.2486 134.158C29.9555 134.048 29.7056 134.408 29.6095 134.711C29.1984 136.027 29.0934 137.419 29.3024 138.782C29.5115 140.144 30.0291 141.441 30.8157 142.573" fill="#E0E0E0"/>
<path d="M30.6138 142.948C32.4702 141.76 34.0698 140.213 35.318 138.396C36.2454 137.133 37.0238 135.619 36.8124 134.071C36.1633 134.088 35.5259 134.248 34.9448 134.537C34.3638 134.827 33.8531 135.24 33.4488 135.749C32.6405 136.77 32.0531 137.948 31.7237 139.209C31.349 140.453 31.0895 141.732 30.6474 142.952" fill="#E0E0E0"/>
<path d="M35.2123 141.675C39.4312 140.119 43.3371 137.819 46.7446 134.884C45.3703 134.331 43.7942 134.663 42.42 135.216C39.2971 136.399 36.717 138.687 35.1691 141.646" fill="#E0E0E0"/>
<path d="M31.9064 144.495C34.0268 144.798 36.1789 144.808 38.302 144.524C40.3635 144.098 42.368 143.432 44.2747 142.539C44.4431 142.491 44.5873 142.382 44.6784 142.232C44.7068 142.142 44.7084 142.046 44.6827 141.956C44.6571 141.865 44.6055 141.784 44.5342 141.723C44.3844 141.606 44.2104 141.523 44.0249 141.482C41.8831 140.966 39.6358 141.101 37.5716 141.871C35.5966 142.546 33.6978 143.425 31.9064 144.495" fill="#E0E0E0"/>
<path d="M19.7689 149.739C19.0847 148.275 18.7212 146.682 18.703 145.067C18.6848 143.451 19.0121 141.851 19.6632 140.372C20.5475 141.718 20.6532 143.429 20.4946 145.029C20.336 146.629 19.8458 148.273 19.8122 149.883" fill="#E0E0E0"/>
<path d="M13.9737 146.812C12.157 146.789 10.3556 147.145 8.68428 147.857C7.013 148.57 5.50866 149.623 4.26733 150.95C6.09776 151.169 7.95153 150.826 9.58179 149.965C11.1984 149.102 12.7245 148.08 14.137 146.913" fill="#E0E0E0"/>
<path d="M10.0767 145.519C8.30365 145.375 6.60264 145.159 4.89682 145.678C4.03591 145.923 3.23769 146.35 2.55622 146.931C1.87476 147.511 1.32597 148.231 0.947021 149.042C2.61931 149.177 4.29703 148.86 5.80499 148.124C7.3041 147.386 8.73378 146.514 10.0767 145.519" fill="#E0E0E0"/>
<path d="M15.8477 145.572C14.2525 144.524 12.6139 143.462 10.7591 143.029C8.90436 142.597 6.75167 142.914 5.47351 144.313C6.97751 145.197 8.79865 145.303 10.5381 145.298C12.2775 145.293 14.4158 145.298 16.0592 145.86" fill="#E0E0E0"/>
<path d="M15.8579 145.654C13.1282 142.977 12.095 138.171 13.1955 134.514C15.3446 137.808 16.2854 141.745 15.8579 145.654" fill="#E0E0E0"/>
<path d="M23.3485 138.07C23.8627 136.878 24.223 135.624 24.6843 134.408C25.111 133.177 25.7628 132.037 26.6064 131.044C27.4556 130.044 28.6631 129.416 29.97 129.295C29.5511 131.138 28.7522 132.874 27.6245 134.39C26.4967 135.907 25.0649 137.172 23.4206 138.104" fill="#E0E0E0"/>
<path d="M21.9933 139.651C21.1428 138.478 20.1578 136.892 19.0045 136.018C18.4465 135.554 17.7941 135.218 17.0928 135.033C16.3915 134.848 15.6582 134.818 14.9442 134.946C15.6734 136.223 16.6901 137.313 17.9137 138.129C19.1373 138.945 20.5341 139.464 21.9933 139.646" fill="#E0E0E0"/>
<path d="M22.2628 138.171C21.6521 136.775 21.2007 135.314 20.9172 133.817C20.6376 132.306 20.8782 130.744 21.5996 129.386C23.0942 132.217 23.5796 135.249 22.3397 138.2" fill="#E0E0E0"/>
<path d="M23.363 129.386C24.2087 126.584 26.7747 124.523 29.5472 123.576C29.8889 123.434 30.2601 123.378 30.6284 123.413C30.8117 123.434 30.9848 123.509 31.1272 123.626C31.2695 123.744 31.3749 123.9 31.4308 124.076C31.5317 124.556 31.1377 124.984 30.7677 125.301C28.6018 127.151 26.0825 128.541 23.363 129.386" fill="#E0E0E0"/>
<path d="M23.3918 127.094C23.418 125.281 23.6896 123.48 24.1992 121.74C24.7903 120.029 25.9197 118.424 27.5632 117.674C27.8468 119.501 27.0394 121.317 26.0686 122.884C25.0979 124.45 23.9253 125.94 23.3438 127.69" fill="#E0E0E0"/>
<path d="M23.3485 128.338C22.6469 126.296 22.5749 123.701 21.3496 121.922C20.4991 120.678 19.1296 119.832 18.3896 118.51C17.9463 119.776 18.0083 121.163 18.5626 122.384C19.1205 123.588 19.8867 124.685 20.8258 125.623C21.7292 126.584 22.5076 127.314 23.3485 128.338" fill="#E0E0E0"/>
<path d="M23.3629 188.507C23.3053 188.507 23.262 174.877 23.2572 158.067C23.2524 141.256 23.2956 127.627 23.3485 127.627C23.4014 127.627 23.4494 141.251 23.4542 158.067C23.459 174.882 23.4158 188.507 23.3629 188.507Z" fill="#E0E0E0"/>
<path d="M35.2701 147.682C35.1037 147.758 34.9318 147.822 34.756 147.874L33.3481 148.354C32.1564 148.758 30.5275 149.344 28.7544 150.07C26.9813 150.796 25.3428 151.435 24.401 152.252C24.0252 152.567 23.7261 152.963 23.5264 153.41C23.3919 153.727 23.3679 153.924 23.3486 153.92C23.3294 153.915 23.3486 153.871 23.3486 153.78C23.3684 153.644 23.4022 153.51 23.4495 153.381C23.6291 152.906 23.9228 152.482 24.3049 152.146C24.8715 151.663 25.5062 151.267 26.1885 150.969C26.9429 150.618 27.7789 150.248 28.6679 149.883C30.4458 149.157 32.0939 148.585 33.2952 148.215C33.8959 148.028 34.386 147.888 34.7367 147.797C34.9103 147.741 35.089 147.702 35.2701 147.682V147.682Z" fill="#E0E0E0"/>
<path d="M39.1622 138.089C39.1214 138.147 39.0729 138.199 39.0181 138.243L38.5808 138.656L36.9519 140.137L31.5269 144.976C29.4078 146.865 27.5723 148.667 26.3037 150.027C25.6646 150.705 25.1649 151.267 24.8238 151.661L24.4297 152.113C24.3812 152.164 24.3263 152.209 24.2664 152.247C24.2964 152.183 24.3352 152.123 24.3817 152.069C24.4682 151.964 24.5883 151.8 24.7517 151.589C25.0736 151.18 25.5589 150.599 26.1932 149.907C27.8357 148.116 29.5712 146.412 31.3923 144.803C33.521 142.919 35.4575 141.228 36.8654 139.997C37.5525 139.401 38.1195 138.916 38.5375 138.556L39.0181 138.171C39.0633 138.139 39.1116 138.112 39.1622 138.089V138.089Z" fill="#E0E0E0"/>
<path d="M29.2348 146.898C29.1819 146.869 29.6241 145.846 30.0662 144.553C30.5083 143.26 30.7198 142.15 30.7774 142.179C30.7335 143.014 30.5567 143.836 30.2536 144.615C30.0655 145.174 29.8456 145.721 29.5952 146.254C29.5049 146.484 29.3837 146.701 29.2348 146.898V146.898Z" fill="#E0E0E0"/>
<path d="M23.3726 155.131C23.2507 155.016 23.1412 154.889 23.0458 154.751L22.2097 153.689C21.5082 152.776 20.5328 151.522 19.4468 150.152C18.3609 148.782 17.3518 147.542 16.6262 146.653L15.7709 145.591C15.6578 145.468 15.5595 145.333 15.4778 145.188C15.606 145.294 15.7235 145.413 15.8286 145.543C16.0496 145.779 16.3571 146.129 16.7319 146.562C17.4863 147.432 18.505 148.652 19.615 150.027C20.725 151.401 21.662 152.67 22.3347 153.602C22.6758 154.083 22.9401 154.448 23.1227 154.717C23.2224 154.845 23.3063 154.983 23.3726 155.131V155.131Z" fill="#E0E0E0"/>
<path d="M20.7636 151.791C20.2333 151.211 19.8566 150.507 19.6679 149.744C19.463 149.077 19.38 148.378 19.4228 147.682H19.5093C19.4709 147.84 19.442 147.922 19.4228 147.922C19.4036 147.922 19.4228 147.831 19.4228 147.667H19.5093C19.5509 148.348 19.6686 149.022 19.8602 149.676C20.1059 150.404 20.408 151.111 20.7636 151.791V151.791Z" fill="#E0E0E0"/>
<path d="M17.3903 147.552C17.1549 147.374 16.8983 147.225 16.6262 147.11C15.9395 146.906 15.2175 146.849 14.5072 146.942C13.7878 146.996 13.0742 147.11 12.3737 147.283C12.0862 147.375 11.7923 147.446 11.4944 147.494C11.756 147.338 12.0394 147.222 12.3353 147.148C13.0369 146.933 13.7607 146.797 14.4928 146.745C15.2298 146.644 15.9804 146.725 16.6791 146.98C16.9767 147.08 17.229 147.283 17.3903 147.552V147.552Z" fill="#E0E0E0"/>
<path d="M16.5781 146.524C16.5781 146.552 16.136 146.346 15.4105 146.096C14.4681 145.788 13.4921 145.594 12.5034 145.519C11.5078 145.448 10.5072 145.5 9.52421 145.673C8.76981 145.808 8.31332 145.947 8.30371 145.918C8.399 145.855 8.50476 145.809 8.61604 145.784C8.90502 145.681 9.20036 145.598 9.50018 145.534C11.4916 145.103 13.5654 145.261 15.4681 145.99C15.7547 146.099 16.0339 146.226 16.3042 146.37C16.4011 146.41 16.493 146.462 16.5781 146.524V146.524Z" fill="#E0E0E0"/>
<path d="M23.3487 142.179C23.0002 141.21 22.7144 140.22 22.4933 139.214C22.209 138.224 21.9875 137.218 21.8301 136.201C22.1794 137.169 22.4652 138.16 22.6855 139.166C22.9703 140.155 23.1918 141.162 23.3487 142.179V142.179Z" fill="#E0E0E0"/>
<path d="M23.4018 142.179C23.1252 141.564 22.8039 140.969 22.4406 140.401C22.0391 139.865 21.5726 139.38 21.0518 138.959C21.2486 139.01 21.4311 139.105 21.5852 139.238C21.9818 139.527 22.3263 139.881 22.604 140.285C23.0327 140.835 23.308 141.488 23.4018 142.179V142.179Z" fill="#E0E0E0"/>
<path d="M23.3628 181.24C23.3388 181.24 23.3003 180.913 23.1465 180.332C22.9198 179.518 22.614 178.727 22.2336 177.972C20.9234 175.506 19.3002 173.218 17.4044 171.167C16.3281 169.932 15.2806 168.764 14.3916 167.659C13.603 166.677 12.8883 165.638 12.2534 164.55C11.8264 163.813 11.4631 163.041 11.1674 162.243C11.0665 161.959 10.9944 161.734 10.956 161.585C10.9302 161.508 10.9109 161.429 10.8983 161.349C10.8983 161.349 11.0136 161.657 11.2395 162.214C11.5613 162.996 11.9404 163.752 12.3735 164.478C13.0247 165.551 13.7522 166.575 14.5502 167.544C15.444 168.644 16.4722 169.803 17.5726 171.038C19.4791 173.101 21.0957 175.415 22.3777 177.915C22.7495 178.682 23.0363 179.488 23.233 180.318C23.3003 180.616 23.3388 180.846 23.358 181.005C23.3668 181.083 23.3685 181.162 23.3628 181.24V181.24Z" fill="#E0E0E0"/>
<path d="M34.1215 169.067C33.9416 169.185 33.7537 169.291 33.5593 169.384C33.0579 169.672 32.5763 169.993 32.1178 170.345C31.4329 170.88 30.7903 171.466 30.1957 172.099C29.5182 172.811 28.8263 173.637 28.1151 174.502C26.6736 176.28 25.3714 177.866 24.5786 179.111C24.1749 179.736 23.8818 180.26 23.6896 180.63C23.5986 180.825 23.4959 181.014 23.3821 181.197C23.3821 181.197 23.3821 181.139 23.4349 181.033C23.4878 180.928 23.531 180.783 23.6223 180.596C23.8692 180.058 24.1501 179.536 24.4632 179.034C25.5405 177.417 26.7084 175.862 27.9614 174.377C28.6725 173.488 29.3741 172.662 30.0612 171.95C30.6687 171.317 31.3277 170.735 32.0313 170.211C32.5064 169.86 33.0112 169.551 33.5401 169.288C33.7275 169.197 33.8812 169.139 33.9822 169.096C34.0275 169.081 34.0742 169.072 34.1215 169.067V169.067Z" fill="#E0E0E0"/>
<path d="M34.3569 173.027C33.9641 173.112 33.566 173.17 33.1652 173.2C32.2082 173.299 31.2624 173.485 30.3398 173.758C29.4266 174.053 28.5703 174.502 27.8075 175.084C27.2213 175.536 26.9474 175.911 26.9186 175.887C26.9618 175.786 27.0219 175.693 27.0964 175.613C27.282 175.382 27.4896 175.169 27.7162 174.979C28.4721 174.35 29.3415 173.872 30.2774 173.57C31.2161 173.292 32.1833 173.121 33.1604 173.061C33.5575 173.015 33.9579 173.003 34.3569 173.027Z" fill="#E0E0E0"/>
<path d="M27.2454 175.454C27.1829 175.421 27.726 174.599 28.1345 173.494C28.543 172.388 28.6151 171.403 28.6872 171.418C28.7285 171.629 28.7285 171.846 28.6872 172.057C28.6305 172.57 28.5144 173.075 28.3411 173.561C28.1556 174.047 27.917 174.511 27.6299 174.945C27.5304 175.135 27.4005 175.307 27.2454 175.454V175.454Z" fill="#E0E0E0"/>
<path d="M37.6052 158.495C37.6052 158.495 37.5427 158.538 37.4178 158.596L36.8556 158.85C36.6105 158.956 36.3126 159.091 35.9762 159.268C35.6399 159.446 35.2459 159.619 34.8374 159.864L34.1887 160.234C33.9629 160.364 33.7419 160.518 33.5016 160.667C33.0211 160.96 32.5406 161.316 32.0313 161.681C30.9415 162.506 29.9137 163.411 28.956 164.387C28.0135 165.376 27.1462 166.435 26.3612 167.554C26.0104 168.077 25.6693 168.568 25.4002 169.058C25.2608 169.298 25.1167 169.538 24.9918 169.759L24.6458 170.423C24.4151 170.836 24.247 171.235 24.0884 171.581C23.9298 171.927 23.7953 172.225 23.6992 172.47L23.4637 173.042C23.4421 173.11 23.4114 173.174 23.3724 173.234C23.3724 173.234 23.3724 173.162 23.4301 173.027C23.4878 172.893 23.5454 172.681 23.6271 172.446C23.7088 172.21 23.8289 171.884 23.9827 171.538C24.1365 171.192 24.295 170.783 24.5209 170.36L24.8572 169.687C24.9773 169.452 25.1215 169.207 25.2608 168.976C25.5299 168.495 25.8711 167.981 26.2219 167.448C27.0026 166.32 27.8702 165.255 28.8166 164.262C29.7804 163.28 30.8181 162.374 31.9207 161.551C32.4397 161.186 32.9298 160.83 33.4151 160.547C33.6554 160.398 33.8956 160.249 34.1119 160.119L34.7702 159.759C35.1882 159.518 35.587 159.35 35.9282 159.182C36.2206 159.038 36.5206 158.909 36.8268 158.797L37.4034 158.576L37.6052 158.495Z" fill="#E0E0E0"/>
<path d="M29.0713 164.204C29.1514 163.925 29.3201 163.681 29.5518 163.507C30.0765 163.051 30.7451 162.794 31.4402 162.781C32.1208 162.78 32.7951 162.912 33.4247 163.171C33.6931 163.254 33.9474 163.377 34.1791 163.536C33.912 163.479 33.65 163.4 33.3959 163.3C32.7769 163.089 32.1277 162.981 31.4738 162.978C30.8212 162.993 30.1902 163.216 29.6719 163.613C29.4573 163.794 29.2565 163.992 29.0713 164.204Z" fill="#E0E0E0"/>
<path d="M27.8174 165.516C28.0711 164.963 28.252 164.38 28.3556 163.781C28.3919 163.173 28.3515 162.562 28.2355 161.964C28.3471 162.113 28.4228 162.286 28.4566 162.469C28.5706 162.905 28.6016 163.358 28.5479 163.805C28.4973 164.253 28.3619 164.686 28.149 165.083C27.9856 165.376 27.8366 165.53 27.8174 165.516Z" fill="#E0E0E0"/>
<path d="M13.9498 183.191C14.2429 188.401 15.8142 193.697 18.2264 199.051H28.7255C31.0272 193.764 32.488 188.478 32.7474 183.191H13.9498Z" fill="#E0E0E0"/>
<path d="M31.0463 191.621C31.0463 191.674 27.5866 191.718 23.3245 191.718C19.0623 191.718 15.6171 191.655 15.6171 191.621C15.6171 191.588 19.0719 191.521 23.3341 191.521C27.5962 191.521 31.0463 191.569 31.0463 191.621Z" fill="#FAFAFA"/>
<path d="M30.811 193.505C30.811 193.563 27.5724 193.606 23.5745 193.606C19.5767 193.606 16.338 193.577 16.338 193.505C16.338 193.433 19.5767 193.409 23.5745 193.409C27.5724 193.409 30.811 193.452 30.811 193.505Z" fill="#FAFAFA"/>
<path d="M18.3945 186.614C18.529 188.223 18.529 189.84 18.3945 191.448C18.2663 189.839 18.2663 188.223 18.3945 186.614V186.614Z" fill="#FAFAFA"/>
<path d="M24.0212 186.614C24.1493 188.281 24.1493 189.955 24.0212 191.621C23.8866 189.955 23.8866 188.28 24.0212 186.614V186.614Z" fill="#FAFAFA"/>
<path d="M29.2972 186.57C29.4317 188.271 29.4317 189.979 29.2972 191.679C29.169 189.978 29.169 188.271 29.2972 186.57V186.57Z" fill="#FAFAFA"/>
<path d="M32.435 186.613C32.435 186.666 28.3843 186.709 23.3822 186.709C18.3801 186.709 14.3293 186.666 14.3293 186.613C14.3293 186.56 18.3849 186.512 23.3822 186.512C28.3795 186.512 32.435 186.555 32.435 186.613Z" fill="#FAFAFA"/>
<path d="M207.375 158.663C207.351 158.663 207.327 158.298 207.197 157.654C207.029 156.743 206.76 155.853 206.395 155.001C205.867 153.736 205.087 152.591 204.102 151.637C202.908 150.451 201.294 149.783 199.611 149.778C197.927 149.772 196.31 150.43 195.107 151.608C194.116 152.56 193.331 153.705 192.801 154.972C192.43 155.821 192.156 156.71 191.984 157.62C191.854 158.264 191.83 158.629 191.801 158.625C191.791 158.537 191.791 158.448 191.801 158.36C191.801 158.187 191.835 157.933 191.883 157.606C192.022 156.678 192.273 155.771 192.633 154.905C193.154 153.605 193.941 152.428 194.944 151.45C195.557 150.84 196.284 150.358 197.084 150.029C197.884 149.701 198.74 149.534 199.605 149.537C200.469 149.54 201.324 149.714 202.122 150.048C202.919 150.382 203.643 150.869 204.251 151.483C205.252 152.462 206.035 153.641 206.548 154.943C206.907 155.811 207.156 156.72 207.288 157.649C207.329 157.899 207.356 158.151 207.37 158.404C207.383 158.489 207.385 158.577 207.375 158.663V158.663Z" fill="#E0E0E0"/>
<path d="M210.066 158.663C210.042 158.663 210.013 158.298 209.888 157.654C209.72 156.743 209.45 155.853 209.085 155.001C208.555 153.736 207.774 152.591 206.789 151.637C205.594 150.451 203.98 149.783 202.297 149.778C200.614 149.772 198.996 150.43 197.793 151.608C196.804 152.561 196.019 153.706 195.487 154.972C195.119 155.822 194.847 156.71 194.675 157.62C194.545 158.264 194.516 158.629 194.492 158.625C194.478 158.537 194.478 158.448 194.492 158.36C194.506 158.108 194.533 157.856 194.574 157.606C194.71 156.678 194.962 155.77 195.324 154.905C195.845 153.605 196.632 152.428 197.635 151.45C198.248 150.84 198.975 150.358 199.775 150.029C200.575 149.701 201.431 149.534 202.296 149.537C203.16 149.54 204.015 149.714 204.813 150.048C205.61 150.382 206.334 150.869 206.942 151.483C207.941 152.463 208.724 153.642 209.239 154.943C209.593 155.812 209.842 156.721 209.979 157.649C210.019 157.899 210.044 158.151 210.056 158.404C210.072 158.489 210.075 158.577 210.066 158.663V158.663Z" fill="#E0E0E0"/>
<path d="M184.108 157.702L214.477 157.471L215.14 198.873H181.062L184.108 157.702Z" fill="#EBEBEB"/>
<path d="M214.477 157.471H218.292L221.574 198.873H215.14L214.477 157.471Z" fill="#E0E0E0"/>
<path d="M208.042 173.772H188.159V177.103H208.042V173.772Z" fill="white"/>
<path d="M38.6237 0H3.96924V57.3715H38.6237V0Z" fill="#E0E0E0"/>
<path d="M37.4706 0H2.81616V57.3715H37.4706V0Z" fill="#EBEBEB"/>
<path d="M35.9955 1.16309H4.29138V56.2086H35.9955V1.16309Z" fill="white"/>
<path d="M29.821 8.31396H10.3267V49.0526H29.821V8.31396Z" fill="#EBEBEB"/>
<path d="M10.3315 34.6399C10.2882 30.8337 13.695 27.1189 17.4767 26.5854C19.2738 26.3355 21.1814 26.6912 22.8632 26.0039C25.8568 24.7736 26.813 20.7896 29.8258 19.6074L29.9652 49.0573H10.3315V34.6399Z" fill="#E0E0E0"/>
<path d="M218.407 34.7119H189.586V64.7625H218.407V34.7119Z" fill="#E0E0E0"/>
<path d="M216.456 34.7119H187.635V64.7625H216.456V34.7119Z" fill="#F5F5F5"/>
<path d="M216.471 64.7816H187.64V34.7021H216.471V64.7816ZM187.64 64.7816H216.471V34.7214H187.64V64.7816Z" fill="#E0E0E0"/>
<path d="M212.583 38.7539H191.508V60.726H212.583V38.7539Z" fill="white"/>
<path d="M191.509 60.8701C191.361 61.0922 191.187 61.2955 190.99 61.4756C190.653 61.8313 190.182 62.3119 189.649 62.8309C189.115 63.3499 188.635 63.8209 188.274 64.1477C188.092 64.3415 187.887 64.5126 187.664 64.6571C187.813 64.4371 187.987 64.2354 188.183 64.0564C188.52 63.7007 188.99 63.2201 189.524 62.6963C190.057 62.1725 190.543 61.7063 190.903 61.3747C191.085 61.1835 191.288 61.0142 191.509 60.8701Z" fill="#E0E0E0"/>
<path d="M212.583 60.8174C212.806 60.9652 213.009 61.1395 213.189 61.3364C213.545 61.6728 214.025 62.1438 214.544 62.6772C215.063 63.2107 215.534 63.6912 215.866 64.0517C216.057 64.2345 216.227 64.4394 216.37 64.662C216.15 64.5133 215.949 64.3391 215.77 64.143C215.414 63.8066 214.934 63.3308 214.41 62.8022C213.886 62.2735 213.42 61.7785 213.088 61.4229C212.897 61.2414 212.728 61.0382 212.583 60.8174V60.8174Z" fill="#E0E0E0"/>
<path d="M212.526 38.8303C212.676 38.6097 212.85 38.4065 213.045 38.2248C213.381 37.8692 213.857 37.3886 214.386 36.8648C214.914 36.3409 215.404 35.8796 215.76 35.548C215.943 35.363 216.148 35.2016 216.37 35.0674C216.223 35.287 216.05 35.4886 215.856 35.6681C215.52 36.0237 215.044 36.5043 214.511 37.0281C213.977 37.552 213.492 38.0181 213.131 38.3497C212.948 38.5325 212.745 38.6938 212.526 38.8303V38.8303Z" fill="#E0E0E0"/>
<path d="M191.451 38.8642C191.229 38.7163 191.026 38.542 190.846 38.3451C190.495 38.0087 190.014 37.533 189.49 37.0043C188.966 36.4757 188.5 35.9855 188.173 35.6299C187.98 35.4477 187.809 35.2428 187.664 35.0195C187.885 35.1655 188.087 35.3382 188.265 35.5337C188.62 35.8702 189.106 36.3459 189.625 36.8794C190.144 37.4128 190.62 37.8982 190.946 38.2586C191.138 38.4402 191.307 38.6434 191.451 38.8642V38.8642Z" fill="#E0E0E0"/>
<path d="M212.526 60.721C212.523 60.6858 212.523 60.6505 212.526 60.6153C212.526 60.5432 212.526 60.4423 212.526 60.3077C212.526 60.0338 212.526 59.6397 212.526 59.1255C212.526 58.0826 212.526 56.5688 212.526 54.6465C212.526 50.8018 212.526 45.3136 212.482 38.7537L212.564 38.8354H191.551L191.647 38.7441C191.647 46.8082 191.647 54.3485 191.647 60.7114L191.566 60.6345L206.784 60.6729L211.06 60.697H212.146H211.026H206.774L191.503 60.7354H191.426V60.6537C191.426 54.2908 191.426 46.7506 191.426 38.6864V38.5903H191.522H212.535H212.627V38.672C212.627 45.256 212.593 50.7538 212.583 54.6176C212.583 56.54 212.583 58.0394 212.583 59.0774C212.583 59.558 212.583 59.9761 212.583 60.2452C212.583 60.375 212.583 60.4711 212.583 60.5432C212.574 60.6051 212.554 60.6652 212.526 60.721Z" fill="#E0E0E0"/>
<path d="M205.558 46.2217H198.528V53.2525H205.558V46.2217Z" fill="#EBEBEB"/>
<path d="M210.556 198.863C210.556 198.931 166.301 198.988 111.719 198.988C57.138 198.988 12.8733 198.94 12.8733 198.863C12.8733 198.786 57.1188 198.738 111.719 198.738C166.32 198.738 210.556 198.806 210.556 198.863Z" fill="#263238"/>
<path d="M202.848 75.5566H180.754C177.042 75.5566 174.032 78.5668 174.032 82.2799V104.377C174.032 108.09 177.042 111.1 180.754 111.1H202.848C206.561 111.1 209.57 108.09 209.57 104.377V82.2799C209.57 78.5668 206.561 75.5566 202.848 75.5566Z" fill="#007BFF"/>
<path d="M196.621 97.942H194.478C194.414 97.942 194.353 97.9167 194.308 97.8717C194.263 97.8266 194.237 97.7655 194.237 97.7018C194.237 97.638 194.263 97.5769 194.308 97.5319C194.353 97.4868 194.414 97.4615 194.478 97.4615H196.376L196.097 89.2291C196.094 89.1741 196.111 89.1198 196.145 89.0759C196.178 89.032 196.226 89.0012 196.279 88.9889C196.333 88.9754 196.39 88.9815 196.439 89.0062C196.488 89.0309 196.527 89.0725 196.549 89.1234L197.481 91.238L200.426 89.7626C199.34 87.5663 198.115 85.2019 197.908 84.9904C197.674 84.7934 197.411 84.6315 197.13 84.5099C196.963 84.4265 196.791 84.3527 196.616 84.2888C195.818 83.9956 194.694 83.6977 194.237 83.5823C194.007 84.0173 193.66 84.3797 193.236 84.6291C192.812 84.8786 192.327 85.0053 191.835 84.9953C190.22 84.9136 189.591 84.0053 189.384 83.5823C188.937 83.6977 187.813 83.9908 187.044 84.2744C186.861 84.3373 186.683 84.4127 186.511 84.5003C186.226 84.6211 185.96 84.783 185.723 84.9808C185.511 85.1923 184.281 87.5567 183.2 89.753L186.15 91.2284L187.078 89.1138C187.101 89.0641 187.14 89.0237 187.189 88.9992C187.238 88.9747 187.293 88.9677 187.347 88.9793C187.401 88.9923 187.448 89.0231 187.482 89.0667C187.516 89.1104 187.535 89.1642 187.534 89.2195L187.28 97.4615H191.604C191.668 97.4615 191.729 97.4868 191.774 97.5319C191.819 97.5769 191.844 97.638 191.844 97.7018C191.844 97.7655 191.819 97.8266 191.774 97.8717C191.729 97.9167 191.668 97.942 191.604 97.942H187.034C186.97 97.9419 186.907 97.916 186.861 97.87C186.818 97.8226 186.795 97.7609 186.794 97.6969L186.996 90.4354L186.458 91.6609C186.444 91.6907 186.425 91.7176 186.401 91.7398C186.377 91.7621 186.349 91.7794 186.318 91.7906C186.289 91.8038 186.257 91.8105 186.225 91.8105C186.193 91.8105 186.161 91.8038 186.131 91.7906L182.768 90.099C182.712 90.0693 182.67 90.0192 182.65 89.9592C182.63 89.8992 182.635 89.834 182.662 89.777C183.051 88.9889 185.012 85.0337 185.377 84.6685C185.648 84.435 185.955 84.2453 186.285 84.1062C186.464 84.0149 186.649 83.9347 186.837 83.8659C187.875 83.4814 189.403 83.1114 189.466 83.097C189.495 83.089 189.526 83.0869 189.556 83.0908C189.586 83.0947 189.615 83.1045 189.642 83.1197C189.668 83.1349 189.691 83.1551 189.71 83.1793C189.728 83.2034 189.742 83.231 189.749 83.2604C189.749 83.3084 190.139 84.457 191.83 84.5435C193.512 84.457 193.882 83.27 193.882 83.2604C193.89 83.231 193.903 83.2034 193.922 83.1793C193.94 83.1551 193.963 83.1349 193.989 83.1197C194.016 83.1045 194.045 83.0947 194.075 83.0908C194.105 83.0869 194.136 83.089 194.165 83.097C194.233 83.097 195.756 83.4814 196.755 83.8515H196.784C196.981 83.9236 197.173 84.007 197.361 84.1014C197.687 84.2399 197.99 84.4279 198.259 84.6588C198.624 85.0241 200.585 88.9841 200.974 89.7674C200.988 89.7958 200.996 89.8266 200.998 89.8582C201 89.8898 200.996 89.9214 200.986 89.9513C200.975 89.9813 200.959 90.0089 200.938 90.0325C200.917 90.0562 200.892 90.0755 200.864 90.0894L197.5 91.781C197.47 91.7941 197.439 91.8009 197.406 91.8009C197.374 91.8009 197.342 91.7941 197.313 91.781C197.282 91.7697 197.255 91.7524 197.232 91.7301C197.209 91.7078 197.19 91.6809 197.178 91.6513L196.645 90.4402L196.89 97.6873C196.892 97.7193 196.887 97.7514 196.875 97.7812C196.864 97.8111 196.846 97.8381 196.822 97.8603C196.797 97.8886 196.766 97.9107 196.731 97.9248C196.696 97.939 196.658 97.9449 196.621 97.942V97.942Z" fill="white"/>
<path d="M193.248 97.942H192.57C192.506 97.942 192.445 97.9167 192.4 97.8716C192.355 97.8266 192.33 97.7654 192.33 97.7017C192.33 97.638 192.355 97.5769 192.4 97.5318C192.445 97.4867 192.506 97.4614 192.57 97.4614H193.248C193.311 97.4614 193.372 97.4867 193.418 97.5318C193.463 97.5769 193.488 97.638 193.488 97.7017C193.488 97.7654 193.463 97.8266 193.418 97.8716C193.372 97.9167 193.311 97.942 193.248 97.942Z" fill="white"/>
<path d="M181.874 101.129H180.644V100.403H184.008V101.129H182.777V104.252H181.874V101.129Z" fill="white"/>
<path d="M184.104 102.358H185.656V103.046H184.104V102.358Z" fill="white"/>
<path d="M186.016 103.872L186.319 103.199C186.692 103.458 187.134 103.599 187.587 103.603C188.116 103.603 188.327 103.425 188.327 103.19C188.327 102.469 186.093 102.964 186.093 101.532C186.093 100.878 186.617 100.335 187.712 100.335C188.18 100.325 188.642 100.443 189.048 100.676L188.774 101.354C188.452 101.161 188.084 101.056 187.708 101.051C187.179 101.051 186.977 101.248 186.977 101.488C186.977 102.2 189.217 101.71 189.217 103.122C189.217 103.766 188.683 104.314 187.583 104.314C187.028 104.329 186.481 104.175 186.016 103.872V103.872Z" fill="white"/>
<path d="M193.354 100.403V104.247H192.446V102.666H190.696V104.247H189.807V100.403H190.696V101.917H192.446V100.403H193.354Z" fill="white"/>
<path d="M194.261 100.403H195.15V104.247H194.261V100.403Z" fill="white"/>
<path d="M198.514 104.252L197.774 103.175H196.957V104.252H196.063V100.407H197.731C198.759 100.407 199.403 100.941 199.403 101.801C199.413 102.061 199.343 102.317 199.201 102.535C199.058 102.753 198.852 102.921 198.61 103.017L199.475 104.257L198.514 104.252ZM197.683 101.128H196.957V102.469H197.683C198.226 102.469 198.5 102.214 198.5 101.796C198.5 101.378 198.211 101.128 197.683 101.128Z" fill="white"/>
<path d="M200.845 101.129H199.614V100.403H202.978V101.129H201.748V104.252H200.854L200.845 101.129Z" fill="white"/>
<path d="M192.243 172.912C192.084 171.862 191.804 170.835 191.407 169.85C190.964 168.794 190.31 167.839 189.485 167.044C188.49 166.052 187.143 165.493 185.738 165.488C184.333 165.482 182.983 166.031 181.98 167.015C181.154 167.808 180.5 168.761 180.057 169.817C179.655 170.799 179.37 171.825 179.207 172.873C179.194 172.8 179.194 172.725 179.207 172.652C179.217 172.44 179.239 172.228 179.274 172.018C179.385 171.239 179.593 170.477 179.894 169.75C180.328 168.665 180.982 167.683 181.816 166.866C182.331 166.353 182.942 165.947 183.614 165.671C184.286 165.394 185.006 165.253 185.733 165.255C186.459 165.258 187.178 165.403 187.848 165.684C188.519 165.964 189.127 166.374 189.639 166.89C190.473 167.716 191.128 168.706 191.561 169.798C191.857 170.526 192.062 171.288 192.171 172.066C192.205 172.276 192.226 172.488 192.234 172.7C192.248 172.77 192.251 172.841 192.243 172.912V172.912Z" fill="#263238"/>
<path d="M194.497 172.912C194.338 171.862 194.058 170.835 193.661 169.85C193.218 168.794 192.564 167.839 191.739 167.044C190.743 166.052 189.397 165.493 187.992 165.488C186.587 165.482 185.236 166.031 184.233 167.015C183.409 167.809 182.756 168.762 182.311 169.817C181.912 170.799 181.628 171.825 181.465 172.873C181.453 172.8 181.453 172.725 181.465 172.652C181.475 172.44 181.496 172.228 181.528 172.018C181.643 171.239 181.853 170.477 182.153 169.75C182.586 168.665 183.241 167.683 184.075 166.866C184.589 166.353 185.2 165.947 185.872 165.671C186.544 165.394 187.264 165.253 187.991 165.255C188.718 165.258 189.437 165.403 190.107 165.684C190.777 165.964 191.386 166.374 191.897 166.89C192.734 167.715 193.388 168.705 193.819 169.798C194.117 170.526 194.323 171.287 194.434 172.066C194.468 172.276 194.489 172.488 194.497 172.7C194.508 172.77 194.508 172.842 194.497 172.912V172.912Z" fill="#263238"/>
<path d="M171.625 171.562L197.068 171.408L197.62 199.027H169.073L171.625 171.562Z" fill="#455A64"/>
<path d="M197.068 171.408H200.258L203.011 199.027H197.62L197.068 171.408Z" fill="#263238"/>
<path d="M192.729 180.789H176.074V183.581H192.729V180.789Z" fill="white"/>
<path d="M165.384 185.617H61.3974C60.7167 185.605 60.0449 185.46 59.4204 185.189C58.7959 184.917 58.2309 184.526 57.7577 184.036C57.2845 183.547 56.9124 182.969 56.6627 182.335C56.4129 181.702 56.2903 181.025 56.302 180.345V21.3674C56.2898 20.6861 56.4119 20.009 56.6614 19.3748C56.9108 18.7406 57.2828 18.1619 57.756 17.6715C58.2291 17.1811 58.7943 16.7888 59.4191 16.5169C60.0439 16.245 60.7161 16.0989 61.3974 16.0869H165.388C166.069 16.0989 166.741 16.245 167.366 16.5169C167.991 16.7888 168.556 17.1811 169.029 17.6715C169.503 18.1619 169.875 18.7406 170.124 19.3748C170.373 20.009 170.496 20.6861 170.483 21.3674V180.345C170.506 181.72 169.981 183.048 169.025 184.037C168.069 185.025 166.759 185.594 165.384 185.617V185.617Z" fill="#E0E0E0"/>
<path d="M165.384 185.617L165.749 185.592C165.898 185.585 166.046 185.567 166.193 185.538C166.4 185.506 166.604 185.46 166.804 185.399C167.37 185.225 167.9 184.952 168.372 184.595C169.025 184.101 169.553 183.459 169.909 182.721C170.124 182.281 170.278 181.812 170.366 181.33C170.447 180.791 170.477 180.245 170.454 179.7C170.454 178.551 170.454 177.294 170.454 175.928C170.454 173.208 170.454 170.061 170.454 166.536C170.454 152.404 170.433 131.953 170.416 106.686C170.416 94.0505 170.416 80.2122 170.416 65.3555C170.416 57.9293 170.416 50.2557 170.416 42.335C170.416 38.376 170.416 34.3611 170.416 30.2904V24.1507C170.416 23.1239 170.416 22.0804 170.416 21.0536C170.394 20.5437 170.292 20.0404 170.115 19.5617C169.854 18.8356 169.433 18.1776 168.883 17.6364C168.333 17.0952 167.669 16.6847 166.939 16.4353C166.446 16.2829 165.933 16.2024 165.417 16.1964H61.4101C60.2208 16.2007 59.0732 16.6354 58.1794 17.4201C57.2946 18.2066 56.7035 19.2707 56.5033 20.4376C56.4225 21.0248 56.3945 21.6181 56.4195 22.2103V69.5045C56.4195 87.6846 56.4195 105.223 56.4195 121.932C56.4195 138.642 56.4195 154.512 56.4195 169.369C56.4195 173.088 56.4195 176.738 56.4195 180.32C56.4245 181.196 56.6385 182.058 57.0438 182.834C57.6608 183.996 58.7027 184.875 59.9519 185.286C60.36 185.412 60.7824 185.485 61.209 185.504C62.0722 185.529 62.9437 185.504 63.8028 185.504H83.6312L143.469 185.538L159.74 185.559H163.972H165.409H163.972H159.74L143.469 185.58L83.6312 185.613H63.8028C62.9396 185.613 62.0805 185.613 61.2006 185.613C60.757 185.596 60.3176 185.521 59.8932 185.391C58.6016 184.964 57.5241 184.056 56.8846 182.855C56.462 182.05 56.2406 181.154 56.2393 180.245C56.2393 176.66 56.2393 173.01 56.2393 169.294C56.2393 154.437 56.2393 138.562 56.2393 121.857C56.2393 105.152 56.2393 87.6091 56.2393 69.4291V22.2187C56.2146 21.6138 56.2441 21.0079 56.3273 20.4082C56.5369 19.1909 57.1564 18.0818 58.083 17.2651C59.0149 16.4598 60.2037 16.0139 61.4352 16.0078H165.367C165.905 16.0136 166.438 16.0983 166.951 16.2593C167.97 16.6004 168.86 17.2472 169.499 18.1116C169.821 18.5343 170.074 19.0053 170.249 19.5072C170.434 20.0047 170.541 20.5277 170.567 21.0578C170.597 22.1056 170.567 23.1533 170.567 24.1633V30.2945C170.567 34.3625 170.567 38.3774 170.567 42.3392C170.567 50.2516 170.567 57.9251 170.567 65.3597C170.567 80.2164 170.567 94.0547 170.567 106.69C170.567 131.957 170.542 152.409 170.534 166.54C170.534 170.073 170.534 173.212 170.534 175.932C170.534 177.29 170.534 178.547 170.534 179.704C170.556 180.252 170.523 180.801 170.437 181.343C170.349 181.83 170.192 182.302 169.972 182.746C169.609 183.488 169.074 184.133 168.414 184.628C167.927 184.978 167.382 185.239 166.804 185.399C166.604 185.46 166.4 185.506 166.193 185.538C166.044 185.564 165.895 185.581 165.744 185.588L165.384 185.617Z" fill="#263238"/>
<path d="M115.381 177.906C115.398 178.868 115.129 179.813 114.607 180.621C114.086 181.43 113.335 182.064 112.451 182.444C111.568 182.824 110.591 182.933 109.645 182.756C108.7 182.578 107.829 182.124 107.143 181.449C106.456 180.775 105.987 179.912 105.793 178.969C105.599 178.027 105.69 177.048 106.055 176.158C106.42 175.267 107.041 174.506 107.84 173.97C108.639 173.434 109.579 173.148 110.541 173.149C111.171 173.144 111.796 173.262 112.38 173.498C112.965 173.734 113.497 174.083 113.946 174.525C114.395 174.967 114.754 175.493 115 176.073C115.246 176.653 115.375 177.276 115.381 177.906V177.906Z" fill="white"/>
<path d="M125.09 25.0558H101.771C101.335 25.0428 100.922 24.8604 100.618 24.5474C100.314 24.2344 100.145 23.8155 100.145 23.3795V23.3795C100.145 22.9435 100.314 22.5245 100.618 22.2115C100.922 21.8986 101.335 21.7162 101.771 21.7031H125.09C125.526 21.7162 125.939 21.8986 126.243 22.2115C126.546 22.5245 126.716 22.9435 126.716 23.3795C126.716 23.8155 126.546 24.2344 126.243 24.5474C125.939 24.8604 125.526 25.0428 125.09 25.0558V25.0558Z" fill="#263238"/>
<path d="M166.783 28.1904H59.8008V169.759H166.783V28.1904Z" fill="white"/>
<path d="M166.804 169.763C166.804 168.904 166.762 112.096 166.708 28.1904L166.804 28.2868H59.8345L59.9434 28.1778C59.9434 80.874 59.9434 129.731 59.9225 169.75L59.8345 169.658L166.817 169.75L59.8345 169.838H59.7465V169.75C59.7465 129.731 59.7465 80.874 59.7465 28.1778V28.0688H59.8638H166.834H166.93V28.1652C166.804 112.096 166.804 168.904 166.804 169.763Z" fill="#263238"/>
<path d="M51.571 36.0234H72.2544V49.8534C72.2544 52.3898 71.2469 54.8223 69.4536 56.6159C67.6604 58.4094 65.2282 59.417 62.6921 59.417H61.1333C58.5987 59.417 56.1678 58.4105 54.3747 56.6188C52.5817 54.8271 51.5733 52.3967 51.571 49.8617V36.0318V36.0234Z" fill="#007BFF"/>
<path d="M72.1036 36.0234H92.7869V49.8534C92.7869 52.3898 91.7795 54.8223 89.9862 56.6159C88.193 58.4094 85.7608 59.417 83.2247 59.417H81.6659C79.1313 59.417 76.7003 58.4105 74.9073 56.6188C73.1143 54.8271 72.1059 52.3967 72.1036 49.8617V36.0318V36.0234Z" fill="#007BFF"/>
<path d="M92.6361 36.0234H113.319V49.8534C113.319 52.3898 112.312 54.8223 110.519 56.6159C108.725 58.4094 106.293 59.417 103.757 59.417H102.198C99.6638 59.417 97.2328 58.4105 95.4398 56.6188C93.6468 54.8271 92.6383 52.3967 92.6361 49.8617V36.0318V36.0234Z" fill="#007BFF"/>
<path d="M113.168 36.0234H133.848V49.8534C133.848 52.3898 132.84 54.8223 131.047 56.6159C129.254 58.4094 126.821 59.417 124.285 59.417H122.727C120.193 59.4159 117.763 58.4089 115.971 56.6173C114.179 54.8257 113.171 52.396 113.168 49.8617V36.0318V36.0234Z" fill="#007BFF"/>
<path d="M133.667 36.0234H154.351V49.8534C154.351 52.3898 153.343 54.8223 151.55 56.6159C149.757 58.4094 147.325 59.417 144.789 59.417H143.23C140.694 59.417 138.261 58.4094 136.468 56.6159C134.675 54.8223 133.667 52.3898 133.667 49.8534V36.0234Z" fill="#007BFF"/>
<path d="M154.187 36.0234H174.871V49.8534C174.871 52.3898 173.863 54.8223 172.07 56.6159C170.277 58.4094 167.844 59.417 165.308 59.417H163.75C161.214 59.417 158.781 58.4094 156.988 56.6159C155.195 54.8223 154.187 52.3898 154.187 49.8534V36.0234Z" fill="#007BFF"/>
<g opacity="0.3">
<path d="M72.1036 36.0234H92.7869V49.8534C92.7869 52.3898 91.7795 54.8223 89.9862 56.6159C88.193 58.4094 85.7608 59.417 83.2247 59.417H81.6659C79.1313 59.417 76.7003 58.4105 74.9073 56.6188C73.1143 54.8271 72.1059 52.3967 72.1036 49.8617V36.0318V36.0234Z" fill="white"/>
</g>
<g opacity="0.3">
<path d="M113.168 36.0234H133.848V49.8534C133.848 52.3898 132.84 54.8223 131.047 56.6159C129.254 58.4094 126.821 59.417 124.285 59.417H122.727C120.193 59.4159 117.763 58.4089 115.971 56.6173C114.179 54.8257 113.171 52.396 113.168 49.8617V36.0318V36.0234Z" fill="white"/>
</g>
<g opacity="0.3">
<path d="M154.187 36.0234H174.871V49.8534C174.871 52.3898 173.863 54.8223 172.07 56.6159C170.277 58.4094 167.844 59.417 165.308 59.417H163.75C161.214 59.417 158.781 58.4094 156.988 56.6159C155.195 54.8223 154.187 52.3898 154.187 49.8534V36.0234Z" fill="white"/>
</g>
<path d="M72.2751 35.7842C72.3338 35.7842 72.3841 39.4135 72.3841 43.8894C72.3841 48.3652 72.3338 51.9945 72.2751 51.9945C72.2164 51.9945 72.1661 48.3652 72.1661 43.8894C72.1661 39.4135 72.2164 35.7842 72.2751 35.7842Z" fill="#263238"/>
<path d="M92.7951 35.7842C92.8538 35.7842 92.8999 39.4135 92.8999 43.8894C92.8999 48.3652 92.8538 51.9945 92.7951 51.9945C92.7365 51.9945 92.6862 48.3652 92.6862 43.8894C92.6862 39.4135 92.7323 35.7842 92.7951 35.7842Z" fill="#263238"/>
<path d="M113.315 35.7842C113.374 35.7842 113.42 39.4135 113.42 43.8894C113.42 48.3652 113.374 51.9945 113.315 51.9945C113.257 51.9945 113.206 48.3652 113.206 43.8894C113.206 39.4135 113.253 35.7842 113.315 35.7842Z" fill="#263238"/>
<path d="M133.831 35.7842C133.894 35.7842 133.94 39.4135 133.94 43.8894C133.94 48.3652 133.894 51.9945 133.831 51.9945C133.768 51.9945 133.726 48.3652 133.726 43.8894C133.726 39.4135 133.772 35.7842 133.831 35.7842Z" fill="#263238"/>
<path d="M154.351 35.7842C154.414 35.7842 154.46 39.4135 154.46 43.8894C154.46 48.3652 154.414 51.9945 154.351 51.9945C154.288 51.9945 154.233 48.3568 154.233 43.8726C154.233 39.3883 154.292 35.7842 154.351 35.7842Z" fill="#263238"/>
<path d="M174.871 36.0651L166.859 28.1904H59.8387L51.5922 36.0651H174.871Z" fill="#007BFF"/>
<path d="M171.938 35.9562C171.938 36.0149 144.994 36.0861 111.769 36.1196C78.5442 36.1532 51.5922 36.1196 51.5922 36.0652C51.5922 36.0107 78.5274 35.9311 111.769 35.9017C145.011 35.8724 171.938 35.8933 171.938 35.9562Z" fill="#263238"/>
<path d="M85.0726 106.539H71.6804C70.8959 106.539 70.2599 107.175 70.2599 107.96V108.438C70.2599 109.222 70.8959 109.858 71.6804 109.858H85.0726C85.8571 109.858 86.4931 109.222 86.4931 108.438V107.96C86.4931 107.175 85.8571 106.539 85.0726 106.539Z" fill="#E0E0E0"/>
<path d="M104.788 106.317H99.768C98.9835 106.317 98.3475 106.953 98.3475 107.738V107.964C98.3475 108.749 98.9835 109.385 99.768 109.385H104.788C105.573 109.385 106.209 108.749 106.209 107.964V107.738C106.209 106.953 105.573 106.317 104.788 106.317Z" fill="#007BFF"/>
<path d="M85.0726 161.121H71.6804C70.8959 161.121 70.2599 161.757 70.2599 162.542V163.02C70.2599 163.804 70.8959 164.44 71.6804 164.44H85.0726C85.8571 164.44 86.4931 163.804 86.4931 163.02V162.542C86.4931 161.757 85.8571 161.121 85.0726 161.121Z" fill="#E0E0E0"/>
<path d="M103.447 161.121H97.7859C97.0013 161.121 96.3654 161.757 96.3654 162.542V163.02C96.3654 163.804 97.0013 164.44 97.7859 164.44H103.447C104.231 164.44 104.867 163.804 104.867 163.02V162.542C104.867 161.757 104.231 161.121 103.447 161.121Z" fill="#007BFF"/>
<path d="M138.499 107.017H125.107C124.322 107.017 123.686 107.653 123.686 108.438V108.916C123.686 109.7 124.322 110.336 125.107 110.336H138.499C139.284 110.336 139.919 109.7 139.919 108.916V108.438C139.919 107.653 139.284 107.017 138.499 107.017Z" fill="#E0E0E0"/>
<path d="M156.928 107.017H151.267C150.482 107.017 149.846 107.653 149.846 108.438V108.916C149.846 109.7 150.482 110.336 151.267 110.336H156.928C157.712 110.336 158.348 109.7 158.348 108.916V108.438C158.348 107.653 157.712 107.017 156.928 107.017Z" fill="#007BFF"/>
<path d="M138.683 161.604H125.291C124.506 161.604 123.87 162.24 123.87 163.024V163.502C123.87 164.287 124.506 164.923 125.291 164.923H138.683C139.468 164.923 140.104 164.287 140.104 163.502V163.024C140.104 162.24 139.468 161.604 138.683 161.604Z" fill="#E0E0E0"/>
<path d="M157.112 161.604H151.451C150.666 161.604 150.031 162.24 150.031 163.024V163.502C150.031 164.287 150.666 164.923 151.451 164.923H157.112C157.897 164.923 158.533 164.287 158.533 163.502V163.024C158.533 162.24 157.897 161.604 157.112 161.604Z" fill="#007BFF"/>
<path d="M100.698 63.5488H72.2881C69.592 63.5488 67.4064 65.7347 67.4064 68.4312V96.8454C67.4064 99.5419 69.592 101.728 72.2881 101.728H100.698C103.394 101.728 105.58 99.5419 105.58 96.8454V68.4312C105.58 65.7347 103.394 63.5488 100.698 63.5488Z" fill="#FAFAFA"/>
<path d="M100.702 101.733C100.702 101.733 100.828 101.733 101.071 101.704C101.433 101.667 101.791 101.597 102.14 101.494C102.701 101.307 103.226 101.023 103.69 100.656C104.322 100.155 104.82 99.5058 105.14 98.7657C105.326 98.3242 105.449 97.8586 105.504 97.3827C105.546 96.884 105.53 96.3517 105.53 95.7944C105.53 94.6838 105.53 93.4768 105.53 92.1818C105.53 89.5877 105.53 86.6331 105.53 83.381C105.53 80.1288 105.53 76.5414 105.53 72.7026C105.53 71.7415 105.53 70.7636 105.53 69.7689C105.53 68.7799 105.618 67.7573 105.24 66.8144C104.894 65.8499 104.248 65.0217 103.397 64.4507C102.513 63.8756 101.47 63.5954 100.417 63.6503H72.3424C71.1255 63.6513 69.9549 64.1168 69.0695 64.9517C68.1841 65.7866 67.6506 66.928 67.578 68.1429C67.5487 70.5568 67.578 72.954 67.578 75.3009C67.578 79.9989 67.578 84.5209 67.578 88.8501C67.578 91.0098 67.578 93.1122 67.578 95.1573C67.578 95.6686 67.578 96.1757 67.578 96.6828C67.569 97.1739 67.6312 97.6637 67.7624 98.1371C68.0211 99.0674 68.5559 99.8974 69.2961 100.517C70.0083 101.12 70.8833 101.498 71.8102 101.603C72.2633 101.637 72.7179 101.648 73.1721 101.636H79.6461L95.1125 101.674H99.3028H100.396H100.769H100.396H99.3028L95.1125 101.695L79.6461 101.729H74.5256H73.1721C72.7195 101.729 72.2628 101.729 71.7893 101.695C71.3168 101.636 70.8545 101.513 70.4149 101.331C69.9715 101.134 69.5559 100.881 69.1787 100.576C68.4126 99.9308 67.8567 99.0712 67.5822 98.1077C67.4462 97.6181 67.3827 97.1112 67.3937 96.6032C67.3937 96.0961 67.3937 95.589 67.3937 95.0777C67.3937 93.0326 67.3937 90.9301 67.3937 88.7704C67.3937 84.4538 67.3937 79.9193 67.3937 75.2213C67.3937 72.8702 67.3937 70.4898 67.3937 68.0507C67.4877 66.8099 68.0426 65.6492 68.949 64.7969C69.8555 63.9445 71.0481 63.4623 72.2921 63.4449H100.367C101.459 63.3904 102.541 63.6839 103.455 64.2831C104.338 64.8795 105.009 65.7409 105.37 66.7431C105.547 67.2301 105.645 67.7423 105.659 68.2602C105.659 68.7673 105.659 69.2619 105.659 69.7606V72.6942C105.659 76.533 105.659 80.1079 105.659 83.3726C105.659 86.6373 105.659 89.5918 105.659 92.1734C105.659 93.4684 105.659 94.688 105.659 95.786C105.659 96.3434 105.659 96.8756 105.622 97.3869C105.561 97.87 105.434 98.3425 105.245 98.7908C104.913 99.5388 104.402 100.194 103.757 100.698C103.284 101.068 102.749 101.351 102.177 101.536C101.826 101.636 101.465 101.699 101.1 101.724L100.702 101.733Z" fill="#007BFF"/>
<path d="M101.729 81.5572C101.729 81.5572 97.7859 73.5694 97.1825 72.9617C96.746 72.6018 96.2607 72.3055 95.7411 72.0816C95.4471 71.9301 95.1433 71.7985 94.8318 71.6877L94.7689 71.6625C93.0677 71.0339 90.4026 70.4053 90.4026 70.4053C90.4026 70.4053 89.7238 72.7186 86.4931 72.8863C83.2665 72.7186 82.5877 70.4053 82.5877 70.4053C82.5877 70.4053 79.9185 71.0507 78.2214 71.6625L78.1544 71.6877C77.8441 71.7984 77.5418 71.93 77.2493 72.0816C76.7286 72.3034 76.243 72.5999 75.8078 72.9617C75.2002 73.5694 71.2614 81.5572 71.2614 81.5572L77.023 84.4406L78.7746 80.455L78.389 94.8759H94.7312L94.2409 80.4383L95.9925 84.4238L101.729 81.5572Z" fill="#007BFF"/>
<path d="M78.7749 84.0302C78.7284 83.5918 78.7144 83.1506 78.733 82.7101C78.733 81.8719 78.733 80.7488 78.7665 79.4622V79.5041L78.536 78.9341C78.008 77.6014 77.5386 76.3944 77.2075 75.5185C77.0441 75.0785 76.9141 74.7223 76.8303 74.4708C76.7773 74.3458 76.7393 74.215 76.7172 74.0811C76.7966 74.1917 76.8601 74.3131 76.9058 74.4415C77.0189 74.6804 77.1698 75.0282 77.35 75.4599C77.7146 76.3232 78.1882 77.5218 78.7372 78.8503C78.8126 79.0473 78.8922 79.24 78.9635 79.4244V79.4454C78.9341 80.732 78.8964 81.8719 78.8587 82.6933C78.8661 83.1405 78.8381 83.5875 78.7749 84.0302V84.0302Z" fill="#263238"/>
<path d="M94.1785 84.0302C94.1138 83.5945 94.0816 83.1546 94.0821 82.7142C94.0443 81.876 94.0066 80.7529 93.9773 79.4663V79.4453C94.0485 79.2609 94.124 79.0681 94.2036 78.8712C94.7317 77.5427 95.222 76.3566 95.5908 75.4807C95.771 75.0617 95.9219 74.7012 96.0308 74.4624C96.1398 74.2235 96.2068 74.0936 96.2236 74.1019C96.2015 74.2359 96.1635 74.3667 96.1105 74.4917C96.0266 74.7432 95.8967 75.0994 95.7291 75.5394C95.4022 76.4153 94.9328 77.6349 94.4048 78.955L94.1743 79.525V79.483C94.1994 80.7697 94.2078 81.9096 94.2078 82.731C94.2311 83.1642 94.2213 83.5985 94.1785 84.0302V84.0302Z" fill="#263238"/>
<path d="M90.9894 82.6386C90.9894 82.6386 91.1528 82.6386 91.4294 82.5506C91.7672 82.4592 92.0732 82.2762 92.3135 82.0218C92.5538 81.7673 92.7192 81.4514 92.7912 81.1089C92.8292 80.7709 92.8391 80.4302 92.8206 80.0905C92.8206 79.3488 92.8206 78.5273 92.8206 77.6473L92.9253 77.7478H88.3705L88.4752 77.6431C88.4752 78.6112 88.4752 79.5206 88.4752 80.342C88.4752 80.5473 88.4752 80.7611 88.4752 80.9287C88.5013 81.1755 88.5775 81.4144 88.6993 81.6306C88.8211 81.8468 88.9858 82.0358 89.1834 82.186C89.5533 82.4716 90.0111 82.6197 90.4782 82.6051C90.6507 82.5993 90.8233 82.6105 90.9936 82.6386C90.8237 82.6698 90.6509 82.6825 90.4782 82.6763C89.9904 82.725 89.5017 82.5938 89.1038 82.3075C88.823 82.1046 88.6005 81.8314 88.4585 81.5154C88.3799 81.3367 88.3277 81.1476 88.3034 80.9539C88.2825 80.7485 88.3034 80.5348 88.2825 80.3462C88.2825 79.508 88.2825 78.6153 88.2825 77.6473V77.5425H93.0133V77.6473C93.0133 78.5273 93.0133 79.3488 93.0133 80.0905C93.0274 80.4407 93.0092 80.7914 92.9588 81.1383C92.8878 81.447 92.7442 81.7344 92.5398 81.9764C92.263 82.3144 91.8783 82.5467 91.4503 82.6344C91.339 82.6592 91.225 82.6704 91.1109 82.6679C91.0313 82.6512 90.9894 82.647 90.9894 82.6386Z" fill="#263238"/>
<path d="M100.698 117.637H72.2881C69.592 117.637 67.4064 119.823 67.4064 122.519V150.933C67.4064 153.63 69.592 155.816 72.2881 155.816H100.698C103.394 155.816 105.58 153.63 105.58 150.933V122.519C105.58 119.823 103.394 117.637 100.698 117.637Z" fill="#FAFAFA"/>
<path d="M100.702 155.82C100.702 155.82 100.828 155.82 101.071 155.786C101.433 155.754 101.791 155.685 102.139 155.581C102.701 155.394 103.226 155.11 103.69 154.743C104.322 154.242 104.82 153.593 105.14 152.853C105.326 152.411 105.449 151.945 105.504 151.47C105.546 150.971 105.529 150.439 105.529 149.881C105.529 148.771 105.529 147.564 105.529 146.269C105.529 143.674 105.529 140.72 105.529 137.468C105.529 134.216 105.529 130.628 105.529 126.789C105.529 125.831 105.529 124.853 105.529 123.856C105.529 122.867 105.617 121.844 105.24 120.922C104.894 119.958 104.248 119.129 103.397 118.559C102.513 117.983 101.47 117.703 100.417 117.758H72.3423C71.1254 117.759 69.9547 118.225 69.0693 119.059C68.1839 119.894 67.6505 121.036 67.5779 122.251C67.5486 124.66 67.5779 127.062 67.5779 129.409C67.5779 134.107 67.5779 138.629 67.5779 142.958C67.5779 145.118 67.5779 147.22 67.5779 149.265C67.5779 149.776 67.5779 150.284 67.5779 150.791C67.5689 151.282 67.631 151.772 67.7623 152.245C68.0222 153.175 68.5567 154.004 69.2959 154.625C70.0081 155.228 70.8831 155.606 71.8101 155.711C72.2632 155.745 72.7177 155.756 73.1719 155.744H79.646L95.1123 155.782H99.3026H100.396H100.769H100.396H99.3026H95.1123L79.646 155.815H73.0923C72.6398 155.815 72.183 155.815 71.7095 155.782C71.2371 155.723 70.7748 155.6 70.3351 155.417C69.8918 155.221 69.4761 154.968 69.099 154.663C68.3455 154.045 67.7879 153.22 67.4941 152.291C67.3581 151.801 67.2946 151.294 67.3055 150.786C67.3055 150.279 67.3055 149.772 67.3055 149.261C67.3055 147.216 67.3055 145.113 67.3055 142.954C67.3055 138.637 67.3055 134.103 67.3055 129.405C67.3055 127.053 67.3055 124.669 67.3055 122.234C67.3794 120.964 67.9361 119.77 68.8617 118.897C69.7873 118.025 71.0115 117.539 72.2836 117.54H100.359C101.451 117.486 102.532 117.779 103.447 118.378C104.33 118.975 105 119.836 105.362 120.838C105.539 121.325 105.637 121.837 105.651 122.355C105.651 122.863 105.651 123.357 105.651 123.856V126.789C105.651 130.628 105.651 134.203 105.651 137.468C105.651 140.732 105.651 143.687 105.651 146.269C105.651 147.564 105.651 148.783 105.651 149.881C105.651 150.439 105.651 150.971 105.613 151.482C105.553 151.964 105.426 152.435 105.236 152.882C104.905 153.632 104.394 154.288 103.749 154.793C103.275 155.163 102.741 155.447 102.169 155.631C101.817 155.731 101.456 155.794 101.092 155.82H100.702Z" fill="#E0E0E0"/>
<path d="M90.4025 124.477C90.4025 124.477 93.0675 125.122 94.7688 125.734L94.8316 125.759C95.1432 125.87 95.447 126.001 95.7409 126.153C96.2605 126.377 96.7458 126.673 97.1824 127.033C97.7858 127.641 101.729 135.628 101.729 135.628L95.963 138.512L94.2114 134.526L94.7017 148.964H78.3889L78.787 134.526L77.0354 138.512L71.2654 135.645C71.2654 135.645 75.2043 127.657 75.8119 127.05C76.2471 126.688 76.7327 126.391 77.2533 126.17C77.5458 126.018 77.8482 125.886 78.1584 125.776L78.2255 125.751C79.9225 125.122 82.5918 124.493 82.5918 124.493L83.0485 122.938L86.3546 125.143L90.0547 122.938L90.4025 124.477Z" fill="#E0E0E0"/>
<path d="M78.7749 138.117C78.7284 137.679 78.7144 137.238 78.733 136.797C78.733 135.959 78.733 134.836 78.7665 133.549V133.591L78.536 133.017C78.008 131.689 77.5386 130.482 77.2075 129.606C77.0441 129.166 76.9141 128.809 76.8303 128.558C76.7763 128.432 76.7383 128.3 76.7172 128.164C76.7947 128.277 76.8581 128.4 76.9058 128.529C77.0189 128.768 77.1698 129.115 77.35 129.547C77.7146 130.41 78.1882 131.609 78.7372 132.937C78.8126 133.134 78.8922 133.327 78.9635 133.512V133.533V133.554C78.9341 134.84 78.8964 135.98 78.8587 136.801C78.865 137.242 78.837 137.682 78.7749 138.117Z" fill="#263238"/>
<path d="M94.3377 138.235C94.2553 137.789 94.2063 137.338 94.191 136.885C94.1282 136.047 94.0527 134.874 93.9773 133.558V133.533V133.512L94.1785 132.996C94.7149 131.651 95.2136 130.44 95.5824 129.564C95.7668 129.145 95.9177 128.776 96.0308 128.533C96.076 128.401 96.141 128.276 96.2236 128.164C96.2036 128.308 96.1641 128.449 96.1063 128.583C96.0224 128.83 95.8883 129.195 95.7249 129.639C95.3896 130.528 94.9161 131.735 94.3796 133.093L94.1743 133.608V133.562C94.2413 134.878 94.2916 136.051 94.321 136.915C94.3593 137.354 94.3649 137.795 94.3377 138.235Z" fill="#263238"/>
<path d="M90.9894 136.726C90.9894 136.726 91.1528 136.726 91.4294 136.638C91.7672 136.547 92.0732 136.364 92.3135 136.11C92.5538 135.855 92.7192 135.539 92.7912 135.197C92.8292 134.859 92.8391 134.518 92.8206 134.178C92.8206 133.437 92.8206 132.615 92.8206 131.735L92.9253 131.836H88.3705L88.4752 131.731C88.4752 132.699 88.4752 133.608 88.4752 134.43C88.4752 134.635 88.4752 134.849 88.4752 135.017C88.5013 135.263 88.5775 135.502 88.6993 135.718C88.8211 135.935 88.9858 136.124 89.1834 136.274C89.5533 136.559 90.0111 136.708 90.4782 136.693C90.6507 136.687 90.8233 136.698 90.9936 136.726C90.8237 136.758 90.6509 136.77 90.4782 136.764C89.9904 136.813 89.5017 136.682 89.1038 136.395C88.823 136.192 88.6005 135.919 88.4585 135.603C88.3799 135.425 88.3277 135.235 88.3034 135.042C88.2825 134.836 88.3034 134.623 88.2825 134.434C88.2825 133.596 88.2825 132.703 88.2825 131.735V131.63H93.0133V131.756C93.0133 132.636 93.0133 133.458 93.0133 134.199C93.0274 134.55 93.0092 134.9 92.9588 135.247C92.8869 135.556 92.7434 135.843 92.5398 136.085C92.263 136.423 91.8783 136.656 91.4503 136.743C91.339 136.768 91.225 136.779 91.1109 136.777C91.0313 136.739 90.9894 136.735 90.9894 136.726Z" fill="#263238"/>
<path d="M77.6641 137.07C76.6725 136.682 75.7091 136.226 74.7812 135.704C73.8183 135.247 72.8874 134.726 71.9946 134.145C72.9874 134.533 73.9521 134.989 74.8817 135.511C75.842 135.97 76.7714 136.49 77.6641 137.07V137.07Z" fill="#263238"/>
<path d="M154.573 64.144H126.163C123.467 64.144 121.281 66.33 121.281 69.0264V97.4406C121.281 100.137 123.467 102.323 126.163 102.323H154.573C157.269 102.323 159.455 100.137 159.455 97.4406V69.0264C159.455 66.33 157.269 64.144 154.573 64.144Z" fill="#FAFAFA"/>
<path d="M154.573 102.323L154.946 102.294C155.307 102.262 155.664 102.191 156.01 102.084C156.573 101.9 157.098 101.616 157.56 101.246C158.194 100.747 158.694 100.097 159.014 99.3562C159.197 98.9152 159.318 98.4513 159.375 97.9774C159.421 97.4787 159.4 96.9464 159.404 96.3891C159.404 95.2785 159.404 94.0715 159.404 92.7765C159.404 90.1782 159.404 87.2278 159.404 83.9757C159.404 80.7235 159.404 77.1319 159.404 73.2931C159.404 72.332 159.404 71.3541 159.404 70.3595C159.404 69.3662 159.488 68.3478 159.115 67.4258C158.768 66.4604 158.12 65.6318 157.267 65.0622C156.385 64.4847 155.341 64.2042 154.288 64.2617H126.213C124.997 64.2617 123.827 64.7264 122.942 65.5608C122.057 66.3951 121.524 67.536 121.453 68.7502C121.423 71.1641 121.453 73.5655 121.453 75.9124C121.453 80.6104 121.453 85.1323 121.453 89.4615C121.453 91.6212 121.453 93.7237 121.453 95.7688V97.2901C121.443 97.7824 121.503 98.2735 121.633 98.7485C121.896 99.6757 122.43 100.503 123.166 101.125C123.527 101.423 123.928 101.67 124.357 101.858C124.779 102.037 125.225 102.155 125.681 102.21C126.135 102.246 126.591 102.259 127.047 102.248H128.396H133.521L148.983 102.281L153.173 102.302H154.267H154.64H154.267H153.173L148.983 102.323L133.521 102.361H126.967C126.515 102.361 126.054 102.361 125.58 102.323C125.108 102.267 124.645 102.146 124.206 101.963C123.762 101.768 123.348 101.513 122.974 101.204C122.206 100.562 121.65 99.7034 121.377 98.7401C121.242 98.249 121.177 97.7409 121.184 97.2314V95.7101C121.184 93.665 121.184 91.5626 121.184 89.4029C121.184 85.082 121.184 80.5517 121.184 75.8537C121.184 73.5026 121.184 71.118 121.184 68.6789C121.272 67.4192 121.835 66.2397 122.758 65.378C123.681 64.5163 124.896 64.0366 126.158 64.0354H154.233C155.325 63.9823 156.406 64.2757 157.322 64.8736C158.215 65.4682 158.895 66.3332 159.262 67.342C159.442 67.828 159.54 68.3408 159.551 68.8591C159.551 69.3704 159.551 69.8649 159.551 70.3636C159.551 71.3527 159.551 72.3292 159.551 73.2973C159.551 77.1361 159.551 80.7151 159.551 83.9798C159.551 87.2445 159.551 90.1949 159.551 92.7807C159.551 94.0757 159.551 95.2952 159.551 96.3932C159.551 96.9506 159.551 97.4787 159.513 97.99C159.454 98.4733 159.327 98.9459 159.136 99.3939C158.808 100.144 158.296 100.8 157.648 101.301C157.178 101.673 156.644 101.957 156.073 102.139C155.721 102.243 155.358 102.306 154.992 102.328C154.698 102.328 154.573 102.323 154.573 102.323Z" fill="#E0E0E0"/>
<path d="M144.202 70.9877C144.202 70.9877 146.867 71.6331 148.568 72.2449L148.631 72.2701C148.943 72.3809 149.247 72.5125 149.541 72.664C150.062 72.8847 150.548 73.1812 150.982 73.5441C151.585 74.1476 155.528 82.1396 155.528 82.1396L149.763 85.023L148.011 81.0458L148.501 95.4876H132.159L132.557 81.0458L130.806 85.0355L125.044 82.1522C125.044 82.1522 128.983 74.1602 129.591 73.5567C130.024 73.192 130.51 72.8953 131.032 72.6766C131.324 72.525 131.627 72.3934 131.937 72.2827L132.025 72.2449C133.722 71.6163 136.391 70.9877 136.391 70.9877L136.329 68.2217H144.127L144.202 70.9877Z" fill="#455A64"/>
<path d="M136.157 95.1273L125.543 88.5267C124.803 87.9904 124.276 87.2114 124.053 86.3257C123.831 85.4401 123.926 84.5044 124.323 83.682L125.061 82.1523L130.822 85.0357L138.784 90.9951L136.157 95.1273Z" fill="#455A64"/>
<path d="M128.752 83.8286C128.804 83.8451 128.853 83.8676 128.899 83.8957L129.318 84.1136L130.864 84.9811C132.632 86.2761 135.52 88.4176 138.826 90.907L138.905 90.9657L138.855 91.0495L138.017 92.3864C137.401 93.3545 136.806 94.2933 136.24 95.1775L136.186 95.2655L136.098 95.2111L129.666 91.1669L127.797 89.9683L127.298 89.6372C127.24 89.6022 127.185 89.5615 127.135 89.5156C127.135 89.5156 127.202 89.5408 127.319 89.6078L127.835 89.9054L129.737 91.0537L136.215 95.035L136.073 95.0686C136.634 94.1843 137.229 93.2413 137.845 92.2774L138.683 90.9364L138.713 91.083C135.39 88.5685 132.523 86.4186 130.785 85.0817L129.268 84.1681L128.874 83.9166C128.829 83.8933 128.788 83.8636 128.752 83.8286V83.8286Z" fill="#263238"/>
<path d="M144.353 95.002L154.967 88.4014C155.705 87.8653 156.231 87.087 156.454 86.2023C156.677 85.3176 156.582 84.3828 156.186 83.5609L155.449 82.0312L149.687 84.9146L141.725 90.8782L144.353 95.002Z" fill="#455A64"/>
<path d="M151.757 83.7031C151.718 83.741 151.674 83.7735 151.627 83.7995L151.233 84.0468L149.716 84.9646C147.977 86.2973 145.107 88.4682 141.788 90.9617L141.813 90.8193L142.651 92.1561L144.424 94.9515L144.281 94.9179L150.751 90.9366L152.653 89.7925L153.169 89.4907C153.226 89.4525 153.288 89.4216 153.353 89.3985C153.303 89.4473 153.247 89.4895 153.186 89.5243L152.691 89.8512L150.822 91.0498L144.39 95.094L144.302 95.1484L144.248 95.0604L142.5 92.2693C142.211 91.8083 141.922 91.3557 141.662 90.9282L141.612 90.8444L141.692 90.7857C145.019 88.2963 147.906 86.1548 149.674 84.864L151.22 83.9965L151.639 83.7744C151.676 83.7461 151.715 83.7222 151.757 83.7031V83.7031Z" fill="#263238"/>
<path d="M137.72 71.2771C137.612 70.7833 137.576 70.2767 137.611 69.7726C137.575 69.2685 137.612 68.7619 137.72 68.2681C137.827 68.7619 137.864 69.2685 137.828 69.7726C137.863 70.2767 137.827 70.7833 137.72 71.2771V71.2771Z" fill="#263238"/>
<path d="M139.412 71.2771C139.305 70.7833 139.269 70.2767 139.303 69.7726C139.268 69.2685 139.305 68.7619 139.412 68.2681C139.52 68.7619 139.556 69.2685 139.521 69.7726C139.556 70.2767 139.519 70.7833 139.412 71.2771Z" fill="#263238"/>
<path d="M140.959 71.2434C140.852 70.7496 140.815 70.243 140.85 69.7389C140.815 69.2348 140.852 68.7282 140.959 68.2344C141.066 68.7282 141.103 69.2348 141.068 69.7389C141.103 70.243 141.066 70.7496 140.959 71.2434V71.2434Z" fill="#263238"/>
<path d="M142.668 71.2434C142.561 70.7496 142.524 70.243 142.559 69.7389C142.524 69.2348 142.561 68.7282 142.668 68.2344C142.775 68.7282 142.812 69.2348 142.777 69.7389C142.812 70.243 142.775 70.7496 142.668 71.2434V71.2434Z" fill="#263238"/>
<path d="M148.145 83.8291H132.766L132.586 79.9106H147.881L148.145 83.8291Z" fill="#E0E0E0"/>
<path d="M132.49 84.4788C132.44 84.035 132.425 83.588 132.444 83.1419C132.444 82.3246 132.444 81.1805 132.478 79.8981V79.94C132.415 79.7808 132.352 79.6131 132.285 79.4455C131.769 78.1337 131.313 76.931 130.994 76.0928C130.835 75.6737 130.709 75.3091 130.625 75.066C130.572 74.9415 130.535 74.8104 130.516 74.6763C130.594 74.7865 130.657 74.9062 130.705 75.0325C130.81 75.2714 130.956 75.6108 131.124 76.0383C131.48 76.8765 131.962 78.0709 132.473 79.391C132.536 79.5587 132.603 79.7263 132.666 79.8855V79.9065V79.9275C132.637 81.2099 132.599 82.3498 132.561 83.1712C132.571 83.6082 132.547 84.0454 132.49 84.4788Z" fill="#263238"/>
<path d="M148.132 84.6206C148.05 84.1878 148.002 83.7492 147.99 83.3088C147.923 82.4706 147.847 81.3475 147.776 80.0609V80.0399V80.0148C147.847 79.8346 147.923 79.6418 148.003 79.449C148.531 78.1163 149.021 76.9345 149.386 76.0544C149.57 75.6353 149.721 75.2749 149.83 75.036C149.877 74.9072 149.941 74.7847 150.018 74.6714C150.003 74.8076 149.966 74.9405 149.909 75.0653C149.826 75.3126 149.696 75.673 149.528 76.1089C149.201 76.989 148.732 78.2043 148.2 79.5286C148.124 79.7214 148.049 79.9142 147.973 80.0944V80.0525C148.04 81.3391 148.091 82.479 148.116 83.3004C148.156 83.7393 148.162 84.1808 148.132 84.6206Z" fill="#263238"/>
<path d="M136.89 94.0708C135.904 93.568 134.987 92.9397 134.162 92.2017C134.672 92.4171 135.151 92.6989 135.587 93.0398C136.065 93.3249 136.503 93.6716 136.89 94.0708V94.0708Z" fill="#263238"/>
<path d="M137.866 92.6588C137.427 92.358 137.007 92.029 136.609 91.6739C136.17 91.3773 135.75 91.0525 135.352 90.7017C136.356 91.1065 137.227 91.7845 137.866 92.6588Z" fill="#263238"/>
<path d="M144.747 90.7144C144.036 91.2816 143.238 91.7289 142.383 92.0387C142.718 91.7307 143.098 91.4763 143.511 91.2843C143.891 91.0326 144.308 90.8404 144.747 90.7144Z" fill="#263238"/>
<path d="M145.941 92.1646C145.625 92.4848 145.26 92.7534 144.86 92.9608C144.498 93.2298 144.095 93.4379 143.666 93.5769C143.982 93.2567 144.347 92.988 144.747 92.7806C145.109 92.5116 145.512 92.3035 145.941 92.1646Z" fill="#263238"/>
<path d="M90.2601 124.631C90.0139 124.902 89.7463 125.153 89.4598 125.382C88.9444 125.834 88.2027 126.467 87.3395 127.205L87.2431 127.284L87.1844 127.171L86.2374 125.34H86.4344V125.361L85.722 127.171L85.6676 127.309L85.5628 127.213C84.6828 126.433 83.9328 125.759 83.4048 125.273C83.115 125.03 82.8446 124.765 82.5961 124.48C82.9098 124.692 83.208 124.926 83.4886 125.18C84.0375 125.637 84.8044 126.291 85.6969 127.058L85.5335 127.1L86.2333 125.285V125.26L86.3212 125.034L86.4302 125.247L87.3646 127.087L87.2096 127.058C88.0896 126.333 88.8438 125.721 89.3802 125.293C89.6559 125.05 89.9501 124.829 90.2601 124.631Z" fill="#263238"/>
<path d="M86.4972 148.863C86.4783 148.776 86.4698 148.688 86.472 148.599C86.472 148.402 86.472 148.146 86.472 147.836C86.472 147.145 86.472 146.193 86.4385 145.028C86.4385 142.635 86.4385 139.375 86.4092 135.775C86.4092 132.883 86.4092 130.214 86.4092 128.047H86.581C86.581 128.546 86.581 129.007 86.581 129.442H86.4259C86.4259 128.235 86.4511 127.251 86.4595 126.538C86.4595 126.211 86.4595 125.951 86.4595 125.746C86.457 125.655 86.4654 125.563 86.4846 125.474C86.498 125.564 86.5049 125.655 86.5056 125.746C86.5056 125.951 86.5056 126.211 86.5056 126.538C86.5056 127.251 86.5265 128.235 86.5391 129.442H86.384C86.384 129.023 86.384 128.546 86.384 128.047H86.5559C86.5559 130.214 86.5559 132.883 86.5559 135.775C86.5559 139.375 86.5559 142.635 86.5265 145.028C86.5265 146.193 86.5014 147.145 86.493 147.836C86.493 148.146 86.493 148.402 86.493 148.599C86.5005 148.687 86.5019 148.775 86.4972 148.863V148.863Z" fill="#263238"/>
<path d="M100.912 133.78C100.686 133.997 100.434 134.184 100.162 134.337C99.6841 134.651 99.0011 135.062 98.2259 135.469C97.4506 135.875 96.7257 136.202 96.1936 136.416C95.9155 136.555 95.6193 136.656 95.3136 136.713C95.2885 136.655 96.5707 136.089 98.1253 135.276C99.6799 134.463 100.874 133.729 100.912 133.78Z" fill="#263238"/>
<path d="M154.522 117.385H126.112C123.416 117.385 121.23 119.571 121.23 122.268V150.682C121.23 153.378 123.416 155.564 126.112 155.564H154.522C157.218 155.564 159.404 153.378 159.404 150.682V122.268C159.404 119.571 157.218 117.385 154.522 117.385Z" fill="#FAFAFA"/>
<path d="M154.527 155.564L154.9 155.535C155.26 155.5 155.617 155.43 155.964 155.325C156.526 155.138 157.05 154.854 157.514 154.487C158.147 153.987 158.646 153.338 158.964 152.597C159.15 152.156 159.273 151.69 159.329 151.214C159.371 150.72 159.354 150.183 159.354 149.63C159.354 148.512 159.354 147.307 159.354 146.013C159.354 143.419 159.354 140.464 159.354 137.212C159.354 133.96 159.354 130.373 159.354 126.534V123.6C159.333 122.611 159.438 121.589 159.065 120.646C158.715 119.683 158.068 118.857 157.217 118.286C156.335 117.708 155.291 117.426 154.238 117.482H126.163C124.946 117.484 123.776 117.949 122.891 118.784C122.006 119.619 121.472 120.76 121.398 121.974C121.369 124.388 121.398 126.79 121.398 129.132C121.398 133.83 121.398 138.352 121.398 142.681C121.398 144.841 121.398 146.944 121.398 148.989V150.514C121.386 151.007 121.447 151.498 121.578 151.973C121.84 152.9 122.374 153.728 123.112 154.349C123.474 154.646 123.874 154.892 124.302 155.082C124.726 155.259 125.171 155.377 125.626 155.434C126.075 155.48 126.536 155.468 126.992 155.472H128.254H133.378L148.84 155.506L153.031 155.526H154.124H154.497C154.497 155.526 154.372 155.526 154.124 155.526H153.031L148.84 155.547L133.378 155.581L128.254 155.644H126.904C126.452 155.644 125.991 155.644 125.517 155.61C125.045 155.551 124.583 155.43 124.143 155.25C123.693 155.052 123.27 154.797 122.886 154.491C122.119 153.847 121.564 152.987 121.293 152.023C121.154 151.534 121.089 151.027 121.101 150.518V148.993C121.101 146.948 121.101 144.845 121.101 142.686C121.101 138.369 121.101 133.834 121.101 129.136C121.101 126.785 121.101 124.405 121.101 121.966C121.176 120.696 121.734 119.504 122.659 118.632C123.584 117.759 124.807 117.273 126.079 117.272H154.154C155.246 117.218 156.327 117.511 157.242 118.11C158.127 118.704 158.798 119.567 159.157 120.57C159.338 121.056 159.436 121.569 159.446 122.087C159.446 122.594 159.446 123.093 159.446 123.588C159.446 124.582 159.446 125.56 159.446 126.521C159.446 130.36 159.446 133.935 159.446 137.2C159.446 140.464 159.446 143.419 159.446 146.001C159.446 147.3 159.446 148.515 159.446 149.617C159.446 150.171 159.446 150.703 159.408 151.214C159.349 151.697 159.222 152.17 159.031 152.618C158.746 153.266 158.324 153.845 157.795 154.316C157.265 154.787 156.641 155.138 155.964 155.346C155.613 155.446 155.252 155.509 154.887 155.535L154.527 155.564Z" fill="#E0E0E0"/>
<path d="M157.586 143.549C157.586 143.549 151.623 127.402 151.015 126.786C150.58 126.423 150.094 126.125 149.574 125.901C149.28 125.75 148.976 125.618 148.664 125.508L148.602 125.482C146.9 124.858 144.235 124.225 144.235 124.225C144.235 124.225 143.556 126.538 140.326 126.706C137.099 126.538 136.42 124.225 136.42 124.225C136.42 124.225 133.755 124.875 132.054 125.482L131.991 125.508C131.68 125.618 131.376 125.75 131.082 125.901C130.561 126.125 130.076 126.423 129.64 126.786C129.033 127.389 123.514 143.725 123.514 143.725L128.254 145.364L132.603 134.271L132.184 148.708H148.526L148.036 134.271L153.102 145.804L157.586 143.549Z" fill="#007BFF"/>
<path d="M149.352 130.079C149.352 130.142 145.337 130.188 140.385 130.188C135.432 130.188 131.422 130.142 131.422 130.079C131.422 130.017 135.432 129.975 140.385 129.975C145.337 129.975 149.352 130.029 149.352 130.079Z" fill="white"/>
<path d="M148.082 135.628C147.883 135.662 147.681 135.676 147.479 135.67L145.828 135.703C144.437 135.724 142.513 135.737 140.38 135.737C138.247 135.737 136.332 135.737 134.933 135.703L133.286 135.67C133.084 135.676 132.882 135.662 132.683 135.628C132.882 135.597 133.084 135.582 133.286 135.586L134.933 135.553C136.324 135.532 138.247 135.519 140.38 135.519C142.513 135.519 144.428 135.519 145.828 135.553L147.479 135.586C147.681 135.582 147.883 135.597 148.082 135.628V135.628Z" fill="white"/>
<path d="M148.082 140.884C147.883 140.915 147.681 140.929 147.479 140.926L145.828 140.959C144.437 140.959 142.513 140.989 140.38 140.989C138.247 140.989 136.332 140.989 134.933 140.959L133.286 140.926C133.084 140.929 132.882 140.915 132.683 140.884C132.882 140.85 133.084 140.836 133.286 140.842L134.933 140.804C136.324 140.804 138.247 140.775 140.38 140.775C142.513 140.775 144.428 140.775 145.828 140.804L147.479 140.842C147.681 140.836 147.883 140.85 148.082 140.884V140.884Z" fill="white"/>
<path d="M148.082 146.135C147.883 146.169 147.681 146.183 147.479 146.177L145.828 146.21C144.437 146.231 142.513 146.244 140.38 146.244C138.247 146.244 136.332 146.244 134.933 146.21L133.286 146.177C133.084 146.183 132.882 146.169 132.683 146.135C132.882 146.101 133.084 146.087 133.286 146.093L134.933 146.059C136.324 146.038 138.247 146.026 140.38 146.026C142.513 146.026 144.428 146.026 145.828 146.059L147.479 146.093C147.681 146.087 147.883 146.101 148.082 146.135V146.135Z" fill="white"/>
<path d="M132.604 137.862C132.554 137.424 132.538 136.983 132.557 136.542C132.557 135.725 132.557 134.581 132.591 133.294V133.336L132.36 132.766C131.832 131.438 131.363 130.226 131.036 129.351C130.869 128.911 130.739 128.554 130.655 128.307C130.602 128.181 130.564 128.048 130.542 127.913C130.542 127.913 130.625 128.035 130.734 128.274C130.843 128.512 130.994 128.86 131.174 129.292C131.543 130.155 132.034 131.354 132.562 132.687C132.641 132.879 132.717 133.072 132.788 133.256V133.277V133.298C132.759 134.585 132.721 135.725 132.683 136.546C132.689 136.986 132.663 137.426 132.604 137.862V137.862Z" fill="#263238"/>
<path d="M148.007 137.862C147.936 137.427 147.903 136.987 147.906 136.546C147.868 135.708 147.831 134.585 147.801 133.298V133.277V133.256C147.873 133.072 147.948 132.879 148.028 132.686C148.556 131.354 149.05 130.172 149.415 129.292C149.595 128.873 149.746 128.512 149.855 128.273C149.964 128.035 150.031 127.905 150.048 127.913C150.025 128.048 149.987 128.18 149.935 128.307C149.851 128.554 149.721 128.91 149.557 129.35C149.226 130.226 148.757 131.446 148.229 132.766L147.998 133.336V133.294C148.024 134.581 148.036 135.725 148.032 136.542C148.056 136.982 148.048 137.423 148.007 137.862V137.862Z" fill="#263238"/>
<path d="M153.643 133.239C152.859 133.721 152.04 134.142 151.191 134.497C150.37 134.917 149.519 135.274 148.644 135.565C149.428 135.083 150.249 134.662 151.099 134.308C151.917 133.885 152.768 133.528 153.643 133.239V133.239Z" fill="white"/>
<path d="M155.432 137.962C154.68 138.418 153.892 138.814 153.077 139.144C152.29 139.542 151.471 139.874 150.63 140.137C151.382 139.682 152.17 139.286 152.985 138.956C153.772 138.558 154.59 138.226 155.432 137.962V137.962Z" fill="white"/>
<path d="M132.025 135.364C130.402 134.602 128.844 133.709 127.365 132.695C128.191 133.052 128.988 133.472 129.75 133.952C130.544 134.362 131.305 134.834 132.025 135.364V135.364Z" fill="white"/>
<path d="M130.202 140.364C128.559 139.772 126.968 139.043 125.446 138.185C126.28 138.448 127.09 138.78 127.868 139.178C128.678 139.507 129.459 139.904 130.202 140.364V140.364Z" fill="white"/>
<path d="M138.868 132.175C139.315 132.101 139.768 132.072 140.221 132.087L140.133 132.175C140.133 131.621 140.112 130.917 140.112 130.18C140.112 129.254 140.112 128.42 140.142 127.812C140.129 127.484 140.156 127.157 140.221 126.835C140.281 127.157 140.306 127.485 140.297 127.812C140.297 128.42 140.326 129.254 140.326 130.18C140.326 130.93 140.326 131.621 140.305 132.175V132.263H140.221C139.768 132.276 139.315 132.247 138.868 132.175Z" fill="#263238"/>
<path d="M139.601 128.893C139.602 128.967 139.581 129.039 139.541 129.1C139.5 129.161 139.443 129.209 139.375 129.238C139.308 129.266 139.233 129.274 139.161 129.26C139.089 129.245 139.023 129.21 138.972 129.158C138.92 129.107 138.885 129.04 138.87 128.969C138.856 128.897 138.864 128.822 138.892 128.755C138.921 128.687 138.969 128.629 139.03 128.589C139.091 128.549 139.163 128.528 139.236 128.529C139.333 128.529 139.426 128.567 139.494 128.636C139.563 128.704 139.601 128.797 139.601 128.893V128.893Z" fill="#E0E0E0"/>
<path d="M139.601 131.161C139.601 131.234 139.579 131.305 139.539 131.366C139.498 131.427 139.44 131.474 139.372 131.502C139.305 131.53 139.23 131.537 139.159 131.522C139.087 131.508 139.021 131.472 138.97 131.42C138.919 131.368 138.884 131.302 138.87 131.23C138.856 131.158 138.864 131.084 138.893 131.017C138.921 130.949 138.969 130.892 139.031 130.852C139.092 130.812 139.163 130.791 139.237 130.792C139.285 130.792 139.333 130.802 139.377 130.82C139.422 130.839 139.462 130.866 139.496 130.9C139.53 130.935 139.557 130.975 139.575 131.02C139.593 131.065 139.602 131.113 139.601 131.161V131.161Z" fill="#E0E0E0"/>
<path d="M24.1558 55.6744V73.2348C24.1558 76.2192 27.7356 81.5728 32.459 81.3614H32.8434C36.923 80.8808 34.6021 76.0173 34.6021 73.23C34.6021 71.9084 34.6021 70.8031 34.6021 70.6685C34.6021 70.6685 39.0757 70.2504 39.4072 65.8291C39.5658 63.6905 39.5321 59.2596 39.4553 55.2563C39.4144 53.1809 38.5939 51.1969 37.1568 49.699C35.7197 48.2012 33.7715 47.2994 31.6998 47.173L31.2722 47.149C26.6352 47.1345 24.0405 51.0513 24.1558 55.6744Z" fill="#FFBF9D"/>
<path d="M34.5973 70.6737C32.5549 70.5472 30.5919 69.8366 28.9417 68.6265C28.9417 68.6265 30.1477 71.9473 34.5877 71.8175L34.5973 70.6737Z" fill="#FF9A6C"/>
<path d="M31.9068 57.1548C31.8203 57.2462 31.3061 56.8425 30.566 56.8329C29.8259 56.8232 29.278 57.1885 29.1963 57.0972C29.1146 57.0059 29.2492 56.8905 29.4895 56.7175C29.8109 56.4953 30.1946 56.3809 30.5852 56.3907C30.9721 56.3962 31.3467 56.5279 31.6521 56.7656C31.8779 56.9482 31.9548 57.1164 31.9068 57.1548Z" fill="#263238"/>
<path d="M32.0122 59.2217C32.0024 59.3772 31.9329 59.523 31.8184 59.6286C31.7038 59.7342 31.5529 59.7916 31.3971 59.7888C31.3206 59.7901 31.2445 59.7761 31.1735 59.7477C31.1024 59.7193 31.0377 59.677 30.9831 59.6233C30.9285 59.5697 30.8852 59.5057 30.8556 59.4351C30.826 59.3644 30.8108 59.2887 30.8108 59.2121C30.8195 59.0557 30.8884 58.9088 31.0031 58.8022C31.1178 58.6956 31.2693 58.6375 31.4259 58.6402C31.5027 58.6396 31.5788 58.6542 31.6499 58.6831C31.721 58.712 31.7857 58.7548 31.8402 58.8088C31.8947 58.8629 31.938 58.9272 31.9675 58.9981C31.997 59.0689 32.0122 59.145 32.0122 59.2217V59.2217Z" fill="#263238"/>
<path d="M33.8236 62.288C34.1884 62.1977 34.5628 62.1525 34.9386 62.1534C35.1164 62.1534 35.2798 62.1246 35.3182 62.0092C35.3431 61.8299 35.3129 61.6472 35.2317 61.4854C35.0971 61.0529 34.953 60.6012 34.7992 60.1302C34.2033 58.2079 33.7804 56.622 33.838 56.5979C33.8957 56.5739 34.4676 58.1214 35.0635 60.0485C35.2077 60.5291 35.3422 60.976 35.472 61.4085C35.5724 61.6238 35.5895 61.8686 35.5201 62.0958C35.4913 62.1549 35.4496 62.2068 35.398 62.2475C35.3464 62.2883 35.2863 62.3169 35.2221 62.3312C35.1232 62.3445 35.023 62.3445 34.9241 62.3312C34.5569 62.3627 34.1872 62.3482 33.8236 62.288V62.288Z" fill="#263238"/>
<path d="M31.5607 54.7519C31.4934 54.9153 30.8975 54.7999 30.1863 54.8432C29.475 54.8864 28.8983 55.0498 28.8118 54.896C28.7734 54.8191 28.8839 54.6653 29.1242 54.5164C29.4409 54.3365 29.7951 54.2329 30.1588 54.2137C30.5225 54.1945 30.8856 54.2603 31.2195 54.4058C31.4742 54.5308 31.5896 54.6894 31.5607 54.7519Z" fill="#263238"/>
<path d="M38.6099 55.3575C38.533 55.4921 37.9515 55.3575 37.2547 55.3575C36.5578 55.3575 35.9715 55.4392 35.8946 55.2998C35.861 55.2374 35.9763 55.1124 36.2214 55.0067C36.5479 54.8693 36.9009 54.8069 37.2547 54.8241C37.6125 54.8281 37.9651 54.9101 38.2879 55.0643C38.5282 55.1701 38.6436 55.295 38.6099 55.3575Z" fill="#263238"/>
<path d="M24.3195 58.9761C24.2426 58.9376 21.3302 57.89 21.2437 60.9224C21.1572 63.9549 24.2137 63.4166 24.2233 63.3253C24.2329 63.234 24.3195 58.9761 24.3195 58.9761Z" fill="#FFBF9D"/>
<path d="M23.3294 62.1526C23.3294 62.1526 23.2765 62.1911 23.1852 62.2295C23.0583 62.2779 22.918 62.2779 22.7911 62.2295C22.5992 62.0989 22.4452 61.9199 22.3448 61.7106C22.2444 61.5013 22.2011 61.2691 22.2193 61.0377C22.2191 60.7779 22.2783 60.5214 22.3923 60.288C22.4222 60.1935 22.4753 60.108 22.5466 60.0392C22.6179 59.9704 22.7053 59.9204 22.8008 59.8939C22.8619 59.8786 22.9266 59.8857 22.983 59.9139C23.0394 59.9421 23.0838 59.9896 23.1083 60.0477C23.1468 60.1342 23.1083 60.1919 23.142 60.1967C23.1756 60.2015 23.2092 60.1486 23.1852 60.0237C23.1723 59.9485 23.1331 59.8804 23.0747 59.8314C23.0339 59.7984 22.987 59.7738 22.9367 59.759C22.8864 59.7441 22.8337 59.7394 22.7815 59.7449C22.6569 59.7656 22.5397 59.818 22.4412 59.8971C22.3427 59.9762 22.2663 60.0794 22.2193 60.1967C22.0808 60.4554 22.0082 60.7442 22.0078 61.0377C21.9838 61.3089 22.0409 61.5811 22.1718 61.8198C22.3027 62.0585 22.5015 62.253 22.7431 62.3785C22.8229 62.4039 22.9073 62.4115 22.9903 62.4007C23.0734 62.3899 23.153 62.361 23.2237 62.316C23.3054 62.2295 23.339 62.1622 23.3294 62.1526Z" fill="#FF9A6C"/>
<path d="M20.2299 54.1128C20.8498 53.0363 20.9843 51.758 21.3111 50.5613C21.6378 49.3647 22.2721 48.1248 23.459 47.6779H23.4878C24.5305 47.2454 25.8279 47.1973 26.6976 47.9422C26.8898 46.3659 28.2593 45.102 29.7921 44.6791C31.6193 44.3007 33.515 44.4287 35.2748 45.0491C36.4184 45.4912 37.5332 46.4188 38.8882 47.7884C39.4627 48.3605 39.9868 48.9812 40.4547 49.6434L41.8433 53.7572L40.7237 55.9342C40.6565 56.0832 40.5844 56.2322 40.5027 56.3763L39.5417 60.9515C39.46 59.7116 39.4984 55.3816 39.4216 54.1369C38.4852 54.1193 37.562 53.9128 36.7074 53.5296C35.8527 53.1464 35.0843 52.5945 34.4483 51.907C33.7611 51.1621 33.2134 50.2249 32.3004 49.7876C31.1231 49.2205 29.7296 49.6579 28.4995 50.1048L28.5524 50.0567C27.9026 50.3625 27.3196 50.7936 26.837 51.3255C27.1469 53.7803 26.9257 56.2732 26.1883 58.6351C26.0778 58.9907 25.7702 59.7212 25.4243 59.8557C24.7468 60.1297 24.5545 59.4376 24.1413 59.0724C23.7757 58.8315 23.336 58.7292 22.9016 58.7841C22.5426 57.7588 22.2474 56.7123 22.0174 55.6507C21.6065 55.7823 21.1706 55.8168 20.7441 55.7516C20.8738 55.4392 20.9988 55.1268 21.1237 54.7904C20.964 54.9119 20.7807 54.9986 20.5855 55.0451C20.4868 55.0677 20.3834 55.0585 20.2902 55.0188C20.197 54.9791 20.1187 54.9109 20.0666 54.8241C19.9416 54.6078 20.1002 54.3387 20.2299 54.1128Z" fill="#263238"/>
<path d="M28.1104 48.4419C27.9555 48.5696 27.8094 48.7077 27.6731 48.8552C27.3172 49.289 27.0834 49.8099 26.9956 50.3642C26.923 50.7345 26.8892 51.1114 26.8947 51.4888C26.8947 51.8973 26.9332 52.3298 26.9716 52.7911C27.017 53.2703 27.0331 53.7518 27.0197 54.2329C27.0103 54.4912 26.9798 54.7484 26.9284 55.0018C26.8919 55.2716 26.7877 55.5279 26.6256 55.7467C26.55 55.8334 26.453 55.899 26.3443 55.9369C26.2357 55.9748 26.119 55.9838 26.0058 55.963C25.7877 55.9266 25.5881 55.8183 25.4388 55.6554C25.1952 55.3281 25.0442 54.9414 25.0015 54.5356H25.0928C24.9625 54.8693 24.7862 55.1831 24.569 55.468C24.3562 55.732 24.0499 55.904 23.7137 55.9485C23.5578 55.969 23.3993 55.9439 23.2573 55.8765C23.1237 55.8142 23.0115 55.714 22.9346 55.5884C22.8577 55.4627 22.8195 55.3172 22.8248 55.17C22.8281 55.0416 22.8776 54.9188 22.9641 54.824L23.0122 54.8624C22.7465 55.1693 22.419 55.4166 22.0512 55.5881C21.9563 55.6335 21.8584 55.672 21.7581 55.7034L21.6523 55.7323L21.7484 55.689C21.8157 55.6602 21.9118 55.6217 22.0368 55.5593C22.3832 55.3737 22.6913 55.1242 22.9449 54.824L22.9882 54.8672C22.9207 54.9629 22.8846 55.077 22.8846 55.194C22.8846 55.311 22.9207 55.4252 22.9882 55.5208C23.0537 55.6368 23.1524 55.7305 23.2717 55.7899C23.4013 55.8474 23.5441 55.8689 23.6849 55.8524C24.0012 55.8003 24.2852 55.6282 24.4778 55.3718C24.6897 55.0947 24.8612 54.7889 24.9871 54.4635L25.0448 54.3194L25.0784 54.4732C25.1211 54.8595 25.2653 55.2276 25.4964 55.54C25.6294 55.6858 25.8067 55.7838 26.001 55.8188C26.0973 55.8371 26.1968 55.8299 26.2896 55.7979C26.3823 55.7658 26.465 55.7101 26.5295 55.6362C26.6798 55.4312 26.7757 55.1914 26.8082 54.9393C26.8596 54.6908 26.8902 54.4384 26.8995 54.1848C26.9146 53.7038 26.9002 53.2223 26.8563 52.7431C26.8226 52.2625 26.789 51.8492 26.789 51.4359C26.788 51.0533 26.8266 50.6716 26.9043 50.2969C27.0005 49.7464 27.2428 49.2319 27.6059 48.8071C27.752 48.6575 27.9226 48.5339 28.1104 48.4419V48.4419Z" fill="#455A64"/>
<path d="M41.8192 52.604L41.7856 52.6329L41.6751 52.7146C41.6158 52.7594 41.5531 52.7995 41.4876 52.8347C41.4023 52.8906 41.3123 52.9388 41.2186 52.9789C40.6296 53.2567 39.9803 53.3823 39.3302 53.3441C38.3638 53.2897 37.434 52.9558 36.6537 52.383C35.72 51.6769 34.9387 50.7893 34.3569 49.7734C34.0253 49.24 33.7562 48.6969 33.4631 48.1923C33.1869 47.6994 32.8406 47.2494 32.4348 46.8563C32.0767 46.5018 31.6357 46.2424 31.1519 46.1018C30.9328 46.0425 30.7058 46.0182 30.4791 46.0297C30.2712 46.0453 30.0662 46.0873 29.8689 46.1547C29.5264 46.2768 29.2136 46.47 28.9511 46.7217C28.7566 46.9121 28.5943 47.1329 28.4706 47.3753C28.3709 47.5868 28.2967 47.8095 28.2496 48.0385C28.2485 48.0241 28.2485 48.0097 28.2496 47.9953V47.8559C28.2843 47.6903 28.3374 47.5291 28.4081 47.3753C28.5304 47.1248 28.6927 46.8959 28.8886 46.6977C29.1533 46.436 29.4712 46.2344 29.8208 46.1066C30.2472 45.9492 30.711 45.9241 31.1519 46.0345C31.6512 46.1784 32.107 46.4443 32.4781 46.8082C32.8834 47.2059 33.2282 47.6609 33.5016 48.1587C33.7995 48.6681 34.0686 49.2111 34.3953 49.7398C34.9765 50.7477 35.7543 51.6286 36.6825 52.3301C37.4496 52.8936 38.3613 53.227 39.3109 53.2912C39.9513 53.3355 40.5928 53.2233 41.1801 52.9645C41.6174 52.7674 41.8096 52.5896 41.8192 52.604Z" fill="#455A64"/>
<path d="M38.6822 57.3566C38.5957 57.4479 38.0814 57.0442 37.3365 57.0298C36.5916 57.0153 36.0486 57.3902 35.9717 57.2941C35.8948 57.198 36.0198 57.0874 36.2601 56.9192C36.5784 56.7077 36.9545 56.6002 37.3365 56.6117C37.7235 56.6172 38.0981 56.7488 38.4034 56.9865C38.6293 57.1499 38.7062 57.3181 38.6822 57.3566Z" fill="#263238"/>
<path d="M37.9947 59.2217C37.9848 59.3772 37.9153 59.523 37.8008 59.6286C37.6862 59.7342 37.5353 59.7916 37.3795 59.7888C37.303 59.7901 37.227 59.7761 37.1559 59.7477C37.0848 59.7193 37.0201 59.677 36.9655 59.6233C36.9109 59.5697 36.8676 59.5057 36.838 59.4351C36.8084 59.3644 36.7932 59.2887 36.7932 59.2121C36.8019 59.0557 36.8708 58.9088 36.9855 58.8022C37.1002 58.6956 37.2518 58.6375 37.4084 58.6402C37.4851 58.6396 37.5613 58.6542 37.6324 58.6831C37.7035 58.712 37.7681 58.7548 37.8226 58.8088C37.8772 58.8629 37.9204 58.9272 37.9499 58.9981C37.9795 59.0689 37.9947 59.145 37.9947 59.2217V59.2217Z" fill="#263238"/>
<path d="M40.0799 49.1631C40.25 49.4284 40.4828 49.6478 40.7576 49.802C41.0325 49.9562 41.3411 50.0405 41.6562 50.0473C41.8801 49.9997 42.1002 49.9355 42.3146 49.8551C42.5308 49.9849 42.478 50.725 42.3146 50.9316C42.1679 51.1048 42.0072 51.2655 41.834 51.4122C42.5645 51.8015 43.2229 51.6092 44.0014 51.3257C43.9242 51.9874 43.6744 52.6171 43.2771 53.1519C42.8799 53.6866 42.3491 54.1076 41.7379 54.3726C41.5491 54.4695 41.3398 54.5201 41.1276 54.5201C40.9153 54.5201 40.7061 54.4695 40.5172 54.3726C40.2271 54.1288 40.0371 53.7866 39.9838 53.4114C39.6514 52.1011 39.4803 50.7551 39.4744 49.4034L40.0799 49.1631Z" fill="#263238"/>
<path d="M33.8286 64.1859C33.8286 64.2243 33.6941 64.3204 33.4201 64.3637C33.055 64.4115 32.6844 64.3354 32.3677 64.1474C32.0495 63.9619 31.8038 63.6739 31.6708 63.3304C31.5699 63.0709 31.5843 62.8979 31.6228 62.8883C31.6612 62.8787 31.8823 63.5082 32.5214 63.8879C32.9342 64.0698 33.3779 64.1709 33.8286 64.1859V64.1859Z" fill="#263238"/>
<path d="M37.1489 189.704V199.219L56.7298 199.128C56.5856 197.205 45.8414 193.361 45.8414 193.361L46.0528 189.718L37.1489 189.704Z" fill="#455A64"/>
<g opacity="0.6">
<path d="M40.3153 192.486C40.1241 192.553 39.964 192.688 39.8657 192.865C39.7673 193.042 39.7375 193.249 39.7819 193.447C39.8298 193.64 39.9512 193.806 40.12 193.91C40.2889 194.014 40.4918 194.048 40.6854 194.005C40.8852 193.933 41.0521 193.791 41.1555 193.605C41.2588 193.42 41.2916 193.203 41.2477 192.995C41.178 192.799 41.0331 192.638 40.8448 192.547C40.6565 192.457 40.4402 192.446 40.2433 192.515" fill="white"/>
</g>
<path d="M37.1489 199.219V197.7L55.8408 197.916C55.8408 197.916 56.8018 198.488 56.7298 199.128L37.1489 199.219Z" fill="#263238"/>
<path d="M45.8415 193.529C45.8415 193.63 45.3609 193.683 44.8804 194.009C44.3998 194.336 44.1739 194.754 44.0874 194.716C44.0009 194.677 44.1306 194.106 44.6977 193.721C45.2648 193.337 45.8607 193.438 45.8415 193.529Z" fill="#263238"/>
<path d="M48.4074 194.413C48.4074 194.504 48.0181 194.682 47.701 195.1C47.3838 195.518 47.2973 195.97 47.2204 195.965C47.1435 195.961 47.057 195.403 47.4607 194.889C47.8644 194.375 48.4026 194.317 48.4074 194.413Z" fill="#263238"/>
<path d="M49.5604 196.835C49.4739 196.859 49.3345 196.354 49.5604 195.821C49.7862 195.288 50.238 195.057 50.2812 195.139C50.3245 195.22 50.0505 195.513 49.8631 195.965C49.6757 196.417 49.6517 196.825 49.5604 196.835Z" fill="#263238"/>
<path d="M45.6494 190.823C45.6109 190.914 45.1688 190.784 44.6353 190.823C44.1019 190.861 43.6742 191.049 43.6309 190.967C43.5877 190.885 43.9817 190.525 44.5921 190.486C45.2024 190.448 45.6974 190.746 45.6494 190.823Z" fill="#263238"/>
<path d="M45.7595 193.957C45.8134 193.768 45.8281 193.57 45.8028 193.375C45.7598 192.84 45.5812 192.324 45.2838 191.876C45.0789 191.566 44.8182 191.297 44.515 191.083C44.4241 191.009 44.3158 190.96 44.2004 190.941C44.085 190.922 43.9666 190.932 43.8567 190.972C43.7419 191.032 43.6455 191.121 43.5778 191.231C43.51 191.341 43.4736 191.468 43.4723 191.597C43.5045 192.097 43.6855 192.576 43.9921 192.973C44.2986 193.369 44.7167 193.665 45.1925 193.822C45.6597 193.97 46.1602 193.976 46.6307 193.839C47.1012 193.702 47.5204 193.429 47.8353 193.053C47.9914 192.884 48.1108 192.685 48.1861 192.467C48.2246 192.343 48.2246 192.211 48.1861 192.087C48.1625 192.026 48.1264 191.969 48.0801 191.922C48.0338 191.875 47.9783 191.838 47.917 191.813C47.7136 191.755 47.4957 191.776 47.3068 191.871C46.6731 192.172 46.1296 192.635 45.7307 193.212C45.6096 193.363 45.5183 193.536 45.4616 193.721C45.8643 193.152 46.3695 192.664 46.9512 192.28C47.2155 192.135 47.5566 191.924 47.8353 192.015C47.8969 192.048 47.9431 192.104 47.9638 192.17C47.9845 192.237 47.9781 192.309 47.9458 192.371C47.8764 192.55 47.7718 192.713 47.6383 192.851C47.3528 193.182 46.9769 193.422 46.5568 193.541C46.1368 193.661 45.6909 193.655 45.2742 193.524C44.8583 193.387 44.4909 193.132 44.2157 192.791C43.9404 192.45 43.7691 192.038 43.7222 191.602C43.7217 191.519 43.7427 191.437 43.7831 191.365C43.8235 191.293 43.882 191.232 43.9528 191.189C44.0269 191.164 44.1062 191.159 44.1828 191.174C44.2595 191.189 44.3309 191.224 44.3901 191.275C44.6725 191.465 44.9183 191.704 45.1156 191.982C45.4134 192.395 45.6094 192.872 45.6874 193.375C45.7451 193.75 45.7355 193.957 45.7595 193.957Z" fill="#263238"/>
<path d="M28.0526 190.185V193.26L27.8315 198.782L20.4941 198.96L20.2299 193.26L20.4461 189.786L28.0526 190.185Z" fill="#455A64"/>
<path d="M24.2039 198.383C24.1606 198.383 24.2664 196.691 24.4394 194.605C24.6124 192.52 24.795 190.828 24.8383 190.828C24.8815 190.828 24.7758 192.515 24.6028 194.601C24.4298 196.686 24.2664 198.383 24.2039 198.383Z" fill="#263238"/>
<path d="M27.8606 197.864L20.4463 197.945V198.959L27.8654 198.95L27.8606 197.864Z" fill="#263238"/>
<path d="M20.4653 194.687C20.5106 194.58 20.574 194.48 20.6527 194.394C20.8486 194.147 21.0674 193.918 21.3062 193.712C21.6636 193.397 22.063 193.133 22.4931 192.928C23.246 192.568 24.0936 192.454 24.915 192.603C25.7364 192.752 26.4897 193.157 27.0676 193.76C27.2815 193.993 27.4611 194.255 27.6009 194.538C27.6605 194.639 27.7012 194.75 27.7211 194.865C27.4936 194.509 27.2364 194.173 26.9522 193.861C26.2132 193.148 25.2255 192.751 24.1989 192.755C23.1742 192.784 22.1897 193.16 21.4071 193.822C20.7921 194.317 20.4942 194.711 20.4653 194.687Z" fill="#263238"/>
<path d="M44.5774 118.405L43.7221 117.064L16.2945 118.352C15.7417 121.315 15.4714 124.324 15.4872 127.339C15.4872 129.742 16.6693 134.663 16.6693 134.663L17.9715 161.157C18.2261 163.56 18.4183 192.395 18.4183 192.395H29.2875L31.5075 152.18C31.7381 147.701 31.5699 140.92 31.7958 135.965L35.5293 151.137L37.9319 161.503C37.9319 161.503 37.4514 165.742 36.9709 171.629C36.2549 179.967 36.1925 192.049 36.1925 192.049L47.3547 192.226C47.3547 192.226 48.902 177.982 50.1129 169.663L51.1556 159.735C51.1556 158.077 50.4348 154.016 50.3051 153.348L44.5774 118.405Z" fill="#263238"/>
<path d="M34.232 136.869C34.0676 136.825 33.907 136.769 33.7515 136.7C33.593 136.638 33.396 136.561 33.1797 136.455C32.9635 136.35 32.6992 136.239 32.4493 136.08C32.1995 135.922 31.892 135.763 31.594 135.557C31.2961 135.35 30.9886 135.124 30.6715 134.874C29.3052 133.762 28.1817 132.382 27.3703 130.818C27.1974 130.448 27.0196 130.107 26.8898 129.77C26.7601 129.434 26.6448 129.122 26.5535 128.809C26.4622 128.497 26.3997 128.247 26.3421 128.012C26.2935 127.81 26.255 127.606 26.2267 127.401C26.1938 127.227 26.1746 127.05 26.1691 126.873C26.2123 126.873 26.3084 127.617 26.6928 128.766C26.7889 129.05 26.8994 129.362 27.0436 129.684C27.1878 130.006 27.3559 130.352 27.5241 130.708C27.9403 131.468 28.4227 132.19 28.9656 132.865C29.516 133.534 30.1255 134.152 30.7868 134.711C31.0991 134.961 31.3922 135.191 31.6853 135.398C31.9784 135.605 32.2571 135.778 32.5166 135.936C33.5353 136.585 34.2465 136.84 34.232 136.869Z" fill="#455A64"/>
<path d="M67.6469 80.641C67.9942 79.8305 68.3856 79.0395 68.8193 78.2717C69.1172 77.8728 70.4626 76.3494 70.4626 76.3494C70.4626 76.3494 73.1631 75.0999 73.6004 75.2249C73.8621 75.2979 74.1138 75.4028 74.35 75.5372L78.1172 72.8989C78.1172 72.8989 79.0013 72.4183 79.3473 72.9613C79.6933 73.5044 79.2176 73.884 79.0157 74.1291C78.8139 74.3742 76.0798 76.7195 76.0798 76.7195L75.9789 76.9021C75.9789 76.9021 76.9976 77.2193 77.0024 77.7719C76.973 78.1858 76.848 78.5872 76.6372 78.9445C76.7895 79.0667 76.901 79.2325 76.9568 79.4196C77.0126 79.6068 77.0101 79.8065 76.9495 79.9922L76.7477 80.6698C76.9221 80.7881 77.062 80.9505 77.1531 81.1404C77.2443 81.3304 77.2835 81.5411 77.2667 81.7511C77.1658 82.4287 75.5513 83.5965 75.5513 83.5965C75.5513 83.5965 72.6153 84.9037 72.0051 84.9614C71.3948 85.0191 70.011 85.3699 70.011 85.3699L67.6469 80.641Z" fill="#FFBF9D"/>
<path d="M75.1618 74.9658C74.9558 75.1688 74.7286 75.3492 74.4843 75.5041C73.9201 75.9256 73.309 76.2803 72.6632 76.5613C71.9956 76.7391 71.3445 76.9738 70.7171 77.263C70.478 77.4112 70.2585 77.5888 70.0636 77.7916C70.0396 77.7916 70.1789 77.4456 70.645 77.138C71.253 76.8077 71.8983 76.5511 72.5671 76.3739C73.1977 76.0954 73.8036 75.7642 74.3786 75.3839C74.6218 75.2133 74.8848 75.0729 75.1618 74.9658V74.9658Z" fill="#FF9A6C"/>
<path d="M76.0561 76.7958C76.0802 76.7958 76.0561 76.9064 75.9504 77.0025C75.818 77.1186 75.669 77.2142 75.5083 77.286C75.1382 77.4542 74.8306 77.5359 74.8066 77.4879C74.7826 77.4398 75.0613 77.262 75.4218 77.0986C75.5996 77.0169 75.7534 76.9448 75.8639 76.8871C75.9744 76.8295 76.0321 76.767 76.0561 76.7958Z" fill="#FF9A6C"/>
<path d="M76.6421 78.8385C76.6806 78.877 76.5604 79.074 76.3394 79.2566C76.1183 79.4392 75.9069 79.521 75.8588 79.4729C75.8107 79.4248 75.9838 79.271 76.1904 79.098C76.3971 78.925 76.6133 78.8001 76.6421 78.8385Z" fill="#FF9A6C"/>
<path d="M76.8585 80.5352C76.9113 80.5352 76.8585 80.8427 76.5605 81.0638C76.2625 81.2849 75.9934 81.3041 75.9838 81.2512C75.9742 81.1984 76.2049 81.0974 76.4307 80.9052C76.6566 80.713 76.8056 80.5111 76.8585 80.5352Z" fill="#FF9A6C"/>
<path d="M67.7765 80.2471L62.7263 83.515L64.7301 90.0124L71.1545 84.6684L70.7653 81.7657L67.7765 80.2471Z" fill="#FFBF9D"/>
<path d="M13.4259 81.6646C13.4259 81.6646 10.1537 100.244 10.3315 101.979C10.5092 103.714 11.033 106.193 13.3346 106.953C14.5693 107.325 15.8865 107.325 17.1211 106.953L17.986 95.9425L14.7522 84.1347L13.4259 81.6646Z" fill="#FFBF9D"/>
<path d="M38.9121 73.2736L41.4829 74.6096L43.0349 89.1375L43.5443 94.0634L44.3467 107.736C44.587 108.923 45.7258 121.543 45.7258 121.543L15.0115 122.278C15.492 122.139 15.9101 116.766 16.1936 115.613L17.1017 107.606L16.1936 96.1443C16.1936 96.1443 13.003 82.1595 13.4258 81.0541C13.8487 79.9488 15.886 77.3825 19.8743 74.5807C21.4648 73.461 23.7712 72.0625 23.7712 72.0625L34.2848 72.1154L38.9121 73.2736Z" fill="#455A64"/>
<path d="M55.6339 87.504C55.6339 87.504 48.7482 81.4151 46.163 78.8536C43.2799 75.9701 41.2378 74.5284 40.344 74.4707C40.0894 74.4707 37.3649 75.9124 37.3649 75.9124C37.3649 75.9124 36.6585 76.7246 35.4428 80.8528C34.2271 84.981 41.2762 87.6722 41.2762 87.6722L44.6398 91.0363C45.2789 91.6178 50.0071 95.842 53.462 97.1973C54.3847 97.5566 55.388 97.657 56.3635 97.4876C57.3391 97.3182 58.2499 96.8855 58.9975 96.2361L69.5687 86.0286C67.9446 81.6554 67.7812 80.2857 67.7812 80.2857" fill="#FFBF9D"/>
<path d="M13.4259 81.0547L10.3074 96.8417L17.9667 98.3315L16.0735 81.2758L13.4259 81.0547Z" fill="#455A64"/>
<path d="M14.6559 81.5591C14.7232 81.5591 15.2951 87.2155 15.9247 94.2079C16.5542 101.2 17.0204 106.871 16.9531 106.876C16.8858 106.881 16.3139 101.22 15.6796 94.2271C15.0452 87.2347 14.5694 81.5639 14.6559 81.5591Z" fill="#263238"/>
<path d="M34.6838 83.6729L45.7356 92.9385L52.6693 83.4326C52.6693 83.4326 44.294 76.099 42.2999 75.0321C39.8349 73.7153 37.9753 72.7398 36.0533 75.0898C35.0406 76.2466 34.3748 77.6658 34.1326 79.1841C33.8903 80.7024 34.0814 82.2583 34.6838 83.6729Z" fill="#455A64"/>
<path d="M45.7257 92.9388C45.6469 92.8991 45.5727 92.8508 45.5047 92.7946L44.904 92.3381L42.7273 90.632L35.5821 84.9035L35.4428 84.7449C34.3185 83.4028 33.7374 81.6884 33.8138 79.9392C33.8693 78.5136 34.3852 77.1444 35.2842 76.0369C35.8798 75.2932 36.6397 74.6977 37.5041 74.2972C37.7375 74.1872 37.9803 74.0987 38.2297 74.0328C38.3134 74.0033 38.4007 73.9855 38.4892 73.98C38.4892 74.004 38.1384 74.0905 37.5282 74.3837C36.6976 74.8058 35.9719 75.4084 35.4043 76.1474C34.5487 77.2337 34.0652 78.5665 34.0252 79.9488C33.9613 81.6406 34.5262 83.2962 35.6109 84.596L35.7407 84.7449L42.8378 90.5119L44.9665 92.2852L45.5335 92.7658C45.604 92.8159 45.6685 92.874 45.7257 92.9388V92.9388Z" fill="#263238"/>
<g opacity="0.3">
<path d="M35.6592 84.8076C35.6592 84.8076 38.0858 89.4356 43.5444 94.0636L43.2176 90.9158L35.6592 84.8076Z" fill="black"/>
</g>
<path d="M33.5738 105.4C33.4172 105.531 33.2464 105.644 33.0645 105.737C32.7281 105.939 32.2332 106.217 31.623 106.568C30.3977 107.251 28.687 108.164 26.7746 109.125C24.8622 110.086 23.1035 110.903 21.8205 111.47C21.1815 111.754 20.6577 111.98 20.2973 112.128C20.113 112.218 19.9197 112.287 19.7207 112.335C19.8883 112.219 20.067 112.119 20.2541 112.037L21.7485 111.312C23.0074 110.701 24.7517 109.87 26.6641 108.909C28.5765 107.947 30.2968 107.063 31.5413 106.419L33.0164 105.66C33.1927 105.554 33.3795 105.467 33.5738 105.4Z" fill="#263238"/>
</svg>
