<svg width="20" height="20" viewBox="0 0 20 20" fill="none" xmlns="http://www.w3.org/2000/svg">
<path d="M9.92952 10.0118V10.0231M5.96084 10.0118V10.0231M13.8982 10.0118V10.0231M1 19L2.28982 14.6183C1.17506 12.7513 0.771795 10.5404 1.155 8.39656C1.5382 6.25275 2.68179 4.32196 4.37314 2.96318C6.0645 1.6044 8.18852 0.910088 10.3503 1.00934C12.5121 1.1086 14.5645 1.99466 16.1259 3.50279C17.6873 5.01092 18.6515 7.03849 18.8393 9.20851C19.027 11.3785 18.4254 13.5433 17.1464 15.3004C15.8674 17.0575 13.9981 18.2872 11.8859 18.7611C9.77368 19.2349 7.5624 18.9206 5.66319 17.8765L1 19Z" stroke="#646464" stroke-width="2" stroke-linecap="round" stroke-linejoin="round"/>
</svg>
