<svg width="395" height="347" viewBox="0 0 395 347" fill="none" xmlns="http://www.w3.org/2000/svg">
<path opacity="0.9" d="M15.236 50.5497C45.7676 -19.9918 154.165 -10.0466 196.074 39.5721C237.982 89.1909 251.536 120.984 289.288 102.471C327.039 83.9572 382.779 107.08 385.492 165.956C388.205 224.831 419.987 267.343 349.768 287.933C279.548 308.524 197.184 359.062 104.265 344.358C53.6054 336.336 8.08179 309.315 15.2361 260.136C22.3904 210.956 -20.1418 132.437 15.236 50.5497Z" fill="white"/>
<path d="M382.198 132.7L378.04 143.324L380.988 144.474L385.145 133.85L382.198 132.7Z" fill="#367CFF"/>
<path d="M122.478 106.648L120.12 108.757L127.74 117.254L130.097 115.146L122.478 106.648Z" fill="#0CBC8B"/>
<path d="M157.409 144.68L148.269 151.518L150.166 154.048L159.307 147.21L157.409 144.68Z" fill="#367CFF"/>
<path d="M263.133 66.2058L260.964 68.5078L269.282 76.3251L271.45 74.0231L263.133 66.2058Z" fill="#367CFF"/>
<path d="M202.653 68.7483L196.961 78.6377L199.705 80.2131L205.397 70.3237L202.653 68.7483Z" fill="#0CBC8B"/>
<path d="M285.312 153.318L282.636 155.005L288.731 164.651L291.407 162.965L285.312 153.318Z" fill="#0CBC8B"/>
<path d="M161.204 200.292L158.373 201.705L163.477 211.909L166.308 210.497L161.204 200.292Z" fill="#0CBC8B"/>
<path d="M119.783 173.443L116.503 184.37L119.534 185.277L122.814 174.351L119.783 173.443Z" fill="#367CFF"/>
<path d="M317.902 207.491L308.417 213.844L310.18 216.469L319.665 210.116L317.902 207.491Z" fill="#367CFF"/>
<path d="M319.323 48.1275L313.631 58.0166L316.375 59.592L322.067 49.7028L319.323 48.1275Z" fill="#0CBC8B"/>
<path d="M2.94769 129.031L0 130.182L4.15772 140.806L7.1054 139.655L2.94769 129.031Z" fill="#0CBC8B"/>
<path d="M308.938 115.906L307.04 118.437L316.181 125.275L318.078 122.745L308.938 115.906Z" fill="#0CBC8B"/>
<path d="M52.1731 69.2989L43.8555 77.1162L46.0243 79.4182L54.342 71.601L52.1731 69.2989Z" fill="#367CFF"/>
<path d="M144.3 59.9905L141.557 61.5659L147.249 71.4553L149.993 69.8799L144.3 59.9905Z" fill="#367CFF"/>
<path d="M32.3879 184.156L26.293 193.803L28.9695 195.49L35.0644 185.843L32.3879 184.156Z" fill="#0CBC8B"/>
<path d="M5.39076 210.582L3.62793 213.208L13.1186 219.562L14.8814 216.935L5.39076 210.582Z" fill="#367CFF"/>
<path d="M371.548 84.6092L368.804 86.1846L374.496 96.0737L377.239 94.4983L371.548 84.6092Z" fill="#367CFF"/>
<path d="M252.638 111.56L245.019 120.057L247.376 122.165L254.996 113.668L252.638 111.56Z" fill="#367CFF"/>
<path d="M185.748 207.335L180.644 217.54L183.475 218.952L188.579 208.748L185.748 207.335Z" fill="#0CBC8B"/>
<path d="M227.172 180.486L224.141 181.394L227.42 192.32L230.451 191.413L227.172 180.486Z" fill="#367CFF"/>
<path d="M228.191 186.722L217.404 178.532C217.167 178.353 216.895 178.224 216.605 178.155C216.316 178.086 216.015 178.078 215.722 178.131C215.429 178.184 215.15 178.298 214.904 178.464C214.657 178.631 214.448 178.847 214.29 179.099C214.012 179.573 213.921 180.133 214.033 180.671C214.145 181.209 214.453 181.685 214.897 182.009L217.21 183.765L207.399 181.578C206.313 181.315 204.811 181.688 204.597 182.925C204.484 183.395 204.533 183.89 204.738 184.329C204.942 184.768 205.289 185.125 205.723 185.341C205.718 185.351 205.714 185.361 205.711 185.371C205.71 185.379 205.71 185.388 205.711 185.396L204.035 184.992C203.725 184.917 203.401 184.912 203.089 184.978C202.777 185.044 202.483 185.179 202.229 185.372C201.975 185.566 201.768 185.814 201.622 186.097C201.477 186.381 201.396 186.694 201.387 187.013C201.382 187.515 201.55 188.003 201.863 188.397C202.176 188.79 202.614 189.064 203.105 189.173L203.817 189.345C203.822 189.368 203.831 189.39 203.843 189.41C203.334 189.405 202.84 189.582 202.45 189.907C202.059 190.233 201.797 190.687 201.711 191.188C201.633 191.738 201.765 192.298 202.082 192.756C202.399 193.213 202.877 193.535 203.42 193.656L205.192 194.083C205.163 194.095 205.137 194.113 205.116 194.137C205.095 194.161 205.081 194.189 205.073 194.219C205.066 194.256 205.07 194.294 205.084 194.329C204.629 194.45 204.228 194.717 203.94 195.089C203.653 195.461 203.496 195.917 203.493 196.387C203.501 196.88 203.675 197.357 203.987 197.739C204.299 198.121 204.731 198.387 205.214 198.494L220.157 202.1C222.248 202.604 224.442 202.473 226.457 201.724C228.473 200.975 230.219 199.642 231.472 197.896V197.896C232.551 196.39 233.001 194.523 232.724 192.692C232.448 190.86 231.467 189.209 229.99 188.088L228.191 186.722Z" fill="#E98862"/>
<g opacity="0.2">
<path d="M215.424 187.555C215.412 187.605 215.38 187.648 215.336 187.675C215.292 187.702 215.239 187.711 215.189 187.7L205.86 185.606C205.835 185.6 205.811 185.589 205.79 185.574C205.769 185.56 205.751 185.541 205.737 185.519C205.723 185.497 205.713 185.472 205.709 185.447C205.705 185.421 205.705 185.395 205.711 185.37C205.717 185.344 205.727 185.32 205.742 185.299C205.757 185.278 205.776 185.26 205.798 185.246C205.82 185.232 205.845 185.223 205.87 185.218C205.896 185.214 205.922 185.214 205.947 185.22L215.276 187.314C215.301 187.32 215.325 187.331 215.346 187.346C215.368 187.361 215.386 187.38 215.4 187.402C215.414 187.424 215.423 187.448 215.427 187.474C215.432 187.5 215.431 187.526 215.425 187.551L215.424 187.555Z" fill="#0C0C0C"/>
</g>
<g opacity="0.2">
<path d="M214.613 191.689C214.6 191.74 214.568 191.783 214.524 191.81C214.48 191.838 214.426 191.846 214.376 191.834L203.965 189.499C203.94 189.493 203.916 189.483 203.894 189.468C203.873 189.453 203.855 189.434 203.841 189.412C203.827 189.39 203.818 189.365 203.813 189.339C203.809 189.314 203.81 189.287 203.816 189.262C203.829 189.212 203.861 189.168 203.905 189.14C203.949 189.113 204.002 189.103 204.053 189.113L214.463 191.448C214.489 191.453 214.513 191.464 214.534 191.479C214.555 191.494 214.574 191.513 214.587 191.535C214.601 191.557 214.611 191.582 214.615 191.608C214.62 191.633 214.619 191.659 214.613 191.685V191.689Z" fill="#0C0C0C"/>
</g>
<g opacity="0.2">
<path d="M213.762 196.172C213.749 196.223 213.717 196.266 213.673 196.293C213.629 196.32 213.577 196.329 213.526 196.317L205.222 194.455C205.171 194.443 205.126 194.412 205.098 194.368C205.07 194.324 205.061 194.27 205.072 194.219C205.084 194.168 205.115 194.123 205.159 194.095C205.204 194.067 205.257 194.058 205.309 194.069L213.613 195.932C213.638 195.937 213.662 195.948 213.684 195.963C213.705 195.978 213.723 195.997 213.737 196.019C213.751 196.041 213.761 196.066 213.765 196.092C213.769 196.117 213.769 196.144 213.763 196.169L213.762 196.172Z" fill="#0C0C0C"/>
</g>
<path d="M176.978 130.392L183.001 118.269C183.133 118.003 183.32 117.767 183.548 117.577C183.777 117.386 184.043 117.245 184.329 117.163C184.615 117.081 184.915 117.059 185.21 117.099C185.505 117.139 185.789 117.24 186.042 117.395C186.502 117.697 186.834 118.158 186.973 118.689C187.112 119.221 187.048 119.785 186.794 120.272L185.502 122.872L193.319 116.56C194.176 115.843 195.687 115.511 196.429 116.524C196.74 116.895 196.916 117.361 196.928 117.845C196.94 118.329 196.787 118.802 196.495 119.188C196.504 119.195 196.512 119.202 196.519 119.21C196.523 119.217 196.527 119.224 196.53 119.232L197.852 118.126C198.097 117.921 198.385 117.773 198.694 117.694C199.003 117.614 199.326 117.604 199.639 117.665C199.953 117.726 200.249 117.856 200.505 118.046C200.762 118.235 200.973 118.48 201.123 118.761C201.351 119.209 201.418 119.722 201.312 120.213C201.207 120.704 200.936 121.144 200.545 121.46L199.982 121.93C199.988 121.953 199.99 121.976 199.988 121.999C200.442 121.769 200.963 121.708 201.457 121.827C201.952 121.945 202.388 122.236 202.688 122.646C203.003 123.105 203.134 123.665 203.053 124.216C202.972 124.766 202.687 125.266 202.253 125.615L200.856 126.784C200.888 126.781 200.919 126.786 200.949 126.798C200.978 126.81 201.004 126.829 201.024 126.853C201.047 126.882 201.061 126.918 201.064 126.956C201.525 126.863 202.004 126.924 202.426 127.13C202.849 127.336 203.193 127.674 203.404 128.094C203.617 128.539 203.673 129.043 203.563 129.524C203.453 130.005 203.184 130.436 202.8 130.745L191.014 140.605C189.366 141.984 187.342 142.84 185.203 143.064C183.064 143.287 180.907 142.867 179.009 141.858C177.372 140.988 176.139 139.514 175.572 137.751C175.006 135.988 175.15 134.073 175.973 132.414L176.978 130.392Z" fill="#E98862"/>
<g opacity="0.2">
<path d="M188.788 125.474C188.822 125.513 188.87 125.538 188.921 125.543C188.973 125.548 189.025 125.532 189.065 125.499L196.492 119.486C196.533 119.453 196.559 119.406 196.564 119.353C196.57 119.301 196.554 119.249 196.521 119.208C196.488 119.168 196.44 119.142 196.388 119.136C196.336 119.131 196.284 119.146 196.243 119.179L188.816 125.192C188.775 125.225 188.75 125.273 188.744 125.325C188.739 125.376 188.754 125.428 188.787 125.469L188.788 125.474Z" fill="#0C0C0C"/>
</g>
<g opacity="0.2">
<path d="M191.352 128.819C191.386 128.859 191.434 128.884 191.486 128.888C191.537 128.893 191.589 128.877 191.629 128.844L199.918 122.134C199.958 122.101 199.984 122.053 199.989 122.001C199.995 121.95 199.98 121.898 199.947 121.857C199.913 121.818 199.866 121.794 199.814 121.788C199.763 121.783 199.711 121.797 199.67 121.828L191.378 128.537C191.338 128.57 191.312 128.618 191.307 128.669C191.301 128.721 191.317 128.773 191.349 128.814L191.352 128.819Z" fill="#0C0C0C"/>
</g>
<g opacity="0.2">
<path d="M194.109 132.457C194.143 132.497 194.19 132.522 194.242 132.527C194.294 132.532 194.346 132.516 194.386 132.483L200.998 127.13C201.039 127.097 201.065 127.05 201.07 126.997C201.075 126.945 201.06 126.893 201.027 126.852C200.994 126.812 200.946 126.786 200.894 126.78C200.842 126.775 200.789 126.79 200.749 126.823L194.135 132.176C194.095 132.209 194.069 132.257 194.064 132.308C194.058 132.36 194.073 132.412 194.106 132.453L194.109 132.457Z" fill="#0C0C0C"/>
</g>
<path d="M41.816 119.999C41.816 119.999 40.9667 132.728 38.0997 137.345C29.845 150.64 27.4535 165.596 35.7197 173.41C43.986 181.224 96.7105 181.332 100.705 163.36C104.068 148.229 96.8514 146.602 95.0953 134.121C94.3009 128.473 92.1152 116.63 92.1152 116.63" fill="#0A0A0A"/>
<path d="M87.0592 160.725C86.9682 160.713 85.9583 177.451 66.49 175.991C53.0125 174.983 48.207 160.7 47.8984 160.7C49.3515 160.392 51.7983 159.943 52.4436 159.599C54.566 158.46 57.1909 157.275 57.8761 153.159C58.2717 150.788 57.6011 138.649 57.8072 136.248L78.4951 140.861C78.2059 145.931 76.1828 157.683 83.2741 159.763C84.4538 160.108 85.7248 160.425 87.0592 160.725Z" fill="#E98862"/>
<path opacity="0.5" d="M78.7853 154.961C78.4613 153.918 78.2526 152.843 78.163 151.754C77.9357 149.27 77.9811 146.769 78.2983 144.295C74.0938 143.728 70.1327 141.995 66.8653 139.292C66.4811 140.709 64.3682 146.9 64.9533 148.247C66.0582 150.793 71.2537 154.961 78.7853 154.961Z" fill="#0C0C0C"/>
<path d="M76.1095 149.747C67.9529 150.537 57.3997 147.276 55.2135 136.428L53.241 126.639C51.0549 115.79 54.9877 105.849 65.2145 103.793C75.4417 101.739 84.858 108.995 87.0441 119.844L87.9176 124.178C88.7563 128.34 90.662 148.34 76.1095 149.747Z" fill="#E98862"/>
<path opacity="0.1" d="M70.9251 135.53C72.2674 135.37 73.2603 134.443 73.1428 133.46C73.0253 132.477 71.842 131.809 70.4997 131.969C69.1575 132.129 68.1646 133.056 68.282 134.039C68.3995 135.023 69.5828 135.69 70.9251 135.53Z" fill="#0C0C0C"/>
<path opacity="0.1" d="M85.1089 131.599C85.2276 132.58 86.4124 133.247 87.7547 133.089C87.9866 133.061 88.2151 133.009 88.4363 132.934C88.4988 131.764 88.5024 130.638 88.4684 129.595C88.0956 129.502 87.7086 129.479 87.3274 129.528C85.9851 129.686 84.9926 130.613 85.1089 131.599Z" fill="#0C0C0C"/>
<path opacity="0.5" d="M79.1773 134.633C79.1839 134.633 79.1905 134.632 79.197 134.63C79.6116 134.544 80.021 134.435 80.4234 134.303C81.024 134.103 81.8081 133.773 81.7004 133.231C81.5762 132.613 78.5356 126.284 78.1906 125.565C78.1765 125.533 78.156 125.504 78.1302 125.479C78.1045 125.455 78.0742 125.436 78.041 125.424C78.0078 125.411 77.9724 125.406 77.937 125.407C77.9016 125.409 77.8669 125.418 77.835 125.433C77.8031 125.448 77.7746 125.47 77.7512 125.497C77.7278 125.523 77.71 125.554 77.6989 125.588C77.6877 125.621 77.6835 125.657 77.6864 125.692C77.6894 125.727 77.6994 125.762 77.7159 125.793C79.0123 128.488 81.1003 132.919 81.1842 133.335C81.1185 133.529 80.1224 133.908 79.0942 134.115C79.0601 134.121 79.0274 134.133 78.998 134.151C78.9686 134.169 78.943 134.193 78.9228 134.221C78.9026 134.249 78.8881 134.281 78.8801 134.314C78.8722 134.348 78.8709 134.383 78.8764 134.417C78.8819 134.451 78.8941 134.483 78.9122 134.513C78.9304 134.542 78.9541 134.568 78.9821 134.588C79.0101 134.608 79.0419 134.623 79.0755 134.63C79.1091 134.638 79.144 134.64 79.1781 134.634L79.1773 134.633Z" fill="#0C0C0C"/>
<path d="M45.0815 130.153L54.2501 128.364C61.176 125.472 63.141 113.416 63.141 113.416C63.141 113.416 71.6885 121.547 92.1169 116.63C92.1169 116.63 87.6793 88.1475 57.515 96.7951C47.789 99.5827 40.8995 109.484 41.9242 122.599C42.6422 131.787 45.0815 130.153 45.0815 130.153Z" fill="#0A0A0A"/>
<path d="M56.5144 139.605C53.4065 140.23 50.2179 137.415 49.5913 134.311C48.9646 131.206 51.1405 128.988 54.2484 128.363L56.2691 130.122L59.1859 139.067L56.5144 139.605Z" fill="#E98862"/>
<path d="M80.3944 120.52C81.172 119.97 82.0813 119.637 83.03 119.552C83.5066 119.507 83.9874 119.533 84.4561 119.631C84.9287 119.727 85.3874 119.883 85.8214 120.093L85.8348 120.099C85.8829 120.12 85.9374 120.122 85.9866 120.103C86.0359 120.085 86.076 120.048 86.0983 120.001C86.1207 119.953 86.1236 119.899 86.1063 119.849C86.0891 119.8 86.0531 119.759 86.0061 119.735C85.5462 119.493 85.0577 119.309 84.5519 119.188C84.0425 119.065 83.5175 119.018 82.9944 119.05C81.9347 119.109 80.9101 119.45 80.0273 120.038C79.9944 120.061 79.9662 120.089 79.9443 120.122C79.9225 120.155 79.9074 120.193 79.8999 120.232C79.8924 120.271 79.8928 120.311 79.9008 120.349C79.9089 120.388 79.9246 120.425 79.9469 120.458C79.9693 120.491 79.998 120.519 80.0312 120.541C80.0645 120.563 80.1017 120.577 80.1408 120.585C80.1799 120.592 80.22 120.592 80.2589 120.584C80.2978 120.575 80.3347 120.56 80.3675 120.537L80.3746 120.533L80.3944 120.52Z" fill="#0C0C0C"/>
<path d="M72.0183 121.675C70.9772 121.468 69.8995 121.544 68.8978 121.895C68.4026 122.065 67.9359 122.309 67.5131 122.618C67.0921 122.922 66.7111 123.279 66.3793 123.679C66.3458 123.719 66.329 123.77 66.3325 123.822C66.3359 123.874 66.3593 123.922 66.3978 123.957C66.4363 123.992 66.4868 124.011 66.5388 124.01C66.5908 124.008 66.6403 123.987 66.6768 123.95L66.6875 123.939C67.0076 123.578 67.3718 123.26 67.7715 122.99C68.167 122.721 68.601 122.513 69.0588 122.373C69.9674 122.088 70.9355 122.048 71.8644 122.258L71.8874 122.264C71.9653 122.283 72.0476 122.27 72.1161 122.228C72.1845 122.187 72.2336 122.119 72.2525 122.042C72.2714 121.964 72.2585 121.882 72.2168 121.813C72.175 121.745 72.1077 121.696 72.0298 121.677L72.0183 121.675Z" fill="#0C0C0C"/>
<path d="M54.2567 128.214C60.4199 125.922 62.4652 121.671 63.095 118.508C63.5026 116.398 63.4645 114.227 62.983 112.133L62.7924 112.185C63.2666 114.252 63.3032 116.395 62.9 118.477C62.2781 121.588 60.2621 125.771 54.1875 128.029L54.2567 128.214Z" fill="#0C0C0C"/>
<path d="M102.915 162.716L161.436 182.253L144.254 189.881L173.435 130.091L197.283 141.192L170.209 201.961C168.84 205.034 166.409 207.513 163.361 208.944C160.313 210.374 156.852 210.662 153.609 209.754L153.027 209.589L93.6201 192.931L102.915 162.716Z" fill="#367CFF"/>
<path d="M66.126 171.807C52.639 171.172 52.0713 159.739 52.0713 159.739C52.0713 159.739 45.3887 160.171 40.9464 160.771C33.6735 161.754 28.8756 164.217 25.0572 168.03C21.5054 171.578 19.3431 175.416 21.6313 199.921C23.2881 217.664 22.1222 256.691 22.1222 256.691H104.31C104.31 256.691 110.049 200.307 110.729 192.322C112.028 177.074 115.696 173.708 108.263 165.854C102.873 160.158 88.9577 159.739 83.3567 159.74C83.2653 159.74 84.4933 172.672 66.126 171.807Z" fill="#367CFF"/>
<path d="M81.9116 136.772C79.2615 138.118 76.2379 138.543 73.3186 137.981C73.2175 137.963 73.1131 137.973 73.0176 138.011C72.9222 138.049 72.8395 138.113 72.7793 138.197C72.7191 138.28 72.6839 138.379 72.6777 138.481C72.6716 138.584 72.6948 138.686 72.7446 138.776C73.6149 140.307 75.6792 142.924 79.2206 141.858C81.5073 141.168 82.3717 138.819 82.6921 137.365C82.714 137.265 82.7067 137.16 82.6711 137.064C82.6355 136.967 82.5731 136.883 82.4911 136.82C82.4091 136.758 82.3111 136.72 82.2084 136.712C82.1057 136.703 82.0028 136.724 81.9116 136.772Z" fill="white"/>
<path d="M82.0775 125.001C82.7847 125.001 83.358 124.428 83.358 123.722C83.358 123.016 82.7847 122.443 82.0775 122.443C81.3702 122.443 80.7969 123.016 80.7969 123.722C80.7969 124.428 81.3702 125.001 82.0775 125.001Z" fill="#0C0C0C"/>
<path d="M69.7718 127.152C70.479 127.152 71.0524 126.58 71.0524 125.873C71.0524 125.167 70.479 124.594 69.7718 124.594C69.0645 124.594 68.4912 125.167 68.4912 125.873C68.4912 126.58 69.0645 127.152 69.7718 127.152Z" fill="#0C0C0C"/>
<path d="M110.547 197.877C110.538 197.877 110.53 197.877 110.522 197.877C110.47 197.87 110.423 197.843 110.39 197.802C110.358 197.761 110.344 197.708 110.35 197.657L111.623 187.353C111.625 187.327 111.633 187.302 111.646 187.279C111.659 187.256 111.676 187.236 111.696 187.22C111.717 187.204 111.741 187.192 111.766 187.186C111.791 187.179 111.817 187.177 111.843 187.181C111.869 187.184 111.894 187.193 111.916 187.205C111.939 187.218 111.959 187.235 111.975 187.256C111.991 187.276 112.003 187.3 112.01 187.325C112.017 187.35 112.018 187.376 112.015 187.402L110.743 197.705C110.736 197.753 110.713 197.796 110.677 197.828C110.641 197.859 110.595 197.877 110.547 197.877V197.877Z" fill="#0C0C0C"/>
<path d="M318.583 118.37C318.583 118.37 313.681 112.871 314.249 102.573C314.689 94.5998 320.847 101.048 320.847 101.048C320.847 101.048 321.22 95.3098 325.186 96.6761C329.152 98.0425 330.265 104.37 330.265 104.37" fill="#0C0C0C"/>
<path d="M346.135 101.526C346.135 101.526 365.937 107.721 353.157 133.65L351.343 133.413L347.659 132.932" fill="#0C0C0C"/>
<path d="M317.966 160.683C318.057 160.671 319.063 177.353 338.467 175.899C351.9 174.894 356.689 160.66 356.997 160.66C355.549 160.352 353.11 159.905 352.467 159.562C350.351 158.427 347.734 157.246 347.052 153.143C346.66 150.779 347.326 138.682 347.121 136.289L326.501 140.885C326.79 145.938 328.806 157.652 321.738 159.725C320.563 160.068 319.295 160.383 317.966 160.683Z" fill="#E98862"/>
<path opacity="0.52" d="M326.212 154.938C326.535 153.899 326.743 152.827 326.832 151.742C327.059 149.266 327.014 146.773 326.697 144.308C330.888 143.743 334.837 142.015 338.094 139.321C338.476 140.733 340.582 146.904 339.999 148.247C338.897 150.784 333.718 154.938 326.212 154.938Z" fill="#0C0C0C"/>
<path d="M328.685 149.289C336.805 150.163 347.358 147.029 349.655 136.241L351.727 126.506C354.021 115.72 350.211 105.768 340.041 103.608C329.87 101.449 320.407 108.581 318.111 119.369L317.194 123.679C316.904 125.164 316.717 126.667 316.633 128.178C316.38 132.168 316.011 138.239 317.855 142.763C319.595 147.033 323.497 148.731 328.685 149.289Z" fill="#E98862"/>
<path d="M322.235 124.435C322.942 124.435 323.515 123.862 323.515 123.156C323.515 122.45 322.942 121.877 322.235 121.877C321.527 121.877 320.954 122.45 320.954 123.156C320.954 123.862 321.527 124.435 322.235 124.435Z" fill="#0C0C0C"/>
<path d="M334.398 125.714C335.105 125.714 335.678 125.142 335.678 124.435C335.678 123.729 335.105 123.156 334.398 123.156C333.691 123.156 333.117 123.729 333.117 124.435C333.117 125.142 333.691 125.714 334.398 125.714Z" fill="#0C0C0C"/>
<path d="M348.323 139.393C351.414 140.049 354.623 137.279 355.28 134.192C355.937 131.105 353.793 128.871 350.703 128.214L348.67 129.945L345.666 138.829L348.323 139.393Z" fill="#E98862"/>
<path d="M346.236 133.807C346.236 133.807 348.244 118.294 343.786 116.424C340.819 115.179 332.438 118.069 325.751 115.361C322.826 114.176 319.789 114.354 319.209 115.73C318.979 116.275 318.714 107.735 324.713 102.487C329.488 98.3093 342.174 99.3868 347.496 102.128C362.232 109.718 351.21 129.016 351.21 129.016L349.46 134.153L346.236 133.807Z" fill="#0C0C0C"/>
<g opacity="0.52">
<path d="M325.566 134.917L325.545 134.914C324.549 134.705 322.901 134.242 323.056 133.499C323.186 132.882 326.276 126.577 326.629 125.86C326.659 125.798 326.712 125.751 326.777 125.729C326.842 125.707 326.914 125.711 326.975 125.741C327.037 125.772 327.084 125.825 327.107 125.89C327.129 125.955 327.124 126.026 327.094 126.088C325.723 128.88 323.652 133.186 323.564 133.605C323.625 133.803 324.62 134.19 325.651 134.406C325.716 134.421 325.773 134.46 325.81 134.515C325.847 134.57 325.862 134.637 325.851 134.702C325.84 134.768 325.804 134.826 325.751 134.866C325.698 134.906 325.631 134.924 325.566 134.917V134.917Z" fill="#0C0C0C"/>
</g>
<path d="M325.336 119.155C324.357 118.662 323.263 118.441 322.169 118.516C321.631 118.55 321.101 118.664 320.598 118.855C320.099 119.041 319.626 119.29 319.191 119.595C319.118 119.641 319.066 119.714 319.046 119.798C319.027 119.882 319.042 119.971 319.087 120.044C319.132 120.118 319.205 120.171 319.289 120.191C319.373 120.212 319.461 120.199 319.536 120.155L319.558 120.141C319.958 119.894 320.388 119.697 320.837 119.557C321.279 119.415 321.741 119.342 322.205 119.339C323.123 119.326 324.029 119.555 324.83 120.003L324.86 120.021C324.916 120.054 324.978 120.076 325.042 120.086C325.107 120.095 325.173 120.091 325.236 120.075C325.299 120.059 325.359 120.03 325.411 119.991C325.463 119.952 325.507 119.903 325.54 119.846C325.573 119.79 325.594 119.728 325.603 119.663C325.612 119.599 325.608 119.533 325.591 119.47C325.575 119.407 325.546 119.348 325.506 119.296C325.466 119.244 325.417 119.201 325.36 119.168L325.336 119.155Z" fill="#0C0C0C"/>
<path d="M332.658 121.132C333.548 120.904 334.482 120.915 335.366 121.164C335.814 121.286 336.241 121.475 336.632 121.725C337.029 121.976 337.394 122.276 337.717 122.618L337.734 122.636C337.795 122.695 337.877 122.728 337.962 122.729C338.047 122.729 338.129 122.697 338.19 122.639C338.252 122.581 338.289 122.501 338.293 122.416C338.297 122.331 338.268 122.248 338.213 122.184C337.87 121.778 337.477 121.416 337.043 121.108C336.605 120.795 336.123 120.549 335.612 120.378C334.574 120.024 333.46 119.956 332.387 120.18C332.323 120.194 332.263 120.22 332.21 120.258C332.156 120.295 332.111 120.342 332.076 120.396C332.005 120.507 331.98 120.641 332.008 120.769C332.036 120.897 332.114 121.009 332.225 121.08C332.335 121.15 332.469 121.174 332.597 121.147L332.623 121.14L332.658 121.132Z" fill="#0C0C0C"/>
<path d="M324 137.31C326.884 138.03 329.926 137.769 332.646 136.569C332.74 136.528 332.844 136.515 332.945 136.53C333.047 136.546 333.142 136.59 333.219 136.658C333.297 136.726 333.353 136.814 333.382 136.913C333.411 137.011 333.411 137.116 333.383 137.215C332.877 138.902 331.452 141.917 327.762 141.667C325.379 141.506 324.01 139.409 323.371 138.065C323.326 137.971 323.31 137.867 323.323 137.765C323.336 137.663 323.378 137.566 323.444 137.487C323.51 137.407 323.597 137.349 323.696 137.317C323.794 137.286 323.9 137.284 324 137.31V137.31Z" fill="white"/>
<path d="M335.445 104.697C336.823 101.466 336.158 98.0883 333.96 97.1531C331.762 96.2179 328.863 98.0792 327.485 101.31C326.107 104.542 326.771 107.919 328.969 108.854C331.167 109.79 334.066 107.928 335.445 104.697Z" fill="#0C0C0C"/>
<path d="M338.769 171.807C352.256 171.172 352.823 159.739 352.823 159.739C352.823 159.739 359.506 160.17 363.949 160.77C371.221 161.753 376.019 164.216 379.837 168.03C383.39 171.577 385.552 175.416 383.263 199.92C381.607 217.663 382.773 256.691 382.773 256.691H300.585C300.585 256.691 294.846 200.309 294.166 192.321C292.867 177.074 289.199 173.708 296.631 165.854C302.021 160.158 315.937 159.739 321.538 159.74C321.629 159.74 320.403 172.672 338.769 171.807Z" fill="#367CFF"/>
<path d="M293.972 169.385L272.723 214.378L230.818 182.904L214.174 205.01L269.662 246.685C270.159 247.054 270.677 247.392 271.215 247.697C272.801 248.584 274.546 249.151 276.35 249.364C278.155 249.578 279.984 249.434 281.733 248.942C283.483 248.45 285.118 247.618 286.545 246.495C287.972 245.371 289.164 243.978 290.053 242.394L290.293 241.966L322.712 184.173L293.972 169.385Z" fill="#367CFF"/>
<path d="M385.926 257.085H11.6485C11.5436 257.085 11.443 257.044 11.3688 256.969C11.2946 256.895 11.2529 256.795 11.2529 256.69C11.2529 256.585 11.2946 256.485 11.3688 256.411C11.443 256.337 11.5436 256.295 11.6485 256.295H385.926C386.031 256.295 386.132 256.337 386.206 256.411C386.28 256.485 386.322 256.585 386.322 256.69C386.322 256.795 386.28 256.895 386.206 256.969C386.132 257.044 386.031 257.085 385.926 257.085Z" fill="#292A2E"/>
<path d="M303.872 197.92H104.095V265.761H303.872V197.92Z" fill="white"/>
<path d="M178.143 235.488C176.751 235.488 175.679 235.04 174.927 234.144C174.287 233.376 173.967 232.4 173.967 231.216V221.112L176.031 220.008V231.144C176.031 232.744 176.815 233.544 178.383 233.544H179.967V235.488H178.143ZM186.868 233.544H188.452V235.488H186.628C185.3 235.488 184.252 235.064 183.484 234.216C182.716 235.064 181.668 235.488 180.34 235.488H178.516V233.544H180.1C181.668 233.544 182.452 232.744 182.452 231.144V226.176L184.516 225.072V231.144C184.516 232.744 185.3 233.544 186.868 233.544ZM181.132 237.888C181.9 237.888 182.284 238.288 182.284 239.088C182.284 239.872 181.9 240.264 181.132 240.264C180.348 240.264 179.956 239.872 179.956 239.088C179.956 238.288 180.348 237.888 181.132 237.888ZM184.18 237.888C184.948 237.888 185.332 238.288 185.332 239.088C185.332 239.872 184.948 240.264 184.18 240.264C183.396 240.264 183.004 239.872 183.004 239.088C183.004 238.288 183.396 237.888 184.18 237.888ZM191.897 222.168C191.113 222.168 190.721 221.768 190.721 220.968C190.721 220.184 191.113 219.792 191.897 219.792C192.665 219.792 193.049 220.184 193.049 220.968C193.049 221.768 192.665 222.168 191.897 222.168ZM187.001 235.488V233.544H188.585C190.153 233.544 190.937 232.744 190.937 231.144V226.176L193.001 225.072V231.216C193.001 232.576 192.593 233.648 191.777 234.432C191.025 235.136 190.041 235.488 188.825 235.488H187.001ZM201.486 235.488C200.094 235.488 199.022 235.04 198.27 234.144C197.63 233.376 197.31 232.4 197.31 231.216V221.112L199.374 220.008V231.144C199.374 232.744 200.158 233.544 201.726 233.544H203.31V235.488H201.486ZM218.204 233.544H219.788V235.488H217.964C216.62 235.488 215.58 235.072 214.844 234.24C214.06 235.072 212.996 235.488 211.652 235.488H209.06C208.516 235.488 208.004 235.408 207.524 235.248C207.028 235.408 206.516 235.488 205.988 235.488H201.86V233.544H204.956C204.348 232.728 204.044 231.8 204.044 230.76C204.044 229.816 204.276 229.016 204.74 228.36C205.14 226.888 205.9 225.76 207.02 224.976C207.932 224.352 208.964 224.04 210.116 224.04C211.812 224.04 213.212 224.616 214.316 225.768C215.356 226.856 215.876 228.256 215.876 229.968V231.144C215.876 232.744 216.652 233.544 218.204 233.544ZM211.58 233.544C212.364 233.544 212.924 233.352 213.26 232.968C213.612 232.568 213.788 231.928 213.788 231.048V229.968C213.788 228.64 213.364 227.608 212.516 226.872C211.828 226.264 211.004 225.96 210.044 225.96C208.94 225.96 208.076 226.32 207.452 227.04H207.524C208.58 227.04 209.42 227.384 210.044 228.072C210.684 228.744 211.004 229.64 211.004 230.76C211.004 231.832 210.692 232.76 210.068 233.544H211.58ZM207.524 233.328C208.836 232.88 209.492 231.984 209.492 230.64C209.492 229.968 209.308 229.432 208.94 229.032C208.588 228.616 208.116 228.408 207.524 228.408C206.932 228.408 206.452 228.616 206.084 229.032C205.732 229.432 205.556 229.968 205.556 230.64C205.556 231.984 206.212 232.88 207.524 233.328ZM220.185 222.168C219.401 222.168 219.009 221.768 219.009 220.968C219.009 220.184 219.401 219.792 220.185 219.792C220.953 219.792 221.337 220.184 221.337 220.968C221.337 221.768 220.953 222.168 220.185 222.168ZM223.233 222.168C222.449 222.168 222.057 221.768 222.057 220.968C222.057 220.184 222.449 219.792 223.233 219.792C224.001 219.792 224.385 220.184 224.385 220.968C224.385 221.768 224.001 222.168 223.233 222.168ZM218.337 235.488V233.544H219.921C221.489 233.544 222.273 232.744 222.273 231.144V226.176L224.337 225.072V231.216C224.337 232.576 223.929 233.648 223.113 234.432C222.361 235.136 221.377 235.488 220.161 235.488H218.337Z" fill="#007BFF"/>
<path d="M304.715 266.542H103.897V197.723H304.715V266.542ZM104.293 266.146H304.319V198.118H104.293V266.146Z" fill="#0C0C0C"/>
<path d="M94.1998 218.831L106.572 213.312C106.844 213.191 107.138 213.128 107.435 213.126C107.733 213.125 108.028 213.186 108.301 213.304C108.574 213.423 108.819 213.597 109.021 213.815C109.223 214.034 109.378 214.292 109.474 214.573C109.637 215.098 109.598 215.664 109.366 216.162C109.134 216.66 108.725 217.054 108.219 217.268L105.566 218.453L115.619 218.557C116.737 218.549 118.114 219.253 118.04 220.506C118.043 220.99 117.882 221.461 117.583 221.842C117.284 222.223 116.864 222.491 116.393 222.603C116.395 222.613 116.397 222.624 116.397 222.635C116.396 222.643 116.395 222.651 116.392 222.659L118.116 222.647C118.435 222.645 118.751 222.714 119.04 222.849C119.329 222.984 119.584 223.182 119.787 223.428C119.99 223.674 120.135 223.962 120.212 224.271C120.29 224.58 120.297 224.903 120.234 225.215C120.124 225.705 119.848 226.143 119.454 226.455C119.06 226.767 118.57 226.934 118.067 226.928L117.334 226.933C117.324 226.954 117.311 226.974 117.294 226.99C117.791 227.102 118.231 227.386 118.537 227.792C118.843 228.198 118.994 228.699 118.964 229.206C118.915 229.76 118.658 230.276 118.246 230.649C117.833 231.023 117.294 231.227 116.737 231.221L114.915 231.234C114.941 231.252 114.962 231.276 114.977 231.303C114.991 231.331 115 231.361 115 231.392C114.999 231.43 114.986 231.466 114.965 231.496C115.379 231.718 115.71 232.07 115.905 232.497C116.099 232.925 116.148 233.404 116.044 233.862C115.924 234.341 115.646 234.765 115.255 235.066C114.864 235.367 114.382 235.528 113.888 235.522L98.5151 235.631C96.3646 235.647 94.2585 235.02 92.4668 233.832C90.6751 232.644 89.2793 230.949 88.4584 228.964V228.964C87.7506 227.252 87.7389 225.332 88.4259 223.612C89.1129 221.891 90.4444 220.506 92.1375 219.751L94.1998 218.831Z" fill="#E98862"/>
<g opacity="0.2">
<path d="M106.442 222.548C106.443 222.6 106.464 222.65 106.501 222.686C106.538 222.723 106.588 222.743 106.64 222.743L116.2 222.829C116.253 222.829 116.303 222.809 116.341 222.772C116.378 222.736 116.4 222.686 116.4 222.633C116.4 222.581 116.38 222.53 116.343 222.493C116.307 222.456 116.256 222.434 116.204 222.434L106.644 222.348C106.591 222.348 106.541 222.368 106.504 222.406C106.467 222.443 106.446 222.493 106.446 222.545L106.442 222.548Z" fill="#0C0C0C"/>
</g>
<g opacity="0.2">
<path d="M106.287 226.76C106.288 226.812 106.309 226.861 106.346 226.898C106.383 226.934 106.433 226.955 106.485 226.955L117.154 227.051C117.207 227.051 117.257 227.03 117.294 226.993C117.331 226.956 117.352 226.906 117.352 226.853C117.35 226.801 117.329 226.752 117.292 226.715C117.255 226.679 117.206 226.657 117.154 226.656L106.485 226.56C106.459 226.559 106.433 226.564 106.409 226.574C106.384 226.584 106.362 226.598 106.344 226.617C106.325 226.635 106.31 226.657 106.3 226.681C106.29 226.705 106.285 226.731 106.285 226.757L106.287 226.76Z" fill="#0C0C0C"/>
</g>
<g opacity="0.2">
<path d="M106.094 231.317C106.094 231.369 106.116 231.418 106.153 231.455C106.19 231.491 106.24 231.512 106.292 231.512L114.802 231.588C114.855 231.589 114.905 231.569 114.943 231.532C114.98 231.495 115.001 231.445 115.002 231.393C115.002 231.34 114.982 231.29 114.945 231.252C114.908 231.215 114.858 231.194 114.806 231.193L106.295 231.117C106.243 231.117 106.192 231.138 106.155 231.175C106.118 231.212 106.097 231.262 106.097 231.314L106.094 231.317Z" fill="#0C0C0C"/>
</g>
<path d="M97.7397 240.833L29.1465 256.406C26.8678 256.654 24.5626 256.371 22.4119 255.58C20.2611 254.788 18.3232 253.509 16.7503 251.844C15.1774 250.179 14.0122 248.172 13.3461 245.982C12.6801 243.791 12.5314 241.476 12.9116 239.219L20.7612 176.158C21.414 172.282 23.5815 168.825 26.7867 166.546C29.9919 164.266 33.9724 163.352 37.8524 164.004C41.7325 164.656 45.1943 166.821 47.4763 170.022C49.7583 173.224 50.6736 177.199 50.0207 181.074L46.2407 226.211L93.8972 215.439L97.7397 240.833Z" fill="#367CFF"/>
<path d="M36.5985 227.985C36.5488 227.985 36.5012 227.966 36.4649 227.932C36.4287 227.898 36.4065 227.851 36.4029 227.802C36.3992 227.752 36.4144 227.703 36.4453 227.665C36.4762 227.626 36.5206 227.6 36.5696 227.592L46.1279 225.554C46.1536 225.55 46.1799 225.551 46.2052 225.557C46.2305 225.563 46.2544 225.574 46.2753 225.589C46.2963 225.605 46.3139 225.624 46.3272 225.647C46.3405 225.669 46.3491 225.694 46.3526 225.72C46.3603 225.772 46.3472 225.824 46.316 225.866C46.2849 225.908 46.2383 225.936 46.1865 225.944L36.6282 227.983C36.6184 227.984 36.6085 227.985 36.5985 227.985V227.985Z" fill="#0C0C0C"/>
<path d="M31.2042 256.691C31.1518 256.694 31.1001 256.677 31.0606 256.642C31.0211 256.607 30.997 256.559 30.9936 256.506C30.9902 256.454 31.0077 256.402 31.0424 256.363C31.0771 256.323 31.1261 256.299 31.1785 256.296L97.3091 240.739L93.5619 215.728L46.1899 225.942C46.1592 225.946 46.1281 225.943 46.099 225.933C46.0698 225.922 46.0434 225.906 46.0217 225.884C46.0001 225.861 45.9841 225.835 45.9749 225.805C45.9657 225.775 45.9636 225.744 45.9687 225.713L48.626 199.924C48.63 199.898 48.6391 199.874 48.6528 199.851C48.6664 199.829 48.6844 199.81 48.7057 199.795C48.7269 199.78 48.751 199.769 48.7764 199.763C48.8019 199.758 48.8282 199.757 48.8539 199.762C48.9056 199.771 48.9517 199.8 48.9822 199.842C49.0126 199.885 49.0248 199.938 49.0161 199.99L46.4051 225.514L93.6541 215.293C93.6795 215.286 93.7061 215.284 93.7322 215.287C93.7584 215.29 93.7836 215.299 93.8064 215.312C93.8291 215.326 93.8489 215.343 93.8648 215.365C93.8806 215.386 93.8921 215.41 93.8985 215.435L97.7411 240.831C97.7532 240.881 97.7454 240.933 97.7193 240.978C97.6933 241.022 97.651 241.054 97.6014 241.068L31.23 256.689C31.2214 256.69 31.2128 256.691 31.2042 256.691V256.691Z" fill="#0C0C0C"/>
<path d="M310.696 230.685L298.325 225.166C298.053 225.045 297.759 224.982 297.461 224.98C297.163 224.979 296.868 225.04 296.595 225.158C296.322 225.277 296.077 225.451 295.875 225.669C295.673 225.888 295.519 226.146 295.422 226.427C295.26 226.952 295.298 227.518 295.53 228.016C295.762 228.514 296.171 228.908 296.678 229.122L299.331 230.307L289.277 230.411C288.16 230.403 286.783 231.107 286.857 232.36C286.853 232.844 287.015 233.315 287.314 233.696C287.613 234.077 288.033 234.345 288.504 234.457C288.501 234.467 288.499 234.478 288.499 234.489C288.5 234.497 288.502 234.505 288.504 234.513L286.78 234.501C286.461 234.499 286.146 234.568 285.857 234.703C285.568 234.838 285.312 235.036 285.11 235.282C284.907 235.528 284.761 235.816 284.684 236.125C284.607 236.434 284.599 236.757 284.663 237.069C284.773 237.559 285.048 237.997 285.442 238.309C285.837 238.62 286.326 238.787 286.829 238.782L287.563 238.787C287.573 238.808 287.586 238.828 287.602 238.844C287.106 238.956 286.666 239.24 286.36 239.646C286.054 240.052 285.902 240.553 285.933 241.06C285.982 241.614 286.238 242.13 286.651 242.503C287.064 242.877 287.603 243.081 288.16 243.075L289.982 243.088C289.956 243.106 289.935 243.13 289.92 243.157C289.905 243.185 289.897 243.215 289.897 243.246C289.898 243.284 289.91 243.32 289.932 243.35C289.517 243.572 289.187 243.924 288.992 244.351C288.797 244.779 288.748 245.258 288.853 245.716C288.973 246.195 289.251 246.619 289.642 246.92C290.033 247.221 290.515 247.382 291.009 247.376L306.382 247.485C308.533 247.501 310.639 246.874 312.431 245.686C314.222 244.498 315.618 242.802 316.439 240.817V240.817C317.147 239.105 317.158 237.185 316.471 235.465C315.784 233.744 314.453 232.359 312.76 231.604L310.696 230.685Z" fill="#E98862"/>
<g opacity="0.2">
<path d="M298.455 234.402C298.454 234.454 298.433 234.503 298.396 234.54C298.359 234.576 298.309 234.597 298.257 234.597L288.697 234.682C288.671 234.683 288.645 234.678 288.621 234.668C288.597 234.658 288.575 234.644 288.556 234.626C288.538 234.608 288.523 234.586 288.513 234.562C288.503 234.538 288.497 234.513 288.497 234.487C288.497 234.461 288.502 234.435 288.511 234.411C288.521 234.387 288.536 234.365 288.554 234.346C288.572 234.328 288.594 234.313 288.618 234.303C288.641 234.293 288.667 234.288 288.693 234.287L298.253 234.201C298.306 234.201 298.356 234.222 298.393 234.259C298.43 234.296 298.451 234.346 298.451 234.399L298.455 234.402Z" fill="#0C0C0C"/>
</g>
<g opacity="0.2">
<path d="M298.609 238.614C298.608 238.665 298.587 238.715 298.551 238.751C298.514 238.788 298.465 238.808 298.413 238.809L287.744 238.905C287.691 238.905 287.641 238.884 287.604 238.847C287.567 238.81 287.546 238.76 287.546 238.707C287.548 238.655 287.569 238.606 287.606 238.569C287.642 238.533 287.692 238.511 287.744 238.51L298.413 238.414C298.465 238.414 298.516 238.434 298.553 238.471C298.59 238.508 298.611 238.559 298.611 238.611L298.609 238.614Z" fill="#0C0C0C"/>
</g>
<g opacity="0.2">
<path d="M298.803 243.171C298.802 243.223 298.781 243.272 298.744 243.309C298.707 243.345 298.657 243.366 298.605 243.366L290.094 243.442C290.068 243.443 290.042 243.438 290.018 243.428C289.994 243.418 289.972 243.404 289.954 243.386C289.935 243.368 289.92 243.346 289.91 243.322C289.9 243.298 289.895 243.273 289.895 243.247C289.894 243.221 289.899 243.195 289.909 243.171C289.919 243.147 289.933 243.125 289.951 243.106C289.969 243.088 289.991 243.073 290.015 243.063C290.039 243.053 290.065 243.048 290.091 243.047L298.601 242.971C298.654 242.971 298.704 242.992 298.741 243.029C298.778 243.066 298.799 243.116 298.799 243.168L298.803 243.171Z" fill="#0C0C0C"/>
</g>
<path d="M311.111 252.686L375.748 256.406C378.027 256.654 380.332 256.371 382.483 255.58C384.634 254.788 386.572 253.509 388.145 251.844C389.718 250.179 390.883 248.172 391.549 245.982C392.215 243.791 392.364 241.476 391.983 239.219L384.135 176.156C383.812 174.237 383.114 172.4 382.08 170.751C381.046 169.102 379.697 167.672 378.11 166.544C376.523 165.415 374.729 164.61 372.83 164.174C370.931 163.738 368.965 163.679 367.044 164.002C365.123 164.325 363.284 165.023 361.633 166.055C359.982 167.088 358.55 168.435 357.42 170.02C356.29 171.605 355.484 173.397 355.047 175.294C354.611 177.19 354.553 179.154 354.876 181.072L358.656 228.975L311.395 227.291L311.111 252.686Z" fill="#367CFF"/>
<path d="M368.297 228.775C368.347 228.775 368.395 228.756 368.431 228.722C368.467 228.688 368.49 228.642 368.493 228.592C368.497 228.543 368.482 228.494 368.451 228.455C368.42 228.416 368.376 228.39 368.327 228.382L358.768 228.319C358.743 228.315 358.716 228.316 358.691 228.322C358.666 228.328 358.642 228.34 358.621 228.355C358.6 228.371 358.582 228.39 358.569 228.412C358.555 228.435 358.547 228.46 358.543 228.485C358.535 228.537 358.549 228.59 358.58 228.632C358.611 228.674 358.658 228.702 358.71 228.71L368.268 228.773C368.278 228.774 368.287 228.775 368.297 228.775Z" fill="#0C0C0C"/>
<path d="M373.691 256.691C373.743 256.695 373.795 256.677 373.834 256.642C373.874 256.608 373.898 256.559 373.901 256.506C373.905 256.454 373.887 256.402 373.852 256.363C373.818 256.323 373.769 256.299 373.716 256.296L311.541 252.595L311.727 227.584L358.704 228.71C358.734 228.714 358.765 228.711 358.795 228.7C358.824 228.69 358.85 228.673 358.872 228.651C358.893 228.629 358.909 228.602 358.919 228.573C358.928 228.543 358.93 228.512 358.925 228.481L356.268 199.926C356.264 199.9 356.255 199.875 356.241 199.853C356.227 199.831 356.209 199.812 356.188 199.797C356.167 199.782 356.143 199.771 356.117 199.765C356.092 199.76 356.066 199.759 356.04 199.764C356.014 199.768 355.99 199.777 355.968 199.791C355.946 199.805 355.927 199.823 355.911 199.844C355.896 199.865 355.886 199.889 355.88 199.914C355.874 199.94 355.873 199.966 355.877 199.991L358.49 228.282L311.637 227.148C311.612 227.141 311.585 227.139 311.559 227.143C311.533 227.146 311.507 227.155 311.485 227.168C311.462 227.181 311.442 227.199 311.426 227.22C311.41 227.241 311.399 227.265 311.393 227.291L311.11 252.686C311.098 252.736 311.106 252.789 311.132 252.833C311.158 252.877 311.2 252.91 311.25 252.923L373.664 256.687C373.673 256.689 373.682 256.691 373.691 256.691V256.691Z" fill="#0C0C0C"/>
</svg>
