<svg width="482" height="816" viewBox="0 0 482 816" fill="none" xmlns="http://www.w3.org/2000/svg">
<rect width="482" height="816" rx="4" fill="#007BFF"/>
<path d="M482 508.4H0V508.65H482V508.4Z" fill="#EBEBEB"/>
<path d="M433.704 524.49H401.776V524.74H433.704V524.49Z" fill="#EBEBEB"/>
<path d="M319.296 527.21H310.919V527.46H319.296V527.21Z" fill="#EBEBEB"/>
<path d="M400.812 515.21H382.313V515.46H400.812V515.21Z" fill="#EBEBEB"/>
<path d="M92.2067 516.89H50.5715V517.14H92.2067V516.89Z" fill="#EBEBEB"/>
<path d="M106.898 516.89H100.796V517.14H106.898V516.89Z" fill="#EBEBEB"/>
<path d="M217.045 521.11H126.737V521.36H217.045V521.11Z" fill="#EBEBEB"/>
<path d="M228.468 463.8H42.3293C40.8711 463.797 39.4735 463.195 38.4433 462.124C37.4131 461.053 36.8345 459.603 36.8345 458.09V186.66C36.8472 185.156 37.4314 183.718 38.4602 182.658C39.489 181.598 40.8794 181.003 42.3293 181H228.468C229.928 181 231.328 181.602 232.36 182.672C233.393 183.743 233.972 185.196 233.972 186.71V458.09C233.972 459.604 233.393 461.057 232.36 462.128C231.328 463.198 229.928 463.8 228.468 463.8ZM42.3293 181.2C40.935 181.203 39.5987 181.779 38.6137 182.803C37.6287 183.826 37.0755 185.214 37.0755 186.66V458.09C37.0755 459.536 37.6287 460.924 38.6137 461.947C39.5987 462.971 40.935 463.547 42.3293 463.55H228.468C229.863 463.547 231.201 462.971 232.187 461.948C233.174 460.924 233.729 459.537 233.731 458.09V186.66C233.729 185.213 233.174 183.825 232.187 182.802C231.201 181.779 229.863 181.203 228.468 181.2H42.3293Z" fill="#EBEBEB"/>
<path d="M436.991 463.8H250.842C249.383 463.797 247.985 463.195 246.953 462.125C245.921 461.054 245.34 459.604 245.338 458.09V186.66C245.353 185.155 245.939 183.717 246.97 182.658C248 181.598 249.392 181.003 250.842 181H436.991C438.439 181.005 439.827 181.602 440.854 182.662C441.88 183.721 442.463 185.158 442.476 186.66V458.09C442.476 459.601 441.899 461.05 440.87 462.121C439.842 463.191 438.447 463.795 436.991 463.8ZM250.842 181.2C249.447 181.203 248.11 181.779 247.123 182.802C246.137 183.825 245.581 185.213 245.579 186.66V458.09C245.581 459.537 246.137 460.924 247.123 461.948C248.11 462.971 249.447 463.547 250.842 463.55H436.991C438.386 463.547 439.723 462.971 440.71 461.948C441.696 460.924 442.252 459.537 442.254 458.09V186.66C442.252 185.213 441.696 183.825 440.71 182.802C439.723 181.779 438.386 181.203 436.991 181.2H250.842Z" fill="#EBEBEB"/>
<path d="M233.616 299.88H96.7471V508.05H233.616V299.88Z" fill="#F0F0F0"/>
<path d="M228.776 306.43H101.577V344.88H228.776V306.43Z" fill="#E0E0E0"/>
<path d="M108.807 312.65H101.577V344.87H108.807V312.65Z" fill="#EBEBEB"/>
<path d="M143.752 312.65H136.522V344.87H143.752V312.65Z" fill="#EBEBEB"/>
<path d="M183.413 311.841L176.288 313.115L181.564 344.867L188.689 343.593L183.413 311.841Z" fill="#EBEBEB"/>
<path d="M117.762 316.9H110.532V344.88H117.762V316.9Z" fill="#EBEBEB"/>
<path d="M134.372 316.9H127.142V344.88H134.372V316.9Z" fill="#EBEBEB"/>
<path d="M176.296 316.9H169.066V344.88H176.296V316.9Z" fill="#EBEBEB"/>
<path d="M153.248 315.929L146.19 317.556L152.042 344.87L159.1 343.243L153.248 315.929Z" fill="#EBEBEB"/>
<path d="M124.009 311.05H120.394V344.87H124.009V311.05Z" fill="#EBEBEB"/>
<path d="M166.984 311.05H163.369V344.87H166.984V311.05Z" fill="#EBEBEB"/>
<path d="M101.586 389.42H228.786V350.97H101.586V389.42Z" fill="#E0E0E0"/>
<path d="M221.546 389.41H228.776V357.19H221.546V389.41Z" fill="#EBEBEB"/>
<path d="M186.611 389.41H193.841V357.19H186.611V389.41Z" fill="#EBEBEB"/>
<path d="M141.676 388.13L148.801 389.404L154.077 357.652L146.952 356.378L141.676 388.13Z" fill="#EBEBEB"/>
<path d="M212.591 389.42H219.821V361.44H212.591V389.42Z" fill="#EBEBEB"/>
<path d="M195.991 389.42H203.221V361.44H195.991V389.42Z" fill="#EBEBEB"/>
<path d="M154.066 389.42H161.296V361.44H154.066V389.42Z" fill="#EBEBEB"/>
<path d="M171.286 387.785L178.344 389.413L184.196 362.099L177.138 360.472L171.286 387.785Z" fill="#EBEBEB"/>
<path d="M206.344 389.41H209.959V355.59H206.344V389.41Z" fill="#EBEBEB"/>
<path d="M163.379 389.41H166.994V355.59H163.379V389.41Z" fill="#EBEBEB"/>
<path d="M108.807 357.19H101.577V389.41H108.807V357.19Z" fill="#EBEBEB"/>
<path d="M117.762 361.43H110.532V389.41H117.762V361.43Z" fill="#EBEBEB"/>
<path d="M134.372 361.43H127.142V389.41H134.372V361.43Z" fill="#EBEBEB"/>
<path d="M124.009 355.59H120.394V389.41H124.009V355.59Z" fill="#EBEBEB"/>
<path d="M228.776 395.5H101.577V433.95H228.776V395.5Z" fill="#E0E0E0"/>
<path d="M181.82 401.72H174.59V433.94H181.82V401.72Z" fill="#EBEBEB"/>
<path d="M221.487 400.908L214.362 402.182L219.638 433.934L226.763 432.66L221.487 400.908Z" fill="#EBEBEB"/>
<path d="M155.831 405.97H148.601V433.95H155.831V405.97Z" fill="#EBEBEB"/>
<path d="M172.44 405.97H165.21V433.95H172.44V405.97Z" fill="#EBEBEB"/>
<path d="M214.365 405.97H207.135V433.95H214.365V405.97Z" fill="#EBEBEB"/>
<path d="M191.32 405L184.262 406.627L190.113 433.941L197.171 432.314L191.32 405Z" fill="#EBEBEB"/>
<path d="M162.077 400.12H158.462V433.94H162.077V400.12Z" fill="#EBEBEB"/>
<path d="M205.052 400.12H201.438V433.94H205.052V400.12Z" fill="#EBEBEB"/>
<path d="M138.354 400.916L131.229 402.19L136.505 433.942L143.63 432.668L138.354 400.916Z" fill="#EBEBEB"/>
<path d="M131.229 405.97H123.999V433.95H131.229V405.97Z" fill="#EBEBEB"/>
<path d="M108.188 405L101.13 406.627L106.982 433.941L114.04 432.314L108.188 405Z" fill="#EBEBEB"/>
<path d="M121.927 400.12H118.312V433.94H121.927V400.12Z" fill="#EBEBEB"/>
<path d="M73.1291 508.59H96.7471L96.7471 299.88H73.1291L73.1291 508.59Z" fill="#E0E0E0"/>
<path d="M313.724 503.14H293.664L304.21 414C304.463 412.137 305.345 410.429 306.699 409.178C308.053 407.927 309.791 407.215 311.604 407.17H399.096L386.265 503.1L313.724 503.14Z" fill="#F5F5F5"/>
<path d="M377.348 503.14H397.409L407.965 414C408.094 413.143 408.039 412.267 407.806 411.434C407.572 410.602 407.165 409.832 406.613 409.181C406.062 408.529 405.379 408.011 404.613 407.664C403.847 407.316 403.017 407.148 402.181 407.17H395.288C393.479 407.227 391.747 407.943 390.395 409.192C389.043 410.44 388.158 412.142 387.894 414L377.348 503.14Z" fill="#F0F0F0"/>
<path d="M369.964 503L373.598 459.9C373.675 458.965 374.058 458.086 374.685 457.409C375.311 456.732 376.142 456.298 377.04 456.18L378.534 455.98C379.74 455.824 380.857 455.241 381.698 454.33C382.539 453.42 383.052 452.237 383.151 450.98L383.817 443.12C383.882 442.358 383.794 441.59 383.558 440.866C383.322 440.141 382.943 439.475 382.445 438.911C381.947 438.346 381.341 437.895 380.666 437.587C379.991 437.279 379.262 437.12 378.524 437.12H412.052C412.79 437.12 413.519 437.279 414.194 437.587C414.869 437.895 415.475 438.346 415.973 438.911C416.471 439.475 416.85 440.141 417.086 440.866C417.322 441.59 417.41 442.358 417.345 443.12L416.679 450.98C416.58 452.237 416.067 453.42 415.226 454.33C414.385 455.241 413.268 455.824 412.062 455.98L410.568 456.18C409.671 456.3 408.841 456.734 408.215 457.411C407.589 458.087 407.204 458.966 407.126 459.9L403.492 503C403.362 504.515 402.69 505.924 401.609 506.951C400.528 507.978 399.116 508.549 397.65 508.55H364.122C365.588 508.549 367 507.978 368.081 506.951C369.162 505.924 369.834 504.515 369.964 503Z" fill="#E6E6E6"/>
<path d="M277.69 449.15C277.424 445.878 275.984 442.829 273.654 440.607C271.324 438.385 268.275 437.151 265.11 437.15H294.3C297.457 437.163 300.494 438.403 302.814 440.624C305.133 442.845 306.567 445.887 306.832 449.15L309.724 483.31H280.572L277.69 449.15Z" fill="#E6E6E6"/>
<path d="M252.144 437.19H265.1C268.265 437.191 271.314 438.425 273.644 440.647C275.974 442.869 277.414 445.918 277.68 449.19L280.572 483.35H350.096L352.988 449.19C353.251 445.926 354.684 442.883 357.004 440.661C359.324 438.44 362.362 437.201 365.52 437.19H378.486C379.223 437.19 379.953 437.349 380.628 437.657C381.303 437.965 381.908 438.416 382.406 438.98C382.904 439.545 383.283 440.211 383.519 440.935C383.755 441.66 383.844 442.428 383.778 443.19L383.113 451.05C383.014 452.307 382.501 453.49 381.66 454.4C380.819 455.311 379.701 455.893 378.495 456.05L377.001 456.25C376.104 456.368 375.272 456.802 374.646 457.479C374.02 458.156 373.636 459.035 373.56 459.97L369.964 503C369.834 504.515 369.162 505.924 368.081 506.951C367 507.978 365.588 508.548 364.122 508.55H266.546C265.08 508.548 263.668 507.978 262.587 506.951C261.506 505.924 260.834 504.515 260.704 503L257.07 459.9C256.99 458.966 256.605 458.089 255.979 457.412C255.354 456.736 254.524 456.301 253.628 456.18L252.134 455.98C250.928 455.822 249.81 455.239 248.968 454.329C248.126 453.419 247.61 452.237 247.507 450.98L246.851 443.12C246.796 442.364 246.891 441.603 247.132 440.887C247.372 440.171 247.753 439.513 248.25 438.957C248.747 438.4 249.349 437.956 250.019 437.652C250.689 437.348 251.412 437.19 252.144 437.19Z" fill="#F0F0F0"/>
<path d="M98.4823 289.48C98.4823 289.48 97.4122 282.17 102.55 277.48C107.688 272.79 107.235 270.01 105.76 269.65C104.286 269.29 102.946 273.97 100.69 275.26C100.69 275.26 100.613 268.58 102.907 266.13C105.201 263.68 106.406 257.33 104.218 257.22C102.03 257.11 101.818 260.98 101.326 263.73C100.834 266.48 98.4341 270.34 98.4341 270.34C98.4341 270.34 97.9617 264.34 96.5061 261.91C95.0504 259.48 98.9739 253.83 97.4701 251.38C95.9662 248.93 93.2381 253.6 93.4598 258.87C93.6815 264.14 97.0748 269.76 96.2843 275.26C96.2843 275.26 94.7901 271.39 93.4502 271.04C92.1102 270.69 90.751 268.14 89.8545 267.19C88.9579 266.24 87.8204 269.52 89.8545 272.56C91.8885 275.6 97.0748 283.75 96.2843 290.33L98.4823 289.48Z" fill="#E6E6E6"/>
<path d="M101.548 286.15L103.235 297.1C103.356 297.895 103.31 298.708 103.099 299.482C102.888 300.257 102.518 300.975 102.014 301.587C101.51 302.199 100.884 302.691 100.18 303.028C99.4753 303.365 98.7086 303.54 97.9327 303.54H96.1396C95.3637 303.54 94.597 303.365 93.8924 303.028C93.1878 302.691 92.562 302.199 92.0581 301.587C91.5542 300.975 91.1842 300.257 90.9735 299.482C90.7628 298.708 90.7164 297.895 90.8376 297.1L92.5439 286.15H101.548Z" fill="#E6E6E6"/>
<path d="M202.488 301.4H207.723V278.05H202.488V301.4Z" fill="#EBEBEB"/>
<path d="M177.174 301.4H182.408V278.05H177.174V301.4Z" fill="#EBEBEB"/>
<path d="M144.614 300.472L149.772 301.395L153.596 278.384L148.438 277.461L144.614 300.472Z" fill="#EBEBEB"/>
<path d="M196 301.39H201.235V281.12H196V301.39Z" fill="#EBEBEB"/>
<path d="M183.97 301.39H189.204V281.12H183.97V301.39Z" fill="#EBEBEB"/>
<path d="M153.584 301.39H158.819V281.12H153.584V301.39Z" fill="#EBEBEB"/>
<path d="M166.068 300.214L171.178 301.392L175.417 281.605L170.308 280.427L166.068 300.214Z" fill="#EBEBEB"/>
<path d="M191.47 301.4H194.092V276.89H191.47V301.4Z" fill="#EBEBEB"/>
<path d="M160.323 301.4H162.945V276.89H160.323V301.4Z" fill="#EBEBEB"/>
<path d="M141.66 282.86H116.143V301.13H141.66V282.86Z" fill="#EBEBEB"/>
<path d="M229.172 290.34H207.8V303.98H229.172V290.34Z" fill="#EBEBEB"/>
<path d="M224.178 278.35H213.487V291.99H224.178V278.35Z" fill="#EBEBEB"/>
<path d="M402.769 260.3H377.348V370.18H402.769V260.3Z" fill="#E0E0E0"/>
<path d="M304.971 370.48H400.041V260.31H304.971V370.48Z" fill="#E0E0E0"/>
<path d="M301.906 370.48H400.542V260.31H301.906V370.48Z" fill="#F0F0F0"/>
<path d="M306.128 365.41H396.493V263.81H306.128V365.41Z" fill="white"/>
<path d="M306.118 365.41H307.795V263.81H306.118V365.41Z" fill="#E0E0E0"/>
<path d="M307.525 336.88V339.62H396.734V336.88H307.525Z" fill="#E0E0E0"/>
<path d="M306.118 336.87H397.9V332.27H306.118V336.87Z" fill="#F0F0F0"/>
<path d="M241 553.56C344.228 553.56 427.91 548.492 427.91 542.24C427.91 535.988 344.228 530.92 241 530.92C137.773 530.92 54.0901 535.988 54.0901 542.24C54.0901 548.492 137.773 553.56 241 553.56Z" fill="#F5F5F5"/>
<path d="M310.36 278.82H137.89C133.993 278.82 130.834 282.097 130.834 286.14V496.8C130.834 500.843 133.993 504.12 137.89 504.12H310.36C314.257 504.12 317.416 500.843 317.416 496.8V286.14C317.416 282.097 314.257 278.82 310.36 278.82Z" fill="#007BFF"/>
<path opacity="0.6" d="M310.36 278.82H137.89C133.993 278.82 130.834 282.097 130.834 286.14V496.8C130.834 500.843 133.993 504.12 137.89 504.12H310.36C314.257 504.12 317.416 500.843 317.416 496.8V286.14C317.416 282.097 314.257 278.82 310.36 278.82Z" fill="white"/>
<path d="M287.195 382.15H161.065V404.55H287.195V382.15Z" fill="white"/>
<g opacity="0.4">
<path d="M172.344 395.53V396.12H167.967V389.7H172.209V390.28H168.623V392.57H171.823V393.14H168.623V395.53H172.344Z" fill="#263238"/>
<path d="M173.221 393.35H175.544V393.91H173.221V393.35Z" fill="#263238"/>
<path d="M184.615 393.32V396.12H183.989V393.38C183.989 392.38 183.497 391.84 182.658 391.84C182.441 391.829 182.224 391.868 182.023 391.954C181.821 392.039 181.64 392.17 181.492 392.335C181.345 392.501 181.233 392.698 181.167 392.913C181.1 393.128 181.079 393.356 181.106 393.58V396.12H180.47V393.38C180.47 392.38 179.978 391.84 179.13 391.84C178.913 391.829 178.696 391.868 178.494 391.954C178.293 392.039 178.112 392.17 177.964 392.335C177.816 392.501 177.705 392.698 177.638 392.913C177.572 393.128 177.551 393.356 177.578 393.58V396.12H176.942V391.29H177.549V392.17C177.731 391.875 177.984 391.635 178.284 391.473C178.583 391.312 178.918 391.235 179.255 391.25C179.596 391.22 179.937 391.3 180.232 391.479C180.528 391.658 180.762 391.927 180.904 392.25C181.097 391.928 181.369 391.665 181.693 391.489C182.017 391.313 182.38 391.23 182.745 391.25C183.007 391.229 183.27 391.27 183.514 391.368C183.759 391.467 183.979 391.621 184.158 391.82C184.338 392.019 184.472 392.256 184.551 392.516C184.63 392.776 184.652 393.05 184.615 393.32Z" fill="#263238"/>
<path d="M189.84 393.12V396.12H189.233V395.36C189.06 395.63 188.821 395.848 188.539 395.988C188.257 396.129 187.944 396.188 187.633 396.16C186.582 396.16 185.936 395.59 185.936 394.76C185.936 393.93 186.399 393.39 187.729 393.39H189.204V393.1C189.204 392.27 188.761 391.82 187.893 391.82C187.327 391.813 186.777 392.015 186.341 392.39L186.061 391.91C186.606 391.455 187.291 391.221 187.989 391.25C188.235 391.219 188.485 391.245 188.72 391.328C188.955 391.41 189.169 391.546 189.346 391.725C189.524 391.905 189.661 392.123 189.746 392.364C189.831 392.606 189.864 392.864 189.84 393.12ZM189.204 394.67V393.88H187.748C186.852 393.88 186.553 394.24 186.553 394.74C186.553 395.24 186.987 395.65 187.729 395.65C188.044 395.671 188.357 395.588 188.622 395.412C188.887 395.235 189.091 394.975 189.204 394.67Z" fill="#263238"/>
<path d="M191.402 389.77C191.403 389.708 191.416 389.647 191.44 389.591C191.464 389.534 191.498 389.483 191.541 389.44C191.584 389.398 191.635 389.364 191.69 389.342C191.746 389.319 191.805 389.308 191.865 389.31C191.923 389.308 191.981 389.319 192.035 389.341C192.089 389.363 192.139 389.396 192.181 389.437C192.223 389.479 192.257 389.529 192.28 389.584C192.304 389.64 192.316 389.699 192.318 389.76C192.319 389.822 192.308 389.884 192.286 389.943C192.264 390.001 192.231 390.054 192.188 390.098C192.146 390.143 192.096 390.179 192.04 390.203C191.985 390.227 191.925 390.24 191.865 390.24C191.804 390.241 191.744 390.23 191.688 390.207C191.632 390.184 191.581 390.149 191.538 390.106C191.495 390.062 191.461 390.01 191.437 389.952C191.414 389.894 191.402 389.832 191.402 389.77ZM191.546 391.29H192.173V396.12H191.546V391.29Z" fill="#263238"/>
<path d="M193.918 389.31H194.545V396.12H193.918V389.31Z" fill="#263238"/>
</g>
<path d="M287.195 412.75H161.065V435.15H287.195V412.75Z" fill="white"/>
<g opacity="0.4">
<path d="M172.807 422.53C172.807 423.9 171.843 424.73 170.281 424.73H168.623V426.73H167.967V420.31H170.281C171.852 420.33 172.807 421.16 172.807 422.53ZM172.151 422.53C172.151 421.53 171.505 420.92 170.223 420.92H168.584V424.13H170.223C171.505 424.13 172.151 423.54 172.151 422.53Z" fill="#263238"/>
<path d="M177.559 423.76V426.76H176.952V426C176.779 426.271 176.539 426.488 176.258 426.629C175.976 426.769 175.663 426.829 175.351 426.8C174.301 426.8 173.655 426.23 173.655 425.39C173.655 424.55 174.118 424 175.448 424H176.923V423.7C176.923 422.88 176.47 422.43 175.602 422.43C175.039 422.422 174.491 422.624 174.06 423L173.77 422.51C174.32 422.065 175.002 421.835 175.698 421.86C175.948 421.826 176.202 421.852 176.44 421.935C176.678 422.019 176.895 422.157 177.075 422.34C177.254 422.523 177.391 422.746 177.475 422.992C177.559 423.238 177.587 423.501 177.559 423.76ZM176.932 425.3V424.51H175.448C174.551 424.51 174.262 424.88 174.262 425.38C174.262 425.88 174.686 426.28 175.438 426.28C175.756 426.304 176.072 426.222 176.341 426.046C176.61 425.869 176.818 425.608 176.932 425.3Z" fill="#263238"/>
<path d="M178.62 426.2L178.899 425.69C179.385 426.042 179.964 426.23 180.557 426.23C181.435 426.23 181.801 425.92 181.801 425.44C181.801 424.18 178.784 425.17 178.784 423.27C178.784 422.48 179.439 421.89 180.625 421.89C181.203 421.884 181.772 422.04 182.273 422.34L181.994 422.86C181.588 422.582 181.111 422.439 180.625 422.45C179.786 422.45 179.41 422.79 179.41 423.25C179.41 424.55 182.427 423.57 182.427 425.42C182.427 426.26 181.724 426.8 180.499 426.8C179.827 426.818 179.166 426.607 178.62 426.2Z" fill="#263238"/>
<path d="M182.938 426.2L183.227 425.69C183.708 426.046 184.285 426.235 184.876 426.23C185.763 426.23 186.119 425.92 186.119 425.44C186.119 424.18 183.112 425.17 183.112 423.27C183.112 422.48 183.767 421.89 184.943 421.89C185.522 421.882 186.092 422.038 186.592 422.34L186.322 422.86C185.912 422.583 185.432 422.44 184.943 422.45C184.104 422.45 183.738 422.79 183.738 423.25C183.738 424.55 186.755 423.57 186.755 425.42C186.755 426.26 186.042 426.8 184.827 426.8C184.152 426.817 183.489 426.606 182.938 426.2Z" fill="#263238"/>
<path d="M194.641 421.93L192.887 426.75H192.299L190.872 422.8L189.407 426.75H188.819L187.016 421.93H187.614L189.079 426.03L190.573 421.93H191.113L192.598 426.03L194.073 421.93H194.641Z" fill="#263238"/>
<path d="M194.988 424.34C194.988 423.853 195.127 423.378 195.388 422.973C195.648 422.569 196.019 422.253 196.452 422.067C196.885 421.881 197.362 421.832 197.822 421.927C198.282 422.022 198.705 422.256 199.036 422.6C199.368 422.944 199.594 423.383 199.685 423.86C199.777 424.337 199.73 424.832 199.551 425.281C199.371 425.731 199.067 426.115 198.677 426.385C198.287 426.656 197.829 426.8 197.36 426.8C197.045 426.811 196.732 426.755 196.44 426.635C196.147 426.516 195.881 426.335 195.659 426.104C195.436 425.873 195.262 425.598 195.147 425.294C195.031 424.991 194.977 424.666 194.988 424.34ZM199.085 424.34C199.07 423.987 198.955 423.647 198.755 423.362C198.555 423.076 198.279 422.858 197.96 422.734C197.641 422.61 197.295 422.587 196.963 422.666C196.631 422.745 196.33 422.923 196.095 423.179C195.86 423.434 195.703 423.756 195.644 424.103C195.584 424.451 195.624 424.809 195.758 425.133C195.893 425.457 196.117 425.733 196.401 425.926C196.686 426.119 197.019 426.221 197.36 426.22C197.595 426.225 197.829 426.179 198.046 426.085C198.263 425.99 198.459 425.851 198.621 425.674C198.784 425.497 198.909 425.287 198.988 425.057C199.068 424.828 199.101 424.583 199.085 424.34Z" fill="#263238"/>
<path d="M203.346 421.89V422.52H203.192C202.971 422.509 202.751 422.549 202.547 422.636C202.343 422.723 202.16 422.856 202.011 423.025C201.862 423.194 201.75 423.395 201.684 423.614C201.619 423.832 201.6 424.063 201.63 424.29V426.75H201.003V421.93H201.601V422.87C201.764 422.544 202.017 422.276 202.328 422.102C202.639 421.927 202.994 421.853 203.346 421.89Z" fill="#263238"/>
<path d="M208.677 420V426.8H208.079V425.85C207.892 426.166 207.628 426.425 207.313 426.601C206.998 426.776 206.644 426.862 206.286 426.85C205.685 426.81 205.12 426.534 204.708 426.078C204.295 425.622 204.066 425.02 204.066 424.395C204.066 423.77 204.295 423.168 204.708 422.712C205.12 422.256 205.685 421.98 206.286 421.94C206.639 421.932 206.988 422.02 207.297 422.195C207.607 422.371 207.866 422.628 208.05 422.94V420H208.677ZM208.06 424.39C208.045 424.037 207.93 423.697 207.73 423.412C207.53 423.126 207.253 422.908 206.935 422.784C206.616 422.661 206.27 422.637 205.938 422.716C205.606 422.795 205.304 422.973 205.07 423.229C204.835 423.484 204.678 423.806 204.618 424.153C204.559 424.501 204.598 424.859 204.733 425.183C204.868 425.507 205.092 425.783 205.376 425.976C205.661 426.169 205.994 426.272 206.334 426.27C206.574 426.275 206.812 426.228 207.033 426.131C207.254 426.034 207.452 425.89 207.615 425.707C207.778 425.525 207.902 425.309 207.979 425.073C208.056 424.837 208.083 424.588 208.06 424.34V424.39Z" fill="#263238"/>
</g>
<path opacity="0.2" d="M287.195 458H161.065V480.4H287.195V458Z" fill="black"/>
<g opacity="0.5">
<path d="M191.739 447.71H189.676L189.233 448.71H188.828L190.515 444.88H190.901L192.588 448.71H192.183L191.739 447.71ZM191.595 447.38L190.708 445.32L189.821 447.38H191.595Z" fill="black"/>
<path d="M193.127 444.669H193.503V448.729H193.127V444.669Z" fill="black"/>
<path d="M195.952 445.83V446.21H195.856C195.721 446.198 195.586 446.218 195.459 446.267C195.333 446.317 195.219 446.396 195.127 446.498C195.034 446.6 194.965 446.722 194.924 446.856C194.883 446.99 194.872 447.131 194.892 447.27V448.74H194.516V445.86H194.882V446.42C194.979 446.218 195.134 446.052 195.326 445.947C195.518 445.841 195.737 445.8 195.952 445.83Z" fill="black"/>
<path d="M199.017 447.41H196.655C196.663 447.55 196.697 447.687 196.756 447.813C196.815 447.94 196.897 448.053 196.999 448.146C197.1 448.239 197.218 448.31 197.346 448.355C197.474 448.401 197.61 448.419 197.745 448.41C197.905 448.415 198.065 448.385 198.213 448.321C198.361 448.257 198.494 448.161 198.603 448.04L198.805 448.29C198.606 448.507 198.349 448.658 198.068 448.724C197.786 448.79 197.491 448.768 197.222 448.661C196.952 448.555 196.718 448.367 196.551 448.123C196.383 447.879 196.289 447.589 196.28 447.29C196.27 447.099 196.299 446.909 196.363 446.731C196.428 446.553 196.527 446.391 196.654 446.254C196.781 446.117 196.935 446.009 197.104 445.936C197.273 445.863 197.455 445.827 197.639 445.829C197.822 445.825 198.004 445.86 198.174 445.933C198.344 446.005 198.497 446.114 198.624 446.251C198.751 446.388 198.849 446.552 198.912 446.73C198.974 446.909 199 447.1 198.988 447.29C198.988 447.29 199.017 447.37 199.017 447.41ZM196.694 447.12H198.622C198.622 446.854 198.52 446.6 198.34 446.412C198.159 446.225 197.914 446.12 197.658 446.12C197.402 446.12 197.157 446.225 196.976 446.412C196.796 446.6 196.694 446.854 196.694 447.12Z" fill="black"/>
<path d="M201.804 447V448.78H201.476V448.33C201.374 448.494 201.229 448.626 201.059 448.711C200.889 448.796 200.7 448.83 200.512 448.81C199.885 448.81 199.548 448.47 199.548 447.97C199.548 447.47 199.818 447.15 200.618 447.15H201.476V446.98C201.476 446.49 201.206 446.22 200.685 446.22C200.335 446.206 199.991 446.327 199.721 446.56L199.557 446.27C199.877 446.005 200.277 445.867 200.685 445.88C200.835 445.853 200.988 445.863 201.132 445.91C201.277 445.956 201.409 446.037 201.518 446.146C201.627 446.255 201.709 446.389 201.759 446.537C201.809 446.686 201.824 446.844 201.804 447ZM201.437 447.92V447.44H200.56C200.02 447.44 199.847 447.66 199.847 447.96C199.847 448.26 200.107 448.5 200.55 448.5C200.75 448.515 200.949 448.462 201.117 448.348C201.284 448.234 201.41 448.066 201.476 447.87L201.437 447.92Z" fill="black"/>
<path d="M205.332 444.669V448.729H204.975V448.159C204.866 448.35 204.709 448.507 204.52 448.613C204.332 448.718 204.119 448.769 203.905 448.759C203.551 448.729 203.22 448.562 202.98 448.29C202.739 448.019 202.605 447.663 202.605 447.294C202.605 446.926 202.739 446.57 202.98 446.299C203.22 446.027 203.551 445.86 203.905 445.829C204.114 445.824 204.321 445.873 204.506 445.972C204.692 446.072 204.85 446.219 204.966 446.399V444.669H205.332ZM204.966 447.289C204.956 447.08 204.888 446.878 204.769 446.709C204.65 446.54 204.486 446.411 204.297 446.337C204.108 446.264 203.902 446.25 203.705 446.296C203.508 446.343 203.329 446.449 203.19 446.6C203.05 446.752 202.956 446.942 202.92 447.148C202.884 447.354 202.907 447.567 202.987 447.76C203.066 447.952 203.198 448.116 203.366 448.232C203.535 448.348 203.732 448.409 203.934 448.409C204.078 448.418 204.222 448.395 204.356 448.342C204.49 448.289 204.612 448.206 204.713 448.1C204.815 447.994 204.893 447.867 204.943 447.727C204.993 447.588 205.014 447.438 205.004 447.289H204.966Z" fill="black"/>
<path d="M208.754 445.85L207.366 449.08C207.134 449.64 206.836 449.82 206.402 449.82C206.153 449.827 205.911 449.733 205.727 449.56L205.901 449.27C206.036 449.41 206.22 449.489 206.411 449.49C206.662 449.49 206.826 449.37 206.99 449L207.106 448.73L205.862 445.85H206.296L207.347 448.3L208.388 445.85H208.754Z" fill="black"/>
<path d="M212.764 447V448.78H212.407V448.33C212.305 448.494 212.161 448.626 211.991 448.711C211.821 448.796 211.631 448.83 211.443 448.81C210.817 448.81 210.479 448.47 210.479 447.97C210.479 447.47 210.749 447.15 211.55 447.15H212.427V446.98C212.427 446.49 212.166 446.22 211.646 446.22C211.295 446.206 210.952 446.327 210.682 446.56L210.508 446.27C210.832 446.005 211.234 445.867 211.646 445.88C211.795 445.853 211.948 445.863 212.093 445.91C212.238 445.956 212.37 446.037 212.479 446.146C212.587 446.255 212.67 446.389 212.72 446.537C212.769 446.686 212.785 446.844 212.764 447ZM212.388 447.92V447.44H211.521C210.981 447.44 210.807 447.66 210.807 447.96C210.807 448.26 211.068 448.5 211.511 448.5C211.703 448.508 211.893 448.45 212.051 448.337C212.209 448.223 212.328 448.059 212.388 447.87V447.92Z" fill="black"/>
<path d="M219.792 447.06V448.73H219.426V447.1C219.426 446.49 219.127 446.18 218.626 446.18C218.496 446.169 218.367 446.188 218.245 446.234C218.123 446.281 218.013 446.354 217.921 446.449C217.83 446.544 217.759 446.659 217.714 446.785C217.669 446.911 217.651 447.046 217.662 447.18V448.69H217.295V447.1C217.295 446.49 216.996 446.18 216.485 446.18C216.356 446.169 216.226 446.188 216.105 446.234C215.983 446.281 215.873 446.354 215.781 446.449C215.69 446.544 215.619 446.659 215.574 446.785C215.529 446.911 215.511 447.046 215.521 447.18V448.69H215.146V445.81H215.502V446.34C215.608 446.161 215.76 446.015 215.94 445.918C216.12 445.821 216.322 445.777 216.524 445.79C216.726 445.773 216.928 445.824 217.101 445.933C217.274 446.043 217.41 446.206 217.488 446.4C217.6 446.204 217.762 446.043 217.956 445.936C218.149 445.828 218.368 445.778 218.587 445.79C218.754 445.759 218.925 445.771 219.086 445.824C219.247 445.877 219.393 445.97 219.512 446.095C219.631 446.22 219.718 446.374 219.767 446.542C219.816 446.71 219.824 446.888 219.792 447.06Z" fill="black"/>
<path d="M223.204 447.41H220.881C220.901 447.693 221.027 447.956 221.233 448.143C221.438 448.331 221.707 448.426 221.98 448.41C222.139 448.416 222.297 448.386 222.444 448.322C222.59 448.258 222.721 448.162 222.828 448.04L223.04 448.29C222.905 448.443 222.739 448.564 222.555 448.645C222.37 448.727 222.171 448.765 221.97 448.76C221.779 448.772 221.588 448.743 221.408 448.675C221.229 448.606 221.065 448.499 220.928 448.36C220.79 448.221 220.683 448.055 220.612 447.87C220.541 447.686 220.507 447.488 220.515 447.29C220.515 446.918 220.657 446.562 220.91 446.3C221.163 446.037 221.506 445.89 221.864 445.89C222.222 445.89 222.565 446.037 222.819 446.3C223.072 446.562 223.214 446.918 223.214 447.29C223.214 447.29 223.204 447.37 223.204 447.41ZM220.881 447.12H222.857C222.857 446.848 222.753 446.587 222.568 446.395C222.382 446.203 222.131 446.095 221.869 446.095C221.607 446.095 221.356 446.203 221.17 446.395C220.985 446.587 220.881 446.848 220.881 447.12Z" fill="black"/>
<path d="M228.564 447.06V448.73H228.188V447.1C228.188 446.49 227.899 446.18 227.398 446.18C227.268 446.167 227.137 446.185 227.015 446.231C226.893 446.277 226.782 446.35 226.69 446.445C226.598 446.541 226.527 446.656 226.483 446.783C226.438 446.91 226.422 447.045 226.434 447.18V448.69H226.058V447.1C226.058 446.49 225.768 446.18 225.257 446.18C225.128 446.167 224.997 446.185 224.875 446.231C224.753 446.277 224.642 446.35 224.55 446.445C224.458 446.541 224.387 446.656 224.343 446.783C224.298 446.91 224.282 447.045 224.293 447.18V448.69H223.917V445.81H224.274V446.34C224.38 446.16 224.531 446.013 224.711 445.916C224.891 445.819 225.093 445.776 225.296 445.79C225.498 445.773 225.7 445.824 225.873 445.933C226.046 446.043 226.182 446.206 226.26 446.4C226.372 446.204 226.534 446.043 226.728 445.936C226.921 445.828 227.14 445.778 227.359 445.79C227.526 445.759 227.697 445.771 227.858 445.824C228.019 445.877 228.165 445.97 228.284 446.095C228.403 446.22 228.49 446.374 228.539 446.542C228.588 446.71 228.596 446.888 228.564 447.06Z" fill="black"/>
<path d="M232.401 447.289C232.41 447.482 232.381 447.674 232.316 447.854C232.25 448.034 232.15 448.198 232.02 448.336C231.891 448.474 231.736 448.583 231.564 448.656C231.392 448.728 231.208 448.764 231.022 448.759C230.808 448.769 230.596 448.718 230.407 448.613C230.219 448.507 230.062 448.35 229.952 448.159V448.729H229.586V444.669H229.962V446.399C230.077 446.218 230.235 446.071 230.421 445.971C230.606 445.871 230.813 445.823 231.022 445.829C231.207 445.824 231.391 445.858 231.563 445.929C231.735 446.001 231.89 446.109 232.02 446.246C232.149 446.383 232.25 446.547 232.316 446.726C232.381 446.906 232.41 447.098 232.401 447.289ZM232.025 447.289C232.015 447.08 231.947 446.878 231.828 446.709C231.709 446.54 231.545 446.411 231.356 446.337C231.167 446.264 230.961 446.25 230.764 446.296C230.567 446.343 230.388 446.449 230.249 446.6C230.109 446.752 230.016 446.942 229.98 447.148C229.944 447.354 229.967 447.567 230.046 447.76C230.125 447.952 230.257 448.116 230.426 448.232C230.594 448.348 230.791 448.409 230.993 448.409C231.134 448.413 231.273 448.385 231.403 448.329C231.533 448.274 231.65 448.19 231.747 448.085C231.844 447.98 231.919 447.854 231.967 447.718C232.014 447.581 232.034 447.435 232.025 447.289Z" fill="black"/>
<path d="M235.592 447.409H233.288C233.295 447.55 233.329 447.687 233.388 447.813C233.447 447.94 233.529 448.053 233.631 448.146C233.732 448.239 233.85 448.31 233.978 448.355C234.107 448.401 234.242 448.419 234.377 448.409C234.537 448.409 234.696 448.373 234.84 448.302C234.985 448.231 235.114 448.128 235.216 447.999L235.428 448.249C235.229 448.467 234.972 448.618 234.69 448.684C234.408 448.75 234.114 448.728 233.844 448.621C233.574 448.514 233.341 448.327 233.173 448.083C233.006 447.839 232.911 447.549 232.902 447.249C232.893 447.059 232.921 446.869 232.986 446.691C233.05 446.513 233.149 446.351 233.276 446.214C233.404 446.077 233.557 445.969 233.726 445.896C233.896 445.823 234.078 445.787 234.261 445.789C234.444 445.785 234.626 445.82 234.795 445.893C234.965 445.965 235.117 446.074 235.243 446.211C235.37 446.349 235.467 446.512 235.528 446.691C235.59 446.87 235.615 447.06 235.601 447.249L235.592 447.409ZM233.268 447.119H235.196C235.196 446.854 235.095 446.6 234.914 446.412C234.733 446.225 234.488 446.119 234.232 446.119C233.977 446.119 233.732 446.225 233.551 446.412C233.37 446.6 233.268 446.854 233.268 447.119Z" fill="black"/>
<path d="M237.761 445.829V446.209H237.674C237.539 446.197 237.404 446.217 237.278 446.267C237.151 446.317 237.038 446.396 236.945 446.498C236.852 446.6 236.783 446.722 236.742 446.856C236.702 446.989 236.691 447.131 236.71 447.269V448.739H236.334V445.859H236.691V446.419C236.788 446.219 236.944 446.054 237.135 445.948C237.327 445.843 237.545 445.801 237.761 445.829Z" fill="black"/>
<path d="M240.19 445.88C240.19 445.48 239.881 445.21 239.342 445.21C239.152 445.199 238.962 445.232 238.787 445.309C238.611 445.385 238.455 445.502 238.329 445.65L238.05 445.43C238.214 445.237 238.418 445.086 238.647 444.987C238.876 444.889 239.123 444.845 239.37 444.86C240.113 444.86 240.585 445.23 240.585 445.86C240.585 446.79 239.621 446.86 239.621 447.62H239.226C239.226 446.68 240.19 446.59 240.19 445.88ZM239.149 448.47C239.161 448.403 239.195 448.343 239.245 448.3C239.295 448.257 239.358 448.233 239.424 448.233C239.489 448.233 239.552 448.257 239.602 448.3C239.652 448.343 239.686 448.403 239.698 448.47C239.706 448.512 239.704 448.555 239.694 448.596C239.684 448.637 239.665 448.676 239.639 448.708C239.612 448.741 239.58 448.768 239.542 448.786C239.505 448.804 239.465 448.813 239.424 448.813C239.382 448.813 239.342 448.804 239.305 448.786C239.267 448.768 239.235 448.741 239.208 448.708C239.182 448.676 239.163 448.637 239.153 448.596C239.143 448.555 239.141 448.512 239.149 448.47Z" fill="black"/>
<path d="M242.802 444.899H243.66V447.999H245.511V448.719H242.802V444.899Z" fill="black"/>
<path d="M245.704 447.26C245.685 446.936 245.76 446.613 245.919 446.334C246.079 446.055 246.315 445.832 246.598 445.694C246.881 445.555 247.198 445.509 247.507 445.559C247.816 445.61 248.103 445.756 248.331 445.978C248.56 446.2 248.718 446.488 248.787 446.805C248.855 447.122 248.83 447.452 248.716 447.754C248.601 448.056 248.401 448.315 248.143 448.498C247.884 448.681 247.579 448.779 247.266 448.78C247.065 448.793 246.865 448.764 246.675 448.694C246.486 448.624 246.313 448.514 246.167 448.371C246.02 448.229 245.904 448.057 245.824 447.865C245.745 447.674 245.704 447.468 245.704 447.26ZM247.989 447.26C247.978 447.114 247.926 446.976 247.84 446.86C247.754 446.745 247.637 446.659 247.505 446.611C247.372 446.563 247.229 446.557 247.093 446.592C246.956 446.627 246.833 446.703 246.738 446.81C246.642 446.917 246.579 447.05 246.555 447.194C246.532 447.338 246.549 447.485 246.605 447.619C246.661 447.752 246.753 447.866 246.871 447.946C246.988 448.026 247.125 448.069 247.266 448.07C247.366 448.071 247.466 448.051 247.558 448.01C247.651 447.97 247.734 447.909 247.802 447.832C247.87 447.756 247.922 447.665 247.954 447.567C247.987 447.468 247.998 447.363 247.989 447.26Z" fill="black"/>
<path d="M252.307 445.779V448.239C252.334 448.46 252.31 448.685 252.239 448.895C252.168 449.105 252.05 449.295 251.896 449.45C251.742 449.605 251.555 449.721 251.35 449.789C251.146 449.856 250.929 449.874 250.717 449.839C250.221 449.859 249.731 449.716 249.319 449.429L249.647 448.819C249.928 449.028 250.264 449.143 250.611 449.149C251.189 449.149 251.449 448.879 251.449 448.349V448.219C251.334 448.344 251.194 448.441 251.04 448.505C250.885 448.569 250.719 448.598 250.553 448.589C250.363 448.606 250.171 448.581 249.991 448.517C249.81 448.453 249.645 448.351 249.504 448.217C249.364 448.083 249.252 447.92 249.175 447.739C249.099 447.558 249.059 447.362 249.059 447.164C249.059 446.967 249.099 446.771 249.175 446.59C249.252 446.408 249.364 446.246 249.504 446.112C249.645 445.978 249.81 445.876 249.991 445.812C250.171 445.747 250.363 445.723 250.553 445.739C250.734 445.724 250.916 445.755 251.084 445.828C251.252 445.901 251.4 446.015 251.517 446.159V445.779H252.307ZM251.498 447.169C251.501 447.069 251.483 446.969 251.446 446.877C251.41 446.784 251.354 446.701 251.284 446.632C251.214 446.563 251.131 446.51 251.04 446.477C250.948 446.444 250.851 446.431 250.755 446.439C250.657 446.427 250.557 446.437 250.462 446.468C250.367 446.499 250.28 446.55 250.205 446.619C250.131 446.687 250.072 446.771 250.031 446.865C249.99 446.959 249.969 447.061 249.969 447.164C249.969 447.267 249.99 447.369 250.031 447.463C250.072 447.557 250.131 447.641 250.205 447.71C250.28 447.778 250.367 447.83 250.462 447.861C250.557 447.892 250.657 447.901 250.755 447.889C250.851 447.898 250.947 447.885 251.037 447.853C251.128 447.82 251.211 447.768 251.281 447.701C251.351 447.633 251.406 447.55 251.443 447.459C251.481 447.367 251.499 447.269 251.498 447.169Z" fill="black"/>
<path d="M254.496 444.9C254.497 444.833 254.511 444.767 254.538 444.706C254.564 444.644 254.603 444.59 254.651 444.545C254.699 444.5 254.755 444.465 254.816 444.444C254.877 444.422 254.942 444.414 255.007 444.42C255.07 444.413 255.133 444.419 255.194 444.439C255.254 444.459 255.31 444.491 255.358 444.534C255.406 444.578 255.445 444.631 255.472 444.69C255.5 444.749 255.515 444.814 255.517 444.88C255.517 445.02 255.464 445.155 255.368 445.254C255.272 445.354 255.142 445.41 255.007 445.41C254.871 445.41 254.741 445.354 254.645 445.254C254.549 445.155 254.496 445.02 254.496 444.88V444.9ZM254.592 445.78H255.411V448.78H254.592V445.78Z" fill="black"/>
<path d="M259.065 447V448.69H258.246V447.14C258.246 446.66 258.034 446.44 257.667 446.44C257.301 446.44 256.983 446.69 256.983 447.23V448.69H256.164V445.69H256.954V446.04C257.078 445.907 257.229 445.803 257.395 445.736C257.561 445.668 257.74 445.639 257.918 445.65C258.085 445.641 258.251 445.671 258.404 445.738C258.558 445.806 258.695 445.908 258.805 446.038C258.916 446.167 258.996 446.321 259.041 446.488C259.086 446.654 259.094 446.829 259.065 447Z" fill="black"/>
</g>
<path d="M287.195 456.63H161.065V479.03H287.195V456.63Z" fill="#007BFF"/>
<path d="M207.839 471.31L206.296 469H205.833H204.002V471.33H202.941V463.66H205.833C207.761 463.66 208.909 464.66 208.909 466.34C208.933 466.872 208.787 467.397 208.495 467.835C208.202 468.272 207.778 468.597 207.289 468.76L209.044 471.33L207.839 471.31ZM207.839 466.31C207.839 465.21 207.135 464.59 205.776 464.59H203.983V468.04H205.776C207.106 468.05 207.81 467.41 207.81 466.32L207.839 466.31Z" fill="white"/>
<path d="M215.473 468.76H210.933C211.004 469.255 211.252 469.704 211.627 470.018C212.001 470.333 212.476 470.491 212.957 470.46C213.26 470.471 213.561 470.415 213.841 470.294C214.12 470.173 214.371 469.991 214.577 469.76L215.136 470.44C214.723 470.874 214.199 471.176 213.625 471.309C213.051 471.442 212.453 471.4 211.901 471.189C211.35 470.978 210.869 470.606 210.516 470.119C210.163 469.631 209.953 469.048 209.911 468.44C209.891 468.047 209.949 467.655 210.083 467.287C210.216 466.918 210.421 466.583 210.686 466.301C210.95 466.019 211.268 465.797 211.619 465.649C211.97 465.501 212.347 465.43 212.726 465.44C213.103 465.429 213.478 465.5 213.827 465.649C214.175 465.798 214.49 466.021 214.751 466.303C215.011 466.586 215.212 466.922 215.34 467.29C215.468 467.658 215.52 468.05 215.493 468.44C215.493 468.53 215.483 468.66 215.473 468.76ZM210.933 468H214.519C214.473 467.54 214.264 467.114 213.933 466.804C213.602 466.495 213.172 466.323 212.726 466.323C212.28 466.323 211.85 466.495 211.519 466.804C211.188 467.114 210.979 467.54 210.933 468Z" fill="white"/>
<path d="M222.26 465.51V470.51C222.26 472.56 221.248 473.51 219.368 473.51C218.409 473.553 217.465 473.249 216.698 472.65L217.18 471.84C217.797 472.337 218.558 472.601 219.339 472.59C220.66 472.59 221.267 471.96 221.267 470.64V470.18C221.018 470.477 220.707 470.712 220.358 470.867C220.01 471.023 219.632 471.096 219.252 471.08C218.534 471.08 217.845 470.784 217.337 470.257C216.829 469.73 216.543 469.015 216.543 468.27C216.543 467.524 216.829 466.81 217.337 466.283C217.845 465.756 218.534 465.46 219.252 465.46C219.649 465.447 220.043 465.531 220.403 465.705C220.763 465.878 221.079 466.137 221.325 466.46V465.56L222.26 465.51ZM221.296 468.26C221.317 467.86 221.222 467.463 221.024 467.12C220.825 466.777 220.532 466.504 220.182 466.335C219.832 466.167 219.442 466.111 219.061 466.176C218.68 466.24 218.327 466.421 218.047 466.696C217.766 466.971 217.572 467.327 217.488 467.717C217.405 468.108 217.437 468.516 217.579 468.887C217.721 469.259 217.968 469.578 218.287 469.803C218.606 470.029 218.982 470.149 219.368 470.15C219.615 470.165 219.862 470.127 220.094 470.039C220.326 469.95 220.537 469.813 220.716 469.635C220.894 469.458 221.035 469.244 221.13 469.007C221.225 468.771 221.271 468.516 221.267 468.26H221.296Z" fill="white"/>
<path d="M224.014 463.71C224.015 463.618 224.034 463.527 224.069 463.443C224.104 463.358 224.155 463.282 224.219 463.218C224.282 463.154 224.357 463.103 224.44 463.069C224.522 463.035 224.61 463.018 224.699 463.02C224.792 463.008 224.887 463.017 224.977 463.046C225.066 463.075 225.149 463.124 225.22 463.188C225.29 463.253 225.347 463.333 225.385 463.422C225.424 463.511 225.444 463.607 225.444 463.705C225.444 463.802 225.424 463.899 225.385 463.988C225.347 464.077 225.29 464.156 225.22 464.221C225.149 464.286 225.066 464.334 224.977 464.363C224.887 464.392 224.792 464.401 224.699 464.39C224.61 464.392 224.523 464.377 224.44 464.344C224.358 464.311 224.283 464.262 224.219 464.198C224.155 464.135 224.105 464.059 224.069 463.975C224.034 463.891 224.015 463.801 224.014 463.71ZM224.197 465.51H225.21V471.31H224.197V465.51Z" fill="white"/>
<path d="M226.434 470.7L226.858 469.87C227.433 470.257 228.102 470.465 228.786 470.47C229.75 470.47 230.117 470.17 230.117 469.68C230.117 468.38 226.579 469.51 226.579 467.19C226.579 466.19 227.475 465.45 228.912 465.45C229.623 465.438 230.324 465.621 230.946 465.98L230.512 466.81C230.03 466.496 229.47 466.336 228.902 466.35C228.015 466.35 227.581 466.69 227.581 467.15C227.581 468.52 231.129 467.4 231.129 469.66C231.129 470.66 230.165 471.38 228.709 471.38C227.903 471.392 227.111 471.155 226.434 470.7Z" fill="white"/>
<path d="M235.582 471C235.231 471.278 234.799 471.423 234.358 471.41C234.12 471.438 233.879 471.411 233.653 471.33C233.427 471.248 233.221 471.116 233.051 470.941C232.88 470.766 232.75 470.554 232.669 470.32C232.589 470.087 232.559 469.837 232.584 469.59V466.4H231.62V465.54H232.584V464.27H233.548V465.54H235.216V466.4H233.606V469.55C233.583 469.679 233.589 469.811 233.624 469.937C233.659 470.063 233.721 470.179 233.806 470.275C233.891 470.372 233.996 470.447 234.114 470.495C234.231 470.543 234.358 470.561 234.483 470.55C234.768 470.553 235.046 470.458 235.274 470.28L235.582 471Z" fill="white"/>
<path d="M241.656 468.76H237.144C237.216 469.256 237.464 469.707 237.841 470.022C238.218 470.337 238.695 470.493 239.178 470.46C239.479 470.472 239.779 470.415 240.057 470.294C240.336 470.173 240.585 469.991 240.788 469.76L241.347 470.44C240.936 470.875 240.412 471.178 239.838 471.312C239.265 471.445 238.666 471.404 238.115 471.192C237.564 470.981 237.083 470.609 236.731 470.12C236.379 469.632 236.171 469.048 236.132 468.44C236.112 468.047 236.17 467.655 236.304 467.286C236.437 466.918 236.642 466.583 236.907 466.301C237.171 466.019 237.489 465.797 237.84 465.649C238.191 465.501 238.568 465.43 238.947 465.44C239.323 465.431 239.697 465.503 240.045 465.652C240.394 465.801 240.708 466.024 240.968 466.307C241.228 466.589 241.429 466.924 241.558 467.292C241.686 467.659 241.739 468.05 241.713 468.44C241.703 468.548 241.684 468.655 241.656 468.76ZM237.144 468H240.74C240.684 467.546 240.471 467.129 240.14 466.826C239.809 466.524 239.383 466.357 238.942 466.357C238.501 466.357 238.075 466.524 237.744 466.826C237.413 467.129 237.2 467.546 237.144 468Z" fill="white"/>
<path d="M246.099 465.45V466.45H245.868C245.617 466.432 245.366 466.472 245.133 466.569C244.899 466.665 244.69 466.815 244.52 467.008C244.351 467.2 244.225 467.43 244.153 467.679C244.081 467.929 244.064 468.193 244.104 468.45V471.34H243.092V465.54H244.056V466.54C244.259 466.174 244.561 465.876 244.923 465.683C245.285 465.49 245.694 465.409 246.099 465.45Z" fill="white"/>
<g opacity="0.6">
<path d="M202.045 303.61L202.479 302.67C203.227 303.321 204.173 303.675 205.149 303.67C206.547 303.67 207.144 303.11 207.144 302.38C207.144 300.38 202.247 301.62 202.247 298.51C202.247 297.21 203.211 296.11 205.342 296.11C206.26 296.095 207.163 296.351 207.945 296.85L207.559 297.85C206.897 297.41 206.128 297.175 205.342 297.17C203.963 297.17 203.414 297.77 203.414 298.5C203.414 300.5 208.321 299.26 208.321 302.35C208.321 303.63 207.357 304.73 205.188 304.73C204.045 304.755 202.931 304.358 202.045 303.61Z" fill="#263238"/>
<path d="M209.612 296.24C209.614 296.139 209.634 296.04 209.673 295.947C209.711 295.855 209.767 295.772 209.837 295.702C209.907 295.632 209.99 295.577 210.08 295.541C210.171 295.505 210.267 295.487 210.364 295.49C210.46 295.486 210.556 295.502 210.645 295.536C210.735 295.571 210.817 295.624 210.887 295.692C210.957 295.76 211.014 295.841 211.053 295.932C211.092 296.023 211.114 296.12 211.116 296.22C211.116 296.427 211.037 296.625 210.896 296.771C210.755 296.918 210.564 297 210.364 297C210.165 297 209.974 296.918 209.833 296.771C209.692 296.625 209.612 296.427 209.612 296.22V296.24ZM209.805 298.24H210.923V304.6H209.805V298.24Z" fill="#263238"/>
<path d="M218.896 298.21V303.7C218.896 305.95 217.797 306.97 215.724 306.97C214.684 307.004 213.664 306.669 212.832 306.02L213.362 305.13C214.034 305.681 214.868 305.974 215.724 305.96C217.17 305.96 217.826 305.26 217.826 303.82V303.32C217.553 303.647 217.213 303.906 216.831 304.079C216.449 304.252 216.035 304.335 215.618 304.32C215.215 304.344 214.811 304.282 214.431 304.138C214.051 303.995 213.704 303.772 213.41 303.484C213.116 303.196 212.882 302.849 212.722 302.464C212.562 302.079 212.48 301.664 212.48 301.245C212.48 300.826 212.562 300.411 212.722 300.026C212.882 299.641 213.116 299.294 213.41 299.006C213.704 298.718 214.051 298.495 214.431 298.352C214.811 298.208 215.215 298.146 215.618 298.17C216.044 298.147 216.47 298.225 216.862 298.398C217.255 298.572 217.604 298.836 217.884 299.17V298.17L218.896 298.21ZM217.816 301.21C217.837 300.773 217.732 300.339 217.513 299.965C217.294 299.591 216.972 299.293 216.589 299.11C216.206 298.927 215.778 298.868 215.362 298.94C214.946 299.011 214.56 299.211 214.254 299.512C213.948 299.814 213.736 300.203 213.646 300.631C213.555 301.058 213.59 301.504 213.746 301.911C213.903 302.317 214.173 302.666 214.522 302.912C214.871 303.158 215.283 303.289 215.705 303.29C215.981 303.315 216.259 303.28 216.521 303.187C216.783 303.094 217.023 302.946 217.226 302.751C217.43 302.556 217.591 302.319 217.701 302.055C217.811 301.792 217.867 301.507 217.864 301.22L217.816 301.21Z" fill="#263238"/>
<path d="M226.839 300.91V304.57H225.721V301C225.721 299.75 225.123 299.14 224.072 299.14C223.805 299.122 223.538 299.165 223.289 299.266C223.04 299.368 222.815 299.524 222.631 299.726C222.447 299.927 222.308 300.168 222.224 300.432C222.14 300.695 222.113 300.975 222.144 301.25V304.53H221.036V298.17H222.106V299.17C222.369 298.831 222.707 298.563 223.091 298.389C223.476 298.215 223.895 298.14 224.313 298.17C224.661 298.146 225.01 298.201 225.335 298.332C225.66 298.463 225.953 298.666 226.194 298.927C226.435 299.189 226.617 299.502 226.729 299.844C226.84 300.187 226.878 300.551 226.839 300.91Z" fill="#263238"/>
<path d="M237.722 298.21V304.57H236.672V303.57C236.427 303.897 236.11 304.158 235.748 304.332C235.386 304.506 234.988 304.588 234.589 304.57C234.231 304.608 233.869 304.562 233.53 304.436C233.19 304.31 232.883 304.107 232.629 303.841C232.376 303.575 232.183 303.254 232.065 302.901C231.947 302.547 231.907 302.171 231.948 301.8V298.14H233.057V301.67C233.057 302.91 233.664 303.54 234.715 303.54C234.982 303.56 235.25 303.518 235.5 303.417C235.75 303.316 235.976 303.16 236.16 302.958C236.344 302.756 236.483 302.514 236.567 302.25C236.65 301.986 236.676 301.706 236.643 301.43V298.14L237.722 298.21Z" fill="#263238"/>
<path d="M246.186 301.39C246.208 301.819 246.143 302.249 245.996 302.65C245.849 303.052 245.622 303.418 245.331 303.724C245.04 304.03 244.69 304.269 244.305 304.427C243.919 304.585 243.506 304.657 243.092 304.64C242.685 304.656 242.28 304.575 241.908 304.401C241.537 304.228 241.21 303.967 240.952 303.64V306.92H239.843V298.24H240.904V299.24C241.158 298.892 241.49 298.613 241.871 298.426C242.252 298.24 242.671 298.152 243.092 298.17C243.504 298.151 243.915 298.222 244.299 298.377C244.683 298.533 245.032 298.77 245.323 299.072C245.614 299.375 245.841 299.738 245.99 300.137C246.139 300.536 246.206 300.963 246.186 301.39ZM245.068 301.39C245.049 300.972 244.913 300.569 244.675 300.23C244.438 299.892 244.11 299.633 243.732 299.486C243.355 299.339 242.944 299.31 242.55 299.403C242.157 299.496 241.798 299.706 241.519 300.008C241.24 300.31 241.052 300.69 240.979 301.102C240.906 301.513 240.95 301.938 241.107 302.323C241.264 302.709 241.527 303.038 241.863 303.27C242.198 303.502 242.592 303.627 242.996 303.63C243.277 303.636 243.556 303.581 243.816 303.47C244.076 303.358 244.311 303.192 244.505 302.981C244.7 302.771 244.851 302.521 244.948 302.247C245.045 301.973 245.086 301.681 245.068 301.39Z" fill="#263238"/>
</g>
<path d="M287.195 351.54H161.065V373.94H287.195V351.54Z" fill="white"/>
<g opacity="0.4">
<path d="M167.967 359.09H168.623V364.92H172.084V365.51H167.967V359.09Z" fill="#263238"/>
<path d="M176.566 362.52V365.52H175.968V364.77C175.793 365.037 175.553 365.252 175.272 365.393C174.991 365.533 174.679 365.594 174.368 365.57C173.317 365.57 172.671 365 172.671 364.16C172.671 363.32 173.124 362.8 174.464 362.8H175.939V362.51C175.939 361.68 175.486 361.23 174.619 361.23C174.055 361.222 173.508 361.424 173.076 361.8L172.787 361.31C173.337 360.868 174.019 360.638 174.715 360.66C174.96 360.629 175.209 360.656 175.443 360.737C175.677 360.819 175.891 360.954 176.068 361.132C176.245 361.31 176.382 361.527 176.468 361.768C176.555 362.008 176.588 362.265 176.566 362.52ZM175.939 364.06V363.27H174.484C173.578 363.27 173.288 363.64 173.288 364.14C173.288 364.64 173.722 365.04 174.464 365.04C174.779 365.06 175.091 364.976 175.356 364.8C175.621 364.623 175.825 364.364 175.939 364.06Z" fill="#263238"/>
<path d="M177.626 365L177.906 364.49C178.392 364.842 178.971 365.03 179.564 365.03C180.451 365.03 180.808 364.72 180.808 364.24C180.808 362.98 177.8 363.97 177.8 362.07C177.8 361.28 178.446 360.69 179.632 360.69C180.21 360.682 180.78 360.837 181.28 361.14L181 361.66C180.595 361.382 180.117 361.239 179.632 361.25C178.793 361.25 178.427 361.59 178.427 362.05C178.427 363.35 181.434 362.37 181.434 364.22C181.434 365.06 180.731 365.6 179.506 365.6C178.834 365.615 178.174 365.405 177.626 365Z" fill="#263238"/>
<path d="M185.088 365.22C184.814 365.445 184.473 365.565 184.124 365.56C183.94 365.58 183.755 365.558 183.581 365.494C183.407 365.431 183.249 365.328 183.119 365.192C182.988 365.057 182.889 364.893 182.828 364.713C182.766 364.532 182.745 364.34 182.764 364.15V361.24H181.926V360.69H182.764V359.63H183.391V360.69H184.798V361.24H183.391V364.12C183.375 364.235 183.383 364.353 183.417 364.464C183.451 364.575 183.508 364.677 183.585 364.761C183.662 364.846 183.757 364.911 183.862 364.953C183.967 364.994 184.079 365.01 184.191 365C184.444 365.008 184.691 364.919 184.885 364.75L185.088 365.22Z" fill="#263238"/>
<path d="M193.764 359.09V365.51H193.224L189.252 360.3V365.51H188.597V359.09H189.137L193.118 364.3V359.09H193.764Z" fill="#263238"/>
<path d="M199.201 362.52V365.52H198.584V364.77C198.41 365.039 198.17 365.255 197.889 365.395C197.607 365.536 197.295 365.596 196.984 365.57C195.933 365.57 195.287 365 195.287 364.16C195.287 363.32 195.75 362.8 197.09 362.8H198.584V362.51C198.584 361.68 198.131 361.23 197.263 361.23C196.7 361.222 196.153 361.424 195.721 361.8L195.432 361.31C195.981 360.865 196.663 360.635 197.36 360.66C197.604 360.631 197.852 360.658 198.085 360.741C198.318 360.823 198.53 360.958 198.706 361.136C198.882 361.314 199.018 361.531 199.104 361.77C199.189 362.009 199.223 362.265 199.201 362.52ZM198.574 364.06V363.27H197.109C196.213 363.27 195.923 363.64 195.923 364.14C195.923 364.64 196.357 365.04 197.099 365.04C197.415 365.062 197.73 364.979 197.997 364.802C198.264 364.626 198.47 364.366 198.584 364.06H198.574Z" fill="#263238"/>
<path d="M208.581 362.71V365.51H207.954V362.78C207.954 361.78 207.453 361.24 206.614 361.24C206.397 361.229 206.18 361.268 205.978 361.354C205.777 361.439 205.596 361.57 205.448 361.735C205.3 361.901 205.189 362.098 205.122 362.313C205.056 362.528 205.035 362.756 205.062 362.98V365.51H204.435V362.78C204.435 361.78 203.934 361.24 203.086 361.24C202.868 361.229 202.651 361.268 202.45 361.354C202.249 361.439 202.068 361.57 201.92 361.735C201.772 361.901 201.661 362.098 201.594 362.313C201.527 362.528 201.507 362.756 201.534 362.98V365.51H200.907V360.69H201.476V361.57C201.658 361.275 201.911 361.035 202.211 360.873C202.51 360.712 202.845 360.635 203.182 360.65C203.524 360.621 203.866 360.701 204.163 360.88C204.459 361.058 204.696 361.327 204.84 361.65C205.031 361.328 205.301 361.065 205.624 360.889C205.946 360.713 206.308 360.63 206.672 360.65C206.936 360.623 207.202 360.659 207.451 360.754C207.699 360.849 207.924 361.002 208.108 361.2C208.291 361.398 208.429 361.637 208.511 361.898C208.593 362.16 208.617 362.437 208.581 362.71Z" fill="#263238"/>
<path d="M214.355 363.3H210.499C210.512 363.535 210.57 363.765 210.67 363.977C210.769 364.189 210.908 364.378 211.078 364.534C211.248 364.691 211.447 364.81 211.661 364.887C211.876 364.963 212.104 364.995 212.33 364.98C212.598 364.989 212.864 364.937 213.111 364.828C213.357 364.719 213.578 364.556 213.757 364.35L214.104 364.77C213.77 365.132 213.341 365.384 212.869 365.494C212.398 365.604 211.906 365.568 211.455 365.39C211.003 365.211 210.612 364.899 210.331 364.492C210.049 364.085 209.89 363.601 209.872 363.1C209.856 362.781 209.904 362.463 210.011 362.164C210.119 361.865 210.284 361.593 210.498 361.363C210.711 361.134 210.967 360.952 211.251 360.829C211.535 360.706 211.84 360.645 212.147 360.65C212.454 360.644 212.759 360.704 213.042 360.826C213.326 360.948 213.582 361.131 213.794 361.361C214.006 361.591 214.17 361.865 214.274 362.164C214.379 362.463 214.423 362.782 214.403 363.1C214.364 363.16 214.355 363.23 214.355 363.3ZM210.499 362.82H213.796C213.796 362.366 213.622 361.931 213.313 361.611C213.004 361.29 212.584 361.11 212.147 361.11C211.71 361.11 211.291 361.29 210.982 361.611C210.672 361.931 210.499 362.366 210.499 362.82Z" fill="#263238"/>
</g>
<path d="M287.195 320.94H161.065V343.34H287.195V320.94Z" fill="white"/>
<g opacity="0.4">
<path d="M168.623 329.08V331.6H171.823V332.19H168.623V334.91H167.967V328.49H172.209V329.08H168.623Z" fill="#263238"/>
<path d="M173.202 328.56C173.2 328.464 173.226 328.37 173.276 328.289C173.326 328.209 173.398 328.146 173.483 328.108C173.568 328.071 173.662 328.06 173.752 328.079C173.843 328.097 173.926 328.143 173.992 328.21C174.057 328.278 174.101 328.365 174.119 328.459C174.136 328.553 174.126 328.65 174.09 328.738C174.054 328.826 173.993 328.901 173.915 328.953C173.838 329.005 173.747 329.032 173.655 329.03C173.535 329.03 173.419 328.98 173.334 328.892C173.249 328.804 173.202 328.684 173.202 328.56ZM173.337 330.09H173.963V334.91H173.337V330.09Z" fill="#263238"/>
<path d="M178.06 330.05V330.68H177.906C177.685 330.669 177.463 330.709 177.259 330.796C177.054 330.884 176.87 331.018 176.721 331.188C176.571 331.358 176.46 331.56 176.395 331.78C176.33 332 176.313 332.232 176.344 332.46V334.92H175.718V330.1H176.315V331C176.482 330.68 176.737 330.418 177.048 330.249C177.359 330.079 177.711 330.01 178.06 330.05Z" fill="#263238"/>
<path d="M178.581 334.36L178.861 333.84C179.342 334.202 179.924 334.395 180.519 334.39C181.406 334.39 181.762 334.07 181.762 333.6C181.762 332.34 178.755 333.33 178.755 331.42C178.755 330.64 179.4 330.05 180.586 330.05C181.165 330.037 181.737 330.192 182.235 330.5L181.955 331.02C181.55 330.742 181.072 330.599 180.586 330.61C179.747 330.61 179.381 330.95 179.381 331.41C179.381 332.71 182.389 331.73 182.389 333.58C182.389 334.41 181.685 334.95 180.461 334.95C179.789 334.968 179.13 334.761 178.581 334.36Z" fill="#263238"/>
<path d="M186.052 334.62C185.775 334.838 185.436 334.954 185.088 334.95C184.905 334.972 184.72 334.951 184.546 334.888C184.372 334.826 184.214 334.724 184.083 334.589C183.953 334.455 183.853 334.291 183.792 334.111C183.73 333.931 183.709 333.739 183.729 333.55V330.64H182.89V330.09H183.729V329H184.355V330.06H185.763V330.61H184.355V333.48C184.339 333.595 184.348 333.713 184.382 333.825C184.415 333.936 184.473 334.038 184.55 334.124C184.626 334.209 184.721 334.276 184.826 334.318C184.93 334.361 185.043 334.378 185.156 334.37C185.408 334.373 185.654 334.284 185.85 334.12L186.052 334.62Z" fill="#263238"/>
<path d="M194.728 328.49V334.91H194.188L190.217 329.7V334.91H189.561V328.49H190.101L194.082 333.7V328.49H194.728Z" fill="#263238"/>
<path d="M200.155 331.92V334.92H199.548V334.17C199.375 334.437 199.136 334.651 198.857 334.79C198.577 334.929 198.266 334.988 197.957 334.96C196.897 334.96 196.251 334.4 196.251 333.56C196.251 332.72 196.714 332.2 198.054 332.2H199.548V331.9C199.548 331.08 199.095 330.63 198.227 330.63C197.664 330.622 197.117 330.824 196.685 331.2L196.396 330.71C196.945 330.266 197.627 330.036 198.324 330.06C198.568 330.03 198.815 330.058 199.047 330.14C199.28 330.223 199.492 330.358 199.667 330.536C199.843 330.715 199.978 330.931 200.062 331.171C200.147 331.41 200.178 331.666 200.155 331.92ZM199.529 333.46V332.67H198.063C197.167 332.67 196.878 333.04 196.878 333.53C196.878 334.02 197.311 334.44 198.054 334.44C198.371 334.463 198.687 334.38 198.955 334.204C199.224 334.027 199.432 333.767 199.548 333.46H199.529Z" fill="#263238"/>
<path d="M209.535 332.11V334.91H208.908V332.18C208.908 331.18 208.407 330.64 207.568 330.64C207.351 330.629 207.134 330.668 206.932 330.754C206.731 330.839 206.55 330.969 206.402 331.135C206.254 331.301 206.143 331.498 206.077 331.713C206.01 331.928 205.989 332.156 206.016 332.38V334.91H205.39V332.18C205.39 331.18 204.888 330.64 204.04 330.64C203.823 330.629 203.606 330.668 203.404 330.754C203.203 330.839 203.022 330.969 202.874 331.135C202.726 331.301 202.615 331.498 202.548 331.713C202.482 331.928 202.461 332.156 202.488 332.38V334.91H201.861V330.09H202.44V331C202.622 330.705 202.875 330.465 203.174 330.303C203.474 330.142 203.809 330.065 204.146 330.08C204.488 330.05 204.83 330.131 205.126 330.31C205.423 330.488 205.659 330.757 205.804 331.08C205.993 330.756 206.263 330.492 206.586 330.315C206.909 330.139 207.272 330.058 207.636 330.08C207.896 330.055 208.158 330.092 208.403 330.186C208.648 330.28 208.87 330.43 209.052 330.625C209.234 330.819 209.372 331.054 209.455 331.311C209.539 331.567 209.566 331.84 209.535 332.11Z" fill="#263238"/>
<path d="M215.309 332.7H211.453C211.467 332.935 211.525 333.165 211.624 333.377C211.724 333.589 211.863 333.778 212.033 333.934C212.203 334.09 212.401 334.21 212.616 334.287C212.831 334.363 213.058 334.395 213.285 334.38C213.554 334.389 213.821 334.336 214.067 334.226C214.314 334.115 214.534 333.949 214.712 333.74L215.059 334.17C214.725 334.532 214.295 334.783 213.824 334.894C213.353 335.004 212.861 334.968 212.409 334.789C211.958 334.611 211.567 334.299 211.285 333.892C211.004 333.485 210.844 333 210.827 332.5C210.811 332.181 210.858 331.863 210.966 331.564C211.073 331.265 211.239 330.993 211.452 330.763C211.665 330.533 211.922 330.352 212.206 330.229C212.489 330.106 212.794 330.045 213.102 330.05C213.409 330.044 213.714 330.104 213.997 330.226C214.281 330.348 214.536 330.53 214.748 330.761C214.961 330.991 215.124 331.265 215.229 331.564C215.334 331.863 215.378 332.182 215.358 332.5C215.319 332.55 215.309 332.62 215.309 332.7ZM211.453 332.21H214.75C214.75 331.756 214.577 331.321 214.267 331.001C213.958 330.68 213.539 330.5 213.102 330.5C212.665 330.5 212.245 330.68 211.936 331.001C211.627 331.321 211.453 331.756 211.453 332.21Z" fill="#263238"/>
</g>
<path d="M113.607 511.28H112.692C112.692 509.87 113.82 476.83 119.363 471.28C125.06 465.53 131.76 471.2 131.817 471.28L131.239 472C130.988 471.79 125.098 466.83 119.989 472C114.716 477.21 113.617 510.94 113.607 511.28Z" fill="#007BFF"/>
<path d="M113.145 517.91L112.239 517.82C112.239 517.42 115.825 477.7 101.953 461.18L102.637 460.56C116.769 477.39 113.183 517.51 113.145 517.91Z" fill="#007BFF"/>
<path d="M113.588 513.67C113.473 511.79 110.802 467.67 121.464 457.47L122.081 458.17C111.737 468.03 114.466 513.17 114.494 513.6L113.588 513.67Z" fill="#007BFF"/>
<path d="M112.239 513.64C112.239 513.34 111.911 483.64 104.324 479.17C103.679 478.729 102.941 478.455 102.173 478.371C101.405 478.288 100.628 478.397 99.909 478.69C95.465 480.6 93.1032 489.4 93.0743 489.49L92.197 489.24C92.2934 488.86 94.7034 479.91 99.562 477.82C100.408 477.467 101.324 477.331 102.232 477.424C103.14 477.516 104.013 477.834 104.777 478.35C112.807 483.12 113.145 512.35 113.154 513.63L112.239 513.64Z" fill="#007BFF"/>
<path d="M115.362 513.66C115.304 512.66 114.138 490.22 120.279 481.89C121.917 479.68 123.73 478.63 125.696 478.78C130.063 479.09 133.408 485.23 133.591 485.49L132.801 485.96C132.801 485.9 129.504 479.96 125.629 479.72C124 479.59 122.438 480.52 121.002 482.47C115.063 490.47 116.259 513.38 116.268 513.61L115.362 513.66Z" fill="#007BFF"/>
<path d="M114.138 516.77L113.231 516.7C113.231 516.16 117.087 462.58 110.725 453.64L111.458 453.08C118.032 462.3 114.302 514.55 114.138 516.77Z" fill="#007BFF"/>
<path d="M97.7979 483.15C97.7979 483.15 101.731 484.66 100.565 488.21C99.3981 491.76 86.9432 497.61 86.9432 497.61C86.9432 497.61 81.728 492.66 86.5191 484.61C91.3102 476.56 97.6918 480.61 97.7979 483.15Z" fill="#007BFF"/>
<path opacity="0.2" d="M97.7979 483.15C97.7979 483.15 101.731 484.66 100.565 488.21C99.3981 491.76 86.9432 497.61 86.9432 497.61C86.9432 497.61 81.728 492.66 86.5191 484.61C91.3102 476.56 97.6918 480.61 97.7979 483.15Z" fill="black"/>
<path d="M114.909 476.39C114.909 476.39 110.716 476.21 110.475 479.95C110.234 483.69 119.536 494.07 119.536 494.07C119.536 494.07 126.188 491.57 124.761 482.22C123.334 472.87 115.95 474.08 114.909 476.39Z" fill="#007BFF"/>
<path opacity="0.2" d="M114.909 476.39C114.909 476.39 110.716 476.21 110.475 479.95C110.234 483.69 119.536 494.07 119.536 494.07C119.536 494.07 126.188 491.57 124.761 482.22C123.334 472.87 115.95 474.08 114.909 476.39Z" fill="black"/>
<path d="M118.456 458.45C118.456 458.45 115.661 458.14 115.882 456.38C116.104 454.62 126.747 450.07 133.022 457.38C133.022 457.38 129.002 464.54 123.199 464.64C117.396 464.74 118.456 458.45 118.456 458.45Z" fill="#007BFF"/>
<path opacity="0.2" d="M118.456 458.45C118.456 458.45 115.661 458.14 115.882 456.38C116.104 454.62 126.747 450.07 133.022 457.38C133.022 457.38 129.002 464.54 123.199 464.64C117.396 464.74 118.456 458.45 118.456 458.45Z" fill="black"/>
<path d="M113.251 454.16C113.251 454.16 115.776 455.43 116.49 453.81C117.203 452.19 110.484 442.5 101.413 445.29C101.413 445.29 101.172 453.57 106.05 456.84C110.928 460.11 113.251 454.16 113.251 454.16Z" fill="#007BFF"/>
<path opacity="0.2" d="M113.251 454.16C113.251 454.16 115.776 455.43 116.49 453.81C117.203 452.19 110.484 442.5 101.413 445.29C101.413 445.29 101.172 453.57 106.05 456.84C110.928 460.11 113.251 454.16 113.251 454.16Z" fill="black"/>
<path d="M126.477 481.73C126.477 481.73 124.549 480.11 126.631 479.32C128.713 478.53 138.922 478.76 139.028 489.25C139.028 489.25 127.132 491.3 125.667 487.3C124.202 483.3 126.477 481.73 126.477 481.73Z" fill="#007BFF"/>
<path opacity="0.2" d="M126.477 481.73C126.477 481.73 124.549 480.11 126.631 479.32C128.713 478.53 138.922 478.76 139.028 489.25C139.028 489.25 127.132 491.3 125.667 487.3C124.202 483.3 126.477 481.73 126.477 481.73Z" fill="black"/>
<path d="M102.184 458.19C102.184 458.19 104.112 456.57 102.03 455.79C99.9476 455.01 89.7389 455.22 89.6328 465.71C89.6328 465.71 101.529 467.77 102.994 463.77C104.459 459.77 102.184 458.19 102.184 458.19Z" fill="#007BFF"/>
<path opacity="0.2" d="M102.184 458.19C102.184 458.19 104.112 456.57 102.03 455.79C99.9476 455.01 89.7389 455.22 89.6328 465.71C89.6328 465.71 101.529 467.77 102.994 463.77C104.459 459.77 102.184 458.19 102.184 458.19Z" fill="black"/>
<path d="M108.508 466.64C108.508 466.64 108.681 464.64 107.149 465.45C105.616 466.26 100.304 472.18 105.818 477.83C105.818 477.83 113.251 472.12 111.911 469.15C110.571 466.18 108.508 466.64 108.508 466.64Z" fill="#007BFF"/>
<path opacity="0.2" d="M108.508 466.64C108.508 466.64 108.681 464.64 107.149 465.45C105.616 466.26 100.304 472.18 105.818 477.83C105.818 477.83 113.251 472.12 111.911 469.15C110.571 466.18 108.508 466.64 108.508 466.64Z" fill="black"/>
<path d="M128.212 469.44C128.212 469.44 127.055 467.87 128.752 467.68C130.448 467.49 138.006 469.58 136.242 477.42C136.242 477.42 127.026 476.7 126.602 473.42C126.178 470.14 128.212 469.44 128.212 469.44Z" fill="#007BFF"/>
<path opacity="0.2" d="M128.212 469.44C128.212 469.44 127.055 467.87 128.752 467.68C130.448 467.49 138.006 469.58 136.242 477.42C136.242 477.42 127.026 476.7 126.602 473.42C126.178 470.14 128.212 469.44 128.212 469.44Z" fill="black"/>
<path d="M98.4823 542.72H128.28L132.242 512.66H94.5203L98.4823 542.72Z" fill="#263238"/>
<path opacity="0.2" d="M98.4823 542.72H128.28L132.242 512.66H94.5203L98.4823 542.72Z" fill="white"/>
<path d="M135.982 510.22V513.08C135.982 513.997 135.63 514.877 135.005 515.526C134.379 516.175 133.531 516.54 132.646 516.54H93.749C92.8644 516.54 92.016 516.175 91.3905 515.526C90.765 514.877 90.4136 513.997 90.4136 513.08V510.22H135.982Z" fill="#263238"/>
<path d="M384.27 225.31H356.574C354.314 225.31 352.146 226.241 350.548 227.899C348.95 229.557 348.052 231.805 348.052 234.15V259.15C348.051 260.311 348.27 261.462 348.698 262.536C349.126 263.609 349.753 264.585 350.545 265.407C351.336 266.229 352.276 266.881 353.311 267.326C354.345 267.771 355.454 268 356.574 268H364.662L362.734 275.89L370.446 268H384.318C386.581 268 388.751 267.067 390.351 265.408C391.95 263.748 392.849 261.497 392.849 259.15V234.15C392.849 232.984 392.627 231.829 392.195 230.753C391.763 229.676 391.13 228.699 390.333 227.878C389.535 227.056 388.589 226.406 387.549 225.965C386.508 225.525 385.394 225.302 384.27 225.31Z" fill="#007BFF"/>
<path opacity="0.7" d="M384.27 225.31H356.574C354.314 225.31 352.146 226.241 350.548 227.899C348.95 229.557 348.052 231.805 348.052 234.15V259.15C348.051 260.311 348.27 261.462 348.698 262.536C349.126 263.609 349.753 264.585 350.545 265.407C351.336 266.229 352.276 266.881 353.311 267.326C354.345 267.771 355.454 268 356.574 268H364.662L362.734 275.89L370.446 268H384.318C386.581 268 388.751 267.067 390.351 265.408C391.95 263.748 392.849 261.497 392.849 259.15V234.15C392.849 232.984 392.627 231.829 392.195 230.753C391.763 229.676 391.13 228.699 390.333 227.878C389.535 227.056 388.589 226.406 387.549 225.965C386.508 225.525 385.394 225.302 384.27 225.31Z" fill="white"/>
<path d="M370.427 257.7C376.363 257.7 381.175 252.708 381.175 246.55C381.175 240.392 376.363 235.4 370.427 235.4C364.491 235.4 359.678 240.392 359.678 246.55C359.678 252.708 364.491 257.7 370.427 257.7Z" fill="white"/>
<path d="M370.427 232.29C367.708 232.29 365.05 233.126 362.79 234.693C360.529 236.26 358.767 238.487 357.727 241.092C356.686 243.698 356.414 246.565 356.944 249.332C357.475 252.098 358.784 254.639 360.706 256.633C362.629 258.627 365.078 259.985 367.745 260.536C370.412 261.086 373.176 260.803 375.687 259.724C378.199 258.645 380.346 256.817 381.857 254.472C383.367 252.127 384.173 249.37 384.173 246.55C384.175 244.677 383.82 242.822 383.13 241.091C382.439 239.36 381.427 237.788 380.15 236.463C378.873 235.139 377.357 234.089 375.689 233.372C374.021 232.656 372.232 232.288 370.427 232.29ZM378.226 242.29L369.945 252.41C369.827 252.556 369.68 252.673 369.513 252.753C369.346 252.832 369.164 252.872 368.981 252.87C368.798 252.871 368.616 252.83 368.45 252.751C368.283 252.671 368.135 252.555 368.017 252.41L362.628 245.82C362.514 245.689 362.427 245.537 362.371 245.37C362.315 245.204 362.292 245.028 362.304 244.853C362.315 244.677 362.36 244.506 362.437 244.349C362.513 244.192 362.619 244.053 362.749 243.939C362.878 243.826 363.028 243.74 363.19 243.688C363.352 243.636 363.523 243.619 363.691 243.636C363.86 243.654 364.023 243.707 364.172 243.792C364.321 243.876 364.451 243.991 364.556 244.13L368.981 249.54L376.298 240.6C376.517 240.348 376.823 240.195 377.149 240.172C377.476 240.15 377.798 240.26 378.048 240.479C378.298 240.698 378.457 241.009 378.49 241.347C378.523 241.685 378.428 242.023 378.226 242.29Z" fill="#007BFF"/>
<path d="M379.469 379.56C379.469 379.56 362.686 377.36 337.256 384.56C337.256 384.56 333.168 337.42 333.65 330.94C334.132 324.46 372.914 326.36 372.914 326.36C372.914 326.36 373.878 345.23 376.404 356.61C378.929 367.99 380.78 377.37 379.469 379.56Z" fill="#007BFF"/>
<path opacity="0.2" d="M379.469 379.56C379.469 379.56 362.686 377.36 337.256 384.56C337.256 384.56 333.168 337.42 333.65 330.94C334.132 324.46 372.914 326.36 372.914 326.36C372.914 326.36 373.878 345.23 376.404 356.61C378.929 367.99 380.78 377.37 379.469 379.56Z" fill="black"/>
<path d="M324.994 535.62L331.838 537.63L333.467 526.58L334.344 520.67L327.5 518.66L326.334 526.58L324.994 535.62Z" fill="#E4897B"/>
<path d="M364.344 536.2L371.4 537.17L371.468 526.58L371.516 520L364.45 519.04L364.402 526.58L364.344 536.2Z" fill="#E4897B"/>
<path opacity="0.2" d="M364.45 519.04L364.402 526.58H371.468L371.516 520L364.45 519.04Z" fill="black"/>
<path opacity="0.2" d="M326.333 526.58H333.467L334.344 520.67L327.5 518.66L326.333 526.58Z" fill="black"/>
<path d="M294.608 334.81L287.812 332.73L289.056 340.78C289.056 340.78 295.225 342.25 295.804 338.92L294.608 334.81Z" fill="#E4897B"/>
<path d="M281.025 334.6L284.361 341.14L289.056 340.78L287.812 332.73L281.025 334.6Z" fill="#E4897B"/>
<path d="M303.988 336.87L292.825 334.28L291.812 339.9L301.944 342.46L303.988 336.87Z" fill="#E4897B"/>
<path d="M337.757 331.79L337.101 332.6C335.694 334.31 332.281 338.44 328.724 342C325.832 344.9 322.94 347.43 321.012 347.94C315.546 349.4 295.678 343.33 295.678 343.33L297.732 334.97C297.732 334.97 316.24 337.52 317.677 337.52C318.766 337.52 330.026 320.6 332.754 319.21L337.757 331.79Z" fill="#007BFF"/>
<path opacity="0.2" d="M337.101 332.6C335.694 334.31 332.281 338.44 328.724 342C329.437 336.14 331.51 330.76 334.238 327.36C334.493 327.032 334.784 326.736 335.106 326.48L337.101 332.6Z" fill="black"/>
<path d="M325.08 534.51L332.85 534.3C332.99 534.296 333.128 534.341 333.24 534.428C333.352 534.515 333.432 534.639 333.467 534.78L335.106 541.27C335.145 541.426 335.15 541.588 335.12 541.746C335.091 541.903 335.027 542.052 334.935 542.181C334.842 542.309 334.723 542.415 334.586 542.489C334.448 542.563 334.297 542.605 334.142 542.61C331.337 542.61 327.278 542.61 323.76 542.68C319.634 542.8 317.012 542.59 312.192 542.68C309.3 542.76 308.336 539.74 309.57 539.43C315.093 538.01 318.708 538.29 323.413 535.09C323.909 534.747 324.485 534.547 325.08 534.51Z" fill="#263238"/>
<path d="M324.406 535.55C323.268 535.81 321.244 536.16 320.434 535.47C320.316 535.369 320.223 535.24 320.162 535.094C320.102 534.948 320.076 534.789 320.087 534.63C320.086 534.535 320.11 534.441 320.156 534.359C320.202 534.276 320.268 534.208 320.347 534.16C321.205 533.63 324.107 535.06 324.444 535.22C324.474 535.237 324.498 535.261 324.515 535.291C324.532 535.321 324.541 535.355 324.54 535.39C324.539 535.429 324.525 535.466 324.5 535.495C324.476 535.524 324.442 535.543 324.406 535.55ZM320.55 534.44H320.492C320.46 534.459 320.433 534.487 320.414 534.52C320.396 534.554 320.386 534.592 320.386 534.63C320.378 534.734 320.394 534.837 320.432 534.933C320.471 535.029 320.531 535.113 320.607 535.18C321.06 535.57 322.237 535.61 323.798 535.29C322.67 534.8 321.099 534.23 320.569 534.44H320.55Z" fill="#007BFF"/>
<path d="M324.405 535.55H324.29C323.412 535.17 321.658 533.63 321.754 532.8C321.754 532.6 321.909 532.35 322.371 532.29C322.541 532.267 322.714 532.279 322.879 532.325C323.045 532.372 323.2 532.452 323.335 532.56C324.299 533.31 324.521 535.28 324.54 535.36C324.543 535.391 324.538 535.421 324.526 535.449C324.515 535.477 324.496 535.502 324.473 535.52L324.405 535.55ZM322.246 532.68C322.101 532.73 322.092 532.81 322.092 532.84C322.034 533.34 323.229 534.56 324.126 535.08C324.022 534.24 323.665 533.456 323.104 532.84C323.009 532.757 322.898 532.696 322.778 532.662C322.658 532.627 322.533 532.62 322.41 532.64C322.354 532.645 322.298 532.659 322.246 532.68Z" fill="#007BFF"/>
<path d="M364.624 534.51L372.394 534.3C372.535 534.295 372.674 534.34 372.787 534.427C372.901 534.514 372.983 534.639 373.02 534.78L374.649 541.27C374.69 541.426 374.697 541.589 374.668 541.747C374.639 541.906 374.576 542.055 374.483 542.184C374.39 542.314 374.27 542.419 374.131 542.493C373.993 542.567 373.841 542.607 373.685 542.61C370.88 542.61 366.822 542.61 363.293 542.68C359.177 542.8 356.545 542.59 351.725 542.68C348.833 542.76 347.869 539.74 349.103 539.43C354.627 538.01 358.232 538.29 362.937 535.09C363.439 534.744 364.021 534.543 364.624 534.51Z" fill="#263238"/>
<path d="M363.958 535.55C362.821 535.81 360.787 536.16 359.987 535.47C359.869 535.369 359.776 535.24 359.715 535.094C359.655 534.948 359.629 534.789 359.64 534.63C359.639 534.535 359.663 534.441 359.709 534.359C359.754 534.276 359.82 534.208 359.9 534.16C360.748 533.63 363.659 535.06 363.987 535.22C364.019 535.233 364.046 535.257 364.064 535.288C364.081 535.319 364.088 535.355 364.084 535.39C364.081 535.427 364.068 535.462 364.045 535.491C364.023 535.519 363.992 535.54 363.958 535.55ZM360.102 534.44H360.044C360.013 534.459 359.987 534.487 359.97 534.521C359.952 534.554 359.945 534.592 359.948 534.63C359.938 534.734 359.954 534.838 359.992 534.934C360.031 535.03 360.092 535.115 360.17 535.18C360.623 535.57 361.789 535.61 363.361 535.29C362.213 534.8 360.642 534.23 360.112 534.44H360.102Z" fill="#007BFF"/>
<path d="M363.958 535.55H363.833C362.965 535.17 361.201 533.63 361.307 532.8C361.307 532.6 361.452 532.35 361.915 532.29C362.085 532.266 362.257 532.277 362.423 532.324C362.589 532.37 362.744 532.451 362.879 532.56C363.553 533.34 363.975 534.319 364.084 535.36C364.089 535.391 364.085 535.422 364.073 535.451C364.061 535.479 364.041 535.503 364.016 535.52L363.958 535.55ZM361.789 532.68C361.654 532.73 361.645 532.81 361.645 532.84C361.577 533.34 362.782 534.56 363.679 535.08C363.568 534.242 363.212 533.46 362.657 532.84C362.561 532.758 362.45 532.697 362.331 532.663C362.211 532.628 362.086 532.621 361.963 532.64L361.789 532.68Z" fill="#007BFF"/>
<path d="M378.901 375.26C382.641 392.07 376.221 524.32 376.221 524.32H363.824L358.522 414.11L339.001 524.32L325.746 523.32C334.422 437.94 342.066 386.97 342.066 386.97V380.53L378.901 375.26Z" fill="#263238"/>
<path opacity="0.4" d="M325.746 523.32L339.001 524.32L354.367 437.56L358.522 414.11L363.824 524.32H376.221C376.221 524.32 382.641 392.07 378.901 375.26L342.047 380.53V386.97C342.047 386.97 334.412 437.94 325.746 523.32Z" fill="white"/>
<path d="M372.22 313C371.84 321.037 372.036 329.093 372.808 337.1C373.328 342.7 374.042 347.99 374.803 352.76C376.587 363.95 378.611 372.34 378.9 375.27L342.047 380.54C328.608 341.54 333.669 318.88 333.669 318.88C336.425 317.7 339.249 316.698 342.124 315.88C342.731 315.71 343.348 315.55 343.984 315.4C349.16 314.343 354.391 313.596 359.649 313.16C360.613 313.07 361.664 313 362.647 312.95C367.679 312.69 372.22 313 372.22 313Z" fill="#263238"/>
<path d="M352.496 295.45C352.766 300.8 353.316 310.84 357.605 313.39C357.605 313.39 354.935 318.66 349.161 319.2C344.794 319.6 345.083 315.13 345.083 315.13C347.609 313.18 347.011 309.87 345.083 306.13L352.496 295.45Z" fill="#E4897B"/>
<path opacity="0.2" d="M349.47 299.81L345.112 306.13C345.571 306.994 345.958 307.898 346.269 308.83C348.294 307.99 350.617 304.83 350.279 302.54C350.174 301.586 349.899 300.661 349.47 299.81Z" fill="black"/>
<path d="M333.698 284.68C332.86 287.46 333.322 293.16 337.053 291.31C340.784 289.46 335.144 279.91 333.698 284.68Z" fill="#263238"/>
<path d="M352.979 288.44C353.393 295.57 353.943 299.72 350.945 303.76C346.385 309.83 337.555 307.57 335.087 300.69C332.87 294.49 332.571 283.87 338.943 280.27C340.355 279.473 341.94 279.061 343.547 279.071C345.155 279.082 346.734 279.516 348.137 280.333C349.539 281.149 350.719 282.321 351.565 283.739C352.412 285.157 352.899 286.774 352.979 288.44Z" fill="#E4897B"/>
<path d="M348.158 284.56V276.56C348.158 276.56 356.333 275.93 355.967 280.27C360.497 282.6 358.357 289.91 352.274 293.49C348.939 290.72 349.325 284.06 349.325 284.06C348.968 284.25 348.563 284.41 348.158 284.56Z" fill="#263238"/>
<path d="M356.304 294C356.147 294.873 355.822 295.703 355.351 296.443C354.879 297.184 354.269 297.818 353.557 298.31C351.629 299.62 349.961 298.01 349.894 295.76C349.836 293.76 350.752 290.6 352.969 290.2C353.454 290.122 353.95 290.169 354.413 290.339C354.876 290.508 355.291 290.793 355.622 291.17C355.952 291.546 356.187 292.002 356.307 292.496C356.426 292.99 356.425 293.507 356.304 294Z" fill="#E4897B"/>
<path d="M342.828 291.62C342.895 292.2 342.654 292.7 342.288 292.74C341.921 292.78 341.574 292.35 341.507 291.74C341.439 291.13 341.68 290.66 342.037 290.62C342.394 290.58 342.76 291 342.828 291.62Z" fill="#263238"/>
<path d="M336.523 292.35C336.59 292.93 336.349 293.43 335.983 293.47C335.617 293.51 335.27 293.08 335.202 292.47C335.135 291.86 335.376 291.39 335.742 291.35C336.108 291.31 336.436 291.77 336.523 292.35Z" fill="#263238"/>
<path d="M338.557 292.4C338.07 294.189 337.346 295.898 336.407 297.48C336.823 297.702 337.279 297.83 337.746 297.856C338.213 297.882 338.68 297.805 339.116 297.63L338.557 292.4Z" fill="#DE5753"/>
<path d="M342.365 299.49C342.127 299.553 341.886 299.6 341.642 299.63C341.598 299.63 341.557 299.612 341.526 299.58C341.495 299.548 341.478 299.505 341.478 299.46C341.478 299.415 341.495 299.372 341.526 299.34C341.557 299.308 341.598 299.29 341.642 299.29C342.334 299.225 343.002 298.992 343.591 298.61C344.181 298.228 344.675 297.707 345.035 297.09C345.043 297.07 345.056 297.052 345.071 297.037C345.086 297.021 345.105 297.01 345.124 297.002C345.144 296.995 345.166 296.992 345.187 296.993C345.208 296.994 345.228 297 345.247 297.01C345.267 297.02 345.285 297.033 345.299 297.05C345.314 297.067 345.325 297.087 345.333 297.108C345.34 297.13 345.343 297.152 345.341 297.175C345.34 297.198 345.334 297.22 345.324 297.24C345.009 297.808 344.583 298.302 344.073 298.689C343.564 299.077 342.982 299.349 342.365 299.49Z" fill="#263238"/>
<path d="M344.524 289.29C344.466 289.304 344.405 289.302 344.348 289.285C344.29 289.267 344.238 289.235 344.196 289.19C343.917 288.873 343.571 288.627 343.184 288.473C342.798 288.318 342.382 288.259 341.969 288.3C341.927 288.31 341.883 288.311 341.84 288.303C341.797 288.295 341.756 288.277 341.72 288.252C341.684 288.227 341.653 288.194 341.63 288.156C341.606 288.117 341.591 288.075 341.584 288.03C341.575 287.986 341.576 287.941 341.584 287.897C341.593 287.853 341.61 287.811 341.634 287.774C341.658 287.737 341.689 287.705 341.725 287.68C341.761 287.655 341.802 287.638 341.844 287.63C342.365 287.566 342.892 287.631 343.383 287.821C343.875 288.01 344.315 288.318 344.669 288.72C344.7 288.751 344.725 288.788 344.742 288.829C344.76 288.871 344.768 288.915 344.768 288.96C344.768 289.005 344.76 289.049 344.742 289.091C344.725 289.132 344.7 289.169 344.669 289.2C344.627 289.241 344.578 289.271 344.524 289.29Z" fill="#263238"/>
<path d="M333.544 290.42C333.482 290.445 333.413 290.445 333.351 290.42C333.27 290.391 333.203 290.329 333.165 290.248C333.127 290.168 333.121 290.075 333.149 289.99C333.308 289.475 333.585 289.008 333.956 288.629C334.327 288.249 334.781 287.968 335.279 287.81C335.363 287.788 335.453 287.801 335.528 287.847C335.603 287.893 335.657 287.968 335.679 288.055C335.701 288.143 335.688 288.236 335.644 288.313C335.6 288.391 335.527 288.448 335.443 288.47C335.049 288.596 334.691 288.821 334.4 289.124C334.109 289.428 333.894 289.8 333.775 290.21C333.757 290.263 333.726 290.309 333.686 290.346C333.645 290.383 333.596 290.408 333.544 290.42Z" fill="#263238"/>
<path d="M351.783 287.52C351.783 287.52 346.963 285.69 344.765 282.79C344.765 282.79 340.388 283.98 339.492 285.79C339.083 285.427 338.818 284.919 338.749 284.365C338.679 283.811 338.81 283.25 339.116 282.79C339.116 282.79 335.838 283.51 335.192 285.79C334.66 285.527 334.222 285.094 333.945 284.554C333.667 284.014 333.564 283.396 333.65 282.79C333.65 282.79 332.194 283.36 331.722 285.79C331.722 285.79 328.107 277.97 340.051 275.73C339.147 275.412 338.2 275.247 337.246 275.24C337.246 275.24 345.584 271.75 352.188 274.94C358.791 278.13 357.644 284.31 351.783 287.52Z" fill="#263238"/>
<path d="M381.744 382L370.176 383.6C370.176 383.6 365.404 349.01 363.303 337.84V314L369.347 312.35L374.032 314C375.317 318.796 376.305 323.673 376.992 328.6C377.56 332.34 378.071 336.34 378.524 340.39C379.151 345.91 379.671 351.53 380.115 356.79C380.809 365.28 381.272 372.79 381.522 377.38C381.667 380.26 381.744 382 381.744 382Z" fill="#007BFF"/>
<path d="M363.313 337.82C363.313 337.82 364.277 320.99 369.357 312.31C369.357 312.31 369.231 309.83 368.219 309.43C367.207 309.03 363.313 311.43 363.313 311.43C363.313 311.43 360.893 309.71 360.363 310.51C359.833 311.31 358.541 316.63 363.313 337.82Z" fill="#007BFF"/>
<path opacity="0.7" d="M363.313 337.82C363.313 337.82 364.277 320.99 369.357 312.31C369.357 312.31 369.231 309.83 368.219 309.43C367.207 309.03 363.313 311.43 363.313 311.43C363.313 311.43 360.893 309.71 360.363 310.51C359.833 311.31 358.541 316.63 363.313 337.82Z" fill="white"/>
<path d="M337.015 386.61L338.335 387.61C338.335 387.61 336.407 376.46 337.198 348.26C337.198 346.9 337.285 345.59 337.333 344.34C338.297 320.48 341.883 316.14 342.153 315.88L338.817 317.06L332.773 319.22C330.951 339.57 337.015 386.61 337.015 386.61Z" fill="#007BFF"/>
<path d="M337.535 340.23C337.535 340.23 334.2 323.87 335.192 318.23C336.185 312.59 339.743 315.1 339.743 315.1C339.743 315.1 343.01 312.36 343.984 315.38C343.984 315.38 339.492 318.66 337.535 340.23Z" fill="#007BFF"/>
<path opacity="0.7" d="M337.535 340.23C337.535 340.23 334.2 323.87 335.192 318.23C336.185 312.59 339.743 315.1 339.743 315.1C339.743 315.1 343.01 312.36 343.984 315.38C343.984 315.38 339.492 318.66 337.535 340.23Z" fill="white"/>
<path opacity="0.2" d="M378.505 340.35C373.57 337.48 372.914 329.99 372.914 329.99C373.213 329.87 375.044 329.22 376.972 328.56C377.541 332.3 378.052 336.3 378.505 340.35Z" fill="black"/>
<path opacity="0.2" d="M354.366 437.56L358.521 414.11L357.721 401.7C357.721 401.7 352.024 423.22 354.366 437.56Z" fill="black"/>
<path opacity="0.2" d="M381.503 377.34C378.399 377.12 375.719 376.91 375.719 376.91L375.131 363.82C376.098 363.192 377.26 362.97 378.38 363.2C379.142 361.109 379.72 358.95 380.105 356.75C380.78 365.24 381.252 372.76 381.503 377.34Z" fill="black"/>
<path d="M382.564 356.74L376.52 366.81L381.301 369.66L386.979 360.59L382.564 356.74Z" fill="#E4897B"/>
<path d="M373.772 313.84C377.84 314.3 395.134 338.92 395.896 346.34C396.657 353.76 385.735 366.57 385.735 366.57L378.447 362.12C378.447 362.12 385.851 350.31 386.236 347.12C386.622 343.93 372.692 331.04 372.692 331.04C371.639 328.071 371.059 324.943 370.976 321.78C370.783 316.36 373.772 313.84 373.772 313.84Z" fill="#007BFF"/>
<path d="M375.121 363.83C375.121 363.83 381.339 365.21 383.846 369.27C383.846 369.27 381.243 377.72 379.382 378.64C377.522 379.56 372.914 379.56 372.914 379.56C372.914 379.56 372.615 370.16 375.121 363.83Z" fill="#007BFF"/>
</svg>
