<svg width="225" height="155" viewBox="0 0 225 155" fill="none" xmlns="http://www.w3.org/2000/svg">
<path d="M39.4179 1.14941H37.0027V57.2781H39.4179V1.14941Z" fill="#E0E0E0"/>
<path d="M36.6044 1.58545H2.00301C1.98436 1.58545 1.96924 1.60179 1.96924 1.62195V57.3199C1.96924 57.3401 1.98436 57.3564 2.00301 57.3564H36.6044C36.6231 57.3564 36.6382 57.3401 36.6382 57.3199V1.62195C36.6382 1.60179 36.6231 1.58545 36.6044 1.58545Z" fill="#F5F5F5"/>
<path d="M37.0025 57.7896H1.60064C1.5959 57.7896 1.59122 57.7886 1.58688 57.7865C1.58255 57.7845 1.57866 57.7815 1.57548 57.7777C1.57229 57.7739 1.56988 57.7694 1.56839 57.7646C1.56691 57.7597 1.56639 57.7546 1.56686 57.7495V1.16808C1.56632 1.16315 1.56682 1.15814 1.56833 1.15345C1.56983 1.14875 1.5723 1.14448 1.57555 1.14097C1.5788 1.13746 1.58275 1.13479 1.5871 1.13316C1.59144 1.13153 1.59607 1.13099 1.60064 1.13158H37.0025C37.0072 1.13107 37.012 1.13163 37.0165 1.13323C37.0209 1.13484 37.0251 1.13745 37.0286 1.14089C37.0321 1.14433 37.0349 1.14853 37.0368 1.15321C37.0387 1.1579 37.0397 1.16297 37.0396 1.16808V57.7495C37.0396 57.7601 37.0357 57.7703 37.0288 57.7779C37.0218 57.7854 37.0123 57.7896 37.0025 57.7896ZM2.40446 56.9318H36.202C36.2119 56.9318 36.2214 56.9275 36.2283 56.92C36.2353 56.9125 36.2392 56.9023 36.2392 56.8916V2.05513C36.2392 2.05001 36.2382 2.04495 36.2363 2.04026C36.2344 2.03558 36.2316 2.03138 36.2281 2.02794C36.2246 2.0245 36.2205 2.02189 36.216 2.02028C36.2115 2.01868 36.2068 2.01812 36.202 2.01863H2.40446C2.39989 2.01804 2.39526 2.01858 2.39092 2.02021C2.38657 2.02184 2.38262 2.02451 2.37937 2.02802C2.37612 2.03153 2.37365 2.0358 2.37214 2.0405C2.37064 2.04519 2.37014 2.0502 2.37068 2.05513V56.8807C2.36832 56.8865 2.36739 56.8928 2.36799 56.8991C2.36859 56.9054 2.37069 56.9115 2.3741 56.9166C2.37751 56.9218 2.3821 56.9259 2.38742 56.9285C2.39274 56.9312 2.39862 56.9323 2.40446 56.9318Z" fill="#EBEBEB"/>
<path d="M33.1727 5.02295H5.49154C5.47288 5.02295 5.45776 5.03929 5.45776 5.05945V53.8399C5.45776 53.8601 5.47288 53.8764 5.49154 53.8764H33.1727C33.1913 53.8764 33.2064 53.8601 33.2064 53.8399V5.05945C33.2064 5.03929 33.1913 5.02295 33.1727 5.02295Z" fill="white"/>
<path d="M27.0731 18.8726H11.5337C11.5225 18.8726 11.5134 18.8824 11.5134 18.8945V38.5884C11.5134 38.6005 11.5225 38.6103 11.5337 38.6103H27.0731C27.0843 38.6103 27.0933 38.6005 27.0933 38.5884V18.8945C27.0933 18.8824 27.0843 18.8726 27.0731 18.8726Z" fill="#EBEBEB"/>
<path d="M25.8608 36.1938C25.8811 36.2595 25.111 36.6246 23.6486 36.4384C22.7468 36.3057 21.8906 35.929 21.1595 35.3433C20.1649 34.5409 19.4775 33.3718 19.2276 32.0579C19.0834 31.2349 19.1444 30.3853 19.4044 29.5963C19.6644 28.8072 20.1139 28.1071 20.7069 27.5679C21.0404 27.2587 21.4194 27.0119 21.8282 26.8378C22.2756 26.6585 22.7566 26.5996 23.2298 26.6662C23.7498 26.7211 24.2404 26.9524 24.6314 27.327C24.8502 27.5493 25.0148 27.8265 25.1109 28.1341C25.2069 28.4416 25.2313 28.77 25.1819 29.0901C25.0754 29.6686 24.8066 30.1976 24.4119 30.605C24.0658 30.977 23.6709 31.2919 23.2399 31.5395C22.3801 32.0553 21.4223 32.3512 20.4401 32.4047C19.4014 32.466 18.3676 32.2131 17.4545 31.6746C16.5137 31.1071 15.7497 30.2509 15.2592 29.2142C14.754 28.1524 14.614 26.9312 14.864 25.7682C15.113 24.6421 15.7084 23.6408 16.5527 22.9282C16.9719 22.5767 17.4502 22.3164 17.9611 22.1616C18.4793 22.0121 19.0224 21.9934 19.5485 22.1069C20.1033 22.2225 20.6083 22.53 20.9872 22.983C21.3494 23.4496 21.549 24.0385 21.5512 24.6476C21.5554 25.2019 21.4263 25.7478 21.1764 26.2318C20.9456 26.67 20.6449 27.0605 20.2881 27.3854C19.6425 27.9709 18.8898 28.4025 18.0793 28.6521C17.3268 28.8908 16.5365 28.9567 15.759 28.8455C15.0331 28.7388 14.3397 28.4528 13.7326 28.0096C13.2126 27.6384 12.7718 27.1518 12.4393 26.5822C12.1067 26.0126 11.8902 25.373 11.8041 24.706C11.6992 23.6981 11.9541 22.685 12.5167 21.8733C12.8526 21.3683 13.3107 20.973 13.8407 20.7307C14.2054 20.581 14.4114 20.5847 14.4216 20.6248C14.4317 20.665 14.2561 20.7635 13.9622 20.9899C13.5474 21.3039 13.2015 21.7126 12.949 22.1872C12.5435 22.9127 12.3947 23.7725 12.5302 24.6074C12.6329 25.1454 12.8386 25.6543 13.1341 26.1013C13.4296 26.5482 13.8083 26.9235 14.2459 27.2029C14.7756 27.539 15.3669 27.7458 15.9783 27.8089C16.5897 27.8719 17.2065 27.7897 17.7855 27.5679C18.439 27.3388 19.0415 26.9659 19.5552 26.4728C19.8073 26.2588 20.0123 25.9871 20.1554 25.6771C20.2985 25.3672 20.3761 25.0268 20.3827 24.6804C20.3811 24.3639 20.2717 24.0591 20.0755 23.8241C19.8793 23.5892 19.6099 23.4405 19.3188 23.4064C18.9818 23.3409 18.6355 23.3584 18.3056 23.4575C17.9564 23.5731 17.6301 23.7575 17.343 24.0014C16.7361 24.5325 16.3105 25.2673 16.1339 26.0895C15.9543 26.9358 16.0596 27.8237 16.4311 28.5937C16.8107 29.3871 17.398 30.0422 18.1198 30.4773C18.825 30.8955 19.623 31.0963 20.4266 31.0577C21.2191 31.0211 21.9938 30.7914 22.6928 30.386C23.0237 30.2043 23.3285 29.9719 23.5979 29.6961C23.8217 29.4809 23.9816 29.1989 24.0573 28.8857C24.0799 28.7693 24.0747 28.6485 24.0422 28.5348C24.0097 28.4211 23.951 28.3183 23.8715 28.2359C23.6628 28.033 23.4007 27.9054 23.1217 27.8709C22.8261 27.8235 22.5243 27.851 22.2402 27.9512C21.9429 28.0651 21.6646 28.2303 21.4162 28.4403C20.9471 28.844 20.5845 29.3739 20.3646 29.9767C20.1447 30.5796 20.0752 31.2344 20.1631 31.8754C20.3315 32.9816 20.8567 33.9877 21.6458 34.7154C22.266 35.2719 22.9964 35.6666 23.7803 35.8689C25.057 36.2376 25.8507 36.0734 25.8608 36.1938Z" fill="#E0E0E0"/>
<path d="M220.25 5.72754H192.67V36.8035H220.25V5.72754Z" fill="#E0E0E0"/>
<path d="M218.383 5.72754H190.803V36.8035H218.383V5.72754Z" fill="#FAFAFA"/>
<path d="M218.393 36.8149H190.796V5.7207H218.393V36.8149ZM190.813 36.793H218.376V5.73895H190.813V36.793Z" fill="#E0E0E0"/>
<path d="M214.677 9.90723H194.511V32.6274H214.677V9.90723Z" fill="white"/>
<path d="M194.511 32.7778C194.37 33.0069 194.203 33.2165 194.015 33.402C193.677 33.7671 193.238 34.2672 192.731 34.8075C192.224 35.3477 191.758 35.8296 191.414 36.1691C191.24 36.3696 191.043 36.5462 190.829 36.6947C190.973 36.4681 191.139 36.2599 191.326 36.0742C191.664 35.7091 192.103 35.2054 192.609 34.6651C193.116 34.1248 193.586 33.643 193.93 33.2998C194.103 33.0999 194.298 32.9245 194.511 32.7778Z" fill="#E0E0E0"/>
<path d="M214.677 32.7222C214.888 32.8773 215.082 33.0573 215.255 33.2588C215.593 33.6056 216.056 34.0947 216.556 34.6459C217.056 35.1971 217.501 35.6973 217.816 36.0696C218 36.2579 218.163 36.4686 218.302 36.6975C218.091 36.5445 217.897 36.3657 217.724 36.1645C217.387 35.7995 216.924 35.3249 216.424 34.7737C215.924 34.2225 215.475 33.7187 215.161 33.35C214.976 33.1628 214.814 32.9519 214.677 32.7222Z" fill="#E0E0E0"/>
<path d="M214.62 9.96621C214.765 9.73941 214.933 9.53014 215.12 9.34199C215.458 8.97695 215.893 8.47684 216.4 7.93658C216.907 7.39632 217.376 6.91446 217.717 6.57498C217.892 6.37542 218.088 6.19897 218.302 6.04932C218.16 6.27781 217.993 6.48734 217.805 6.67354C217.467 7.03858 217.032 7.53868 216.522 8.07894C216.012 8.61921 215.542 9.11201 215.204 9.4442C215.031 9.64436 214.834 9.81978 214.62 9.96621Z" fill="#E0E0E0"/>
<path d="M194.457 10.0207C194.243 9.86668 194.048 9.68391 193.876 9.47677C193.538 9.11173 193.076 8.64083 192.579 8.09327C192.083 7.5457 191.633 7.0383 191.316 6.66961C191.132 6.47932 190.969 6.2675 190.829 6.03809C191.042 6.19059 191.236 6.37083 191.407 6.5747C191.745 6.93974 192.208 7.41064 192.711 7.96185C193.214 8.51306 193.657 9.01682 193.974 9.38916C194.155 9.58059 194.317 9.79228 194.457 10.0207Z" fill="#E0E0E0"/>
<path d="M214.62 32.6272C214.62 32.6272 214.62 32.587 214.62 32.514C214.62 32.441 214.62 32.3351 214.62 32.2001C214.62 31.9153 214.62 31.5028 214.62 30.9735C214.62 29.8967 214.62 28.3306 214.6 26.3412C214.6 22.3622 214.576 16.6931 214.559 9.91431L214.637 9.99827H194.531L194.619 9.90336C194.619 18.2409 194.619 26.0418 194.619 32.6235L194.541 32.5396L209.101 32.5834L213.191 32.6016H214.276H214.529H214.623H214.265H213.198L209.125 32.6235L194.514 32.6637H194.437V32.5834C194.437 26.0126 194.437 18.2007 194.437 9.86321V9.76465H194.531H214.637H214.718V9.84861C214.718 16.6566 214.691 22.344 214.681 26.3375C214.681 28.316 214.681 29.8748 214.661 30.948C214.661 31.4736 214.661 31.8788 214.661 32.1599C214.661 32.2913 214.661 32.3899 214.661 32.4666C214.655 32.5221 214.641 32.5763 214.62 32.6272Z" fill="#E0E0E0"/>
<path d="M207.956 17.6284H201.229V24.9H207.956V17.6284Z" fill="#EBEBEB"/>
<path d="M220.25 47.6704H192.67V78.7464H220.25V47.6704Z" fill="#E0E0E0"/>
<path d="M218.383 47.6704H190.803V78.7464H218.383V47.6704Z" fill="#FAFAFA"/>
<path d="M218.393 78.7539H190.796V47.6597H218.393V78.7539ZM190.813 78.7539H218.376V47.6779H190.813V78.7539Z" fill="#E0E0E0"/>
<path d="M214.677 51.8462H194.511V74.5663H214.677V51.8462Z" fill="white"/>
<path d="M194.511 74.7168C194.369 74.9467 194.203 75.1575 194.015 75.3447C193.677 75.7097 193.238 76.2062 192.731 76.7464C192.224 77.2867 191.758 77.7685 191.414 78.1117C191.24 78.3119 191.044 78.4873 190.829 78.6337C190.974 78.408 191.14 78.1999 191.326 78.0131C191.664 77.6481 192.103 77.148 192.609 76.6041C193.116 76.0601 193.586 75.5819 193.93 75.2388C194.105 75.0416 194.3 74.8665 194.511 74.7168Z" fill="#E0E0E0"/>
<path d="M214.677 74.6626C214.888 74.8177 215.082 74.9977 215.255 75.1992C215.593 75.5642 216.056 76.0388 216.556 76.5864C217.056 77.1339 217.501 77.6377 217.816 78.01C218.001 78.1981 218.164 78.4102 218.302 78.6415C218.092 78.4864 217.898 78.3065 217.724 78.1049C217.387 77.7581 216.924 77.2653 216.424 76.7178C215.924 76.1702 215.475 75.6628 215.161 75.2905C214.976 75.1041 214.813 74.8932 214.677 74.6626Z" fill="#E0E0E0"/>
<path d="M214.62 51.9047C214.765 51.6779 214.933 51.4686 215.12 51.2805C215.458 50.9154 215.893 50.4153 216.4 49.8751C216.907 49.3348 217.376 48.8566 217.717 48.5135C217.892 48.3139 218.088 48.1375 218.302 47.9878C218.161 48.2172 217.994 48.4268 217.805 48.612C217.467 48.9771 217.032 49.4772 216.522 50.0174C216.012 50.5577 215.542 51.0432 215.204 51.3827C215.031 51.5828 214.834 51.7583 214.62 51.9047Z" fill="#E0E0E0"/>
<path d="M194.457 51.9633C194.245 51.8079 194.05 51.6266 193.876 51.4231C193.538 51.0763 193.076 50.5871 192.579 50.0396C192.083 49.492 191.633 48.9882 191.316 48.6159C191.132 48.4256 190.969 48.2138 190.829 47.9844C191.042 48.1369 191.236 48.3171 191.407 48.521C191.745 48.8678 192.208 49.3606 192.711 49.9081C193.214 50.4557 193.657 50.9631 193.974 51.3355C194.157 51.5243 194.319 51.735 194.457 51.9633Z" fill="#E0E0E0"/>
<path d="M214.62 74.5669C214.62 74.5669 214.62 74.5267 214.62 74.4574C214.62 74.388 214.62 74.2749 214.62 74.1398C214.62 73.8551 214.62 73.4462 214.62 72.9132C214.62 71.8364 214.62 70.2703 214.6 68.2809C214.6 64.3019 214.576 58.6328 214.559 51.854L214.637 51.938H194.531L194.619 51.8431C194.619 60.1806 194.619 67.9852 194.619 74.5632L194.541 74.4793L209.101 74.5231L213.191 74.545H214.275H214.556H214.292H213.225L209.152 74.5669L194.541 74.6107H194.464V74.5267C194.464 67.956 194.464 60.1441 194.464 51.8066V51.708H194.558H214.664H214.745V51.792C214.745 58.6 214.718 64.2873 214.708 68.2809C214.708 70.263 214.708 71.8218 214.687 72.8913C214.687 73.417 214.687 73.8222 214.687 74.1033C214.687 74.2347 214.687 74.3369 214.687 74.4099C214.673 74.4659 214.65 74.5189 214.62 74.5669Z" fill="#E0E0E0"/>
<path d="M207.956 59.5713H201.229V66.8429H207.956V59.5713Z" fill="#EBEBEB"/>
<path d="M154.874 27.2283C154.775 30.912 153.667 34.4811 151.69 37.4836C149.713 40.4861 146.956 42.7869 143.768 44.0946C140.58 45.4022 137.105 45.6579 133.783 44.8292C130.461 44.0005 127.441 42.1248 125.105 39.4395C122.77 36.7543 121.225 33.3803 120.665 29.7451C120.105 26.1099 120.556 22.3768 121.961 19.0189C123.366 15.6609 125.661 12.8291 128.556 10.8821C131.451 8.93514 134.815 7.96057 138.223 8.08187C142.78 8.23441 147.094 10.3373 150.217 13.9279C153.34 17.5186 155.015 22.3028 154.874 27.2283Z" fill="#EBEBEB"/>
<path d="M151.25 27.2946C151.171 30.0986 150.324 32.8143 148.817 35.098C147.31 37.3817 145.209 39.1308 142.782 40.1238C140.354 41.1169 137.709 41.3094 135.18 40.6768C132.652 40.0443 130.353 38.6152 128.577 36.5704C126.8 34.5256 125.624 31.9571 125.198 29.1898C124.772 26.4225 125.115 23.5809 126.184 21.0245C127.253 18.4682 129 16.312 131.203 14.8289C133.406 13.3459 135.967 12.6025 138.561 12.6929C140.281 12.751 141.974 13.1747 143.543 13.94C145.112 14.7052 146.525 15.797 147.704 17.1529C148.882 18.5089 149.802 20.1024 150.41 21.8425C151.019 23.5826 151.304 25.4352 151.25 27.2946Z" fill="#EBEBEB"/>
<path d="M150.78 27.0861C150.769 27.01 150.764 26.9332 150.763 26.8562C150.763 26.6882 150.763 26.4656 150.74 26.1845C150.74 26.0348 150.739 25.8669 150.723 25.688C150.706 25.5092 150.679 25.323 150.655 25.093C150.61 24.6009 150.532 24.1129 150.422 23.6329C150.151 22.3023 149.695 21.0236 149.071 19.8401C147.428 16.7034 144.741 14.3613 141.557 13.2905C138.372 12.2197 134.93 12.5006 131.931 14.0761C131.65 14.2257 131.384 14.401 131.107 14.5652C130.828 14.7295 130.561 14.9149 130.306 15.1201C129.775 15.5131 129.27 15.9449 128.793 16.4123C128.321 16.9056 127.88 17.4325 127.473 17.9893C126.631 19.1292 125.966 20.4088 125.504 21.7784C124.522 24.6135 124.429 27.7186 125.24 30.6161C125.62 32.0166 126.209 33.3408 126.983 34.5366C127.355 35.1223 127.763 35.6797 128.206 36.2049C128.654 36.7042 129.132 37.1713 129.638 37.603C130.131 38.0274 130.651 38.414 131.195 38.7602C134.092 40.5542 137.515 41.081 140.76 40.2324C144.006 39.3838 146.827 37.2242 148.646 34.1971C149.338 33.0594 149.867 31.8152 150.216 30.5066C150.355 30.0289 150.463 29.5409 150.537 29.0464C150.574 28.8347 150.615 28.6412 150.642 28.4623C150.669 28.2835 150.672 28.0973 150.685 27.9695C150.712 27.6848 150.733 27.4621 150.75 27.2979C150.756 27.2218 150.766 27.1462 150.78 27.0715C150.787 27.148 150.787 27.2251 150.78 27.3015C150.78 27.4658 150.76 27.6885 150.743 27.9732C150.743 28.1229 150.723 28.2908 150.712 28.4696C150.702 28.6485 150.655 28.8347 150.621 29.0647C150.555 29.5585 150.456 30.0465 150.324 30.5248C149.991 31.8621 149.468 33.1354 148.774 34.2994C147.77 36.0071 146.442 37.4641 144.876 38.5732C143.311 39.6823 141.545 40.418 139.695 40.7314C137.358 41.1233 134.967 40.8335 132.768 39.8918C132.188 39.6422 131.624 39.3507 131.08 39.0193C130.525 38.6668 129.994 38.2741 129.489 37.8439C128.437 36.9678 127.525 35.9124 126.787 34.7192C125.995 33.494 125.393 32.1378 125.004 30.7037C124.177 27.7449 124.272 24.5747 125.274 21.6799C125.752 20.2805 126.436 18.9738 127.3 17.8104C127.718 17.2436 128.169 16.707 128.651 16.2043C129.14 15.7278 129.656 15.2863 130.198 14.8828C130.457 14.673 130.73 14.4851 131.016 14.3207C131.296 14.1527 131.573 13.9556 131.856 13.8205C132.423 13.5261 133.007 13.2748 133.606 13.0686C135.855 12.2784 138.258 12.1524 140.567 12.7035C142.393 13.146 144.112 14.0034 145.608 15.2187C147.105 16.434 148.345 17.9795 149.247 19.7525C149.868 20.9534 150.312 22.2514 150.564 23.6C150.67 24.0874 150.741 24.5829 150.777 25.0821C150.797 25.2974 150.824 25.4946 150.831 25.6807C150.837 25.8669 150.831 26.0275 150.831 26.1772C150.831 26.4619 150.831 26.6846 150.831 26.8525C150.823 26.9325 150.806 27.011 150.78 27.0861Z" fill="#E0E0E0"/>
<path d="M138.905 35.1318L138.865 37.6032L136.838 37.563L136.879 35.161C134.852 34.9895 132.934 34.2703 131.83 33.2993L132.995 30.6309C134.151 31.5379 135.506 32.1041 136.926 32.2736L136.983 28.5903C134.731 27.9515 132.215 27.09 132.255 23.936C132.296 21.5997 133.897 19.6249 137.125 19.289L137.166 16.8433L139.192 16.8798L139.152 19.2854C140.61 19.3994 142.022 19.8861 143.272 20.7054L142.208 23.3994C141.258 22.7775 140.203 22.3667 139.104 22.1911L139.044 25.9401C141.3 26.557 143.772 27.4222 143.721 30.5287C143.694 32.8394 142.114 34.7741 138.905 35.1318ZM137.024 25.3487L137.075 22.2203C135.991 22.4649 135.551 23.0964 135.538 23.8228C135.524 24.5493 136.132 25.0238 137.024 25.3487ZM140.445 30.7294C140.445 29.9592 139.875 29.5284 139.003 29.1817L138.953 32.2224C139.976 31.9998 140.435 31.434 140.445 30.7294Z" fill="#E0E0E0"/>
<path d="M154.009 43.9145C150.996 46.8739 147.332 48.95 143.366 49.9449C139.4 50.9398 135.265 50.8205 131.354 49.5982C124.852 47.5467 119.279 42.385 116.696 35.5733C115.409 32.1385 114.902 28.4206 115.218 24.7307C115.533 21.0407 116.662 17.4862 118.509 14.3645C122.258 8.03464 128.743 3.89142 135.653 3.17229C144.323 2.26699 152.898 6.55257 157.647 14.4886C158.352 15.6677 160.105 14.5725 159.396 13.3934C157.133 9.62788 154.053 6.51769 150.423 4.33401C146.793 2.15034 142.724 0.959468 138.571 0.86523C130.915 0.69366 123.319 4.30027 118.459 10.7213C116.065 13.8753 114.407 17.604 113.623 21.5944C112.839 25.5847 112.952 29.7201 113.953 33.6532C115.997 41.4761 121.522 47.773 128.452 50.8102C137.571 54.8256 148.203 52.5989 155.441 45.455C156.407 44.5023 154.968 42.9545 154.009 43.9036V43.9145Z" fill="#F5F5F5"/>
<path d="M152.131 13.763L160.389 7.75439V16.8403L152.131 13.763Z" fill="#F5F5F5"/>
<path d="M216.805 154.687C216.805 154.742 168.302 154.783 108.485 154.783C48.6681 154.783 0.151855 154.742 0.151855 154.687C0.151855 154.632 48.6445 154.592 108.485 154.592C168.326 154.592 216.805 154.636 216.805 154.687Z" fill="#263238"/>
<path d="M120.735 57.7937C120.735 57.7937 133.113 61.32 137.028 75.4289L131.782 77.9513C131.782 77.9513 130.577 68.1353 118.313 63.8607C111.677 61.5463 102.889 64.8098 100.457 67.8031L94.55 65.0471C98.4982 60.349 108.242 54.1141 120.735 57.7937Z" fill="#007BFF"/>
<path d="M140.395 71.8726L127.311 76.5633L137.352 82.0025L140.395 71.8726Z" fill="#007BFF"/>
<path d="M105.294 154.686L59.0234 154.657C53.4574 154.657 48.9486 149.546 48.9486 143.206L48.9722 11.444C48.9722 5.12153 53.4912 -0.00364846 59.0571 1.9488e-06L105.327 0.0292045C110.893 0.0292045 115.402 5.16168 115.402 11.4805L115.379 143.26C115.379 149.565 110.863 154.69 105.294 154.686Z" fill="#263238"/>
<path d="M105.28 4.69085H96.3098C95.1041 4.69085 94.128 5.84803 94.128 7.27534V9.1115C94.128 10.5388 93.1519 11.696 91.9496 11.696H74.4648C73.2625 11.696 72.2864 10.5352 72.2864 9.10784V7.25344C72.2864 5.82613 71.3103 4.66895 70.108 4.66895H66.9535H59.101C55.2001 4.66895 52.0389 8.2573 52.0389 12.6999L52.0153 141.308C52.0153 145.735 55.1731 149.338 59.0706 149.338L105.25 149.371C109.147 149.371 112.312 145.783 112.312 141.34L112.336 12.7327C112.336 8.28285 109.178 4.6945 105.28 4.69085Z" fill="white"/>
<path d="M61.7932 139.161V142.936C61.7963 143.011 61.7801 143.086 61.7464 143.153C61.7127 143.219 61.6627 143.274 61.6021 143.312C61.5414 143.349 61.4723 143.368 61.4024 143.366C61.3324 143.364 61.2643 143.342 61.2055 143.301L58.4593 141.414C58.4049 141.376 58.3601 141.324 58.3291 141.263C58.2981 141.202 58.2819 141.133 58.2819 141.063C58.2819 140.993 58.2981 140.925 58.3291 140.863C58.3601 140.802 58.4049 140.75 58.4593 140.713L61.1953 138.811C61.2533 138.768 61.3212 138.743 61.3915 138.739C61.4618 138.735 61.5317 138.752 61.5936 138.788C61.6555 138.824 61.7069 138.879 61.7421 138.944C61.7773 139.01 61.795 139.085 61.7932 139.161Z" fill="#E0E0E0"/>
<path d="M84.3505 141.012C84.3498 141.526 84.208 142.029 83.943 142.457C83.678 142.884 83.3017 143.217 82.8616 143.414C82.4215 143.61 81.9374 143.661 81.4705 143.56C81.0036 143.459 80.5749 143.211 80.2384 142.847C79.902 142.483 79.673 142.019 79.5803 141.514C79.4877 141.01 79.5356 140.487 79.7179 140.011C79.9003 139.536 80.2089 139.129 80.6049 138.844C81.0008 138.558 81.4663 138.405 81.9424 138.405C82.5814 138.406 83.1939 138.681 83.6454 139.17C84.0969 139.659 84.3505 140.321 84.3505 141.012Z" fill="#E0E0E0"/>
<path d="M105.439 138.745H102.261C101.912 138.745 101.629 139.05 101.629 139.427V142.873C101.629 143.25 101.912 143.556 102.261 143.556H105.439C105.788 143.556 106.071 143.25 106.071 142.873V139.427C106.071 139.05 105.788 138.745 105.439 138.745Z" fill="#E0E0E0"/>
<path d="M68.8007 51.1357H72.5159L71.7931 50.5406C72.3403 52.4875 72.8885 54.4344 73.4379 56.3813L76.0419 65.6534C76.2411 66.3834 76.4438 67.077 76.6431 67.7888C76.6896 67.958 76.7847 68.1069 76.9146 68.2138C77.0445 68.3208 77.2025 68.3803 77.3658 68.3839L87.9911 68.351H89.5143C90.4769 68.351 90.4802 66.7302 89.5143 66.7339L78.889 66.7631H77.3658L78.0886 67.3544L76.4472 61.5138L73.8398 52.2454L73.2386 50.1062C73.1921 49.937 73.097 49.7882 72.9671 49.6813C72.8372 49.5743 72.6792 49.5148 72.5159 49.5112H68.8007C67.8348 49.5112 67.8348 51.132 68.8007 51.132V51.1357Z" fill="#263238"/>
<path d="M91.8818 53.1975C91.1815 56.5851 90.4813 59.9727 89.781 63.3603C89.6831 63.8458 89.5818 64.3349 89.4804 64.8204L90.0242 64.3751L85.4748 64.3276L78.1797 64.251L76.5112 64.2327L77.0516 64.6781C76.0789 61.3246 75.104 57.9698 74.1268 54.6139L73.7148 53.1975L73.171 53.9641H92.4221C92.5638 53.9523 92.696 53.8831 92.7925 53.7704C92.889 53.6577 92.9426 53.5099 92.9426 53.3563C92.9426 53.2028 92.889 53.0549 92.7925 52.9423C92.696 52.8296 92.5638 52.7604 92.4221 52.7485H73.171C73.0848 52.7499 73 52.7724 72.9231 52.8145C72.8461 52.8565 72.7791 52.9169 72.727 52.9912C72.6749 53.0654 72.6391 53.1515 72.6224 53.243C72.6057 53.3344 72.6085 53.4287 72.6306 53.5188C73.6055 56.8723 74.5805 60.227 75.5554 63.583C75.6939 64.0539 75.8324 64.5284 75.9675 64.9993C76.0029 65.1264 76.0746 65.2382 76.1722 65.3189C76.2698 65.3995 76.3884 65.4448 76.5112 65.4483L81.0606 65.4958L88.3558 65.5724L90.0242 65.5907C90.1464 65.5883 90.2647 65.5438 90.3619 65.4637C90.4591 65.3836 90.5301 65.2721 90.5646 65.1453L92.6619 54.9789L92.9659 53.5188C93.1213 52.7558 92.0405 52.431 91.8818 53.1975Z" fill="#263238"/>
<path d="M77.0011 53.7156C77.5922 57.4208 78.3522 61.0967 78.9366 64.8019C79.0582 65.5721 80.1425 65.2436 80.0209 64.4807C79.4298 60.7718 78.6697 57.0995 78.0854 53.3907C77.9638 52.6241 76.8795 52.949 77.0011 53.7156Z" fill="#263238"/>
<path d="M82.935 53.555C82.9913 57.3563 83.051 61.1564 83.114 64.9553C83.114 65.7365 84.249 65.7401 84.2389 64.9553C84.1826 61.1564 84.1229 57.3563 84.0598 53.555C84.0598 52.7738 82.9249 52.7702 82.935 53.555Z" fill="#263238"/>
<path d="M88.4169 65.0941L89.8458 54.9678L90.0484 53.5077C90.0826 53.3525 90.0613 53.1891 89.9886 53.0503C89.9159 52.9115 89.7973 52.8076 89.6566 52.7593C89.5148 52.7241 89.366 52.7487 89.2404 52.8281C89.1149 52.9075 89.0221 53.0356 88.981 53.1864C88.5036 56.5594 88.0285 59.9348 87.5556 63.3127C87.488 63.7945 87.4171 64.2764 87.3495 64.7728C87.3153 64.928 87.3367 65.0914 87.4094 65.2302C87.4821 65.369 87.6007 65.473 87.7414 65.5212C87.8851 65.5638 88.0387 65.5432 88.1684 65.4639C88.2982 65.3845 88.3936 65.2529 88.4338 65.0977L88.4169 65.0941Z" fill="#263238"/>
<path d="M74.397 57.5203H91.3954C91.537 57.5084 91.6693 57.4392 91.7658 57.3265C91.8622 57.2139 91.9158 57.066 91.9158 56.9125C91.9158 56.759 91.8622 56.6111 91.7658 56.4984C91.6693 56.3857 91.537 56.3166 91.3954 56.3047H74.397C74.2554 56.3166 74.1231 56.3857 74.0267 56.4984C73.9302 56.6111 73.8766 56.759 73.8766 56.9125C73.8766 57.066 73.9302 57.2139 74.0267 57.3265C74.1231 57.4392 74.2554 57.5084 74.397 57.5203Z" fill="#263238"/>
<path d="M75.9912 61.7832H90.7099C90.8586 61.7832 91.0012 61.7194 91.1063 61.6057C91.2115 61.4921 91.2705 61.338 91.2705 61.1773C91.2705 61.0165 91.2115 60.8624 91.1063 60.7488C91.0012 60.6351 90.8586 60.5713 90.7099 60.5713H75.9912C75.8425 60.5713 75.6999 60.6351 75.5948 60.7488C75.4896 60.8624 75.4305 61.0165 75.4305 61.1773C75.4305 61.338 75.4896 61.4921 75.5948 61.6057C75.6999 61.7194 75.8425 61.7832 75.9912 61.7832Z" fill="#263238"/>
<path d="M89.5076 73.7127C90.612 73.7127 91.5073 72.7452 91.5073 71.5517C91.5073 70.3582 90.612 69.3906 89.5076 69.3906C88.4032 69.3906 87.5079 70.3582 87.5079 71.5517C87.5079 72.7452 88.4032 73.7127 89.5076 73.7127Z" fill="#263238"/>
<path d="M78.511 73.7127C79.6154 73.7127 80.5107 72.7452 80.5107 71.5517C80.5107 70.3582 79.6154 69.3906 78.511 69.3906C77.4066 69.3906 76.5114 70.3582 76.5114 71.5517C76.5114 72.7452 77.4066 73.7127 78.511 73.7127Z" fill="#263238"/>
<path d="M74.6774 42.4468C74.6774 42.4468 66.4534 42.1475 61.6305 50.0579L64.4405 52.6606C64.4405 52.6606 66.8621 46.8565 75.1434 46.6703C79.6286 46.5718 82.7088 49.3935 83.6984 51.7225L88.7814 51.6276C87.1433 47.9443 82.9993 42.6731 74.6774 42.4468Z" fill="#007BFF"/>
<path d="M60.5431 47.4805L67.8011 52.9816L61.2084 54.4272L60.5431 47.4805Z" fill="#007BFF"/>
<path d="M108.6 18.2381C108.601 18.413 108.554 18.5842 108.464 18.7299C108.375 18.8757 108.247 18.9895 108.098 19.0569C107.949 19.1243 107.784 19.1423 107.625 19.1087C107.467 19.075 107.321 18.9911 107.206 18.8677C107.091 18.7444 107.013 18.587 106.981 18.4155C106.95 18.244 106.966 18.0662 107.027 17.9046C107.089 17.743 107.194 17.6048 107.328 17.5075C107.463 17.4103 107.621 17.3584 107.783 17.3584C107.999 17.3584 108.207 17.451 108.36 17.6159C108.513 17.7807 108.599 18.0045 108.6 18.2381Z" fill="#263238"/>
<path d="M107.783 21.5339C108.234 21.5339 108.6 21.1384 108.6 20.6505C108.6 20.1626 108.234 19.7671 107.783 19.7671C107.331 19.7671 106.965 20.1626 106.965 20.6505C106.965 21.1384 107.331 21.5339 107.783 21.5339Z" fill="#263238"/>
<path d="M107.783 23.9465C108.234 23.9465 108.6 23.551 108.6 23.0631C108.6 22.5752 108.234 22.1797 107.783 22.1797C107.331 22.1797 106.965 22.5752 106.965 23.0631C106.965 23.551 107.331 23.9465 107.783 23.9465Z" fill="#263238"/>
<path d="M59.1146 17.8179L55.7811 20.5192H56.6289V23.7461L58.4256 23.7534V21.3369L59.8441 21.3296V23.7461H61.5801V20.4863L62.4447 20.4754L59.1146 17.8179Z" fill="#263238"/>
<path d="M112.548 27.1488C112.548 27.2002 98.9474 27.2443 82.1753 27.2443C65.4031 27.2443 51.8024 27.2002 51.8024 27.1488C51.8024 27.0973 65.3998 27.0532 82.1753 27.0532C98.9508 27.0532 112.548 27.0973 112.548 27.1488Z" fill="#E0E0E0"/>
<path d="M81.5337 87.9204H80.9933C79.1653 87.9204 77.6835 89.5221 77.6835 91.4978V120.278C77.6835 122.253 79.1653 123.855 80.9933 123.855H81.5337C83.3617 123.855 84.8435 122.253 84.8435 120.278V91.4978C84.8435 89.5221 83.3617 87.9204 81.5337 87.9204Z" fill="#E0E0E0"/>
<path d="M95.2054 106.742C95.2135 109.21 94.5439 111.625 93.2814 113.682C92.0189 115.738 90.2204 117.344 88.1133 118.295C86.0062 119.246 83.6854 119.501 81.4446 119.026C79.2037 118.551 77.1436 117.368 75.5249 115.628C73.9062 113.887 72.8017 111.666 72.3512 109.246C71.9007 106.827 72.1245 104.317 72.9941 102.035C73.8638 99.7528 75.3403 97.8009 77.2368 96.4262C79.1333 95.0514 81.3645 94.3157 83.648 94.3121C85.162 94.3077 86.662 94.6258 88.0623 95.2482C89.4626 95.8706 90.7357 96.785 91.8089 97.9392C92.8822 99.0935 93.7346 100.465 94.3173 101.975C94.9001 103.486 95.2019 105.105 95.2054 106.742Z" fill="#007BFF"/>
<path d="M92.7769 106.874C92.7803 108.75 92.2688 110.586 91.3071 112.149C90.3454 113.711 88.9767 114.931 87.374 115.653C85.7714 116.375 84.0066 116.567 82.3029 116.205C80.5991 115.843 79.0328 114.944 77.802 113.62C76.5711 112.296 75.731 110.608 75.3878 108.768C75.0445 106.929 75.2136 105.02 75.8736 103.284C76.5336 101.549 77.6549 100.063 79.0957 99.0159C80.5366 97.9687 82.2323 97.4067 83.9687 97.4009C85.1227 97.3971 86.2661 97.6391 87.3335 98.1133C88.4009 98.5874 89.3714 99.2842 90.1894 100.164C91.0075 101.044 91.6571 102.089 92.1011 103.241C92.545 104.392 92.7747 105.626 92.7769 106.874Z" fill="#007BFF"/>
<path d="M92.4595 106.746C92.4489 106.696 92.4432 106.644 92.4426 106.593C92.4426 106.48 92.4223 106.33 92.4122 106.14C92.4122 106.04 92.4055 105.931 92.3919 105.812C92.3919 105.687 92.3548 105.556 92.3312 105.414C92.2916 105.083 92.2295 104.756 92.1454 104.435C91.9357 103.551 91.6044 102.706 91.1626 101.928C90.521 100.785 89.6634 99.8024 88.646 99.0431C87.6287 98.2839 86.4745 97.7653 85.2589 97.5215C83.7285 97.2203 82.1515 97.3639 80.6893 97.9376C80.3 98.0895 79.9209 98.27 79.5545 98.4779C79.3721 98.5874 79.1965 98.7115 79.0141 98.8429C78.8308 98.9588 78.6558 99.0894 78.4906 99.2335C78.1431 99.512 77.8125 99.8144 77.501 100.139C77.1958 100.484 76.9115 100.85 76.6499 101.234C76.1094 102.019 75.6897 102.893 75.407 103.822C75.1204 104.78 74.9701 105.779 74.9612 106.786C74.974 107.793 75.1266 108.792 75.4138 109.75C75.6988 110.679 76.1208 111.552 76.6634 112.335C76.925 112.72 77.2105 113.086 77.5179 113.43C77.8294 113.754 78.16 114.057 78.5075 114.335C78.8468 114.606 79.2035 114.85 79.5747 115.065C79.9416 115.271 80.3207 115.451 80.7095 115.602C82.1737 116.173 83.7519 116.313 85.2825 116.007C86.6152 115.741 87.8714 115.141 88.9504 114.255C89.843 113.526 90.5985 112.619 91.1761 111.583C91.6153 110.803 91.9443 109.956 92.1522 109.071C92.2359 108.751 92.2969 108.424 92.3345 108.093C92.3548 107.951 92.3818 107.819 92.3919 107.699C92.4021 107.578 92.3919 107.469 92.4122 107.367C92.4257 107.177 92.4358 107.027 92.4426 106.918C92.4432 106.866 92.4489 106.815 92.4595 106.764C92.464 106.815 92.464 106.867 92.4595 106.918V107.37C92.4595 107.469 92.4595 107.582 92.4595 107.702C92.4595 107.823 92.4291 107.958 92.4088 108.104C92.3774 108.437 92.3209 108.767 92.24 109.09C92.0464 109.99 91.7239 110.852 91.2842 111.645C90.6443 112.812 89.7828 113.819 88.7564 114.6C87.73 115.381 86.5622 115.918 85.3298 116.175C83.7723 116.494 82.1643 116.356 80.6724 115.777C80.2751 115.625 79.8881 115.443 79.5139 115.233C79.1344 115.019 78.7699 114.775 78.423 114.503C78.0676 114.22 77.7292 113.913 77.4098 113.583C77.0975 113.239 76.8065 112.873 76.5385 112.488C75.9825 111.689 75.5502 110.798 75.2584 109.849C74.6438 107.886 74.6438 105.759 75.2584 103.797C75.5467 102.847 75.9755 101.955 76.5283 101.154C76.7945 100.767 77.0857 100.401 77.3997 100.059C77.7182 99.7268 78.0567 99.4183 78.4129 99.135C78.5815 98.9883 78.7598 98.8553 78.9465 98.7371C79.1323 98.6203 79.3113 98.4925 79.5004 98.372C79.8745 98.161 80.2616 97.9781 80.6589 97.8245C82.1499 97.2419 83.7579 97.1007 85.3163 97.4156C86.6677 97.6916 87.9403 98.3068 89.0314 99.2116C89.935 99.9514 90.6958 100.875 91.2706 101.931C91.7135 102.724 92.0394 103.586 92.2366 104.486C92.316 104.811 92.3724 105.142 92.4055 105.476C92.4257 105.618 92.446 105.753 92.4561 105.874V106.209C92.4561 106.399 92.4561 106.549 92.4561 106.662C92.4586 106.69 92.4597 106.718 92.4595 106.746Z" fill="#263238"/>
<g opacity="0.3">
<path d="M92.3883 106.843C92.3376 106.843 92.3005 106.427 92.1586 105.701C91.9623 104.677 91.6205 103.692 91.1454 102.78C90.8204 102.161 90.4331 101.582 89.9903 101.054C89.4828 100.455 88.9062 99.9283 88.2746 99.4878C87.9359 99.2506 87.5815 99.0407 87.2141 98.8599C86.4336 98.4739 85.6035 98.2179 84.752 98.1007C84.304 98.0403 83.8523 98.0172 83.401 98.0313C82.9531 98.0487 82.5071 98.1036 82.067 98.1956C81.639 98.282 81.2178 98.404 80.8072 98.5606C80.4101 98.7133 80.025 98.9001 79.6555 99.1191C79.3019 99.3261 78.9632 99.5616 78.6423 99.8237C78.0375 100.309 77.4927 100.876 77.0211 101.51C76.6124 102.068 76.2613 102.673 75.9742 103.313C75.557 104.254 75.2768 105.259 75.1433 106.292C75.0454 107.022 75.0319 107.446 74.9812 107.449C74.9305 107.453 74.8664 107.033 74.8832 106.267C74.9257 105.176 75.1547 104.103 75.5587 103.102C76.3293 101.16 77.6692 99.5468 79.3718 98.5095C79.7681 98.2689 80.1815 98.0626 80.6079 97.8926C81.0473 97.7152 81.499 97.5761 81.9589 97.4764C82.4345 97.376 82.9167 97.3162 83.401 97.2976C83.8851 97.2827 84.3695 97.3083 84.8499 97.3742C85.3153 97.4399 85.775 97.5461 86.2245 97.6918C87.0782 97.9674 87.888 98.3823 88.6259 98.922C89.2932 99.4072 89.8965 99.988 90.4193 100.649C90.8714 101.226 91.2601 101.858 91.5777 102.532C92.033 103.505 92.3202 104.559 92.4254 105.642C92.4795 106.42 92.4288 106.843 92.3883 106.843Z" fill="black"/>
</g>
<g opacity="0.3">
<path d="M84.6645 112.418L84.6882 114.072L83.3203 114.097L83.2967 112.484C81.9457 112.418 80.6387 111.984 79.8754 111.36L80.6015 109.534C81.3961 110.112 82.3151 110.458 83.2696 110.538L83.2325 108.071C81.7093 107.706 80.0071 107.176 79.9767 105.063C79.953 103.497 80.9899 102.142 83.1447 101.832L83.121 100.189L84.4889 100.167L84.5125 101.777C85.4907 101.82 86.4455 102.113 87.2989 102.632L86.6437 104.457C85.994 104.065 85.2788 103.817 84.5395 103.727L84.5767 106.238C86.0999 106.603 87.7751 107.118 87.8055 109.199C87.8291 110.761 86.8092 112.108 84.6645 112.418ZM83.2021 105.906L83.1717 103.807C82.4489 103.997 82.1585 104.431 82.1754 104.92C82.1923 105.409 82.5975 105.72 83.2021 105.913V105.906ZM85.6068 109.429C85.6068 108.914 85.1981 108.64 84.5936 108.425L84.624 110.465C85.3197 110.301 85.6136 109.91 85.6068 109.436V109.429Z" fill="black"/>
</g>
<path d="M77.4199 89.3618H64.0995V121.544H77.4199V89.3618Z" fill="white"/>
<path d="M151.351 103.927C151.89 106.5 151.711 109.187 150.835 111.649C149.96 114.111 148.429 116.237 146.436 117.758C144.442 119.279 142.076 120.126 139.637 120.193C137.197 120.259 134.794 119.542 132.732 118.132C130.67 116.722 129.042 114.683 128.052 112.272C127.063 109.861 126.758 107.187 127.176 104.588C127.593 101.99 128.715 99.5837 130.398 97.6745C132.082 95.7653 134.252 94.4389 136.633 93.8631C138.211 93.4792 139.843 93.4349 141.437 93.7329C143.03 94.0309 144.554 94.6653 145.921 95.5999C147.288 96.5345 148.471 97.7509 149.403 99.1797C150.334 100.609 150.997 102.222 151.351 103.927Z" fill="#007BFF"/>
<path d="M148.845 104.672C149.256 106.632 149.12 108.68 148.454 110.556C147.787 112.432 146.621 114.052 145.102 115.211C143.583 116.371 141.78 117.017 139.921 117.068C138.063 117.12 136.232 116.574 134.66 115.499C133.089 114.425 131.847 112.871 131.093 111.034C130.339 109.197 130.106 107.16 130.424 105.18C130.742 103.2 131.596 101.366 132.879 99.9111C134.161 98.4561 135.815 97.445 137.629 97.006C138.831 96.7131 140.075 96.6791 141.289 96.9059C142.504 97.1326 143.665 97.6158 144.706 98.3276C145.748 99.0395 146.65 99.9662 147.36 101.055C148.07 102.143 148.575 103.372 148.845 104.672Z" fill="#007BFF"/>
<path d="M148.487 104.617C148.466 104.568 148.449 104.517 148.437 104.464L148.308 104L148.217 103.661C148.177 103.537 148.123 103.405 148.072 103.263C147.958 102.929 147.823 102.605 147.667 102.292C147.258 101.421 146.731 100.621 146.103 99.919C144.609 98.2279 142.617 97.1504 140.469 96.8708C138.321 96.5911 136.149 97.1267 134.326 98.3859C133.953 98.6419 133.597 98.9249 133.259 99.2328C133.09 99.3934 132.921 99.5686 132.769 99.7329C132.603 99.9004 132.448 100.081 132.306 100.273C132.003 100.65 131.725 101.049 131.472 101.467C131.226 101.899 131.007 102.349 130.817 102.814C130.421 103.768 130.172 104.785 130.077 105.825C129.865 107.981 130.313 110.152 131.354 112.006C131.85 112.903 132.477 113.708 133.212 114.389C133.911 115.065 134.71 115.611 135.576 116.003C135.988 116.204 136.414 116.372 136.849 116.507C137.275 116.629 137.708 116.721 138.146 116.78C140.292 117.078 142.468 116.561 144.301 115.318C146.134 114.075 147.511 112.183 148.197 109.965C148.49 109.043 148.652 108.078 148.677 107.103C148.694 106.748 148.688 106.392 148.66 106.037C148.66 105.884 148.66 105.741 148.633 105.61C148.606 105.479 148.599 105.365 148.582 105.245C148.555 105.044 148.535 104.88 148.518 104.767C148.508 104.713 148.503 104.658 148.501 104.603C148.518 104.655 148.53 104.708 148.538 104.763C148.558 104.88 148.585 105.037 148.623 105.238C148.638 105.345 148.659 105.466 148.683 105.603C148.683 105.734 148.704 105.877 148.717 106.033C148.754 106.39 148.765 106.749 148.751 107.107C148.741 108.092 148.589 109.07 148.302 110.005C147.886 111.381 147.204 112.646 146.301 113.716C145.399 114.786 144.296 115.636 143.067 116.211C141.511 116.934 139.805 117.194 138.126 116.963C137.678 116.905 137.234 116.814 136.798 116.689C136.354 116.552 135.92 116.381 135.498 116.178C135.068 115.973 134.65 115.738 134.248 115.473C133.846 115.19 133.462 114.876 133.1 114.535C132.348 113.843 131.707 113.022 131.202 112.104C130.684 111.158 130.301 110.133 130.067 109.063C129.858 107.984 129.799 106.876 129.895 105.778C129.993 104.716 130.249 103.678 130.655 102.704C130.85 102.229 131.076 101.769 131.33 101.328C131.59 100.904 131.876 100.5 132.185 100.116C132.33 99.9204 132.488 99.7362 132.658 99.565C132.827 99.397 132.995 99.2182 133.158 99.0575C133.501 98.7424 133.866 98.4545 134.248 98.1961C135.678 97.2152 137.325 96.6645 139.017 96.6008C140.357 96.5549 141.691 96.8176 142.931 97.3715C144.17 97.9253 145.286 98.7576 146.204 99.8132C146.833 100.526 147.356 101.34 147.755 102.226C147.907 102.545 148.038 102.876 148.146 103.215C148.197 103.361 148.248 103.493 148.285 103.617C148.322 103.741 148.342 103.858 148.366 103.982L148.477 104.449C148.486 104.505 148.489 104.561 148.487 104.617Z" fill="#263238"/>
<g opacity="0.3">
<path d="M148.437 104.753C148.383 104.753 148.254 104.34 147.95 103.618C147.523 102.601 146.954 101.661 146.262 100.832C145.789 100.27 145.261 99.7643 144.688 99.3247C144.029 98.8263 143.314 98.4214 142.56 98.12C141.731 97.7879 140.862 97.5899 139.98 97.5323C139.516 97.4995 139.051 97.5069 138.588 97.5542C138.116 97.6049 137.647 97.6927 137.187 97.817C136.726 97.9495 136.274 98.1179 135.836 98.3208C135.408 98.5217 134.996 98.7585 134.603 99.029C133.857 99.5415 133.183 100.169 132.604 100.891C132.077 101.547 131.632 102.275 131.28 103.055C130.972 103.74 130.735 104.458 130.57 105.198C130.339 106.284 130.263 107.402 130.344 108.513C130.402 109.305 130.479 109.743 130.422 109.758C130.364 109.772 130.212 109.356 130.084 108.549C129.885 107.405 129.885 106.23 130.084 105.085C130.378 103.369 131.076 101.763 132.11 100.423C132.406 100.033 132.729 99.6665 133.076 99.3283C133.437 98.9769 133.824 98.6571 134.231 98.3719C134.653 98.0761 135.096 97.8173 135.555 97.598C136.03 97.3753 136.52 97.1922 137.021 97.0504C137.522 96.9128 138.033 96.8176 138.548 96.7657C139.048 96.722 139.551 96.722 140.051 96.7657C140.535 96.8018 141.016 96.8799 141.489 96.9993C141.943 97.1097 142.388 97.2586 142.82 97.4447C143.619 97.7843 144.372 98.2386 145.059 98.7953C145.654 99.2836 146.195 99.8447 146.67 100.467C147.355 101.367 147.882 102.395 148.224 103.501C148.44 104.278 148.477 104.731 148.437 104.753Z" fill="black"/>
</g>
<g opacity="0.3">
<path d="M141.577 112.495L141.959 114.218L140.537 114.583L140.165 112.911C138.737 113.181 137.285 113.053 136.356 112.593L136.724 110.52C137.676 110.92 138.709 111.045 139.72 110.885L139.152 108.33C137.484 108.33 135.596 108.209 135.099 106.012C134.741 104.384 135.525 102.704 137.71 101.847L137.332 100.142L138.754 99.7769L139.125 101.452C140.155 101.25 141.214 101.315 142.216 101.642L141.925 103.716C141.159 103.468 140.356 103.388 139.561 103.478L140.138 106.092C141.807 106.092 143.664 106.205 144.144 108.37C144.522 109.965 143.745 111.63 141.577 112.495ZM138.656 106.074L138.173 103.884C137.46 104.249 137.261 104.785 137.372 105.289C137.484 105.793 137.984 106.023 138.659 106.074H138.656ZM141.915 109.133C141.797 108.596 141.317 108.403 140.655 108.337L141.125 110.458C141.807 110.115 142.03 109.637 141.915 109.133Z" fill="black"/>
</g>
<path d="M124.727 98.0938C123.959 99.8501 122.879 101.426 121.547 102.73C120.216 104.035 118.66 105.044 116.968 105.699C115.276 106.354 113.481 106.642 111.686 106.547C109.891 106.453 108.131 105.976 106.506 105.146C105.778 104.775 105.08 104.337 104.422 103.836C102.304 102.205 100.66 99.9556 99.6824 97.3507C98.7051 94.7458 98.4354 91.8937 98.9048 89.129C99.3741 86.3642 100.563 83.8015 102.332 81.7413C104.102 79.6811 106.378 78.209 108.894 77.4975C111.41 76.786 114.061 76.8646 116.537 77.7243C119.013 78.5839 121.211 80.1888 122.873 82.3508C124.535 84.5128 125.593 87.1422 125.921 89.9306C126.249 92.719 125.835 95.5508 124.727 98.0938Z" fill="#007BFF"/>
<path d="M122.059 96.9038C121.183 98.9254 119.771 100.621 118.003 101.775C116.235 102.929 114.189 103.49 112.126 103.387C110.063 103.285 108.074 102.523 106.411 101.198C104.749 99.8732 103.487 98.0451 102.786 95.945C102.085 93.8449 101.976 91.5673 102.473 89.4003C102.97 87.2334 104.051 85.2745 105.579 83.7717C107.106 82.2689 109.012 81.2896 111.055 80.9578C113.097 80.626 115.185 80.9567 117.054 81.9079C118.294 82.5369 119.407 83.4239 120.33 84.518C121.252 85.6122 121.967 86.8922 122.431 88.2849C122.896 89.6775 123.103 91.1555 123.039 92.6343C122.975 94.1132 122.642 95.564 122.059 96.9038Z" fill="#007BFF"/>
<path d="M121.779 96.59C121.794 96.5317 121.812 96.4745 121.833 96.4184C121.877 96.2943 121.938 96.13 122.012 95.9183L122.147 95.5532C122.188 95.4182 122.225 95.2612 122.269 95.0969C122.38 94.721 122.466 94.3367 122.525 93.947C122.719 92.8833 122.761 91.7939 122.65 90.7164C122.407 88.1298 121.34 85.7151 119.63 83.8857C117.921 82.0563 115.677 80.9261 113.281 80.6887C112.792 80.6374 112.3 80.6228 111.809 80.6449C111.562 80.6449 111.316 80.6997 111.066 80.7253C110.814 80.7489 110.565 80.7928 110.319 80.8567C109.297 81.057 108.313 81.4407 107.408 81.9919C106.459 82.5365 105.598 83.2442 104.858 84.0873C103.313 85.8236 102.337 88.0602 102.082 90.4536C101.952 91.6071 101.995 92.7757 102.21 93.9142C102.394 95.0185 102.746 96.082 103.254 97.0608C103.489 97.5414 103.757 98.0025 104.054 98.4407C104.351 98.8628 104.674 99.2628 105.02 99.638C106.327 101.056 107.959 102.073 109.749 102.584C111.169 102.984 112.651 103.056 114.099 102.795C115.546 102.533 116.926 101.944 118.148 101.065C118.988 100.47 119.739 99.7419 120.377 98.9043C120.616 98.6053 120.835 98.2881 121.033 97.9552C121.124 97.8128 121.211 97.6851 121.279 97.5646L121.458 97.2178L121.701 96.7506C121.726 96.6957 121.756 96.6432 121.789 96.5936C121.771 96.6516 121.748 96.7077 121.721 96.7615C121.664 96.8783 121.59 97.039 121.495 97.2397L121.326 97.6048C121.259 97.7289 121.174 97.8603 121.087 98.0063C120.894 98.3456 120.678 98.6689 120.441 98.9737C119.81 99.8302 119.061 100.576 118.219 101.186C116.985 102.09 115.588 102.7 114.119 102.976C112.651 103.251 111.145 103.186 109.701 102.785C108.295 102.4 106.98 101.701 105.838 100.733C104.697 99.7657 103.756 98.5508 103.075 97.1667C102.826 96.6681 102.609 96.1522 102.423 95.6226C102.248 95.0775 102.108 94.5201 102.004 93.9544C101.784 92.7931 101.74 91.601 101.873 90.4244C102.135 87.9792 103.132 85.6943 104.71 83.9194C105.465 83.0599 106.344 82.3387 107.314 81.7839C107.782 81.5041 108.269 81.2602 108.769 81.0538C109.265 80.8729 109.772 80.7266 110.286 80.6157C110.536 80.5521 110.79 80.5082 111.046 80.4843C111.302 80.4588 111.556 80.4186 111.805 80.4077C114.196 80.3018 116.551 81.0625 118.496 82.5687C119.702 83.5157 120.707 84.729 121.445 86.1281C122.183 87.5272 122.638 89.0801 122.779 90.6836C122.881 91.7739 122.826 92.8748 122.616 93.947C122.551 94.3386 122.459 94.7242 122.34 95.1006C122.289 95.2648 122.252 95.4182 122.204 95.5569C122.157 95.6956 122.103 95.8124 122.059 95.9219L121.86 96.4147C121.841 96.4769 121.813 96.5359 121.779 96.59Z" fill="#263238"/>
<g opacity="0.3">
<path d="M121.651 96.66C121.593 96.6345 121.749 96.1672 121.938 95.3094C122.207 94.106 122.303 92.8648 122.221 91.6297C122.162 90.7867 122.019 89.9531 121.792 89.1438C121.53 88.2213 121.159 87.3392 120.688 86.5192C120.435 86.0773 120.151 85.6563 119.84 85.2598C119.518 84.8465 119.168 84.4597 118.793 84.1026C118.405 83.732 117.991 83.3951 117.554 83.0951C116.654 82.4768 115.669 82.0161 114.636 81.7298C113.178 81.3291 111.656 81.2854 110.181 81.6021C109.305 81.7924 108.455 82.1028 107.651 82.5256C106.95 82.901 106.289 83.3575 105.679 83.8872C104.79 84.6684 104.017 85.5931 103.389 86.6287C102.94 87.3588 102.73 87.8078 102.673 87.7786C102.616 87.7494 102.744 87.2712 103.122 86.4571C103.676 85.3094 104.42 84.2812 105.317 83.4236C105.935 82.8283 106.615 82.3137 107.344 81.8904C108.188 81.4069 109.089 81.0484 110.022 80.8245C110.526 80.7036 111.037 80.6243 111.552 80.5872C112.649 80.5059 113.751 80.6106 114.818 80.8975C115.935 81.1963 116.999 81.6895 117.969 82.3577C118.439 82.683 118.882 83.0492 119.297 83.4528C120.083 84.2154 120.757 85.1029 121.296 86.0848C122.213 87.7435 122.72 89.629 122.768 91.5604C122.805 92.8539 122.619 94.1435 122.221 95.3641C121.955 96.2585 121.701 96.6819 121.651 96.66Z" fill="black"/>
</g>
<g opacity="0.3">
<path d="M110.748 98.4153L109.995 100.204L108.519 99.4739L109.249 97.7326C107.827 96.9186 106.628 95.7322 106.104 94.648L107.736 93.0966C108.314 94.1581 109.138 95.0386 110.127 95.6519L111.248 92.9834C109.789 91.7459 108.209 90.2566 109.161 87.9678C109.874 86.274 111.623 85.3796 114.079 86.2375L114.825 84.4634L116.304 85.1935L115.571 86.9238C116.604 87.5038 117.493 88.3424 118.165 89.3695L116.601 90.9721C116.089 90.1946 115.438 89.5356 114.686 89.0337L113.545 91.7496C115.014 92.9688 116.568 94.4473 115.622 96.6996C114.926 98.3641 113.207 99.2512 110.748 98.4153ZM112.234 90.6253L113.187 88.3547C112.322 88.1612 111.819 88.4752 111.596 89.0008C111.373 89.5265 111.677 90.0814 112.234 90.6253ZM113.163 95.7358C113.396 95.1773 113.096 94.6626 112.559 94.1114L111.633 96.3017C112.447 96.4915 112.947 96.2359 113.163 95.7249V95.7358Z" fill="black"/>
</g>
<path d="M37.9246 72.7935C33.9696 75.0056 30.9367 78.8203 28.7549 83.0146C26.5731 87.2089 25.1715 91.8194 23.7767 96.3934L22.5608 119.979C27.1608 111.517 30.8557 101.57 31.8554 91.8121L28.7921 91.5164C30.8455 91.1769 32.568 89.5707 33.6657 87.6616C34.7633 85.7524 35.3273 83.5804 35.8643 81.3902L32.1492 81.9961C35.0964 79.8441 37.1644 76.5488 37.9246 72.7935Z" fill="#455A64"/>
<g opacity="0.3">
<path d="M37.9246 72.7935C33.9696 75.0056 30.9367 78.8203 28.7549 83.0146C26.5731 87.2089 25.1715 91.8194 23.7767 96.3934L22.5608 119.979C27.1608 111.517 30.8557 101.57 31.8554 91.8121L28.7921 91.5164C30.8455 91.1769 32.568 89.5707 33.6657 87.6616C34.7633 85.7524 35.3273 83.5804 35.8643 81.3902L32.1492 81.9961C35.0964 79.8441 37.1644 76.5488 37.9246 72.7935Z" fill="black"/>
</g>
<path d="M21.8789 125.508C21.8789 125.508 11.8852 112.586 12.0034 100.248H16.0563C16.0563 100.248 11.6657 97.1338 12.0034 95.3889C12.3411 93.644 12.4661 87.0404 12.4661 87.0404L16.1542 88.0369C16.1542 88.0369 13.3881 86.5403 13.0436 84.1748C12.6991 81.8093 13.8475 70.8398 13.8475 70.8398C13.8475 70.8398 18.3461 75.9504 19.7275 81.1815C21.1089 86.4125 24.7429 92.5233 23.679 108.472C22.6152 124.421 21.8789 125.508 21.8789 125.508Z" fill="#455A64"/>
<path d="M26.9412 126.727C26.9412 126.727 37.7488 118.934 40.1704 108.99L36.9247 108.037C36.9247 108.037 41.0789 106.577 41.1532 105.088C41.2276 103.598 42.4738 98.2651 42.4738 98.2651L39.3058 98.192C39.3058 98.192 41.8321 97.6445 42.5886 95.8229C43.3452 94.0014 44.6455 84.9082 44.6455 84.9082C44.6455 84.9082 39.9982 87.9526 37.8265 91.844C35.6548 95.7353 31.4905 99.7654 29.1095 112.841C26.7284 125.917 26.9412 126.727 26.9412 126.727Z" fill="#455A64"/>
<path d="M16.5762 82.1201C16.594 82.1619 16.6065 82.2061 16.6133 82.2515C16.6336 82.3501 16.664 82.4815 16.7011 82.6494L17.0152 84.1826C17.1537 84.8506 17.3158 85.6647 17.4881 86.6174C17.6603 87.5702 17.8731 88.6471 18.0757 89.848C18.5013 92.2464 18.9539 95.1083 19.4267 98.2951C19.8995 101.482 20.3285 105.001 20.727 108.699C21.1255 112.397 21.4227 115.93 21.6592 119.15C21.8956 122.37 22.0442 125.268 22.1354 127.706C22.1894 128.922 22.2164 130.028 22.2468 130.992C22.2772 131.956 22.2907 132.795 22.2975 133.478C22.3042 134.16 22.2975 134.679 22.2975 135.047V135.456C22.3026 135.502 22.3026 135.549 22.2975 135.595C22.2928 135.549 22.2928 135.502 22.2975 135.456C22.2975 135.358 22.2975 135.223 22.2975 135.051C22.2975 134.686 22.2671 134.153 22.2468 133.478C22.2266 132.802 22.2029 131.963 22.1624 130.995C22.1219 130.028 22.0915 128.926 22.0273 127.71C21.9226 125.275 21.7436 122.377 21.5139 119.161C21.2843 115.945 20.96 112.419 20.5683 108.721C20.1765 105.023 19.7273 101.511 19.2848 98.3243C18.8424 95.1375 18.3932 92.2719 17.9812 89.8736C17.7853 88.6726 17.586 87.5884 17.4205 86.6393C17.255 85.6902 17.103 84.8689 16.9747 84.2009L16.691 82.6567C16.664 82.4888 16.6403 82.3574 16.6235 82.2552C16.6052 82.2112 16.5894 82.1661 16.5762 82.1201Z" fill="#263238"/>
<path d="M20.494 133.423C20.494 133.423 11.3514 122.213 8.50766 115.434L10.6489 114.445C9.09532 114.722 7.50457 113.999 6.29884 112.904C5.09311 111.809 4.21161 110.367 3.34362 108.947L6.16712 108.432C3.57248 107.634 1.36322 105.783 0 103.267C3.33011 103.862 6.34275 105.822 8.82851 108.308C10.8018 110.358 12.594 112.601 14.1817 115.01C14.9864 116.166 15.6875 117.402 16.2757 118.701C17.7955 122.132 20.4974 129.305 20.494 133.423Z" fill="#455A64"/>
<path d="M40.3127 91.436C40.3037 91.4755 40.2901 91.5135 40.2722 91.5492L40.1303 91.8741C39.9986 92.1698 39.8095 92.5859 39.5731 93.1189C39.0833 94.1958 38.3876 95.7581 37.5466 97.7038C36.7057 99.6495 35.733 101.971 34.6894 104.574C33.6457 107.177 32.5548 110.049 31.4606 113.112C30.3663 116.175 29.3936 119.099 28.5357 121.778C27.6779 124.458 26.9551 126.889 26.3708 128.94C25.7865 130.992 25.3238 132.653 25.0199 133.806C24.8645 134.372 24.7463 134.818 24.6585 135.131L24.5605 135.475C24.5521 135.514 24.5384 135.552 24.52 135.588C24.52 135.588 24.52 135.548 24.5437 135.467L24.6247 135.121C24.7024 134.803 24.8139 134.358 24.9625 133.784C25.2495 132.627 25.6886 130.955 26.2628 128.9C26.8369 126.845 27.5529 124.41 28.3939 121.723C29.2349 119.037 30.2177 116.102 31.3086 113.043C32.3995 109.984 33.5106 107.107 34.5509 104.505C35.5911 101.902 36.5773 99.5801 37.4453 97.6454C38.3133 95.7107 39.0023 94.1665 39.5123 93.0714C39.7622 92.5458 39.9581 92.1333 40.0999 91.8449C40.1641 91.7098 40.2148 91.6076 40.2553 91.5273C40.2713 91.4947 40.2906 91.4641 40.3127 91.436Z" fill="#263238"/>
<path d="M21.2672 138.226C21.2453 138.159 21.2317 138.089 21.2267 138.018L21.1355 137.423C21.1017 137.164 21.0578 136.85 20.9937 136.485C20.9295 136.12 20.8755 135.7 20.7843 135.244C20.6188 134.324 20.3857 133.24 20.0852 132.05C19.7846 130.86 19.4097 129.564 18.9368 128.232C18.464 126.899 17.9574 125.654 17.4609 124.541C16.9644 123.428 16.4713 122.453 16.0323 121.646C15.8229 121.237 15.6101 120.883 15.4345 120.551C15.2589 120.219 15.0967 119.963 14.965 119.744L14.6678 119.237C14.6305 119.179 14.5988 119.116 14.5732 119.051C14.5732 119.051 14.6205 119.102 14.6982 119.215L15.0359 119.704C15.1778 119.916 15.3467 120.182 15.529 120.496C15.7114 120.81 15.9377 121.179 16.1404 121.577C16.5929 122.376 17.0928 123.355 17.6095 124.464C18.1263 125.574 18.6227 126.826 19.099 128.162C19.5752 129.498 19.9399 130.809 20.2405 132.002C20.5411 133.196 20.7573 134.295 20.916 135.218C21.0004 135.678 21.0511 136.098 21.1017 136.467C21.1524 136.836 21.1896 137.153 21.2166 137.416C21.2436 137.679 21.2571 137.858 21.2706 138.015C21.2777 138.085 21.2766 138.156 21.2672 138.226Z" fill="#263238"/>
<path d="M33.3314 135.587H13.3237V139.997H33.3314V135.587Z" fill="#007BFF"/>
<path d="M15.2285 140L17.3934 154.836H29.4845L31.5008 140H15.2285Z" fill="#007BFF"/>
<path d="M32.1021 140.002C32.1021 140.053 28.3194 140.097 23.6586 140.097C18.9978 140.097 15.2151 140.053 15.2151 140.002C15.2151 139.95 18.9978 139.906 23.6586 139.906C28.3194 139.906 32.1021 139.947 32.1021 140.002Z" fill="#263238"/>
<path d="M180.481 110.527H127.902C126.434 110.527 125.244 111.814 125.244 113.4V152.127C125.244 153.714 126.434 155 127.902 155H180.481C181.949 155 183.139 153.714 183.139 152.127V113.4C183.139 111.814 181.949 110.527 180.481 110.527Z" fill="#455A64"/>
<path d="M182.285 128.681H167.299C164.813 128.681 162.797 130.859 162.797 133.547V134.346C162.797 137.034 164.813 139.212 167.299 139.212H182.285C184.771 139.212 186.787 137.034 186.787 134.346V133.547C186.787 130.859 184.771 128.681 182.285 128.681Z" fill="#455A64"/>
<path d="M182.288 139.395H167.303C166.064 139.393 164.876 138.86 163.999 137.913C163.123 136.966 162.63 135.682 162.628 134.343V133.547C162.63 132.208 163.123 130.925 164 129.978C164.876 129.032 166.064 128.5 167.303 128.499H182.288C183.526 128.5 184.714 129.033 185.589 129.979C186.465 130.926 186.957 132.209 186.959 133.547V134.343C186.957 135.682 186.465 136.965 185.589 137.912C184.714 138.859 183.527 139.392 182.288 139.395ZM167.303 128.864C166.153 128.865 165.051 129.358 164.238 130.236C163.426 131.114 162.968 132.305 162.966 133.547V134.343C162.967 135.586 163.424 136.777 164.237 137.656C165.05 138.535 166.153 139.029 167.303 139.03H182.288C183.437 139.028 184.539 138.533 185.351 137.655C186.164 136.776 186.621 135.585 186.621 134.343V133.547C186.62 132.306 186.163 131.115 185.35 130.237C184.538 129.36 183.437 128.866 182.288 128.864H167.303Z" fill="#263238"/>
<path d="M171.006 136.082C172.106 134.392 171.73 132.058 170.166 130.869C168.602 129.68 166.443 130.086 165.343 131.777C164.243 133.467 164.619 135.801 166.183 136.99C167.747 138.179 169.907 137.773 171.006 136.082Z" fill="#263238"/>
<path d="M163.959 30.0356C163.918 31.9617 164.256 33.8751 164.95 35.6496C165.644 37.4241 166.678 39.0193 167.985 40.3298C168.581 38.4511 169.181 36.5723 169.785 34.6936" fill="#263238"/>
<path d="M177.526 18.8253C175.979 17.9127 174.115 17.7812 172.389 18.1572C170.67 18.5879 169.028 19.3204 167.529 20.3256C166.648 20.8175 165.86 21.4822 165.205 22.2858C164.084 23.8117 162.976 26.3013 162.868 28.2616C162.78 29.8349 163.337 33.77 163.952 35.1974C164.516 36.5079 167.157 37.5044 168.461 37.8293L180.417 22.7933C180.202 21.9579 179.836 21.1771 179.34 20.4959C178.843 19.8147 178.227 19.2469 177.526 18.8253Z" fill="#263238"/>
<path d="M179.586 20.8547L176.719 20.2998C178.286 24.3153 178.712 33.5617 179.61 37.8218C180.667 36.1608 183.123 31.1123 182.987 29.1046C182.852 27.0969 182.994 20.5115 179.586 20.8547Z" fill="#263238"/>
<path d="M181.228 27.4331C181.042 24.3375 179.134 20.5411 176.28 20.8624L169.677 22.6876C168.66 22.9668 167.753 23.5912 167.089 24.4691C166.425 25.347 166.04 26.432 165.989 27.5645C165.989 27.6813 165.989 27.539 165.989 27.6266L167.465 46.1122L172.423 56.7459L176.813 47.7768C176.813 46.2692 176.813 42.8853 176.813 42.8926C176.813 42.8999 180.474 42.2282 181.204 37.0519C181.562 34.5039 181.43 30.8718 181.228 27.4331Z" fill="#FFBF9D"/>
<path d="M179.181 31.6669C179.184 31.8397 179.124 32.0068 179.014 32.1323C178.904 32.2579 178.753 32.3319 178.593 32.3386C178.515 32.3451 178.437 32.3348 178.363 32.3083C178.289 32.2818 178.22 32.2397 178.161 32.1843C178.102 32.129 178.054 32.0615 178.019 31.9859C177.984 31.9102 177.963 31.8279 177.958 31.7436C177.957 31.5707 178.018 31.4042 178.128 31.2789C178.239 31.1537 178.39 31.0795 178.549 31.0719C178.627 31.066 178.705 31.0766 178.779 31.1034C178.853 31.1301 178.921 31.1723 178.98 31.2276C179.038 31.2829 179.086 31.3501 179.121 31.4255C179.155 31.5009 179.176 31.583 179.181 31.6669Z" fill="#263238"/>
<path d="M180.512 29.4553C180.434 29.5429 179.972 29.1706 179.31 29.1742C178.648 29.1779 178.168 29.5393 178.097 29.448C178.026 29.3567 178.141 29.2545 178.35 29.083C178.634 28.8672 178.973 28.7524 179.32 28.7544C179.663 28.753 179.998 28.8694 180.276 29.0866C180.478 29.2618 180.549 29.4151 180.512 29.4553Z" fill="#263238"/>
<path d="M173.662 31.667C173.665 31.8398 173.605 32.0068 173.495 32.1324C173.386 32.258 173.235 32.332 173.075 32.3387C172.997 32.3451 172.918 32.3348 172.844 32.3083C172.77 32.2818 172.701 32.2397 172.642 32.1844C172.583 32.129 172.535 32.0616 172.5 31.9859C172.465 31.9103 172.445 31.8279 172.44 31.7436C172.439 31.5708 172.5 31.4042 172.61 31.279C172.72 31.1537 172.871 31.0795 173.031 31.072C173.109 31.065 173.187 31.075 173.261 31.1013C173.335 31.1277 173.404 31.1698 173.463 31.2253C173.522 31.2808 173.57 31.3484 173.604 31.4243C173.638 31.5002 173.658 31.5827 173.662 31.667Z" fill="#263238"/>
<path d="M174.25 29.4553C174.176 29.5429 173.71 29.1706 173.051 29.1742C172.392 29.1779 171.909 29.5393 171.838 29.448C171.768 29.3568 171.879 29.2546 172.092 29.083C172.375 28.8666 172.714 28.7517 173.061 28.7544C173.404 28.7531 173.739 28.8694 174.017 29.0866C174.22 29.2619 174.287 29.4152 174.25 29.4553Z" fill="#263238"/>
<path d="M176.31 35.0512C176.657 34.9317 177.017 34.8606 177.381 34.8395C177.55 34.8395 177.719 34.7847 177.719 34.6606C177.734 34.4724 177.695 34.2839 177.607 34.1203C177.449 33.6823 177.27 33.2187 177.107 32.7368C176.412 30.7656 175.908 29.1448 175.983 29.1156C176.057 29.0864 176.702 30.6488 177.378 32.631C177.543 33.1165 177.715 33.5801 177.857 34.0218C177.966 34.2461 177.997 34.505 177.945 34.7519C177.921 34.816 177.883 34.8733 177.835 34.9194C177.787 34.9656 177.73 34.9994 177.668 35.0184C177.576 35.0452 177.48 35.0599 177.384 35.0622C177.027 35.1067 176.667 35.103 176.31 35.0512Z" fill="#263238"/>
<path d="M170.45 41.0635C170.45 41.0635 172.004 44.608 176.783 44.1152V42.8996C174.555 42.935 172.363 42.2992 170.45 41.0635Z" fill="#FF9A6C"/>
<path d="M174.044 26.8819C173.98 27.0754 173.321 26.9841 172.548 27.0864C171.774 27.1886 171.149 27.4185 171.048 27.247C171.001 27.163 171.109 26.9805 171.362 26.7943C171.696 26.5583 172.077 26.4119 172.473 26.3672C172.869 26.3168 173.271 26.3668 173.646 26.5132C173.929 26.6337 174.071 26.7907 174.044 26.8819Z" fill="#263238"/>
<path d="M180.296 27.2757C180.181 27.4399 179.725 27.2757 179.181 27.2757C178.637 27.2757 178.168 27.3852 178.063 27.2173C178.019 27.1369 178.09 26.9727 178.293 26.8194C178.564 26.6359 178.879 26.5432 179.199 26.5529C179.519 26.5627 179.829 26.6744 180.09 26.8741C180.282 27.0311 180.346 27.1954 180.296 27.2757Z" fill="#263238"/>
<path d="M179.931 22.7209C179.762 22.3415 179.499 22.0202 179.171 21.7927C178.843 21.5652 178.463 21.4405 178.073 21.4323C177.293 21.4334 176.529 21.6753 175.871 22.1295C173.027 23.9036 171.565 28.1965 168.755 30.0363C168.063 30.4889 167.164 30.0728 166.577 30.6715C165.989 31.2701 165.607 32.2302 165.932 33.0296C165.529 32.4878 165.201 31.8867 164.956 31.2446C164.836 30.9223 164.781 30.5763 164.795 30.2294C164.809 29.8826 164.892 29.543 165.037 29.2332C165.28 28.7769 165.712 28.4301 165.827 27.919C165.932 27.47 165.766 27.0028 165.783 26.5392C165.832 26.0689 165.982 25.6175 166.222 25.2214C167.323 23.1188 168.836 21.2059 170.788 20.0305C172.061 19.2364 173.51 18.8314 174.98 18.8587C176.455 18.897 177.868 19.5043 178.965 20.5708C179.597 21.2059 180.255 21.8594 179.931 22.7209Z" fill="#263238"/>
<path d="M166.644 31.3128C166.594 31.1631 164.104 30.1921 164.07 33.0541C164.037 35.832 166.634 35.2881 166.641 35.2078C166.648 35.1275 166.644 31.3128 166.644 31.3128Z" fill="#FFBF9D"/>
<path d="M165.854 34.1457C165.854 34.1457 165.81 34.1786 165.732 34.2151C165.679 34.2396 165.621 34.2522 165.563 34.2522C165.505 34.2522 165.448 34.2396 165.394 34.2151C165.124 34.1056 164.898 33.6383 164.891 33.1199C164.887 32.8823 164.932 32.6466 165.023 32.43C165.048 32.3443 165.092 32.2663 165.15 32.2028C165.209 32.1392 165.281 32.092 165.361 32.065C165.412 32.0503 165.467 32.0558 165.515 32.0805C165.563 32.1052 165.602 32.1476 165.624 32.2C165.658 32.2767 165.624 32.3315 165.655 32.3388C165.685 32.3461 165.709 32.2913 165.688 32.1781C165.677 32.1086 165.642 32.0462 165.59 32.0029C165.52 31.9446 165.432 31.9184 165.344 31.9299C165.238 31.9505 165.139 32.0003 165.056 32.0745C164.973 32.1487 164.909 32.2447 164.871 32.3534C164.758 32.5927 164.702 32.8587 164.709 33.1272C164.709 33.6894 164.982 34.2224 165.351 34.3355C165.42 34.358 165.493 34.3634 165.564 34.3514C165.635 34.3394 165.703 34.3103 165.763 34.2662C165.85 34.2114 165.864 34.1494 165.854 34.1457Z" fill="#FF9A6C"/>
<path d="M165.621 29.8829C165.675 29.8571 165.727 29.8253 165.776 29.788C165.874 29.7223 166.026 29.6311 166.208 29.4923C166.714 29.0911 167.179 28.6335 167.596 28.1271C168.2 27.3675 168.764 26.5717 169.285 25.7434C169.918 24.7281 170.629 23.7719 171.409 22.8851C171.819 22.443 172.272 22.0501 172.76 21.7133C173.225 21.4065 173.721 21.1613 174.24 20.9832C175.119 20.6758 176.044 20.5519 176.965 20.6182C177.586 20.6532 178.201 20.7759 178.792 20.9832C179.002 21.0526 179.161 21.1329 179.269 21.1767C179.323 21.2026 179.38 21.2233 179.438 21.2388L179.279 21.1512C179.125 21.0713 178.967 21.0006 178.806 20.9394C178.216 20.7035 177.599 20.5585 176.972 20.5087C176.039 20.4294 175.102 20.5446 174.209 20.8482C173.681 21.0225 173.175 21.2677 172.703 21.5783C172.2 21.9189 171.733 22.3166 171.308 22.7646C170.522 23.6557 169.81 24.6194 169.18 25.6448C168.661 26.4733 168.103 27.2725 167.509 28.0395C167.1 28.5464 166.648 29.0097 166.158 29.423C165.982 29.569 165.82 29.6639 165.739 29.7369C165.696 29.7826 165.657 29.8314 165.621 29.8829Z" fill="#455A64"/>
<path d="M166.269 30.6704C166.228 31.4297 166.195 32.2292 166.519 32.9045C166.843 33.5798 167.664 34.0398 168.275 33.6601C168.772 33.3535 168.921 32.6636 169.005 32.0503C169.252 30.2799 169.363 28.4875 169.62 26.7207L166.269 30.6704Z" fill="#263238"/>
<path d="M179.296 21.395C179.296 21.395 179.069 21.3512 178.657 21.3366C178.079 21.325 177.505 21.4392 176.969 21.6725C176.594 21.8278 176.237 22.0261 175.901 22.2638C175.518 22.5426 175.15 22.8462 174.8 23.1728C173.993 23.9142 173.271 24.7574 172.649 25.6843C172.311 26.1807 172.034 26.6881 171.72 27.1444C171.424 27.6042 171.078 28.0244 170.69 28.3965C170.022 29.0071 169.292 29.5348 168.515 29.9698C167.84 30.3349 167.306 30.6087 166.928 30.7912L166.489 30.992C166.438 31.0178 166.384 31.0386 166.33 31.054C166.33 31.054 166.377 31.0175 166.475 30.9628L166.904 30.7328C167.276 30.5357 167.819 30.2582 168.468 29.8713C169.23 29.4284 169.946 28.8972 170.602 28.287C170.985 27.9212 171.325 27.5069 171.615 27.0532C171.923 26.5859 172.213 26.0749 172.544 25.593C173.172 24.6545 173.906 23.8046 174.729 23.0633C175.085 22.7354 175.459 22.433 175.851 22.158C176.194 21.9183 176.561 21.72 176.945 21.5666C177.501 21.34 178.094 21.2406 178.688 21.2746C178.848 21.284 179.007 21.3084 179.164 21.3476C179.209 21.3589 179.253 21.3748 179.296 21.395Z" fill="#455A64"/>
<path d="M166.199 28.9512C166.128 29.0154 166.051 29.0716 165.969 29.1191L165.317 29.5316L165.097 29.6667C165.012 29.7212 164.916 29.756 164.817 29.7689C164.757 29.7756 164.696 29.7602 164.645 29.7251C164.618 29.7059 164.595 29.6806 164.577 29.6511C164.56 29.6215 164.548 29.5882 164.544 29.5535C164.546 29.4208 164.589 29.2926 164.665 29.1885L165.422 27.878L165.523 27.9839C165.274 28.1837 164.993 28.3345 164.696 28.4292C164.398 28.5249 164.087 28.5644 163.777 28.546C163.697 28.5439 163.619 28.5292 163.544 28.5022C163.499 28.4892 163.458 28.4653 163.424 28.4324C163.389 28.3995 163.362 28.3584 163.344 28.3124C163.329 28.2655 163.325 28.2154 163.332 28.1664C163.339 28.1174 163.357 28.071 163.385 28.0313C163.429 27.9691 163.479 27.9117 163.534 27.8597C163.872 27.5043 164.166 27.1031 164.408 26.6661C164.622 26.2535 164.808 25.8254 164.966 25.3848C164.952 25.5095 164.925 25.6321 164.885 25.7498C164.785 26.0843 164.655 26.4072 164.496 26.7135C164.261 27.1693 163.968 27.5871 163.625 27.9547C163.53 28.0532 163.436 28.1664 163.473 28.254C163.51 28.3416 163.648 28.3854 163.783 28.3854C164.375 28.4182 164.96 28.23 165.439 27.8524L165.746 27.6079L165.54 27.9729L164.77 29.2725C164.71 29.3489 164.672 29.4429 164.662 29.5426C164.662 29.6229 164.726 29.6667 164.807 29.6594C164.972 29.6245 165.129 29.5551 165.27 29.455L165.945 29.0899C166.024 29.0314 166.109 28.9847 166.199 28.9512Z" fill="#455A64"/>
<path d="M175.74 36.4024C175.613 36.2451 175.451 36.1246 175.27 36.0519C175.089 35.9793 174.894 35.9567 174.703 35.9863C174.564 36.0039 174.429 36.0515 174.307 36.1261C174.186 36.2007 174.079 36.3008 173.993 36.4207C173.912 36.5355 173.866 36.6748 173.861 36.8194C173.856 36.9639 173.893 37.1065 173.966 37.2274C174.074 37.3446 174.211 37.4255 174.36 37.4605C174.509 37.4955 174.665 37.483 174.807 37.4245C175.102 37.3006 175.372 37.1159 175.601 36.8806C175.671 36.8253 175.731 36.7559 175.777 36.6762C175.8 36.6389 175.812 36.5951 175.812 36.5502C175.812 36.5054 175.8 36.4616 175.777 36.4243" fill="#FF9A6C"/>
<path d="M174.108 35.2994C174.213 35.2994 174.233 36.0295 174.838 36.5186C175.442 37.0078 176.189 36.9165 176.189 37.0187C176.189 37.0625 176.03 37.1647 175.719 37.183C175.319 37.2063 174.923 37.0772 174.601 36.8179C174.294 36.5701 174.089 36.2017 174.03 35.7922C174 35.4782 174.061 35.2957 174.108 35.2994Z" fill="#263238"/>
<path d="M183.703 84.7075L186.469 91.4608L173.044 96.8889L170.042 89.6283L183.703 84.7075Z" fill="#263238"/>
<path d="M210.83 125.8L214.502 134.368C214.502 134.368 223.671 133.054 224.492 134.569L209.503 143.012L203.272 129.918L210.83 125.8Z" fill="#455A64"/>
<path d="M209.611 136.197C209.488 136.326 209.413 136.5 209.4 136.685C209.388 136.87 209.439 137.054 209.544 137.201C209.658 137.338 209.817 137.423 209.988 137.439C210.158 137.454 210.328 137.399 210.462 137.285C210.593 137.148 210.672 136.964 210.685 136.768C210.697 136.572 210.642 136.378 210.53 136.223C210.397 136.092 210.222 136.021 210.042 136.026C209.862 136.031 209.691 136.11 209.564 136.248" fill="#E0E0E0"/>
<path d="M209.5 143.012L209.007 141.987L223.708 134.105C223.884 134.122 224.055 134.177 224.21 134.267C224.365 134.358 224.501 134.482 224.61 134.631L209.5 143.012Z" fill="#263238"/>
<path d="M214.667 134.346C214.701 134.427 214.346 134.668 214.103 135.124C213.86 135.58 213.823 136.029 213.738 136.037C213.654 136.044 213.546 135.515 213.853 134.967C214.161 134.419 214.647 134.262 214.667 134.346Z" fill="#263238"/>
<path d="M216.596 134.182C216.65 134.251 216.393 134.565 216.302 135.043C216.211 135.522 216.302 135.92 216.228 135.956C216.153 135.993 215.89 135.565 216.018 134.974C216.147 134.383 216.556 134.105 216.596 134.182Z" fill="#263238"/>
<path d="M218.474 135.751C218.416 135.803 218.136 135.459 218.105 134.916C218.075 134.372 218.355 134.003 218.42 134.054C218.484 134.105 218.379 134.456 218.396 134.905C218.413 135.354 218.545 135.7 218.474 135.751Z" fill="#263238"/>
<path d="M213.62 132.496C213.62 132.583 213.232 132.66 212.827 132.923C212.421 133.186 212.151 133.507 212.087 133.459C212.023 133.412 212.198 132.952 212.678 132.653C213.158 132.353 213.627 132.397 213.62 132.496Z" fill="#263238"/>
<path d="M213.04 130.517C213.04 130.55 212.786 130.761 212.276 130.933C211.977 131.031 211.667 131.089 211.354 131.104C211.17 131.119 210.985 131.119 210.8 131.104C210.685 131.101 210.571 131.079 210.462 131.039C210.386 131.009 210.322 130.953 210.279 130.878C210.236 130.804 210.217 130.717 210.226 130.63C210.237 130.553 210.264 130.48 210.306 130.417C210.347 130.353 210.402 130.301 210.466 130.265C210.561 130.211 210.664 130.173 210.77 130.152C210.953 130.107 211.139 130.079 211.327 130.068C211.644 130.052 211.961 130.091 212.266 130.181C212.783 130.342 213.046 130.575 213.026 130.604C213.006 130.634 212.715 130.491 212.219 130.396C211.93 130.343 211.636 130.329 211.344 130.356C211.174 130.373 211.006 130.404 210.841 130.451C210.655 130.491 210.503 130.568 210.503 130.666C210.503 130.707 210.503 130.718 210.564 130.75C210.64 130.778 210.72 130.794 210.8 130.798C210.973 130.818 211.147 130.828 211.32 130.827C211.615 130.823 211.909 130.79 212.199 130.729C212.474 130.636 212.755 130.565 213.04 130.517Z" fill="#263238"/>
<path d="M196.567 139.566L196.101 148.995C196.101 148.995 204.771 152.474 204.842 154.226L187.938 154.106L188.104 139.384L196.567 139.566Z" fill="#455A64"/>
<path d="M190.988 148.141C190.822 148.191 190.68 148.306 190.588 148.463C190.496 148.62 190.462 148.809 190.492 148.992C190.534 149.171 190.638 149.326 190.782 149.426C190.926 149.525 191.1 149.562 191.269 149.528C191.444 149.474 191.594 149.351 191.69 149.184C191.786 149.017 191.821 148.817 191.789 148.623C191.728 148.44 191.604 148.29 191.443 148.204C191.281 148.118 191.095 148.103 190.924 148.163" fill="#E0E0E0"/>
<path d="M187.938 154.106V152.934L204.342 153.405C204.49 153.508 204.617 153.643 204.715 153.801C204.814 153.959 204.881 154.138 204.913 154.325L187.938 154.106Z" fill="#263238"/>
<path d="M196.254 149.058C196.254 149.149 195.835 149.182 195.419 149.463C195.004 149.744 194.781 150.12 194.703 150.083C194.626 150.047 194.761 149.529 195.267 149.196C195.774 148.864 196.291 148.977 196.254 149.058Z" fill="#263238"/>
<path d="M198.034 149.89C198.051 149.981 197.696 150.127 197.399 150.503C197.101 150.879 197.02 151.277 196.936 151.273C196.851 151.27 196.811 150.759 197.176 150.299C197.54 149.839 198.034 149.806 198.034 149.89Z" fill="#263238"/>
<path d="M199.013 152.226C198.935 152.244 198.827 151.792 199.05 151.302C199.273 150.813 199.665 150.623 199.699 150.7C199.733 150.777 199.486 151.036 199.31 151.43C199.135 151.824 199.094 152.208 199.013 152.226Z" fill="#263238"/>
<path d="M196.139 146.882C196.102 146.962 195.724 146.831 195.251 146.857C194.778 146.882 194.41 147.035 194.369 146.959C194.329 146.882 194.683 146.565 195.241 146.543C195.798 146.521 196.183 146.813 196.139 146.882Z" fill="#263238"/>
<path d="M196.477 144.855C196.195 144.93 195.9 144.922 195.622 144.833C195.314 144.768 195.015 144.663 194.731 144.519C194.563 144.434 194.4 144.336 194.244 144.227C194.149 144.168 194.064 144.093 193.991 144.005C193.937 143.94 193.905 143.858 193.9 143.771C193.894 143.685 193.916 143.598 193.96 143.526C194.003 143.465 194.059 143.414 194.123 143.38C194.187 143.345 194.257 143.326 194.329 143.326C194.437 143.329 194.545 143.347 194.65 143.38C195.138 143.525 195.586 143.798 195.953 144.176C196.342 144.581 196.474 144.906 196.443 144.936C196.413 144.965 196.217 144.68 195.818 144.344C195.587 144.151 195.334 143.99 195.065 143.866C194.907 143.794 194.743 143.736 194.575 143.694C194.396 143.64 194.237 143.636 194.194 143.72C194.15 143.804 194.173 143.767 194.21 143.826C194.267 143.888 194.33 143.942 194.4 143.986C194.543 144.091 194.692 144.187 194.845 144.275C195.109 144.422 195.383 144.545 195.666 144.64C195.941 144.69 196.212 144.762 196.477 144.855Z" fill="#263238"/>
<path d="M157.906 94.3012C157.906 94.3012 191.778 89.7163 193.774 89.7163C198.459 89.7163 201.401 93.5748 202.1 96.5535C202.616 98.7438 213.042 130.594 213.042 130.594L205.352 134.901L194.041 113.177L188.276 102.339L158.555 107.3L157.906 94.3012Z" fill="#263238"/>
<path d="M189.674 101.339C189.674 101.339 194.318 101.339 196.824 105.354C198.297 107.716 197.78 111.925 197.811 115.112C197.851 119.445 196.882 145.845 196.882 145.845L187.388 146.016L185.399 118.503L185.514 113.418L166.57 111.746C166.57 111.746 164.844 105.541 169.089 100.634C169.609 100.007 189.674 101.339 189.674 101.339Z" fill="#263238"/>
<path d="M160.801 85.4487C160.801 85.4487 153.314 97.9039 157.907 107.264C160.096 111.721 166.644 111.717 166.644 111.717L173.362 102.628V87.5952L160.801 85.4487Z" fill="#263238"/>
<path d="M166.644 111.717C166.685 111.689 166.728 111.664 166.772 111.644L167.151 111.454L168.61 110.724L174.014 108.129L182.015 104.307L186.743 102.054C187.158 101.868 187.557 101.646 187.996 101.485C188.436 101.321 188.888 101.199 189.347 101.12C190.285 100.969 191.237 100.96 192.177 101.094C193.12 101.216 194.04 101.496 194.903 101.927C195.326 102.142 195.72 102.421 196.071 102.755C196.413 103.092 196.704 103.485 196.933 103.92C197.38 104.76 197.651 105.696 197.726 106.661C197.763 107.136 197.726 107.592 197.726 108.048C197.726 108.505 197.726 108.954 197.726 109.399C197.686 112.958 197.652 116.16 197.625 118.854C197.598 121.548 197.561 123.712 197.54 125.227C197.54 125.957 197.517 126.552 197.51 126.961C197.51 127.151 197.51 127.301 197.51 127.41C197.514 127.461 197.514 127.513 197.51 127.564C197.507 127.513 197.507 127.461 197.51 127.41C197.51 127.301 197.51 127.151 197.51 126.961C197.51 126.552 197.51 125.972 197.51 125.227C197.51 123.712 197.51 121.537 197.534 118.854C197.557 116.171 197.571 112.955 197.594 109.399C197.594 108.954 197.594 108.505 197.594 108.048C197.594 107.592 197.615 107.129 197.578 106.676C197.504 105.74 197.24 104.834 196.804 104.022C196.586 103.605 196.308 103.228 195.98 102.905C195.641 102.584 195.261 102.317 194.852 102.113C194.009 101.692 193.11 101.416 192.187 101.295C191.265 101.165 190.331 101.173 189.411 101.321C188.963 101.401 188.522 101.523 188.094 101.686C187.672 101.843 187.263 102.051 186.851 102.252L182.123 104.493L174.108 108.275L168.704 110.808L167.228 111.487L166.843 111.659C166.78 111.69 166.713 111.709 166.644 111.717Z" fill="#455A64"/>
<path d="M193.106 89.7162C193.106 89.7673 185.996 90.6325 177.215 91.6473C168.434 92.6621 161.311 93.4433 161.304 93.3922C161.297 93.3411 168.414 92.4759 177.195 91.4611C185.976 90.4463 193.099 89.6651 193.106 89.7162Z" fill="#455A64"/>
<path d="M184.733 71.5711C185.284 69.6765 187.209 62.7042 186.777 59.0282C186.439 56.1079 183.997 52.3334 183.271 50.3257C182.933 49.3802 180.194 48.4055 178.563 47.8835L176.942 45.8138L176.807 46.8249C176.329 47.4155 175.73 47.8777 175.058 48.1749C174.387 48.472 173.66 48.596 172.936 48.537C170.528 48.3033 168.546 47.2411 167.238 45.6714C160.984 47.7339 161.004 48.1938 159.808 48.7085C158.261 49.3729 162.888 65.3946 162.888 65.3946C162.888 65.3946 164.547 75.4587 162.986 78.85C162.108 80.7591 161.092 82.9384 160.345 84.7125C160.345 84.7125 158.265 88.9981 158.711 88.8886C159.646 88.655 166.141 90.3488 172.244 90.7138C183.528 91.3563 185.686 89.5493 185.686 89.5493C185.095 86.4282 184.105 75.4879 184.109 73.3634C184.102 72.9947 184.635 71.8996 184.733 71.5711Z" fill="#007BFF"/>
<path d="M177.141 46.313C177.141 46.313 184.494 48.3609 185.213 49.4195C187.169 52.2924 198.949 71.9498 193.167 77.8124C189.377 81.6526 184.048 73.5487 184.048 73.5487L177.141 46.313Z" fill="#007BFF"/>
<path d="M192.461 69.4635C192.287 69.447 192.114 69.4152 191.944 69.3686L190.536 69.0547C189.337 68.7919 187.658 68.4195 185.733 68.1202L185.834 68.0581L185.257 69.5986L183.886 73.2162V73.1249L186.013 75.8846L186.604 76.6731C186.678 76.7636 186.744 76.8614 186.8 76.9651C186.8 76.9651 187.344 77.2353 186.564 76.7096L185.932 75.954L183.751 73.2417L183.717 73.1979L183.737 73.1504L185.088 69.5219C185.287 68.9963 185.483 68.4816 185.669 67.9851L185.696 67.9121H185.774C187.709 68.2224 189.384 68.6166 190.576 68.916C191.174 69.0656 191.647 69.1934 191.975 69.281C192.141 69.3289 192.303 69.3899 192.461 69.4635Z" fill="#263238"/>
<path d="M185.389 68.5397C185.39 68.323 185.408 68.1068 185.443 67.8935C185.497 67.4482 185.564 66.8568 185.649 66.145C185.901 64.2326 185.961 62.2964 185.828 60.37C185.644 58.4426 185.129 56.5694 184.308 54.847C184 54.1826 183.72 53.6569 183.524 53.2955C183.414 53.1134 183.316 52.9232 183.23 52.7261C183.23 52.7261 183.271 52.7699 183.332 52.8575C183.392 52.9451 183.48 53.0802 183.588 53.2554C183.804 53.6204 184.102 54.1205 184.429 54.7849C185.295 56.5086 185.834 58.4008 186.017 60.3518C186.153 62.2922 186.073 64.2432 185.781 66.1632C185.683 66.8933 185.585 67.4956 185.517 67.9045C185.49 68.1195 185.447 68.3319 185.389 68.5397Z" fill="#263238"/>
<g opacity="0.3">
<path d="M161.304 83.2147L175.222 76.2789L174.28 73.3038L176.421 72.4204L179.91 72.9132C180.773 73.0363 181.651 72.9429 182.475 72.6403C183.299 72.3377 184.047 71.834 184.662 71.1683L175.993 68.7992L166.103 71.0771L163.591 63.2031L162.969 65.5102L163.486 70.4638L163.824 75.8153L161.304 83.2147Z" fill="black"/>
</g>
<path d="M159.977 48.627C159.12 49.0329 158.356 49.6388 157.741 50.4011C157.125 51.1635 156.673 52.0635 156.417 53.0367C155.94 54.1888 155.577 55.393 155.337 56.6287C154.165 62.2138 151.622 72.6905 151.527 75.4867C151.345 80.5169 155.046 81.9443 157.046 82.3823C159.045 82.8204 172.919 75.0596 172.919 75.0596L170.035 66.587L161.555 70.3798C161.555 70.3798 163.49 63.9185 164.05 61.2756C164.611 58.6327 159.977 48.627 159.977 48.627Z" fill="#007BFF"/>
<path d="M185.784 67.1239C185.615 66.2941 185.589 65.4379 185.706 64.5978C185.804 64.0936 185.821 63.5751 185.757 63.0647C185.669 62.5646 185.237 62.0352 184.767 62.0754L184.058 65.7587L185.784 67.1239Z" fill="#FFBF9D"/>
<path d="M185.456 58.4795L182.96 71.4969L177.04 71.1099L178.793 58.2313C178.815 58.0672 178.892 57.9174 179.009 57.8095C179.125 57.7015 179.274 57.6426 179.428 57.6436H184.831C184.927 57.6434 185.021 57.6664 185.107 57.7107C185.193 57.7551 185.269 57.8197 185.329 57.8999C185.389 57.9801 185.431 58.0738 185.453 58.1741C185.475 58.2744 185.476 58.3788 185.456 58.4795Z" fill="#263238"/>
<path d="M178.799 61.8641C178.84 61.7457 178.87 61.6235 178.89 61.4991C178.941 61.2253 179.008 60.8712 179.09 60.4441L179.37 58.8817C179.37 58.8087 179.393 58.7284 179.41 58.67C179.433 58.6071 179.469 58.5508 179.515 58.5057C179.562 58.4573 179.62 58.4243 179.684 58.4108C179.754 58.405 179.824 58.405 179.893 58.4108H180.829C182.109 58.4108 183.271 58.3889 184.108 58.3743L185.122 58.3451C185.244 58.3497 185.366 58.3399 185.486 58.3159C185.365 58.2996 185.243 58.2923 185.122 58.294H184.108C183.271 58.294 182.109 58.294 180.829 58.294H179.893C179.815 58.2855 179.736 58.2855 179.657 58.294C179.575 58.3132 179.5 58.3546 179.437 58.4145C179.377 58.4746 179.33 58.5498 179.302 58.6335C179.283 58.7104 179.267 58.7884 179.255 58.8671C179.16 59.4512 179.076 59.9805 179.002 60.4368L178.843 61.4954C178.819 61.6169 178.805 61.7402 178.799 61.8641Z" fill="#455A64"/>
<path d="M181.964 59.0232C181.99 58.9529 182.038 58.895 182.1 58.8601C182.162 58.8252 182.234 58.8157 182.302 58.8333C182.356 58.8489 182.404 58.881 182.441 58.9257C182.479 58.9704 182.503 59.0258 182.511 59.0852C182.514 59.1501 182.5 59.2143 182.471 59.2714C182.443 59.3285 182.401 59.3764 182.349 59.4101C182.296 59.442 182.236 59.4559 182.175 59.4501C182.115 59.4442 182.058 59.4188 182.011 59.3772C181.969 59.3319 181.941 59.2728 181.932 59.2088C181.924 59.1449 181.935 59.0797 181.964 59.0232Z" fill="#FAFAFA"/>
<path d="M182.126 62.9511C182.265 62.9877 185.396 64.7362 185.396 64.7362L187.03 66.5979C187.03 66.5979 187.621 67.693 187.142 69.3576C186.662 71.0222 185.882 71.6318 184.082 72.1137L180.681 71.5333L178.958 70.0074C178.794 69.8598 178.674 69.6625 178.613 69.4407C178.553 69.219 178.556 68.9829 178.62 68.7626L178.644 68.6859L178.448 68.3209C178.388 68.2127 178.359 68.0878 178.365 67.9619C178.37 67.8359 178.41 67.7145 178.479 67.6127C178.572 67.4763 178.711 67.3851 178.866 67.3592C179.021 67.3332 179.179 67.3745 179.306 67.474L181.245 69.0072L182.579 69.197L182.778 68.7261L180.823 67.631L178.337 65.5502C178.259 65.4852 178.193 65.4036 178.145 65.3104C178.097 65.2173 178.066 65.1146 178.056 65.0084C178.046 64.9023 178.055 64.7949 178.084 64.6929C178.113 64.5909 178.161 64.4963 178.225 64.415C178.337 64.2729 178.491 64.1781 178.661 64.1473C178.831 64.1166 179.006 64.1519 179.154 64.247L181.464 65.7072L183.876 66.8571L183.494 65.8204L180.66 63.5535C180.66 63.5535 180.417 62.4839 182.126 62.9511Z" fill="#FFBF9D"/>
<path d="M181.842 61.1663C181.842 61.1663 181.191 60.7611 180.106 61.2466C179.022 61.7321 177.638 62.4658 177.638 62.4658L175.56 63.1046L175.807 62.5498C175.807 62.5498 177.857 62.7761 177.759 61.1626L176.523 61.221L175.462 60.6333L173.372 62.8235L172.585 65.93L170.285 67.2223L172.092 72.5373L175.338 70.5916L179.39 70.5077L180.88 69.2045L181.045 67.5508L182.504 65.9447C182.504 65.9447 182.687 65.1416 182.015 65.0649C181.342 64.9882 179.725 66.7258 179.725 66.7258L178.1 66.766C178.1 66.766 177.823 66.4922 178.05 66.3352C178.276 66.1783 183.062 63.6376 183.274 63.0681C183.487 62.4987 183.707 62.1263 183.23 61.973C182.805 61.904 182.37 61.9491 181.964 62.1044C181.964 62.1044 182.204 61.2904 181.842 61.1663Z" fill="#FFBF9D"/>
<path d="M177.874 64.3415C178.602 64.0167 179.313 63.6512 180.005 63.2464C180.717 62.8883 181.41 62.4899 182.083 62.0527C181.355 62.3708 180.644 62.7302 179.951 63.1296C179.239 63.4927 178.546 63.8973 177.874 64.3415Z" fill="#FF9A6C"/>
<path d="M176.908 68.4711C176.985 68.5105 177.067 68.5387 177.151 68.5551C177.31 68.5989 177.543 68.6646 177.826 68.7194C178.168 68.7871 178.516 68.8128 178.863 68.796C179.292 68.771 179.712 68.6465 180.093 68.431C180.769 68.0221 181.357 67.4606 181.815 66.7847C181.994 66.5328 182.133 66.3247 182.224 66.1787C182.277 66.1056 182.323 66.026 182.359 65.9414C182.141 66.1904 181.935 66.4525 181.744 66.7262C181.277 67.3712 180.698 67.9107 180.039 68.3142C179.672 68.5224 179.27 68.6466 178.856 68.6792C178.518 68.702 178.179 68.6861 177.843 68.6318C177.269 68.5332 176.911 68.4492 176.908 68.4711Z" fill="#FF9A6C"/>
<path d="M170.285 67.2219L170.43 67.1306L170.869 66.8715L172.558 65.9005L172.538 65.926L173.308 62.8122L175.388 60.622L175.422 60.5854L175.462 60.611L176.526 61.1951H176.493L177.729 61.133H177.803V61.2097C177.823 61.4615 177.777 61.7143 177.671 61.9398C177.55 62.143 177.378 62.305 177.175 62.407C176.737 62.6125 176.258 62.693 175.783 62.6406L175.861 62.5932L175.618 63.1517L175.523 63.0312L177.6 62.3851L179.627 61.3885C180.275 61.0235 181.109 60.7023 181.903 61.0819C181.951 61.1007 181.994 61.1298 182.031 61.1675C182.067 61.2052 182.096 61.2506 182.116 61.3009C182.151 61.391 182.168 61.488 182.167 61.5857C182.168 61.771 182.144 61.9555 182.096 62.1332L181.984 62.0164C182.225 61.933 182.473 61.8756 182.724 61.8448C182.997 61.7919 183.278 61.8463 183.518 61.9982C183.586 62.0544 183.632 62.1366 183.646 62.2281C183.66 62.309 183.66 62.3919 183.646 62.4727C183.609 62.6108 183.564 62.7462 183.511 62.8779L183.436 63.0714C183.421 63.1093 183.403 63.1459 183.382 63.1809C183.359 63.2129 183.335 63.2434 183.308 63.2722C183.209 63.3708 183.104 63.4623 182.994 63.5459C182.136 64.144 181.249 64.6947 180.339 65.1959L179.019 65.926C178.803 66.0501 178.587 66.1669 178.37 66.291C178.272 66.3495 178.127 66.4152 178.114 66.4626C178.1 66.5101 178.151 66.6269 178.222 66.6999L178.161 66.6743L179.786 66.6342L179.728 66.6597C180.205 66.1471 180.727 65.6872 181.288 65.2872C181.429 65.1898 181.579 65.1079 181.734 65.0426C181.9 64.9703 182.083 64.9612 182.254 65.017C182.342 65.0459 182.423 65.0975 182.488 65.1675C182.553 65.2375 182.602 65.3237 182.629 65.4186C182.671 65.5983 182.671 65.7865 182.629 65.9662V65.9881L181.093 67.6052L181.113 67.5577C181.055 68.1272 180.998 68.6784 180.944 69.215V69.2442L180.924 69.2625L179.428 70.5584H179.411H179.404L175.334 70.6277H175.358L172.943 72.0477L172.308 72.4128L172.146 72.504C172.109 72.526 172.088 72.5332 172.088 72.5296L172.139 72.4931L172.298 72.3909L172.919 72.0039L175.314 70.5438H175.334L179.387 70.4416H179.35L180.836 69.1347L180.809 69.1858C180.863 68.6529 180.917 68.1016 180.971 67.5322V67.5176L180.988 67.4993L182.444 65.8895L182.423 65.9297C182.484 65.634 182.423 65.2616 182.14 65.1996C181.992 65.1769 181.841 65.188 181.697 65.232C181.554 65.276 181.42 65.352 181.305 65.4551C180.756 65.8485 180.244 66.301 179.779 66.8058L179.755 66.8313H179.742L178.12 66.8788H178.083L178.06 66.8532C178.009 66.8012 177.965 66.7408 177.931 66.6743C177.91 66.6342 177.897 66.5895 177.894 66.5435C177.89 66.4975 177.896 66.4512 177.911 66.4079C177.949 66.3316 178.01 66.2712 178.083 66.2363L178.245 66.145L178.894 65.78L180.211 65.0499C181.114 64.5509 181.994 64.0026 182.845 63.4072C182.943 63.3246 183.034 63.2343 183.119 63.1371C183.139 63.1171 183.157 63.0951 183.173 63.0714C183.188 63.0491 183.199 63.0244 183.207 62.9984L183.284 62.8049C183.372 62.564 183.507 62.2573 183.355 62.1478C183.149 62.0267 182.91 61.9867 182.68 62.0347C182.441 62.0617 182.206 62.1156 181.977 62.1953L181.822 62.25L181.866 62.0785C181.909 61.9195 181.93 61.7548 181.93 61.5893C181.93 61.4287 181.88 61.29 181.785 61.2608C181.444 61.1098 181.068 61.0741 180.708 61.1586C180.344 61.2459 179.993 61.3859 179.664 61.5747L177.661 62.5603L175.581 63.1991L175.412 63.2503L175.489 63.0787L175.736 62.5238L175.756 62.4727H175.814C176.259 62.5224 176.709 62.4495 177.121 62.261C177.308 62.1628 177.465 62.0065 177.57 61.812C177.66 61.6152 177.7 61.3958 177.685 61.1768L177.762 61.2498L176.526 61.3046H176.506L175.446 60.7096H175.523L173.429 62.8998V62.8743C173.115 64.0862 172.845 65.1339 172.625 65.9771V65.9954L170.91 66.9335L170.464 67.1708L170.285 67.2219Z" fill="#FF9A6C"/>
<path d="M161.558 80.919C161.625 80.8717 161.697 80.8302 161.77 80.7949L162.395 80.459L164.759 79.2398L172.902 75.0783L172.858 75.1915C172.332 73.6364 171.764 71.9536 171.17 70.2123C170.758 68.9785 170.352 67.7775 169.964 66.6167L170.079 66.6714L161.781 70.4387H161.764C161.084 70.5022 160.415 70.6643 159.774 70.9205C159.293 71.112 158.854 71.409 158.484 71.793C158.25 72.0364 158.064 72.3281 157.937 72.6508C157.897 72.7603 157.873 72.8479 157.856 72.9063C157.852 72.9377 157.844 72.9684 157.832 72.9976C157.826 72.9663 157.826 72.934 157.832 72.9027C157.849 72.8121 157.871 72.7231 157.9 72.6362C158.017 72.302 158.196 71.9975 158.427 71.7419C158.798 71.3415 159.242 71.0283 159.73 70.8219C160.381 70.5497 161.063 70.3765 161.757 70.3072H161.737L170.011 66.4926L170.096 66.4561L170.126 66.5473C170.518 67.7081 170.923 68.9091 171.335 70.1393C171.923 71.8806 172.487 73.5671 173.024 75.1221L173.051 75.2024L172.98 75.2389L164.813 79.3347L162.449 80.5101L161.811 80.8168C161.729 80.8564 161.644 80.8905 161.558 80.919Z" fill="#263238"/>
<path d="M164.389 57.6624C164.188 57.3153 164.004 56.9571 163.838 56.5892C163.5 55.9212 163.021 55.0195 162.423 54.0631C161.825 53.1067 161.227 52.289 160.778 51.705C160.523 51.403 160.284 51.0861 160.062 50.7559C160.062 50.7559 160.153 50.8216 160.295 50.9712C160.436 51.1209 160.632 51.3363 160.872 51.6174C162.103 53.0928 163.138 54.7451 163.949 56.5272C164.101 56.8666 164.22 57.1477 164.287 57.3485C164.336 57.447 164.37 57.5528 164.389 57.6624Z" fill="#263238"/>
<path d="M164.723 59.4507C164.709 59.6088 164.677 59.7645 164.628 59.9143C164.554 60.2063 164.442 60.6444 164.29 61.1445C164.003 62.1848 163.595 63.6158 163.128 65.1891C162.662 66.7625 162.216 68.1825 161.882 69.2046C161.713 69.712 161.575 70.1245 161.47 70.4092C161.427 70.5596 161.368 70.7041 161.294 70.84C161.318 70.6845 161.356 70.5317 161.406 70.3837C161.5 70.0588 161.622 69.6536 161.764 69.1608C162.081 68.0912 162.497 66.6858 162.959 65.1453C163.422 63.6049 163.851 62.1885 164.172 61.1299L164.554 59.9179C164.595 59.7562 164.651 59.5996 164.723 59.4507Z" fill="#263238"/>
</svg>
