<svg width="32" height="32" viewBox="0 0 32 32" fill="none" xmlns="http://www.w3.org/2000/svg">
<path d="M32.0001 16.3556C32.0001 15.04 31.8912 14.08 31.6555 13.0845H16.3267V19.0222H25.3243C25.143 20.4978 24.1634 22.72 21.9865 24.2133L21.956 24.4121L26.8026 28.0916L27.1384 28.1245C30.2223 25.3333 32.0001 21.2266 32.0001 16.3556Z" fill="#4285F4"/>
<path d="M16.3265 32.0001C20.7346 32.0001 24.4353 30.5778 27.1383 28.1245L21.9863 24.2133C20.6077 25.1556 18.7573 25.8133 16.3265 25.8133C12.0091 25.8133 8.34472 23.0223 7.03848 19.1646L6.84701 19.1805L1.80736 23.0027L1.74146 23.1823C4.42623 28.4089 9.94098 32.0001 16.3265 32.0001Z" fill="#34A853"/>
<path d="M7.03848 19.1643C6.69381 18.1688 6.49434 17.102 6.49434 15.9999C6.49434 14.8976 6.69381 13.8309 7.02034 12.8354L7.01121 12.6234L1.90841 8.73975L1.74145 8.81757C0.634927 10.9865 0 13.4221 0 15.9999C0 18.5776 0.634927 21.0131 1.74145 23.182L7.03848 19.1643Z" fill="#FBBC05"/>
<path d="M16.3265 6.18662C19.3922 6.18662 21.4602 7.48439 22.6394 8.56891L27.2471 4.16C24.4173 1.58223 20.7346 0 16.3265 0C9.94099 0 4.42623 3.59108 1.74146 8.81771L7.02035 12.8355C8.34473 8.97777 12.0091 6.18662 16.3265 6.18662Z" fill="#EB4335"/>
</svg>
